<svg width="40" height="40" viewBox="0 0 40 40" fill="none" xmlns="http://www.w3.org/2000/svg">
<rect width="40" height="40" rx="8" fill="#FDFFE8"/>
<path fill-rule="evenodd" clip-rule="evenodd" d="M24.2929 10.2929C25.788 8.79788 28.2121 8.79783 29.7072 10.293C31.2023 11.788 31.2023 14.2121 29.7071 15.7072L18.4274 26.9869C18.4152 26.9991 18.4032 27.0111 18.3913 27.023C18.1574 27.257 17.9809 27.4336 17.7814 27.5886C17.6053 27.7251 17.4177 27.8472 17.221 27.9527L17.17 27.8591C17.0157 28.0096 16.8504 28.1006 16.7351 28.1574C16.636 28.2063 16.5222 28.2536 16.4081 28.2986M16.4081 28.2986L16.3316 28.3285C16.3005 28.3406 16.2696 28.3525 16.2392 28.3642C16.2294 28.3679 16.2198 28.3716 16.2101 28.3753L10.859 30.4334C10.4902 30.5753 10.0724 30.4866 9.79292 30.2072C9.51348 29.9278 9.42482 29.51 9.56668 29.1411L11.6248 23.79C11.6285 23.7804 11.6322 23.7708 11.6359 23.7611L11.701 23.5918C11.7074 23.5753 11.7137 23.5589 11.7199 23.5428C11.8382 23.2348 11.9278 23.0018 12.0471 22.7795C12.1526 22.5831 12.2745 22.3954 12.4113 22.2191C12.5659 22.0198 12.7425 21.8432 12.9755 21.6104C12.9879 21.598 13.0005 21.5854 13.0132 21.5727L24.2929 10.2929M14.4138 23.0005C14.4183 22.996 14.4228 22.9915 14.4274 22.9869L25.7071 11.7072C26.4212 10.9931 27.5789 10.9931 28.2929 11.7071C29.007 12.4212 29.007 13.5789 28.2929 14.2929L17.0132 25.5727C17.0086 25.5773 17.0041 25.5818 16.9996 25.5863C16.9523 25.538 16.9045 25.4902 16.8583 25.4441C16.851 25.4368 16.8438 25.4296 16.8367 25.4225L14.5776 23.1634C14.5705 23.1563 14.5633 23.1491 14.5561 23.1418C14.5099 23.0956 14.4621 23.0478 14.4138 23.0005ZM13.381 24.7952L12.2411 27.759L15.2049 26.6191L13.381 24.7952ZM13.4579 24.2831L13.3811 24.3599L13.4579 24.2831ZM17.3348 27.6647C17.4205 27.5413 17.4862 27.407 17.5311 27.2667C17.6067 27.0303 17.6232 26.7763 17.5758 26.5282L17.1476 26.61L17.0379 26.6309M17.17 27.8591C17.2272 27.8033 17.2838 27.7382 17.3348 27.6647L17.17 27.8591Z" fill="#E2ED82"/>
<path d="M17.1476 26.61L17.0777 26.7696L17.3348 27.6647C17.4205 27.5413 17.4862 27.407 17.5311 27.2667C17.6067 27.0303 17.6232 26.7763 17.5758 26.5282L17.1476 26.61Z" fill="#E2ED82"/>
<path d="M17.221 27.9527L17.17 27.8591C17.0157 28.0096 16.8504 28.1006 16.7351 28.1574L17.221 27.9527Z" fill="#E2ED82"/>
</svg>
