<svg width="40" height="40" viewBox="0 0 40 40" fill="none" xmlns="http://www.w3.org/2000/svg">
<rect width="40" height="40" rx="8" fill="#E9E6FF"/>
<path fill-rule="evenodd" clip-rule="evenodd" d="M16.7587 9H23.2413C24.0463 8.99999 24.7106 8.99998 25.2518 9.04419C25.8139 9.09012 26.3306 9.18868 26.816 9.43597C27.5686 9.81947 28.1805 10.4314 28.564 11.184C28.8113 11.6694 28.9099 12.1861 28.9558 12.7482C29 13.2894 29 13.9537 29 14.7587V18.5C29 19.0523 28.5523 19.5 28 19.5C27.4477 19.5 27 19.0523 27 18.5V14.8C27 13.9434 26.9992 13.3611 26.9624 12.911C26.9266 12.4726 26.8617 12.2484 26.782 12.092C26.5903 11.7157 26.2843 11.4097 25.908 11.218C25.7516 11.1383 25.5274 11.0734 25.089 11.0376C24.6389 11.0008 24.0566 11 23.2 11H16.8C15.9434 11 15.3611 11.0008 14.911 11.0376C14.4726 11.0734 14.2484 11.1383 14.092 11.218C13.7157 11.4097 13.4097 11.7157 13.218 12.092C13.1383 12.2484 13.0734 12.4726 13.0376 12.911C13.0008 13.3611 13 13.9434 13 14.8V25.2C13 26.0566 13.0008 26.6389 13.0376 27.089C13.0734 27.5274 13.1383 27.7516 13.218 27.908C13.4097 28.2843 13.7157 28.5903 14.092 28.782C14.2484 28.8617 14.4726 28.9266 14.911 28.9624C15.3611 28.9992 15.9434 29 16.8 29H19.5C20.0523 29 20.5 29.4477 20.5 30C20.5 30.5523 20.0523 31 19.5 31H16.7587C15.9537 31 15.2894 31 14.7482 30.9558C14.1861 30.9099 13.6694 30.8113 13.184 30.564C12.4314 30.1805 11.8195 29.5686 11.436 28.816C11.1887 28.3306 11.0901 27.8139 11.0442 27.2518C11 26.7106 11 26.0463 11 25.2413V14.7587C11 13.9537 11 13.2894 11.0442 12.7482C11.0901 12.1861 11.1887 11.6694 11.436 11.184C11.8195 10.4314 12.4314 9.81947 13.184 9.43597C13.6694 9.18868 14.1861 9.09012 14.7482 9.04419C15.2894 8.99998 15.9537 8.99999 16.7587 9ZM15 15C15 14.4477 15.4477 14 16 14H24C24.5523 14 25 14.4477 25 15C25 15.5523 24.5523 16 24 16H16C15.4477 16 15 15.5523 15 15ZM15 19C15 18.4477 15.4477 18 16 18H22C22.5523 18 23 18.4477 23 19C23 19.5523 22.5523 20 22 20H16C15.4477 20 15 19.5523 15 19ZM26 23.5C24.6193 23.5 23.5 24.6193 23.5 26C23.5 27.3807 24.6193 28.5 26 28.5C27.3807 28.5 28.5 27.3807 28.5 26C28.5 24.6193 27.3807 23.5 26 23.5ZM21.5 26C21.5 23.5147 23.5147 21.5 26 21.5C28.4853 21.5 30.5 23.5147 30.5 26C30.5 26.8805 30.2471 27.702 29.81 28.3957L30.7071 29.2929C31.0976 29.6834 31.0976 30.3166 30.7071 30.7071C30.3166 31.0976 29.6834 31.0976 29.2929 30.7071L28.3957 29.81C27.702 30.2471 26.8805 30.5 26 30.5C23.5147 30.5 21.5 28.4853 21.5 26ZM15 23C15 22.4477 15.4477 22 16 22H18C18.5523 22 19 22.4477 19 23C19 23.5523 18.5523 24 18 24H16C15.4477 24 15 23.5523 15 23Z" fill="#BAB2FC"/>
</svg>
