<svg width="40" height="40" viewBox="0 0 40 40" fill="none" xmlns="http://www.w3.org/2000/svg">
<rect width="40" height="40" rx="8" fill="#DEE9FF"/>
<path fill-rule="evenodd" clip-rule="evenodd" d="M16.7587 9L22 9C22.2652 9 22.5196 9.10536 22.7071 9.29289L28.7071 15.2929C28.8946 15.4804 29 15.7348 29 16V25.2413C29 26.0463 29 26.7106 28.9558 27.2518C28.9099 27.8139 28.8113 28.3306 28.564 28.816C28.1805 29.5686 27.5686 30.1805 26.816 30.564C26.3306 30.8113 25.8139 30.9099 25.2518 30.9558C24.7106 31 24.0463 31 23.2413 31H16.7587C15.9537 31 15.2894 31 14.7482 30.9558C14.1861 30.9099 13.6694 30.8113 13.184 30.564C12.4314 30.1805 11.8195 29.5686 11.436 28.816C11.1887 28.3306 11.0901 27.8139 11.0442 27.2518C11 26.7106 11 26.0463 11 25.2413V14.7587C11 13.9537 11 13.2894 11.0442 12.7482C11.0901 12.1861 11.1887 11.6694 11.436 11.184C11.8195 10.4314 12.4314 9.81947 13.184 9.43597C13.6694 9.18868 14.1861 9.09012 14.7482 9.04419C15.2894 8.99998 15.9537 8.99999 16.7587 9ZM14.911 11.0376C14.4726 11.0734 14.2484 11.1383 14.092 11.218C13.7157 11.4097 13.4097 11.7157 13.218 12.092C13.1383 12.2484 13.0734 12.4726 13.0376 12.911C13.0008 13.3611 13 13.9434 13 14.8V25.2C13 26.0566 13.0008 26.6389 13.0376 27.089C13.0734 27.5274 13.1383 27.7516 13.218 27.908C13.4097 28.2843 13.7157 28.5903 14.092 28.782C14.2484 28.8617 14.4726 28.9266 14.911 28.9624C15.3611 28.9992 15.9434 29 16.8 29H23.2C24.0566 29 24.6389 28.9992 25.089 28.9624C25.5274 28.9266 25.7516 28.8617 25.908 28.782C26.2843 28.5903 26.5903 28.2843 26.782 27.908C26.8617 27.7516 26.9266 27.5274 26.9624 27.089C26.9992 26.6389 27 26.0566 27 25.2V17.0001L23.5681 17.0001C23.3157 17.0001 23.0699 17.0001 22.8618 16.9831C22.6332 16.9644 22.3634 16.9204 22.092 16.7821C21.7157 16.5903 21.4097 16.2844 21.218 15.9081C21.0797 15.6366 21.0356 15.3669 21.0169 15.1383C20.9999 14.9301 21 14.6843 21 14.432L21 11H16.8C15.9434 11 15.3611 11.0008 14.911 11.0376ZM23 12.4142L25.5859 15.0001H23.6C23.3035 15.0001 23.1412 14.9993 23.0246 14.9898C23.02 14.9894 23.0156 14.989 23.0114 14.9886C23.0111 14.9845 23.0107 14.9801 23.0103 14.9754C23.0008 14.8589 23 14.6966 23 14.4001V12.4142ZM15 17C15 16.4477 15.4477 16 16 16H18C18.5523 16 19 16.4477 19 17C19 17.5523 18.5523 18 18 18H16C15.4477 18 15 17.5523 15 17ZM15 21C15 20.4477 15.4477 20 16 20H24C24.5523 20 25 20.4477 25 21C25 21.5523 24.5523 22 24 22H16C15.4477 22 15 21.5523 15 21ZM15 25C15 24.4477 15.4477 24 16 24H24C24.5523 24 25 24.4477 25 25C25 25.5523 24.5523 26 24 26H16C15.4477 26 15 25.5523 15 25Z" fill="#ADC6F6"/>
</svg>
