<svg width="24" height="24" viewBox="0 0 24 24" fill="none" xmlns="http://www.w3.org/2000/svg">
<g clip-path="url(#clip0_6070_389)">
<path d="M20.3171 4.3697C18.7874 3.66784 17.1471 3.15072 15.4319 2.85451C15.4007 2.8488 15.3695 2.86309 15.3534 2.89164C15.1424 3.26687 14.9088 3.75634 14.7451 4.14109C12.9005 3.8649 11.0652 3.8649 9.25836 4.14109C9.09468 3.74781 8.85252 3.26687 8.6406 2.89164C8.62452 2.86403 8.5933 2.84973 8.56208 2.85451C6.84796 3.14973 5.20761 3.66686 3.67696 4.3697C3.66369 4.37542 3.65235 4.38494 3.6448 4.39731C0.533426 9.04567 -0.318949 13.5798 0.0991759 18.0577C0.101051 18.0796 0.113379 18.1005 0.130395 18.1138C2.18319 19.6214 4.17172 20.5366 6.12327 21.1432C6.15449 21.1527 6.18758 21.1413 6.20746 21.1156C6.66908 20.4852 7.0806 19.8205 7.43343 19.1214C7.45424 19.0805 7.43436 19.0319 7.3918 19.0157C6.73907 18.7681 6.11755 18.4662 5.51966 18.1234C5.47236 18.0958 5.46857 18.0281 5.51211 17.9957C5.63793 17.9015 5.76379 17.8034 5.88393 17.7043C5.90568 17.6862 5.93596 17.6824 5.9615 17.6938C9.88925 19.4871 14.1415 19.4871 18.0229 17.6938C18.0485 17.6815 18.0787 17.6853 18.1014 17.7033C18.2216 17.8024 18.3474 17.9014 18.4742 17.9957C18.5177 18.0281 18.5148 18.0957 18.4676 18.1233C17.8697 18.4728 17.2482 18.7681 16.5945 19.0147C16.5519 19.0309 16.533 19.0804 16.5538 19.1214C16.9143 19.8194 17.3258 20.4842 17.7789 21.1146C17.7978 21.1413 17.8318 21.1527 17.8631 21.1432C19.8241 20.5366 21.8126 19.6213 23.8654 18.1138C23.8834 18.1005 23.8948 18.0805 23.8966 18.0586C24.3971 12.8816 23.0585 8.38469 20.3482 4.3982C20.3416 4.38494 20.3303 4.37542 20.3171 4.3697ZM8.02007 15.3311C6.83755 15.3311 5.86316 14.2455 5.86316 12.9122C5.86316 11.5788 6.81861 10.4932 8.02007 10.4932C9.23089 10.4932 10.1959 11.5884 10.1769 12.9122C10.1769 14.2455 9.22143 15.3311 8.02007 15.3311ZM15.9948 15.3311C14.8123 15.3311 13.8379 14.2455 13.8379 12.9122C13.8379 11.5788 14.7934 10.4932 15.9948 10.4932C17.2056 10.4932 18.1706 11.5884 18.1517 12.9122C18.1517 14.2455 17.2057 15.3311 15.9948 15.3311Z" fill="#2B3F6C"/>
</g>
<defs>
<clipPath id="clip0_6070_389">
<rect width="24" height="24" fill="white"/>
</clipPath>
</defs>
</svg>
