<svg width="24" height="24" viewBox="0 0 24 24" fill="none" xmlns="http://www.w3.org/2000/svg">
<g clip-path="url(#clip0_6070_957)">
<path d="M12 2.16216C15.2041 2.16216 15.5837 2.17439 16.8491 2.23209C18.1566 2.29177 19.5042 2.59017 20.457 3.54286C21.4188 4.50464 21.708 5.83908 21.7679 7.15092C21.8256 8.41631 21.8378 8.79581 21.8378 12C21.8378 15.2041 21.8256 15.5836 21.7679 16.849C21.7085 18.1499 21.4042 19.5098 20.4571 20.4569C19.4948 21.4192 18.162 21.7079 16.849 21.7679C15.5838 21.8256 15.2043 21.8378 12 21.8378C8.79558 21.8378 8.41613 21.8256 7.15088 21.7679C5.86008 21.7089 4.48233 21.3964 3.543 20.4571C2.58628 19.5004 2.29158 18.1535 2.23205 16.849C2.1743 15.5836 2.16211 15.2041 2.16211 12C2.16211 8.79581 2.17434 8.41627 2.23205 7.15088C2.2912 5.85469 2.59941 4.48645 3.54281 3.543C4.50277 2.583 5.84156 2.29181 7.15088 2.23205C8.41631 2.17439 8.79586 2.16216 12 2.16216ZM12 0C8.74102 0 8.33236 0.0137812 7.05239 0.0721875C5.1967 0.156891 3.35541 0.672797 2.01408 2.01403C0.667734 3.36037 0.156797 5.19811 0.0721875 7.05244C0.0137812 8.33236 0 8.74097 0 12C0 15.259 0.0137812 15.6676 0.0721875 16.9476C0.15675 18.8003 0.675469 20.6473 2.01403 21.9859C3.35873 23.3306 5.20022 23.8433 7.05239 23.9278C8.33236 23.9862 8.74102 24 12 24C15.259 24 15.6676 23.9862 16.9476 23.9278C18.8013 23.8433 20.6461 23.3258 21.9859 21.986C23.3328 20.6392 23.8432 18.8023 23.9278 16.9476C23.9862 15.6676 24 15.259 24 12C24 8.74102 23.9862 8.33236 23.9278 7.05239C23.8432 5.19773 23.3263 3.35447 21.986 2.01412C20.6432 0.671297 18.7965 0.156562 16.9476 0.0721875C15.6676 0.0137812 15.259 0 12 0Z" fill="#2B3F6C"/>
<path d="M12 5.83789C8.59669 5.83789 5.83777 8.59677 5.83777 12.0001C5.83777 15.4033 8.59669 18.1622 12 18.1622C15.4032 18.1622 18.1621 15.4033 18.1621 12.0001C18.1621 8.59681 15.4032 5.83789 12 5.83789ZM12 16.0001C9.79083 16.0001 7.99997 14.2092 7.99997 12.0001C7.99997 9.79095 9.79083 8.00009 12 8.00009C14.2091 8.00009 15.9999 9.79095 15.9999 12.0001C15.9999 14.2092 14.2091 16.0001 12 16.0001Z" fill="#2B3F6C"/>
<path d="M18.4057 7.0343C19.201 7.0343 19.8457 6.38959 19.8457 5.5943C19.8457 4.79901 19.201 4.1543 18.4057 4.1543C17.6104 4.1543 16.9657 4.79901 16.9657 5.5943C16.9657 6.38959 17.6104 7.0343 18.4057 7.0343Z" fill="#2B3F6C"/>
</g>
<defs>
<clipPath id="clip0_6070_957">
<rect width="24" height="24" fill="white"/>
</clipPath>
</defs>
</svg>
