<svg width="24" height="24" viewBox="0 0 24 24" fill="none" xmlns="http://www.w3.org/2000/svg">
<g clip-path="url(#clip0_6070_356)">
<path d="M24 12.0728C24 18.0615 19.6059 23.0265 13.87 23.9274V15.5641H16.6587L17.1893 12.1045H13.87V9.85957C13.87 8.91287 14.3338 7.99047 15.8205 7.99047H17.3296V5.04517C17.3296 5.04517 15.9598 4.81142 14.6503 4.81142C11.9168 4.81142 10.13 6.46827 10.13 9.4678V12.1045H7.09116V15.5641H10.13V23.9274C4.39504 23.0255 0 18.0611 0 12.0728C0 5.44536 5.3726 0.0727539 12 0.0727539C18.6274 0.0727539 24 5.44536 24 12.0728Z" fill="#2B3F6C"/>
</g>
<defs>
<clipPath id="clip0_6070_356">
<rect width="24" height="24" fill="white"/>
</clipPath>
</defs>
</svg>
