<svg width="56" height="24" viewBox="0 0 56 24" fill="none" xmlns="http://www.w3.org/2000/svg">
<path d="M4.34436 8.60036H2V16.7881H4.33129C5.57071 16.7881 6.46548 16.4956 7.25198 15.8413C7.48353 15.649 7.69136 15.4339 7.87572 15.196C8.06001 14.9582 8.21638 14.7033 8.34474 14.431C8.47318 14.1589 8.57058 13.8761 8.63697 13.5826C8.70335 13.2891 8.7372 12.9919 8.73837 12.6909C8.73837 10.2751 6.93354 8.59155 4.34436 8.59155V8.60036ZM6.20985 14.7492C5.70719 15.2021 5.05498 15.3992 4.02585 15.3992H3.59253V9.98259H4.02585C5.05718 9.98259 5.68332 10.1646 6.20985 10.6434C6.35074 10.7738 6.47656 10.9175 6.58752 11.0743C6.69841 11.231 6.7919 11.3975 6.86805 11.5739C6.94414 11.7501 7.00124 11.9324 7.03928 12.1206C7.07732 12.3088 7.09555 12.4989 7.09383 12.6909C7.09479 12.884 7.07601 13.075 7.03776 13.2642C6.99938 13.4534 6.94214 13.6367 6.86613 13.814C6.79011 13.9915 6.69683 14.1594 6.58628 14.3175C6.4758 14.4758 6.35026 14.6211 6.20985 14.7536" fill="#211E1E"/>
<path d="M11.0716 8.5979H9.47485V16.7857H11.0716V8.5979Z" fill="#211E1E"/>
<path d="M14.9761 11.7374C14.0184 11.3821 13.7367 11.1482 13.7367 10.7061C13.7367 10.1904 14.2394 9.79612 14.9262 9.79612C15.405 9.79612 15.7929 9.99321 16.2132 10.4613L17.0495 9.36706C16.8854 9.22095 16.7094 9.091 16.5215 8.97729C16.3336 8.86351 16.1367 8.76789 15.9312 8.69029C15.7256 8.61269 15.5147 8.55443 15.2984 8.51563C15.0822 8.47683 14.8642 8.45805 14.6445 8.45929C13.1951 8.45929 12.0901 9.46461 12.0901 10.8036C12.0901 11.9324 12.6057 12.5088 14.105 13.0483C14.4901 13.1698 14.8606 13.3258 15.2166 13.5162C15.2902 13.56 15.3571 13.6123 15.417 13.6735C15.4769 13.7346 15.5279 13.8024 15.5702 13.8769C15.6123 13.9514 15.6443 14.0301 15.6659 14.1129C15.6875 14.1958 15.6981 14.28 15.6976 14.3657C15.6976 15.0287 15.1689 15.5204 14.4561 15.5204C14.3659 15.5217 14.2762 15.5164 14.1868 15.5047C14.0974 15.4931 14.0093 15.475 13.9225 15.4507C13.8357 15.4264 13.751 15.3961 13.6686 15.3597C13.5861 15.3233 13.5066 15.2812 13.4303 15.2335C13.3538 15.1857 13.2812 15.1327 13.2123 15.0745C13.1435 15.0163 13.0791 14.9535 13.0192 14.8862C12.9594 14.8189 12.9046 14.7474 12.855 14.6722C12.8052 14.597 12.7612 14.5188 12.7227 14.4372L11.6741 15.4209C12.4107 16.5042 13.2925 16.9809 14.5081 16.9809C16.1677 16.9809 17.3248 15.8781 17.3248 14.2919C17.3248 12.992 16.7874 12.4026 14.9696 11.7375" fill="#211E1E"/>
<path d="M17.8362 12.6909C17.8351 12.8321 17.841 12.9728 17.854 13.1133C17.8669 13.2539 17.8868 13.3934 17.9138 13.5318C17.9407 13.6705 17.9743 13.8073 18.0149 13.9424C18.0554 14.0776 18.1026 14.2104 18.1565 14.3408C18.2103 14.4712 18.2704 14.5987 18.337 14.7232C18.4035 14.8477 18.476 14.9683 18.5546 15.0857C18.6332 15.2028 18.7175 15.3159 18.8073 15.4246C18.8972 15.5333 18.9922 15.6375 19.0925 15.7368C19.1928 15.8361 19.2977 15.9302 19.4074 16.019C19.517 16.1078 19.6308 16.1909 19.7487 16.2684C19.8667 16.3458 19.9882 16.4171 20.1133 16.4826C20.2383 16.5479 20.3664 16.6068 20.4973 16.6593C20.6283 16.7119 20.7615 16.7578 20.8971 16.797C21.0327 16.8362 21.1698 16.8686 21.3086 16.8942C21.4473 16.9197 21.587 16.9384 21.7277 16.9499C21.8683 16.9616 22.0091 16.9661 22.1502 16.9636C22.498 16.964 22.841 16.924 23.1794 16.8434C23.5176 16.7629 23.8419 16.644 24.1522 16.487V14.6063C23.5152 15.2563 22.9475 15.5033 22.2238 15.5033C20.6141 15.5033 19.4722 14.3376 19.4722 12.6867C19.4722 11.1136 20.6509 9.87002 22.148 9.87002C22.9107 9.87002 23.487 10.1409 24.15 10.7909V8.91024C23.8506 8.74548 23.5354 8.62042 23.2045 8.53491C22.8736 8.44947 22.5374 8.40627 22.1956 8.40537C22.0539 8.40359 21.9124 8.40874 21.7713 8.42099C21.63 8.43323 21.4898 8.45229 21.3505 8.47836C21.2112 8.50437 21.0735 8.53718 20.9374 8.57687C20.8013 8.6165 20.6675 8.66273 20.536 8.7157C20.4045 8.76853 20.2759 8.82776 20.1503 8.89325C20.0246 8.95881 19.9025 9.03042 19.7839 9.10795C19.6653 9.18561 19.5508 9.26885 19.4405 9.3578C19.3301 9.44668 19.2243 9.54085 19.1233 9.64019C19.0222 9.73952 18.9263 9.84367 18.8355 9.9525C18.7447 10.0613 18.6596 10.1744 18.5799 10.2916C18.5003 10.4089 18.4266 10.5297 18.3589 10.6542C18.2912 10.7788 18.2299 10.9064 18.1748 11.0369C18.1197 11.1675 18.0712 11.3005 18.0292 11.4359C17.9873 11.5713 17.9521 11.7085 17.9237 11.8473C17.8953 11.9861 17.8737 12.1261 17.8592 12.267C17.8445 12.4078 17.8369 12.5492 17.8362 12.6909Z" fill="#211E1E"/>
<path d="M36.8246 14.0993L34.6406 8.60034H32.9073L36.374 16.9983H37.2407L40.7659 8.60034H39.0324L36.8246 14.0993Z" fill="#211E1E"/>
<path d="M41.4875 16.7858H46.0179V15.3969H43.0842V13.1891H45.9009V11.8024H43.0842V9.98461H46.0179V8.5979H41.4875V16.7858Z" fill="#211E1E"/>
<path d="M52.3421 11.0161C52.3421 9.48425 51.2849 8.59814 49.4431 8.59814H47.0663V16.786H48.661V13.4947H48.8776L51.0898 16.786H53.0528L50.4745 13.3409C51.6791 13.0961 52.3421 12.2728 52.3421 11.0182L52.3421 11.0161ZM49.1377 12.3659H48.6696V9.8873H49.1636C50.1581 9.8873 50.6977 10.3033 50.6977 11.1007C50.6977 11.898 50.1581 12.3681 49.1377 12.3681" fill="#211E1E"/>
<path d="M53.6141 9.01834C53.6142 8.98484 53.6072 8.95286 53.5932 8.92231C53.5794 8.89184 53.5596 8.86563 53.5343 8.84375C53.5089 8.82194 53.4801 8.80633 53.4479 8.79704C53.4156 8.78782 53.383 8.78569 53.3498 8.79078H53.1113V9.51874H53.2826V9.23704L53.4841 9.51654H53.7007L53.4581 9.22403C53.4823 9.21908 53.5048 9.20986 53.5256 9.19638C53.5464 9.18296 53.5639 9.16625 53.5784 9.14623C53.5927 9.12607 53.6031 9.10413 53.6093 9.08012C53.6154 9.05618 53.617 9.03197 53.6141 9.00741L53.6141 9.01834ZM53.3108 9.11582H53.2827V8.92733H53.313C53.3997 8.92733 53.443 8.95767 53.443 9.02048C53.443 9.08335 53.3974 9.11582 53.3108 9.11582Z" fill="#211E1E"/>
<path d="M53.3737 8.53303C53.3323 8.53275 53.2911 8.53654 53.2505 8.54438C53.2097 8.55215 53.1702 8.56392 53.1317 8.57953C53.0933 8.59522 53.0567 8.61441 53.0221 8.63725C52.9876 8.66009 52.9555 8.68602 52.926 8.71526C52.8965 8.74436 52.8701 8.77614 52.8469 8.81047C52.8237 8.84479 52.8041 8.88111 52.788 8.91936C52.7721 8.95754 52.7598 8.99696 52.7516 9.03762C52.7433 9.0782 52.7389 9.11927 52.7388 9.16068C52.7385 9.20223 52.7424 9.24323 52.7503 9.28396C52.7582 9.32468 52.7701 9.36424 52.7859 9.40263C52.8016 9.44101 52.8209 9.4774 52.8438 9.512C52.8667 9.54654 52.8927 9.57853 52.922 9.60797C52.9512 9.63741 52.983 9.66376 53.0175 9.6868C53.0519 9.70992 53.0881 9.72945 53.1264 9.74555C53.1647 9.76144 53.2041 9.77355 53.2448 9.78174C53.2854 9.78992 53.3265 9.79405 53.368 9.79419C53.4094 9.79426 53.4504 9.79027 53.4912 9.78229C53.5318 9.77431 53.5714 9.76241 53.6097 9.74658C53.6481 9.73076 53.6845 9.71129 53.7189 9.68832C53.7535 9.66534 53.7854 9.63927 53.8148 9.6099C53.8442 9.58066 53.8704 9.54874 53.8935 9.51427C53.9164 9.47988 53.936 9.44349 53.9519 9.40517C53.9678 9.36685 53.9797 9.32737 53.9878 9.28678C53.996 9.24605 54 9.20505 54 9.16357C54.0004 9.12244 53.9965 9.08171 53.9887 9.04133C53.9811 9.00095 53.9694 8.96174 53.9539 8.92363C53.9385 8.88552 53.9195 8.84933 53.8968 8.81494C53.8743 8.78061 53.8485 8.74876 53.8197 8.71952C53.7908 8.69022 53.7594 8.66401 53.7253 8.64096C53.6913 8.61785 53.6553 8.59831 53.6175 8.58235C53.5796 8.56632 53.5406 8.55421 53.5002 8.54589C53.4601 8.53757 53.4193 8.53323 53.3783 8.53296L53.3737 8.53303ZM53.3737 9.67924C53.3402 9.67889 53.307 9.67532 53.2743 9.66857C53.2415 9.6617 53.2098 9.65172 53.179 9.63858C53.1482 9.62544 53.1191 9.60934 53.0914 9.5905C53.0638 9.57158 53.0383 9.55011 53.015 9.52611C52.9915 9.50217 52.9708 9.47609 52.9526 9.44796C52.9344 9.41989 52.9191 9.39031 52.9067 9.35915C52.8945 9.32812 52.8852 9.29607 52.8793 9.26311C52.8733 9.23016 52.8705 9.19694 52.8712 9.1635C52.871 9.13062 52.8743 9.09808 52.8807 9.06582C52.8872 9.03356 52.8967 9.00232 52.9092 8.97199C52.9218 8.94165 52.9373 8.91283 52.9555 8.88545C52.9738 8.85814 52.9944 8.83275 53.0177 8.80957C53.041 8.78632 53.0662 8.76554 53.0935 8.74731C53.1209 8.72902 53.1497 8.71368 53.1802 8.70109C53.2104 8.6885 53.2418 8.67907 53.274 8.67261C53.3063 8.66614 53.3388 8.66297 53.3717 8.66297C53.4046 8.66297 53.4371 8.66614 53.4693 8.67261C53.5016 8.67907 53.5328 8.6885 53.5631 8.70109C53.5935 8.71368 53.6223 8.72902 53.6497 8.74731C53.677 8.76561 53.7024 8.78632 53.7255 8.80957C53.7489 8.83275 53.7696 8.85807 53.7878 8.88545C53.806 8.91283 53.8215 8.94158 53.8341 8.97199C53.8467 9.00239 53.8562 9.03363 53.8626 9.06582C53.869 9.09808 53.8722 9.13062 53.8722 9.1635C53.8726 9.19673 53.8698 9.22968 53.8638 9.26243C53.8578 9.29517 53.8487 9.32695 53.8364 9.35791C53.8242 9.38887 53.8091 9.41824 53.791 9.44617C53.7729 9.4741 53.7524 9.50004 53.7293 9.52397C53.7061 9.54791 53.681 9.56938 53.6536 9.58836C53.6263 9.60735 53.5975 9.62352 53.5669 9.63679C53.5365 9.65007 53.5051 9.66039 53.4725 9.66741C53.4397 9.67463 53.4068 9.67848 53.3737 9.67924Z" fill="#211E1E"/>
<circle cx="29.1006" cy="12.4027" r="4.40268" fill="url(#paint0_linear_6043_29410)"/>
<defs>
<linearGradient id="paint0_linear_6043_29410" x1="24.6979" y1="8" x2="33.5032" y2="16.8054" gradientUnits="userSpaceOnUse">
<stop stop-color="#FD591C"/>
<stop offset="1" stop-color="#FF9824"/>
</linearGradient>
</defs>
</svg>
