<svg width="56" height="24" viewBox="0 0 56 24" fill="none" xmlns="http://www.w3.org/2000/svg">
<path d="M26.9613 12.3629V16.779H25.5367V5.85742H29.2406C30.1428 5.85742 30.9976 6.18982 31.6623 6.80713C32.3271 7.37695 32.6595 8.23169 32.6595 9.13391C32.6595 10.0361 32.3271 10.8434 31.6623 11.4607C30.9976 12.078 30.1903 12.4104 29.2406 12.4104L26.9613 12.3629ZM26.9613 7.18701V10.9858H29.3356C29.8579 10.9858 30.3802 10.7959 30.7126 10.416C31.4724 9.70373 31.4724 8.5166 30.7601 7.80432L30.7126 7.75683C30.3328 7.37695 29.8579 7.13953 29.3356 7.18701H26.9613Z" fill="#5F6368"/>
<path d="M35.9362 9.08643C36.9808 9.08643 37.7881 9.37134 38.4054 9.94116C39.0227 10.511 39.3076 11.2707 39.3076 12.2205V16.779H37.978V15.7344H37.9305C37.3607 16.5891 36.5535 17.0165 35.6038 17.0165C34.7965 17.0165 34.0842 16.779 33.5144 16.3042C32.9921 15.8293 32.6597 15.1645 32.6597 14.4523C32.6597 13.6925 32.9446 13.0752 33.5144 12.6003C34.0842 12.1255 34.8915 11.9355 35.8412 11.9355C36.6959 11.9355 37.3607 12.078 37.883 12.4104V12.078C37.883 11.6031 37.6931 11.1283 37.3132 10.8434C36.9333 10.511 36.4585 10.321 35.9362 10.321C35.1289 10.321 34.5116 10.6534 34.0842 11.3182L32.8496 10.5585C33.6094 9.56128 34.6066 9.08643 35.9362 9.08643ZM34.1317 14.4998C34.1317 14.8796 34.3217 15.212 34.6066 15.402C34.939 15.6394 35.3188 15.7819 35.6987 15.7819C36.2686 15.7819 36.8384 15.5444 37.2657 15.1171C37.7406 14.6897 37.978 14.1674 37.978 13.5975C37.5507 13.2651 36.9333 13.0752 36.1261 13.0752C35.5563 13.0752 35.0814 13.2176 34.7015 13.5026C34.3217 13.74 34.1317 14.0724 34.1317 14.4998Z" fill="#5F6368"/>
<path d="M47.0001 9.32373L42.2991 20.1029H40.8745L42.6315 16.3516L39.5449 9.37122H41.0645L43.2963 14.7371H43.3437L45.5281 9.37122H47.0001V9.32373Z" fill="#5F6368"/>
<path d="M21.3104 11.413C21.3104 10.9856 21.2629 10.5582 21.2154 10.1309H15.2798V12.5526H18.6512C18.5088 13.3124 18.0814 14.0247 17.4166 14.452V16.019H19.4585C20.6456 14.9269 21.3104 13.3124 21.3104 11.413Z" fill="#4285F4"/>
<path d="M15.2798 17.5387C16.9893 17.5387 18.4138 16.9689 19.4585 16.0192L17.4166 14.4521C16.8468 14.832 16.1345 15.0695 15.2798 15.0695C13.6653 15.0695 12.2407 13.9773 11.7659 12.4578H9.67651V14.0723C10.7687 16.2091 12.9055 17.5387 15.2798 17.5387Z" fill="#34A853"/>
<path d="M11.766 12.4576C11.4811 11.6979 11.4811 10.8431 11.766 10.0359V8.42139H9.67667C8.77444 10.1783 8.77444 12.2677 9.67667 14.0721L11.766 12.4576Z" fill="#FBBC04"/>
<path d="M15.2799 7.47179C16.1821 7.47179 17.0369 7.80419 17.7017 8.4215L19.5061 6.61706C18.3664 5.57238 16.8469 4.95507 15.3274 5.00255C12.9531 5.00255 10.7688 6.33214 9.72412 8.46898L11.8135 10.0835C12.2408 8.56395 13.6654 7.47179 15.2799 7.47179Z" fill="#EA4335"/>
</svg>
