<svg width="56" height="24" viewBox="0 0 56 24" fill="none" xmlns="http://www.w3.org/2000/svg">
<path d="M23.4304 6.19573L18.4476 17.6309H15.1977L12.7309 8.50294C12.7095 8.28979 12.6312 8.08556 12.5038 7.90998C12.3763 7.7344 12.2039 7.59339 12.0032 7.50057C11.0467 7.06505 10.038 6.74434 9 6.54566L9.08017 6.21352H14.3096C14.6548 6.21445 14.988 6.33482 15.2485 6.55264C15.5089 6.77045 15.6791 7.07115 15.728 7.39975L17.0169 13.9774L20.2175 6.19573H23.4304ZM36.1649 13.9062C36.1649 10.8873 31.8481 10.7271 31.8481 9.37481C31.8481 8.96556 32.2613 8.52666 33.1493 8.4199C34.1901 8.32097 35.2392 8.49734 36.1834 8.92997L36.7199 6.50415C35.8003 6.17463 34.8275 6.00396 33.8462 6C30.8059 6 28.666 7.55395 28.6475 9.77813C28.6475 11.421 30.1769 12.3404 31.3424 12.892C32.508 13.4436 32.9396 13.8054 32.9335 14.3095C32.9335 15.0806 31.9776 15.4127 31.0834 15.4305C29.9838 15.4537 28.8966 15.2045 27.926 14.7069L27.3648 17.2098C28.4571 17.6114 29.618 17.8126 30.7874 17.8029C34.0188 17.8029 36.1341 16.2668 36.1402 13.8884L36.1649 13.9062ZM44.1571 17.625H47L44.5333 6.1898H41.9309C41.6503 6.18793 41.3755 6.26648 41.1416 6.41543C40.9077 6.56438 40.7251 6.77696 40.6173 7.02608L36.0045 17.625H39.2175L39.8341 15.9168H43.7809L44.1571 17.625ZM40.7222 13.574L42.3441 9.27991L43.2752 13.574H40.7222ZM27.7718 6.1898L25.2311 17.625H22.1477L24.6946 6.1898H27.7718Z" fill="#1A1F71"/>
</svg>
