<svg width="56" height="24" viewBox="0 0 56 24" fill="none" xmlns="http://www.w3.org/2000/svg">
<mask id="mask0_6043_29409" style="mask-type:alpha" maskUnits="userSpaceOnUse" x="17" y="8" width="20" height="11">
<path d="M17.8042 8.91162H36.9817V18.462H17.8042V8.91162Z" fill="white"/>
</mask>
<g mask="url(#mask0_6043_29409)">
<path fill-rule="evenodd" clip-rule="evenodd" d="M36.7586 11.4903H35.4708C35.3479 11.4903 35.2325 11.5539 35.1628 11.6603L33.3866 14.3858L32.6336 11.7667C32.5863 11.6024 32.4415 11.4903 32.2767 11.4903H31.0112C30.8879 11.4899 30.7877 11.5935 30.7877 11.7219C30.7873 11.7475 30.7917 11.7732 30.7995 11.7977L32.218 16.1341L30.8844 18.0952C30.8132 18.2 30.8367 18.3447 30.9372 18.4193C30.9752 18.447 31.0202 18.4621 31.0664 18.4621H32.3527C32.4748 18.4625 32.589 18.4001 32.6583 18.2954L36.9422 11.8552C37.0118 11.7496 36.9872 11.6049 36.8858 11.5319C36.8483 11.5046 36.804 11.4903 36.7586 11.4903ZM28.1467 14.0886C28.023 14.8513 27.4419 15.3633 26.7007 15.3633C26.3285 15.3633 26.0311 15.2389 25.8402 15.0033C25.6508 14.7693 25.5788 14.4363 25.639 14.0649C25.7545 13.3092 26.3454 12.7805 27.0752 12.7805C27.4391 12.7805 27.735 12.9064 27.9299 13.1441C28.1251 13.3842 28.2026 13.7193 28.1467 14.0886ZM29.9335 11.4903H28.6515C28.5419 11.4903 28.4484 11.5735 28.4312 11.6864L28.3744 12.0598L28.2848 11.9245C28.0073 11.505 27.3886 11.3648 26.7715 11.3648C25.3549 11.3648 24.1453 12.4821 23.9101 14.049C23.7876 14.8313 23.9614 15.5789 24.3872 16.1003C24.7777 16.5792 25.3369 16.7794 26.0014 16.7794C27.1425 16.7794 27.7753 16.0151 27.7753 16.0151L27.7181 16.386C27.699 16.5124 27.7815 16.6318 27.9032 16.6522C27.9146 16.6538 27.9267 16.6551 27.9381 16.6551H29.0925C29.2756 16.6551 29.4318 16.5161 29.4603 16.3277L30.1526 11.7585C30.1722 11.6322 30.0896 11.5136 29.9683 11.4932C29.9569 11.4911 29.9452 11.4903 29.9335 11.4903ZM22.2419 11.5225C22.0955 12.5229 21.3618 12.5229 20.6523 12.5229H20.2484L20.5318 10.6547C20.549 10.5418 20.6425 10.4586 20.7521 10.4586H20.9372C21.4205 10.4586 21.8764 10.4586 22.112 10.7456C22.2524 10.9168 22.2959 11.1711 22.2419 11.5225ZM21.9331 8.91162H19.2568C19.0741 8.91122 18.9179 9.05022 18.8894 9.23855L17.8069 16.3872C17.7878 16.514 17.8711 16.6326 17.9928 16.6526C18.0046 16.6546 18.0159 16.6555 18.0277 16.6555H19.3053C19.4885 16.6555 19.6446 16.5165 19.6728 16.3281L19.9647 14.4C19.9933 14.2117 20.1491 14.0727 20.3318 14.0727H21.179C22.942 14.0727 23.9594 13.184 24.2251 11.4231C24.3449 10.6526 24.2302 10.0473 23.8839 9.62335C23.5035 9.15783 22.8289 8.91162 21.9331 8.91162Z" fill="#253B80"/>
</g>
<mask id="mask1_6043_29409" style="mask-type:alpha" maskUnits="userSpaceOnUse" x="36" y="8" width="16" height="9">
<path d="M36.5341 8.91455H52V16.9038H36.5341V8.91455Z" fill="white"/>
</mask>
<g mask="url(#mask1_6043_29409)">
<path fill-rule="evenodd" clip-rule="evenodd" d="M50.3046 9.11405L49.1956 16.5056C49.1762 16.6339 49.2596 16.7543 49.3825 16.775C49.3939 16.7771 49.4062 16.7779 49.4176 16.7779H50.5326C50.7179 16.7779 50.8751 16.6372 50.9036 16.4456L51.9972 9.18731C52.0166 9.05859 51.9328 8.93773 51.8103 8.91745C51.7985 8.91579 51.787 8.91455 51.7752 8.91455H50.5267C50.416 8.91496 50.322 8.9994 50.3046 9.11405ZM46.9756 14.1716C46.8515 14.946 46.264 15.4659 45.5157 15.4659C45.1408 15.4659 44.8397 15.34 44.6469 15.1004C44.4557 14.8628 44.3838 14.5246 44.4438 14.148C44.5612 13.3802 45.157 12.8433 45.8938 12.8433C46.2613 12.8433 46.5599 12.9712 46.7571 13.2126C46.9546 13.4563 47.0329 13.7966 46.9756 14.1716ZM48.7792 11.5333H47.486C47.3754 11.5329 47.281 11.6178 47.264 11.7324L47.2067 12.1116L47.1158 11.9741C46.8357 11.5482 46.2115 11.4059 45.588 11.4059C44.1582 11.4059 42.9377 12.5404 42.6995 14.1318C42.5762 14.9261 42.7513 15.6848 43.1811 16.2142C43.5762 16.701 44.1396 16.9038 44.8109 16.9038C45.963 16.9038 46.6018 16.1277 46.6018 16.1277L46.5441 16.5044C46.5248 16.6331 46.6085 16.7539 46.731 16.7746C46.7429 16.7763 46.7551 16.7775 46.767 16.7775H47.9321C48.117 16.7775 48.2739 16.6364 48.3027 16.4452L49.0024 11.8057C49.0214 11.6765 48.9368 11.5561 48.8139 11.5362C48.8021 11.5342 48.7906 11.5333 48.7792 11.5333ZM41.0144 11.566C40.8671 12.5818 40.1263 12.5818 39.4096 12.5818H39.0026L39.2887 10.6848C39.3057 10.5702 39.3997 10.4853 39.5107 10.4857H39.6976C40.1851 10.4857 40.6458 10.4857 40.8837 10.7771C41.0255 10.951 41.0686 11.2092 41.0144 11.566ZM40.7027 8.91496H38.0003C37.8158 8.91496 37.6585 9.05569 37.6297 9.24692L36.5368 16.5056C36.5175 16.6339 36.6009 16.7543 36.7237 16.775C36.7352 16.7771 36.7474 16.7779 36.7589 16.7779H38.1457C38.2749 16.7775 38.3847 16.679 38.4048 16.5453L38.715 14.4878C38.7434 14.2966 38.9011 14.1554 39.0856 14.1554H39.941C41.7209 14.1554 42.7477 13.2531 43.0164 11.465C43.1377 10.6828 43.0211 10.0681 42.6714 9.63765C42.2878 9.16496 41.6071 8.91496 40.7027 8.91496Z" fill="#179BD7"/>
</g>
<path fill-rule="evenodd" clip-rule="evenodd" d="M7.13809 17.7093L7.33916 16.3762L6.89127 16.3649H4.75256L6.23886 6.52845C6.24808 6.46625 6.29921 6.4205 6.35957 6.4209H9.96574C11.1629 6.4209 11.9891 6.68094 12.4205 7.19419C12.6227 7.43457 12.7515 7.68658 12.8138 7.96347C12.8791 8.25401 12.8803 8.60112 12.8165 9.02449L12.8118 9.05539V9.32666L13.0141 9.44625C13.1686 9.52771 13.307 9.63806 13.4235 9.7721C13.5965 9.97796 13.7084 10.2396 13.7557 10.5498C13.8045 10.8688 13.7883 11.2484 13.7084 11.6782C13.6161 12.1726 13.4669 12.6032 13.2655 12.9551C13.0879 13.271 12.8487 13.5442 12.5639 13.7577C12.2963 13.956 11.9783 14.1065 11.6189 14.2032C11.2706 14.2979 10.8734 14.3456 10.4378 14.3456H10.1572C9.95651 14.3456 9.76159 14.4211 9.60858 14.5563C9.45557 14.6927 9.35446 14.8818 9.32255 15.0892L9.3014 15.2092L8.94617 17.5588L8.93002 17.645C8.92579 17.6719 8.91849 17.6856 8.90772 17.6952C8.89734 17.704 8.88427 17.7089 8.87082 17.7093H7.13809Z" fill="#253B80"/>
<path fill-rule="evenodd" clip-rule="evenodd" d="M12.8019 9.4314C12.791 9.50321 12.7786 9.57663 12.7646 9.65205C12.2845 12.2 10.6418 13.0802 8.54383 13.0802H7.47563C7.21906 13.0802 7.00286 13.2727 6.96288 13.5343L6.41598 17.1193L6.2611 18.1355C6.23743 18.2896 6.33951 18.434 6.48817 18.4585C6.50253 18.4609 6.5169 18.4621 6.53087 18.4621H8.42544C8.6498 18.4621 8.84038 18.2936 8.8757 18.0649L8.89433 17.9654L9.25105 15.6257L9.27395 15.4973C9.30888 15.2678 9.49985 15.0993 9.7242 15.0993H10.0076C11.8431 15.0993 13.2801 14.3291 13.7001 12.1001C13.8755 11.1689 13.7847 10.3914 13.3204 9.84462C13.1733 9.67532 12.9975 9.5353 12.8019 9.4314Z" fill="#179BD7"/>
<path fill-rule="evenodd" clip-rule="evenodd" d="M12.5128 8.85803C12.3547 8.81202 12.1939 8.7761 12.0314 8.75027C11.7104 8.70062 11.3854 8.67681 11.0604 8.67883H8.11805C7.88673 8.67883 7.68982 8.84875 7.6542 9.07921L7.02826 13.0778L7.01025 13.1941C7.05068 12.9309 7.2752 12.7372 7.53894 12.7372H8.64034C10.8035 12.7372 12.4972 11.8512 12.9923 9.28829C13.0071 9.21241 13.0195 9.13854 13.0307 9.0663C12.9002 8.99728 12.7638 8.93956 12.6237 8.89315C12.5869 8.88104 12.5501 8.86933 12.5128 8.85803Z" fill="#222D65"/>
<mask id="mask2_6043_29409" style="mask-type:alpha" maskUnits="userSpaceOnUse" x="4" y="6" width="9" height="11">
<path d="M4 6H12.7236V16.8167H4V6Z" fill="white"/>
</mask>
<g mask="url(#mask2_6043_29409)">
<path fill-rule="evenodd" clip-rule="evenodd" d="M7.6175 9.10389C7.65061 8.87329 7.83612 8.70356 8.05361 8.70437H10.82C11.1477 8.70437 11.4537 8.72735 11.7329 8.77573C11.9218 8.80757 12.1084 8.85515 12.2901 8.91804C12.4275 8.96682 12.555 9.02447 12.6728 9.09099C12.8113 8.14479 12.6717 7.50054 12.1942 6.91718C11.6678 6.27495 10.7177 6 9.5019 6H5.97241C5.72407 6 5.51222 6.19351 5.47384 6.45678L4.00372 16.4409C3.97776 16.6183 4.09027 16.7848 4.25583 16.8126C4.27126 16.815 4.28706 16.8167 4.30287 16.8167H6.48189L7.029 13.0976L7.6175 9.10389Z" fill="#253B80"/>
</g>
</svg>
