<svg width="56" height="24" viewBox="0 0 56 24" fill="none" xmlns="http://www.w3.org/2000/svg">
<path d="M33.6188 20.5715L34.0738 20.5596L34.5225 20.527L34.9626 20.4708L35.3996 20.3938L35.8246 20.296L36.2438 20.1774L36.654 20.0381L37.0554 19.8811L37.4477 19.7033L37.8283 19.5107L38.1969 19.2972L38.5566 19.0689L38.9014 18.8231L39.2343 18.5622L39.5553 18.2865L39.8616 17.9932L40.1559 17.6879L40.4324 17.3678L40.694 17.0359L40.9406 16.6921L41.1695 16.3336L41.3836 15.9659L41.5768 15.5866L41.7552 15.1954L41.9127 14.7954L42.0524 14.3862L42.1715 13.9685L42.2695 13.5446L42.3468 13.109L42.4032 12.6704L42.4359 12.2229L42.4477 11.7695L42.4359 11.319L42.4032 10.8745L42.3468 10.4358L42.2695 10.0061L42.1715 9.58236L42.0524 9.16736L41.9127 8.75834L41.7552 8.3612L41.5768 7.97303L41.3836 7.59365L41.1695 7.22915L40.9406 6.87053L40.694 6.52669L40.4324 6.19772L40.1559 5.87763L39.8616 5.57241L39.5553 5.28196L39.2343 5.00638L38.9014 4.74567L38.5566 4.49955L38.1969 4.27138L37.8283 4.06098L37.4477 3.86835L37.0554 3.69049L36.654 3.53348L36.2438 3.39415L35.8246 3.27558L35.3996 3.17777L34.9626 3.10071L34.5225 3.04442L34.0738 3.01188L33.6188 3L33.167 3.01188L32.7181 3.04442L32.2782 3.10071L31.8441 3.17777L31.4192 3.27558L30.9999 3.39415L30.5927 3.53348L30.1914 3.69049L29.8019 3.86835L29.4244 4.06098L29.0558 4.27138L28.6991 4.49955L28.3542 4.74567L28.0213 5.00638L27.7033 5.28196L27.3971 5.57241L27.1058 5.87763L26.8293 6.19772L26.5677 6.52669L26.3239 6.87053L26.0949 7.22915L25.884 7.59365L25.6878 7.97303L25.5122 8.3612L25.3548 8.75834L25.2181 9.16736L25.0991 9.58236L25.001 10.0061L24.9237 10.4358L24.8673 10.8745L24.8346 11.319L24.8228 11.7695L24.8346 12.2229L24.8673 12.6704L24.9237 13.109L25.001 13.5446L25.0991 13.9685L25.2181 14.3862L25.3548 14.7954L25.5122 15.1954L25.6878 15.5866L25.884 15.9659L26.0949 16.3336L26.3239 16.6921L26.5677 17.0359L26.8293 17.3678L27.1058 17.6879L27.3971 17.9932L27.7033 18.2865L28.0213 18.5622L28.3542 18.8231L28.6991 19.0689L29.0558 19.2972L29.4244 19.5107L29.8019 19.7033L30.1914 19.8811L30.5927 20.0381L30.9999 20.1774L31.4192 20.296L31.8441 20.3938L32.2782 20.4708L32.7181 20.527L33.167 20.5596L33.6188 20.5715Z" fill="#F7A826"/>
<path d="M21.8289 20.5715L22.2808 20.5596L22.7297 20.527L23.1697 20.4708L23.6038 20.3938L24.0289 20.296L24.4478 20.1774L24.8552 20.0381L25.2566 19.8811L25.6459 19.7033L26.0234 19.5107L26.3921 19.2972L26.7489 19.0689L27.0938 18.8231L27.4266 18.5622L27.7446 18.2865L28.051 17.9932L28.3424 17.6879L28.6187 17.3678L28.8803 17.0359L29.1241 16.6921L29.353 16.3336L29.564 15.9659L29.7602 15.5866L29.9356 15.1954L30.0933 14.7954L30.2299 14.3862L30.3487 13.9685L30.447 13.5446L30.5243 13.109L30.5806 12.6704L30.6135 12.2229L30.6253 11.7695L30.6135 11.319L30.5806 10.8745L30.5243 10.4358L30.447 10.0061L30.3487 9.58236L30.2299 9.16736L30.0933 8.75834L29.9356 8.3612L29.7602 7.97303L29.564 7.59365L29.353 7.22915L29.1241 6.87053L28.8803 6.52669L28.6187 6.19772L28.3424 5.87763L28.051 5.57241L27.7446 5.28196L27.4266 5.00638L27.0938 4.74567L26.7489 4.49955L26.3921 4.27138L26.0234 4.06098L25.6459 3.86835L25.2566 3.69049L24.8552 3.53348L24.4478 3.39415L24.0289 3.27558L23.6038 3.17777L23.1697 3.10071L22.7297 3.04442L22.2808 3.01188L21.8289 3L21.3743 3.01188L20.9254 3.04442L20.4854 3.10071L20.0483 3.17777L19.6233 3.27558L19.2041 3.39415L18.7939 3.53348L18.3925 3.69049L18.0003 3.86835L17.6197 4.06098L17.251 4.27138L16.8915 4.49955L16.5464 4.74567L16.2136 5.00638L15.8926 5.28196L15.5864 5.57241L15.292 5.87763L15.0155 6.19772L14.7541 6.52669L14.5074 6.87053L14.2784 7.22915L14.0643 7.59365L13.8709 7.97303L13.6927 8.3612L13.5353 8.75834L13.3954 9.16736L13.2765 9.58236L13.1784 10.0061L13.1012 10.4358L13.0446 10.8745L13.0121 11.319L13 11.7695L13.0121 12.2229L13.0446 12.6704L13.1012 13.109L13.1784 13.5446L13.2765 13.9685L13.3954 14.3862L13.5353 14.7954L13.6927 15.1954L13.8709 15.5866L14.0643 15.9659L14.2784 16.3336L14.5074 16.6921L14.7541 17.0359L15.0155 17.3678L15.292 17.6879L15.5864 17.9932L15.8926 18.2865L16.2136 18.5622L16.5464 18.8231L16.8915 19.0689L17.251 19.2972L17.6197 19.5107L18.0003 19.7033L18.3925 19.8811L18.7939 20.0381L19.2041 20.1774L19.6233 20.296L20.0483 20.3938L20.4854 20.4708L20.9254 20.527L21.3743 20.5596L21.8289 20.5715Z" fill="#ED1C2E"/>
<path d="M26.6923 6.36977H31.3743V5.89258H27.0966L26.6923 6.36977Z" fill="#F7A826"/>
<path d="M25.991 7.43056H31.3745V6.95337H26.2733L25.991 7.43056Z" fill="#F7A826"/>
<path d="M25.4678 8.48866H31.3746V8.01147H25.6759L25.4678 8.48866Z" fill="#F7A826"/>
<path d="M25.108 9.54961H31.3745V9.07251H25.2567L25.108 9.54961Z" fill="#F7A826"/>
<path d="M25.3164 14.6769H31.3897V14.1997H25.1677L25.3164 14.6769Z" fill="#F7A826"/>
<path d="M25.7649 15.7377H31.3893V15.2607H25.542L25.7649 15.7377Z" fill="#F7A826"/>
<path d="M26.3954 16.796H31.3896V16.3188H26.0951L26.3954 16.796Z" fill="#F7A826"/>
<path d="M27.2632 17.8568H31.3893V17.3767H26.8439L27.2632 17.8568Z" fill="#F7A826"/>
<path d="M24.8969 10.6079H31.3744V10.1306H24.9889L24.8969 10.6079Z" fill="#F7A826"/>
<path d="M28.8446 13.6188H31.315V13.1416H28.9337L28.8446 13.6188Z" fill="#F7A826"/>
<path d="M29.0409 12.5607H31.3151V12.0806H29.1302L29.0409 12.5607Z" fill="#F7A826"/>
<path d="M24.7335 12.0806H25.3757V12.5607H24.7633L24.7335 12.0806Z" fill="#F7A826"/>
<path d="M23.5355 11.5027L23.4936 11.4998L23.4521 11.4939L23.4134 11.4879L23.3748 11.4821L23.3391 11.4762L23.3006 11.4702L23.2618 11.4642L23.2203 11.4583L23.1787 11.4523L23.1312 11.4493L23.0777 11.4465L23.0212 11.4434H22.9587L22.8903 11.4465L22.813 11.4523L22.7269 11.4583L22.6673 11.4672L22.6109 11.4762L22.5604 11.4939L22.5157 11.5117L22.4742 11.5324L22.4355 11.5561L22.4057 11.5858L22.3788 11.6124L22.3611 11.645L22.3464 11.6776L22.3403 11.7132V11.7489L22.3492 11.7873L22.3611 11.8257L22.3852 11.8643L22.4146 11.9029L22.4742 11.9591L22.5455 12.0037L22.6287 12.0421L22.7178 12.0747L22.813 12.1043L22.911 12.137L23.0091 12.1726L23.1044 12.2112L23.1936 12.2614L23.2768 12.3237L23.351 12.3978L23.4134 12.4897L23.4611 12.6022L23.4908 12.7358L23.5027 12.8957L23.4908 13.0823L23.47 13.2217L23.4343 13.3431L23.3866 13.4558L23.3273 13.5535L23.2589 13.6396L23.1816 13.7135L23.0983 13.7789L23.0063 13.8352L22.911 13.8795L22.813 13.9181L22.7119 13.9477L22.608 13.9714L22.5068 13.9892L22.4087 13.9982L22.3106 14.0041L22.2184 14.0071H22.0905L21.9717 14.0041H21.8677L21.7696 14.0011L21.6805 13.9982L21.6003 13.9922L21.5289 13.9863L21.4603 13.9774L21.398 13.9714L21.3415 13.9597L21.2851 13.9508L21.2344 13.9359L21.184 13.9241L21.1363 13.9064L21.0889 13.8886L21.0382 13.8706L21.172 13.2159L21.1989 13.2217L21.2316 13.2305L21.2731 13.2425L21.3237 13.2543L21.3772 13.2661L21.4367 13.278L21.5022 13.2927L21.5735 13.3047L21.6478 13.3165L21.7251 13.3283L21.8054 13.3373L21.8886 13.3462L21.9747 13.3492L22.0609 13.3521H22.1471L22.2333 13.3492L22.3196 13.3314L22.3879 13.3076L22.4414 13.275L22.483 13.2335L22.5127 13.1921L22.5366 13.1445L22.5515 13.0972L22.5634 13.0528L22.5692 12.9668L22.5425 12.8928L22.4921 12.8335L22.4177 12.7831L22.3286 12.7386L22.2244 12.6942L22.1084 12.6526L21.9924 12.6053L21.8737 12.5519L21.7607 12.4897L21.6566 12.4125L21.5615 12.3207L21.4871 12.2081L21.4336 12.0747L21.4069 11.9147L21.41 11.725L21.4247 11.6094L21.4457 11.4998L21.4755 11.399L21.5109 11.3042L21.5584 11.2153L21.6121 11.1382L21.6745 11.0642L21.7488 10.999L21.8352 10.9427L21.9302 10.8953L22.0371 10.8507L22.156 10.8181L22.2899 10.7915L22.4355 10.7707L22.596 10.7589L22.7716 10.7559H22.8813L22.9824 10.7589L23.0746 10.7618L23.158 10.7648L23.2322 10.7707L23.3006 10.7767L23.3599 10.7826L23.4134 10.7885L23.4641 10.7945L23.5057 10.8033L23.5444 10.8093L23.58 10.8151L23.6097 10.8211L23.6366 10.824L23.6632 10.83L23.687 10.833L23.5355 11.5027Z" fill="white"/>
<path fill-rule="evenodd" clip-rule="evenodd" d="M23.5355 11.5027L23.4936 11.4998L23.4521 11.4939L23.4134 11.4879L23.3748 11.4821L23.3391 11.4762L23.3006 11.4702L23.2618 11.4642L23.2203 11.4583L23.1787 11.4523L23.1312 11.4493L23.0777 11.4465L23.0212 11.4434H22.9587L22.8903 11.4465L22.813 11.4523L22.7269 11.4583L22.6673 11.4672L22.6109 11.4762L22.5604 11.4939L22.5157 11.5117L22.4742 11.5324L22.4355 11.5561L22.4057 11.5858L22.3788 11.6124L22.3611 11.645L22.3464 11.6776L22.3403 11.7132V11.7489L22.3492 11.7873L22.3611 11.8257L22.3852 11.8643L22.4146 11.9029L22.4742 11.9591L22.5455 12.0037L22.6287 12.0421L22.7178 12.0747L22.813 12.1043L22.911 12.137L23.0091 12.1726L23.1044 12.2112L23.1936 12.2614L23.2768 12.3237L23.351 12.3978L23.4134 12.4897L23.4611 12.6022L23.4908 12.7358L23.5027 12.8957L23.4908 13.0823L23.47 13.2217L23.4343 13.3431L23.3866 13.4558L23.3273 13.5535L23.2589 13.6396L23.1816 13.7135L23.0983 13.7789L23.0063 13.8352L22.911 13.8795L22.813 13.9181L22.7119 13.9477L22.608 13.9714L22.5068 13.9892L22.4087 13.9982L22.3106 14.0041L22.2184 14.0071H22.0905L21.9717 14.0041H21.8677L21.7696 14.0011L21.6805 13.9982L21.6003 13.9922L21.5289 13.9863L21.4603 13.9774L21.398 13.9714L21.3415 13.9597L21.2851 13.9508L21.2344 13.9359L21.184 13.9241L21.1363 13.9064L21.0889 13.8886L21.0382 13.8706L21.172 13.2159L21.1989 13.2217L21.2316 13.2305L21.2731 13.2425L21.3237 13.2543L21.3772 13.2661L21.4367 13.278L21.5022 13.2927L21.5735 13.3047L21.6478 13.3165L21.7251 13.3283L21.8054 13.3373L21.8886 13.3462L21.9747 13.3492L22.0609 13.3521H22.1471L22.2333 13.3492L22.3196 13.3314L22.3879 13.3076L22.4414 13.275L22.483 13.2335L22.5127 13.1921L22.5366 13.1445L22.5515 13.0972L22.5634 13.0528L22.5692 12.9668L22.5425 12.8928L22.4921 12.8335L22.4177 12.7831L22.3286 12.7386L22.2244 12.6942L22.1084 12.6526L21.9924 12.6053L21.8737 12.5519L21.7607 12.4897L21.6566 12.4125L21.5615 12.3207L21.4871 12.2081L21.4336 12.0747L21.4069 11.9147L21.41 11.725L21.4247 11.6094L21.4457 11.4998L21.4755 11.399L21.5109 11.3042L21.5584 11.2153L21.6121 11.1382L21.6745 11.0642L21.7488 10.999L21.8352 10.9427L21.9302 10.8953L22.0371 10.8507L22.156 10.8181L22.2899 10.7915L22.4355 10.7707L22.596 10.7589L22.7716 10.7559H22.8813L22.9824 10.7589L23.0746 10.7618L23.158 10.7648L23.2322 10.7707L23.3006 10.7767L23.3599 10.7826L23.4134 10.7885L23.4641 10.7945L23.5057 10.8033L23.5444 10.8093L23.58 10.8151L23.6097 10.8211L23.6366 10.824L23.6632 10.83L23.687 10.833L23.5355 11.5027Z" stroke="white" stroke-width="0.227168"/>
<path d="M24.2399 10.1011H25.0633L24.9414 10.8182H25.4379L25.3307 11.4879L24.8076 11.4733L24.5223 13.1269L24.5193 13.1861L24.5342 13.2365L24.564 13.275L24.6025 13.3077L24.6559 13.3283L24.7157 13.3463L24.7807 13.3581L24.8522 13.3639L24.9176 13.361L24.977 13.3551L25.0307 13.3463L25.0781 13.3344L25.1168 13.3225L25.1436 13.3137L25.1614 13.3077L25.1673 13.3048L25.0633 13.856L25.0425 13.8707L25.0216 13.8827L25.0008 13.8945L24.98 13.9064L24.9593 13.9153L24.9354 13.9242L24.9087 13.9331L24.8819 13.942L24.8522 13.9508L24.8226 13.9566L24.787 13.9626L24.7512 13.9686L24.7125 13.9745L24.6679 13.9804L24.6203 13.9864L24.5698 13.9923H24.3438L24.2249 13.9834L24.121 13.9715L24.0257 13.9537L23.9455 13.9331L23.8772 13.9064L23.8207 13.8767L23.7701 13.8412L23.7315 13.8026L23.7019 13.7612L23.6809 13.7107L23.6661 13.6603L23.6571 13.6041L23.6542 13.5419V13.4766L23.6631 13.4086L23.672 13.3344L24.2399 10.1011Z" fill="white"/>
<path fill-rule="evenodd" clip-rule="evenodd" d="M24.2399 10.1011H25.0633L24.9414 10.8182H25.4379L25.3307 11.4879L24.8076 11.4733L24.5223 13.1269L24.5193 13.1861L24.5342 13.2365L24.564 13.275L24.6025 13.3077L24.6559 13.3283L24.7157 13.3463L24.7807 13.3581L24.8522 13.3639L24.9176 13.361L24.977 13.3551L25.0307 13.3463L25.0781 13.3344L25.1168 13.3225L25.1436 13.3137L25.1614 13.3077L25.1673 13.3048L25.0633 13.856L25.0425 13.8707L25.0216 13.8827L25.0008 13.8945L24.98 13.9064L24.9593 13.9153L24.9354 13.9242L24.9087 13.9331L24.8819 13.942L24.8522 13.9508L24.8226 13.9566L24.787 13.9626L24.7512 13.9686L24.7125 13.9745L24.6679 13.9804L24.6203 13.9864L24.5698 13.9923H24.3438L24.2249 13.9834L24.121 13.9715L24.0257 13.9537L23.9455 13.9331L23.8772 13.9064L23.8207 13.8767L23.7701 13.8412L23.7315 13.8026L23.7019 13.7612L23.6809 13.7107L23.6661 13.6603L23.6571 13.6041L23.6542 13.5419V13.4766L23.6631 13.4086L23.672 13.3344L24.2399 10.1011Z" stroke="white" stroke-width="0.227168"/>
<path d="M26.0947 12.6053L26.0857 12.6555L26.083 12.7089L26.0889 12.7653L26.1008 12.8215L26.1216 12.8779L26.1454 12.9313L26.178 12.9875L26.2136 13.0379L26.2553 13.0883L26.3 13.1327L26.3475 13.1772L26.4011 13.2128L26.4545 13.2454L26.514 13.2721L26.5734 13.2927L26.633 13.3047L26.7102 13.3165L26.7845 13.3254L26.8617 13.3343L26.939 13.3402L27.0163 13.3431H27.0966L27.1739 13.3402L27.2542 13.3343L27.3346 13.3225L27.4148 13.3076L27.4979 13.2898L27.5783 13.2632L27.6613 13.2305L27.7476 13.195L27.8308 13.1476L27.9171 13.0972L27.7981 13.8262L27.7506 13.85L27.7031 13.8736L27.6555 13.8915L27.6109 13.9093L27.5663 13.9241L27.5187 13.9388L27.4711 13.9508L27.4205 13.9597L27.3672 13.9685L27.3078 13.9744L27.2453 13.9803L27.1768 13.9863L27.0997 13.9892H27.0194L26.9271 13.9922H26.8291L26.6834 13.9892L26.5348 13.9744L26.3861 13.9537L26.2376 13.9181L26.092 13.8736L25.952 13.8173L25.8184 13.7434L25.6936 13.6573L25.5776 13.5566L25.4764 13.4351L25.3904 13.2987L25.319 13.1417L25.2683 12.9668L25.2357 12.7682L25.2268 12.5488L25.2417 12.3058L25.2535 12.2112L25.2714 12.1014L25.295 11.9858L25.328 11.8613L25.3726 11.734L25.426 11.6064L25.4942 11.4762L25.5776 11.3516L25.6726 11.233L25.7886 11.1205L25.9194 11.0197L26.0681 10.9308L26.2403 10.8568L26.4337 10.8033L26.6477 10.7677L26.8884 10.7559L27.0043 10.7589L27.1265 10.7707L27.2481 10.7915L27.3702 10.8211L27.489 10.8655L27.605 10.9189L27.712 10.99L27.8101 11.073L27.8993 11.1739L27.9735 11.2923L28.033 11.4287L28.0747 11.5858L28.0984 11.7635L28.1014 11.9651L28.0806 12.1903L28.036 12.4393L28.0211 12.62H25.8539L25.9908 12.0361H27.2928L27.2989 11.9622L27.2958 11.891L27.2899 11.8257L27.278 11.7666L27.257 11.7102L27.2363 11.6598L27.2066 11.6153L27.1768 11.5739L27.1412 11.5384L27.1025 11.5086L27.058 11.4821L27.0134 11.4583L26.9659 11.4405L26.9182 11.4287L26.8677 11.4198L26.8142 11.4138L26.7578 11.4168L26.7043 11.4257L26.6536 11.4376L26.6032 11.4553L26.5526 11.479L26.508 11.5057L26.4634 11.5384L26.4248 11.5739L26.3861 11.6153L26.3505 11.6598L26.3177 11.7072L26.2911 11.7577L26.2643 11.811L26.2435 11.8703L26.2257 11.9295L26.2136 11.9917L26.0947 12.6053Z" fill="white"/>
<path fill-rule="evenodd" clip-rule="evenodd" d="M26.0947 12.6053L26.0857 12.6555L26.083 12.7089L26.0889 12.7653L26.1008 12.8215L26.1216 12.8779L26.1454 12.9313L26.178 12.9875L26.2136 13.0379L26.2553 13.0883L26.3 13.1327L26.3475 13.1772L26.4011 13.2128L26.4545 13.2454L26.514 13.2721L26.5734 13.2927L26.633 13.3047L26.7102 13.3165L26.7845 13.3254L26.8617 13.3343L26.939 13.3402L27.0163 13.3431H27.0966L27.1739 13.3402L27.2542 13.3343L27.3346 13.3225L27.4148 13.3076L27.4979 13.2898L27.5783 13.2632L27.6613 13.2305L27.7476 13.195L27.8308 13.1476L27.9171 13.0972L27.7981 13.8262L27.7506 13.85L27.7031 13.8736L27.6555 13.8915L27.6109 13.9093L27.5663 13.9241L27.5187 13.9388L27.4711 13.9508L27.4205 13.9597L27.3672 13.9685L27.3078 13.9744L27.2453 13.9803L27.1768 13.9863L27.0997 13.9892H27.0194L26.9271 13.9922H26.8291L26.6834 13.9892L26.5348 13.9744L26.3861 13.9537L26.2376 13.9181L26.092 13.8736L25.952 13.8173L25.8184 13.7434L25.6936 13.6573L25.5776 13.5566L25.4764 13.4351L25.3904 13.2987L25.319 13.1417L25.2683 12.9668L25.2357 12.7682L25.2268 12.5488L25.2417 12.3058L25.2535 12.2112L25.2714 12.1014L25.295 11.9858L25.328 11.8613L25.3726 11.734L25.426 11.6064L25.4942 11.4762L25.5776 11.3516L25.6726 11.233L25.7886 11.1205L25.9194 11.0197L26.0681 10.9308L26.2403 10.8568L26.4337 10.8033L26.6477 10.7677L26.8884 10.7559L27.0043 10.7589L27.1265 10.7707L27.2481 10.7915L27.3702 10.8211L27.489 10.8655L27.605 10.9189L27.712 10.99L27.8101 11.073L27.8993 11.1739L27.9735 11.2923L28.033 11.4287L28.0747 11.5858L28.0984 11.7635L28.1014 11.9651L28.0806 12.1903L28.036 12.4393L28.0211 12.62H25.8539L25.9908 12.0361H27.2928L27.2989 11.9622L27.2958 11.891L27.2899 11.8257L27.278 11.7666L27.257 11.7102L27.2363 11.6598L27.2066 11.6153L27.1768 11.5739L27.1412 11.5384L27.1025 11.5086L27.058 11.4821L27.0134 11.4583L26.9659 11.4405L26.9182 11.4287L26.8677 11.4198L26.8142 11.4138L26.7578 11.4168L26.7043 11.4257L26.6536 11.4376L26.6032 11.4553L26.5526 11.479L26.508 11.5057L26.4634 11.5384L26.4248 11.5739L26.3861 11.6153L26.3505 11.6598L26.3177 11.7072L26.2911 11.7577L26.2643 11.811L26.2435 11.8703L26.2257 11.9295L26.2136 11.9917L26.0947 12.6053Z" stroke="white" stroke-width="0.227168"/>
<path d="M33.1843 10.996L33.1457 10.9752L33.1071 10.9574L33.0655 10.9367L33.0209 10.9159L32.9763 10.8982L32.9257 10.8804L32.8752 10.8626L32.8216 10.8448L32.7652 10.83L32.7087 10.8181L32.6463 10.8062L32.5839 10.7974L32.5155 10.7915L32.447 10.7856H32.3757H32.3015H32.2272L32.1498 10.7915L32.0695 10.8003L31.9865 10.8151L31.903 10.8389L31.82 10.8715L31.7366 10.913L31.6533 10.9663L31.5732 11.0315L31.4958 11.1086L31.4215 11.2034L31.3501 11.3131L31.2848 11.4434L31.2223 11.5916L31.1659 11.7577L31.1184 11.9473L31.1005 12.0539L31.0885 12.1577L31.0826 12.2614L31.0857 12.3623L31.0946 12.4629L31.1154 12.5578L31.1421 12.6466L31.1748 12.7357L31.2194 12.8157L31.2728 12.8928L31.3353 12.9608L31.4066 13.023L31.487 13.0763L31.5791 13.1209L31.6802 13.1594L31.7932 13.186L31.8318 13.195L31.8763 13.2039L31.9298 13.2098L31.9893 13.2158L32.0547 13.2216H32.123H32.1975L32.2717 13.2158L32.349 13.2068L32.4263 13.1921L32.5005 13.1713L32.575 13.1476L32.6492 13.1149L32.7176 13.0763L32.7801 13.029L32.8394 12.9757L32.7058 13.767L32.6879 13.7818L32.6701 13.7994L32.6463 13.8203L32.6196 13.8381L32.5868 13.8618L32.5451 13.8826L32.4977 13.9032L32.4441 13.921L32.3757 13.9419L32.2984 13.9565L32.2094 13.9685L32.1052 13.9803L31.9893 13.9863L31.8556 13.9892L31.7038 13.9863L31.5374 13.9774L31.4007 13.9625L31.2639 13.933L31.1272 13.8886L30.9905 13.8293L30.8597 13.7581L30.7349 13.6691L30.6159 13.5655L30.506 13.4469L30.4079 13.3136L30.3246 13.1653L30.2533 12.9994L30.1998 12.8186L30.1642 12.62L30.1522 12.4096L30.1582 12.1784L30.1909 11.9326L30.2145 11.811L30.2413 11.6924L30.2711 11.5769L30.3008 11.4672L30.3335 11.3635L30.3721 11.2597L30.4108 11.162L30.4523 11.07L30.4971 10.9781L30.5417 10.8923L30.5922 10.8092L30.6455 10.7322L30.6991 10.6581L30.7587 10.5869L30.818 10.5218L30.8804 10.4596L30.9488 10.4003L31.0173 10.3439L31.0885 10.2936L31.163 10.2462L31.2432 10.2016L31.3234 10.1632L31.4066 10.1276L31.4929 10.095L31.5851 10.0653L31.6772 10.0416L31.7723 10.0209L31.8734 10.0031L31.9744 9.98829L32.0816 9.97641L32.1886 9.97052L32.3015 9.96753L32.3966 9.97052L32.4888 9.97641L32.5778 9.9852L32.6671 9.99717L32.7504 10.009L32.8306 10.0268L32.9079 10.0416L32.9792 10.0594L33.0476 10.0772L33.1071 10.095L33.1635 10.1128L33.2112 10.1305L33.2527 10.1454L33.2884 10.1572L33.3152 10.169L33.3329 10.175L33.1843 10.996Z" fill="white"/>
<path fill-rule="evenodd" clip-rule="evenodd" d="M33.1843 10.996L33.1457 10.9752L33.1071 10.9574L33.0655 10.9367L33.0209 10.9159L32.9763 10.8982L32.9257 10.8804L32.8752 10.8626L32.8216 10.8448L32.7652 10.83L32.7087 10.8181L32.6463 10.8062L32.5839 10.7974L32.5155 10.7915L32.447 10.7856H32.3757H32.3015H32.2272L32.1498 10.7915L32.0695 10.8003L31.9865 10.8151L31.903 10.8389L31.82 10.8715L31.7366 10.913L31.6533 10.9663L31.5732 11.0315L31.4958 11.1086L31.4215 11.2034L31.3501 11.3131L31.2848 11.4434L31.2223 11.5916L31.1659 11.7577L31.1184 11.9473L31.1005 12.0539L31.0885 12.1577L31.0826 12.2614L31.0857 12.3623L31.0946 12.4629L31.1154 12.5578L31.1421 12.6466L31.1748 12.7357L31.2194 12.8157L31.2728 12.8928L31.3353 12.9608L31.4066 13.023L31.487 13.0763L31.5791 13.1209L31.6802 13.1594L31.7932 13.186L31.8318 13.195L31.8763 13.2039L31.9298 13.2098L31.9893 13.2158L32.0547 13.2216H32.123H32.1975L32.2717 13.2158L32.349 13.2068L32.4263 13.1921L32.5005 13.1713L32.575 13.1476L32.6492 13.1149L32.7176 13.0763L32.7801 13.029L32.8394 12.9757L32.7058 13.767L32.6879 13.7818L32.6701 13.7994L32.6463 13.8203L32.6196 13.8381L32.5868 13.8618L32.5451 13.8826L32.4977 13.9032L32.4441 13.921L32.3757 13.9419L32.2984 13.9565L32.2094 13.9685L32.1052 13.9803L31.9893 13.9863L31.8556 13.9892L31.7038 13.9863L31.5374 13.9774L31.4007 13.9625L31.2639 13.933L31.1272 13.8886L30.9905 13.8293L30.8597 13.7581L30.7349 13.6691L30.6159 13.5655L30.506 13.4469L30.4079 13.3136L30.3246 13.1653L30.2533 12.9994L30.1998 12.8186L30.1642 12.62L30.1522 12.4096L30.1582 12.1784L30.1909 11.9326L30.2145 11.811L30.2413 11.6924L30.2711 11.5769L30.3008 11.4672L30.3335 11.3635L30.3721 11.2597L30.4108 11.162L30.4523 11.07L30.4971 10.9781L30.5417 10.8923L30.5922 10.8092L30.6455 10.7322L30.6991 10.6581L30.7587 10.5869L30.818 10.5218L30.8804 10.4596L30.9488 10.4003L31.0173 10.3439L31.0885 10.2936L31.163 10.2462L31.2432 10.2016L31.3234 10.1632L31.4066 10.1276L31.4929 10.095L31.5851 10.0653L31.6772 10.0416L31.7723 10.0209L31.8734 10.0031L31.9744 9.98829L32.0816 9.97641L32.1886 9.97052L32.3015 9.96753L32.3966 9.97052L32.4888 9.97641L32.5778 9.9852L32.6671 9.99717L32.7504 10.009L32.8306 10.0268L32.9079 10.0416L32.9792 10.0594L33.0476 10.0772L33.1071 10.095L33.1635 10.1128L33.2112 10.1305L33.2527 10.1454L33.2884 10.1572L33.3152 10.169L33.3329 10.175L33.1843 10.996Z" stroke="white" stroke-width="0.227168"/>
<path d="M40.5034 13.9921H39.68L39.7394 13.6633V13.6335L39.6918 13.6928L39.6414 13.7461L39.5909 13.7937L39.5374 13.8351L39.4839 13.8736L39.4303 13.9063L39.3769 13.933L39.3203 13.9596L39.2639 13.9803L39.2073 13.9951L39.1509 14.01L39.0914 14.0189L39.032 14.0278L38.9755 14.0337L38.916 14.0367H38.8566L38.7021 14.0248L38.5593 13.9921L38.4285 13.9418L38.3097 13.8736L38.2025 13.7876L38.1073 13.687L38.0242 13.5773L37.9529 13.4529L37.8934 13.3193L37.8459 13.1803L37.8132 13.035L37.7893 12.8838L37.7804 12.7326L37.7835 12.5784L37.7983 12.4273L37.8252 12.2762L37.8697 12.1013L37.9233 11.9354L37.9857 11.7843L38.0599 11.642L38.1372 11.5086L38.2263 11.3901L38.3186 11.2835L38.4166 11.1856L38.5207 11.0996L38.6306 11.0255L38.7437 10.9604L38.8566 10.91L38.9755 10.8685L39.0943 10.8419L39.2134 10.824L39.3352 10.8181L39.4214 10.8211L39.5046 10.83L39.5819 10.8447L39.6532 10.8655L39.7217 10.8892L39.7811 10.9159L39.8407 10.9485L39.8941 10.9811L39.9416 11.0166L39.9862 11.0551L40.0248 11.0937L40.0606 11.1323L40.0902 11.1708L40.117 11.2092L40.1408 11.2449L40.1586 11.2805L40.3667 10.1157H41.1753L40.5034 13.9921Z" fill="white"/>
<path fill-rule="evenodd" clip-rule="evenodd" d="M40.5034 13.9921H39.68L39.7394 13.6633V13.6335L39.6918 13.6928L39.6414 13.7461L39.5909 13.7937L39.5374 13.8351L39.4839 13.8736L39.4303 13.9063L39.3769 13.933L39.3203 13.9596L39.2639 13.9803L39.2073 13.9951L39.1509 14.01L39.0914 14.0189L39.032 14.0278L38.9755 14.0337L38.916 14.0367H38.8566L38.7021 14.0248L38.5593 13.9921L38.4285 13.9418L38.3097 13.8736L38.2025 13.7876L38.1073 13.687L38.0242 13.5773L37.9529 13.4529L37.8934 13.3193L37.8459 13.1803L37.8132 13.035L37.7893 12.8838L37.7804 12.7326L37.7835 12.5784L37.7983 12.4273L37.8252 12.2762L37.8697 12.1013L37.9233 11.9354L37.9857 11.7843L38.0599 11.642L38.1372 11.5086L38.2263 11.3901L38.3186 11.2835L38.4166 11.1856L38.5207 11.0996L38.6306 11.0255L38.7437 10.9604L38.8566 10.91L38.9755 10.8685L39.0943 10.8419L39.2134 10.824L39.3352 10.8181L39.4214 10.8211L39.5046 10.83L39.5819 10.8447L39.6532 10.8655L39.7217 10.8892L39.7811 10.9159L39.8407 10.9485L39.8941 10.9811L39.9416 11.0166L39.9862 11.0551L40.0248 11.0937L40.0606 11.1323L40.0902 11.1708L40.117 11.2092L40.1408 11.2449L40.1586 11.2805L40.3667 10.1157H41.1753L40.5034 13.9921Z" stroke="white" stroke-width="0.227168"/>
<path d="M39.157 13.2751L39.2401 13.2693L39.3174 13.2515L39.3888 13.2306L39.4571 13.198L39.5195 13.1625L39.579 13.1181L39.6354 13.0677L39.686 13.0143L39.7305 12.9551L39.7723 12.8898L39.8108 12.8216L39.8436 12.7506L39.8733 12.6765L39.897 12.5994L39.9178 12.5194L39.9327 12.4394L39.9476 12.3563L39.9565 12.2704V12.1904L39.9534 12.1075L39.9447 12.0304L39.9327 11.9563L39.912 11.8852L39.8881 11.817L39.8584 11.7578L39.8228 11.7014L39.7841 11.6539L39.7394 11.6125L39.689 11.577L39.6354 11.5532L39.579 11.5385L39.5166 11.5325L39.4363 11.5385L39.362 11.5503L39.2936 11.574L39.2252 11.6036L39.1657 11.6422L39.1064 11.6897L39.0558 11.74L39.0052 11.7963L38.9606 11.8614L38.919 11.9296L38.8804 12.0007L38.8477 12.0777L38.818 12.1578L38.7942 12.2377L38.7704 12.3238L38.7526 12.4097L38.7378 12.5401L38.7437 12.6824L38.7645 12.8276L38.8031 12.9669L38.8625 13.0884L38.9399 13.1861L39.038 13.2515L39.157 13.2751Z" fill="#FCB331"/>
<path d="M20.9017 13.3343L20.783 13.9921H20.0339L20.0547 13.8706L20.0696 13.7611L20.0814 13.6781L20.0932 13.6335L20.0517 13.681L20.0041 13.7283L19.9477 13.7728L19.8853 13.8144L19.8139 13.8559L19.7395 13.8914L19.6622 13.9269L19.582 13.9565L19.4958 13.9832L19.4096 14.004L19.3234 14.0219L19.2343 14.0336L19.148 14.0395L19.0618 14.0425L18.9785 14.0336L18.8983 14.0219L18.7942 13.9951L18.6991 13.9656L18.616 13.9269L18.5417 13.8825L18.4762 13.8351L18.4167 13.7817L18.3692 13.7254L18.3274 13.6661L18.2918 13.604L18.2622 13.5386L18.2384 13.4735L18.2205 13.4084L18.2086 13.3402L18.1997 13.272L18.1937 13.2067V13.1416L18.2025 13.0261L18.2205 12.9163L18.2502 12.8126L18.2888 12.7119L18.3364 12.617L18.39 12.5311L18.4524 12.4482L18.5239 12.374L18.598 12.3057L18.6812 12.2436L18.7675 12.1874L18.8567 12.1399L18.9518 12.0985L19.0499 12.0658L19.151 12.0391L19.255 12.0214H19.261L19.2758 12.0183L19.2967 12.0154L19.3293 12.0125L19.3649 12.0065L19.4066 12.0036L19.4511 11.9976L19.5018 11.9916L19.5524 11.9857L19.6029 11.9799L19.6564 11.977L19.7039 11.971L19.7514 11.9681L19.7959 11.965L19.8376 11.9621H19.8704H19.9388L20.01 11.965L20.0755 11.9681H20.1409L20.1944 11.971L20.236 11.9739L20.2657 11.977H20.2746L20.2806 11.9561L20.2985 11.9028L20.3133 11.8405L20.3192 11.7843L20.3074 11.719L20.2806 11.6598L20.245 11.6064L20.1975 11.562L20.1409 11.5234L20.0784 11.4968L20.0073 11.4789L19.9297 11.4731L19.8467 11.4701L19.7575 11.4671H19.6653L19.57 11.4701L19.4719 11.4761L19.377 11.4848L19.2818 11.4938L19.1895 11.5057L19.1004 11.5175L19.0142 11.5323L18.937 11.5472L18.8657 11.562L18.8002 11.5798L18.7468 11.5975L18.7051 11.6182L18.6724 11.636L18.8836 10.9218L18.9487 10.8952L19.0142 10.8715L19.0855 10.8506L19.1569 10.8358L19.2281 10.8211L19.3056 10.8092L19.3828 10.7974L19.463 10.7914L19.5464 10.7855L19.6324 10.7825L19.7217 10.7795H19.8139H19.9092H20.0073L20.1111 10.7825L20.2152 10.7855L20.2985 10.7914L20.3876 10.8062L20.4797 10.827L20.5749 10.8536L20.6671 10.8892L20.7562 10.9307L20.8455 10.9811L20.9286 11.0374L21.0029 11.1026L21.0684 11.1738L21.1277 11.2537L21.1723 11.3427L21.2021 11.4375L21.22 11.5383V11.6509L21.2021 11.7695L20.9017 13.3343Z" fill="white"/>
<path fill-rule="evenodd" clip-rule="evenodd" d="M20.9017 13.3343L20.783 13.9921H20.0339L20.0547 13.8706L20.0696 13.7611L20.0814 13.6781L20.0932 13.6335L20.0517 13.681L20.0041 13.7283L19.9477 13.7728L19.8853 13.8144L19.8139 13.8559L19.7395 13.8914L19.6622 13.9269L19.582 13.9565L19.4958 13.9832L19.4096 14.004L19.3234 14.0219L19.2343 14.0336L19.148 14.0395L19.0618 14.0425L18.9785 14.0336L18.8983 14.0219L18.7942 13.9951L18.6991 13.9656L18.616 13.9269L18.5417 13.8825L18.4762 13.8351L18.4167 13.7817L18.3692 13.7254L18.3274 13.6661L18.2918 13.604L18.2622 13.5386L18.2384 13.4735L18.2205 13.4084L18.2086 13.3402L18.1997 13.272L18.1937 13.2067V13.1416L18.2025 13.0261L18.2205 12.9163L18.2502 12.8126L18.2888 12.7119L18.3364 12.617L18.39 12.5311L18.4524 12.4482L18.5239 12.374L18.598 12.3057L18.6812 12.2436L18.7675 12.1874L18.8567 12.1399L18.9518 12.0985L19.0499 12.0658L19.151 12.0391L19.255 12.0214H19.261L19.2758 12.0183L19.2967 12.0154L19.3293 12.0125L19.3649 12.0065L19.4066 12.0036L19.4511 11.9976L19.5018 11.9916L19.5524 11.9857L19.6029 11.9799L19.6564 11.977L19.7039 11.971L19.7514 11.9681L19.7959 11.965L19.8376 11.9621H19.8704H19.9388L20.01 11.965L20.0755 11.9681H20.1409L20.1944 11.971L20.236 11.9739L20.2657 11.977H20.2746L20.2806 11.9561L20.2985 11.9028L20.3133 11.8405L20.3192 11.7843L20.3074 11.719L20.2806 11.6598L20.245 11.6064L20.1975 11.562L20.1409 11.5234L20.0784 11.4968L20.0073 11.4789L19.9297 11.4731L19.8467 11.4701L19.7575 11.4671H19.6653L19.57 11.4701L19.4719 11.4761L19.377 11.4848L19.2818 11.4938L19.1895 11.5057L19.1004 11.5175L19.0142 11.5323L18.937 11.5472L18.8657 11.562L18.8002 11.5798L18.7468 11.5975L18.7051 11.6182L18.6724 11.636L18.8836 10.9218L18.9487 10.8952L19.0142 10.8715L19.0855 10.8506L19.1569 10.8358L19.2281 10.8211L19.3056 10.8092L19.3828 10.7974L19.463 10.7914L19.5464 10.7855L19.6324 10.7825L19.7217 10.7795H19.8139H19.9092H20.0073L20.1111 10.7825L20.2152 10.7855L20.2985 10.7914L20.3876 10.8062L20.4797 10.827L20.5749 10.8536L20.6671 10.8892L20.7562 10.9307L20.8455 10.9811L20.9286 11.0374L21.0029 11.1026L21.0684 11.1738L21.1277 11.2537L21.1723 11.3427L21.2021 11.4375L21.22 11.5383V11.6509L21.2021 11.7695L20.9017 13.3343Z" stroke="white" stroke-width="0.227168"/>
<path d="M20.1851 12.5608L20.182 12.546L20.1702 12.5312L20.1524 12.5222L20.1227 12.5163L20.0901 12.5104L20.0514 12.5073H20.0069H19.9623L19.9146 12.5104L19.864 12.5163L19.8165 12.5222L19.7689 12.5282L19.7243 12.5341L19.6828 12.5431L19.6471 12.5519L19.6144 12.5608L19.5935 12.5667L19.5697 12.5756L19.5371 12.5875L19.5045 12.6022L19.4657 12.62L19.427 12.6409L19.3855 12.6615L19.3468 12.6853L19.3053 12.7148L19.2665 12.7445L19.2309 12.7801L19.1982 12.8157L19.1684 12.8543L19.1476 12.8957L19.1297 12.9431L19.1208 12.9905L19.1179 13.0912L19.1329 13.1713L19.1626 13.2305L19.2011 13.275L19.2456 13.3047L19.2964 13.3225L19.3439 13.3313L19.3914 13.3343L19.4806 13.3313L19.5607 13.3225L19.6382 13.3105L19.7064 13.2927L19.766 13.2721L19.8223 13.2454L19.8729 13.2188L19.9176 13.186L19.9563 13.1566L19.992 13.1209L20.0215 13.0883L20.0454 13.0528L20.0661 13.0172L20.084 12.9816L20.0989 12.949L20.1078 12.9163L20.1316 12.8305L20.1524 12.7327L20.1702 12.6378L20.1851 12.5608Z" fill="#ED1C2E"/>
<path d="M14.6468 13.9923H13.8383L14.5131 10.1011H15.9192L16.0529 12.4097L17.025 10.1011H18.4935L17.8039 13.9923H16.9952L17.5065 11.085H17.4738L16.264 13.9923H15.3513L15.3454 13.8707L15.3246 13.5477L15.298 13.0884L15.2681 12.5609L15.2385 12.0304L15.2117 11.5651L15.191 11.2272L15.1849 11.085H15.1758H15.1581H15.1404L14.6468 13.9923Z" fill="white"/>
<path fill-rule="evenodd" clip-rule="evenodd" d="M14.6468 13.9923H13.8383L14.5131 10.1011H15.9192L16.0529 12.4097L17.025 10.1011H18.4935L17.8039 13.9923H16.9952L17.5065 11.085H17.4738L16.264 13.9923H15.3513L15.3454 13.8707L15.3246 13.5477L15.298 13.0884L15.2681 12.5609L15.2385 12.0304L15.2117 11.5651L15.191 11.2272L15.1849 11.085H15.1758H15.1581H15.1404L14.6468 13.9923Z" stroke="white" stroke-width="0.227168"/>
<path d="M35.6549 13.3343L35.5331 13.9921H34.7869L34.7927 13.8706L34.7959 13.7639V13.6839L34.8016 13.6484L34.763 13.6928L34.7185 13.7372L34.665 13.7788L34.6055 13.8203L34.5431 13.8587L34.4716 13.8943L34.3974 13.9298L34.3232 13.9596L34.2428 13.9832L34.1597 14.007L34.0762 14.0219L33.9931 14.0336L33.9069 14.0395L33.8236 14.0425L33.7433 14.0336L33.6631 14.0219L33.5561 13.9951L33.461 13.9656L33.3778 13.9269L33.3004 13.8825L33.235 13.8351L33.1786 13.7817L33.1309 13.7254L33.0894 13.6661L33.0538 13.604L33.027 13.5386L33.0032 13.4735L32.9883 13.4084L32.9765 13.3402L32.9676 13.272L32.9615 13.2067V13.1416L32.9676 13.0261L32.9854 12.9163L33.0121 12.8126L33.0507 12.7119L33.0953 12.617L33.1519 12.5311L33.2142 12.4482L33.2826 12.374L33.36 12.3057L33.4402 12.2436L33.5263 12.1874L33.6185 12.1399L33.7107 12.0985L33.8088 12.0658L33.9069 12.0391L34.008 12.0214H34.0139L34.0288 12.0183L34.0495 12.0154L34.0794 12.0125L34.1179 12.0065L34.1597 12.0036L34.2042 11.9976L34.2516 11.9916L34.3022 11.9857L34.3557 11.9799L34.4063 11.977L34.4569 11.971L34.5044 11.9681L34.5461 11.965L34.5876 11.9621H34.6204H34.6918L34.763 11.965L34.8312 11.9681H34.8967L34.9533 11.971L35.0009 11.9739L35.0276 11.977H35.0396L35.0454 11.9561L35.0543 11.9028L35.0632 11.8405L35.0693 11.7843L35.0573 11.719L35.0336 11.6598L34.9948 11.6064L34.9503 11.562L34.8967 11.5234L34.8344 11.4968L34.769 11.4789L34.6976 11.4731L34.6144 11.4701L34.5253 11.4671H34.433L34.3378 11.4701L34.2398 11.4761L34.1447 11.4848L34.0495 11.4938L33.9574 11.5057L33.8682 11.5175L33.7821 11.5323L33.7048 11.5472L33.6335 11.562L33.568 11.5798L33.5145 11.5975L33.4729 11.6182L33.4402 11.636L33.6483 10.9218L33.7137 10.8952L33.7821 10.8715L33.8504 10.8506L33.9218 10.8358L33.9961 10.8211L34.0704 10.8092L34.1476 10.7974L34.228 10.7914L34.3112 10.7855L34.3974 10.7825L34.4836 10.7795H34.5757H34.6679H34.763L34.8641 10.7825L34.9652 10.7855L35.0484 10.7914L35.1376 10.8062L35.2298 10.827L35.3249 10.8536L35.4171 10.8892L35.5091 10.9307L35.5983 10.9811L35.6816 11.0374L35.7559 11.1026L35.8243 11.1738L35.8837 11.2537L35.9283 11.3427L35.9611 11.4375L35.9818 11.5383V11.6509L35.9669 11.7695L35.6549 13.3343Z" fill="white"/>
<path d="M35.5333 14.0129L35.5511 13.9951L35.6729 13.3373L35.6373 13.3313L35.5154 13.9892L35.5333 13.9714V14.0129L35.548 14.01L35.5511 13.9951L35.5333 14.0129Z" fill="white"/>
<path d="M34.7691 14.0063L34.787 14.0411H35.5332V13.9714H34.787L34.8046 14.0063H34.7691L34.7661 14.0411H34.787L34.7691 14.0063Z" fill="white"/>
<path d="M34.8496 13.6603L34.8042 13.6367L34.784 13.684L34.7791 13.764V13.8707L34.769 13.9922H34.8292L34.8394 13.8707L34.8496 13.764L34.8444 13.684V13.6603L34.7993 13.6367L34.8496 13.6603Z" fill="white"/>
<path d="M33.6605 14.0397L33.7436 14.0514L33.8239 14.0604L33.9072 14.0575L33.9934 14.0514L34.0797 14.0397L34.1627 14.0249L34.2462 14.0011L34.3293 13.9775L34.4037 13.9477L34.4808 13.9122L34.5522 13.8767L34.6147 13.8352L34.6771 13.7938L34.7307 13.7522L34.7781 13.7047L34.8169 13.6603L34.7872 13.6367L34.7485 13.6811L34.7068 13.7227L34.6534 13.764L34.5969 13.8056L34.5346 13.8411L34.4629 13.8767L34.3917 13.9122L34.3174 13.9419L34.2401 13.9657L34.1568 13.9893L34.0737 14.0041L33.9934 14.016L33.9072 14.022L33.8239 14.0249L33.7436 14.016L33.6666 14.0041L33.6605 14.0397Z" fill="white"/>
<path d="M32.941 13.1416L32.944 13.2067L32.9499 13.272L32.9588 13.343L32.9707 13.4113L32.9857 13.4764L33.0093 13.5445L33.0362 13.6128L33.0748 13.675L33.1164 13.7372L33.1639 13.7937L33.2234 13.8499L33.2919 13.8974L33.3692 13.9447L33.4552 13.9832L33.5535 14.0128L33.6605 14.0395L33.6665 14.004L33.5593 13.9773L33.4672 13.9476L33.3869 13.9091L33.3096 13.8676L33.2472 13.8202L33.1936 13.7698L33.1461 13.7134L33.1045 13.6572L33.0719 13.5949L33.0452 13.5328L33.0213 13.4706L33.0065 13.4053L32.9946 13.3372L32.9857 13.272L32.9796 13.2067L32.9826 13.1416H32.941Z" fill="white"/>
<path d="M34.0083 12.0037L33.9043 12.0214L33.8031 12.0481L33.705 12.0806L33.6099 12.1221L33.5176 12.1696L33.4285 12.2287L33.3482 12.2912L33.2709 12.3623L33.1997 12.4362L33.1372 12.5193L33.0777 12.6081L33.0332 12.7059L32.9946 12.8068L32.9679 12.9134L32.9499 13.0261L32.941 13.1417H32.9826L32.9857 13.0261L33.0035 12.9192L33.0303 12.8186L33.0688 12.7179L33.1135 12.626L33.1669 12.5431L33.2293 12.46L33.2948 12.386L33.3721 12.3207L33.4524 12.2585L33.5355 12.2052L33.6277 12.1577L33.7168 12.1162L33.8149 12.0836L33.9101 12.057L34.0083 12.0392V12.0037Z" fill="white"/>
<path d="M34.6207 11.9414H34.5879L34.5463 11.9507L34.5047 11.9555L34.4572 11.9603L34.4066 11.9696L34.356 11.9746L34.3025 11.9842L34.2519 11.9935L34.2045 12.0031L34.1599 12.0126L34.1182 12.0174L34.0797 12.027L34.0498 12.0317L34.0259 12.0363L34.0141 12.0413H34.0083V12.0984H34.0141L34.032 12.0934L34.0498 12.0888L34.0797 12.0841L34.1182 12.0745L34.1599 12.0698L34.2045 12.0602L34.2519 12.0506L34.3025 12.0413L34.356 12.0317L34.4066 12.027L34.4572 12.0174L34.5047 12.0126L34.5463 12.0078H34.5879H34.6207V11.9414Z" fill="white"/>
<path d="M35.022 11.9959L35.04 11.9709H35.028L35.0013 11.966L34.9538 11.9612L34.8972 11.9511H34.8317H34.7635L34.6922 11.9414H34.6208V12.0108H34.6922H34.7635L34.8317 12.0208H34.8972H34.9538L35.0013 12.0257L35.028 12.0309H35.04L35.0577 12.0059L35.04 12.0309L35.0548 12.0357L35.0577 12.0059L35.022 11.9959Z" fill="white"/>
<path d="M35.0724 11.7844H35.0673L35.0623 11.8406L35.0472 11.8999L35.0322 11.9533L35.022 11.974L35.0824 11.98L35.0924 11.9591L35.1075 11.9058L35.1226 11.8406L35.1378 11.7844H35.1328H35.0724Z" fill="white"/>
<path d="M34.6979 11.4909V11.4939L34.7663 11.4969L34.8287 11.5148L34.8881 11.5413L34.9387 11.5769L34.9803 11.6184L35.016 11.6688L35.0398 11.7222L35.0516 11.7845H35.0873L35.0754 11.7162L35.0516 11.651L35.01 11.5947L34.9625 11.5473L34.906 11.5058L34.8406 11.479L34.7722 11.4613L34.6979 11.4524V11.4554V11.4909Z" fill="white"/>
<path d="M33.4227 11.6332L33.4524 11.6509L33.482 11.6361L33.5208 11.6153L33.5713 11.5976L33.6367 11.5799L33.708 11.565L33.7854 11.5502L33.8716 11.5354L33.9578 11.5235L34.0499 11.5117L34.1451 11.5027L34.2402 11.4938L34.3382 11.4879H34.4334H34.5256H34.6147L34.6979 11.4909V11.4553L34.6147 11.4523L34.5256 11.4465H34.4334L34.3382 11.4523L34.2402 11.4583L34.1451 11.4672L34.0499 11.4762L33.9578 11.4879L33.8656 11.4998L33.7793 11.5147L33.7022 11.5295L33.6307 11.5443L33.5654 11.562L33.5088 11.5799L33.4642 11.6005L33.4286 11.6213L33.4584 11.6391L33.4227 11.6332Z" fill="white"/>
<path d="M33.6427 10.9041L33.6307 10.9189L33.4227 11.6332L33.4584 11.6391L33.6666 10.9248L33.6545 10.9396L33.6427 10.9041L33.6338 10.907L33.6307 10.9189L33.6427 10.9041Z" fill="white"/>
<path d="M34.9657 10.7677L34.8646 10.7618L34.7635 10.7588H34.6684H34.5762H34.4841L34.3979 10.7648L34.3117 10.7677L34.2285 10.7737L34.1481 10.7795L34.0678 10.7914L33.9936 10.8032L33.9193 10.8181L33.8479 10.8329L33.7766 10.8536L33.7082 10.8774L33.6428 10.904L33.6547 10.9395L33.7202 10.913L33.7884 10.8892L33.8538 10.8685L33.9252 10.8536L33.9996 10.8388L34.074 10.827L34.1481 10.8151L34.2285 10.8092L34.3117 10.8032L34.3979 10.8003H34.4841H34.5762H34.6684H34.7635L34.8646 10.8032H34.9657V10.7677Z" fill="white"/>
<path d="M35.9853 11.7725L36.0001 11.651V11.5384L35.9794 11.4347L35.9467 11.3369L35.8991 11.245L35.8395 11.1621L35.7682 11.088L35.6939 11.0227L35.6077 10.9664L35.5186 10.9131L35.4234 10.8716L35.3313 10.836L35.2332 10.8093L35.1411 10.7886L35.0488 10.7738L34.9657 10.7678V10.8034L35.0488 10.8093L35.1351 10.8241L35.2273 10.8449L35.3193 10.8716L35.4115 10.9072L35.5008 10.9487L35.5899 10.9961L35.6701 11.0524L35.7445 11.1176L35.8099 11.1857L35.8693 11.2628L35.911 11.3487L35.9436 11.4405L35.9645 11.5384V11.651L35.9495 11.7667L35.9853 11.7725Z" fill="white"/>
<path d="M35.673 13.3373L35.985 11.7724L35.9493 11.7666L35.6373 13.3313L35.673 13.3373Z" fill="white"/>
<path d="M34.9358 12.5609L34.93 12.5433L34.918 12.5283L34.8972 12.5194L34.8676 12.5105L34.8348 12.5074L34.7963 12.5046H34.7515L34.7069 12.5074L34.6594 12.5134L34.6119 12.5194L34.5642 12.5253L34.5198 12.5313L34.4751 12.5402L34.4363 12.5462L34.3978 12.555L34.3681 12.5609L34.3472 12.5639L34.3236 12.5727L34.2938 12.5817L34.2609 12.5935L34.2224 12.6112L34.1868 12.629L34.1451 12.6499L34.1065 12.6765L34.0677 12.7032L34.0292 12.7359L33.9965 12.7683L33.9637 12.807L33.9371 12.8483L33.9163 12.8929L33.8984 12.9403L33.8895 12.9906L33.8866 13.0913L33.9013 13.1715L33.9251 13.2307L33.9608 13.2751L34.0054 13.3048L34.056 13.3226L34.1065 13.3315L34.1569 13.3345L34.2463 13.3315L34.3294 13.3226L34.4067 13.3077L34.4751 13.287L34.5406 13.2633L34.5971 13.2366L34.6505 13.2069L34.698 13.1715L34.7396 13.1387L34.7753 13.1002L34.8081 13.0647L34.8348 13.0262L34.8556 12.9906L34.8704 12.9551L34.8823 12.9194L34.8912 12.8869L34.9032 12.8039L34.918 12.718L34.93 12.635L34.9358 12.5609Z" fill="#FCB331"/>
<path d="M35.8783 13.9922H36.7166L37.017 12.3059L37.0287 12.2408L37.0464 12.1755L37.0644 12.1103L37.0882 12.0452L37.118 11.98L37.1536 11.9178L37.1922 11.8584L37.2399 11.8022L37.2934 11.7517L37.3527 11.7044L37.421 11.6599L37.4984 11.6243L37.5847 11.5947L37.6798 11.571L37.7838 11.5532L37.8997 11.5473H37.9414H37.965H37.9739L38.1077 10.7856L38.0245 10.7915L37.9443 10.8004L37.87 10.8152L37.7986 10.836L37.7332 10.8597L37.6709 10.8893L37.6114 10.9219L37.5551 10.9575L37.5015 10.999L37.4509 11.0405L37.4032 11.088L37.3557 11.1354L37.3112 11.1857L37.2666 11.2421L37.222 11.2953L37.1804 11.3547L37.2695 10.8182H36.4342L35.8783 13.9922Z" fill="white"/>
<path fill-rule="evenodd" clip-rule="evenodd" d="M35.8783 13.9922H36.7166L37.017 12.3059L37.0287 12.2408L37.0464 12.1755L37.0644 12.1103L37.0882 12.0452L37.118 11.98L37.1536 11.9178L37.1922 11.8584L37.2399 11.8022L37.2934 11.7517L37.3527 11.7044L37.421 11.6599L37.4984 11.6243L37.5847 11.5947L37.6798 11.571L37.7838 11.5532L37.8997 11.5473H37.9414H37.965H37.9739L38.1077 10.7856L38.0245 10.7915L37.9443 10.8004L37.87 10.8152L37.7986 10.836L37.7332 10.8597L37.6709 10.8893L37.6114 10.9219L37.5551 10.9575L37.5015 10.999L37.4509 11.0405L37.4032 11.088L37.3557 11.1354L37.3112 11.1857L37.2666 11.2421L37.222 11.2953L37.1804 11.3547L37.2695 10.8182H36.4342L35.8783 13.9922Z" stroke="white" stroke-width="0.227168"/>
<path d="M28.0067 13.9922H28.845H28.86L29.1452 12.3059L29.157 12.2408L29.172 12.1785L29.1869 12.1163L29.2077 12.057L29.2315 11.9977L29.2611 11.9415L29.2968 11.888L29.3384 11.8377L29.3861 11.7931L29.4396 11.7489L29.5049 11.7133L29.5763 11.6806L29.6595 11.6539L29.7517 11.6302L29.8528 11.6154L29.9686 11.6065H29.9775L29.9896 11.6095L30.0043 11.6125H30.0192L30.0341 11.6154L30.0459 11.6184L30.0549 11.6214H30.0578L30.0609 11.6095L30.0698 11.5739L30.0817 11.5206L30.0965 11.4554L30.1173 11.3783L30.1382 11.2953L30.165 11.2123L30.1917 11.1294L30.2153 11.0731L30.2452 11.0167L30.2749 10.9605L30.3046 10.9101L30.3314 10.8656L30.3522 10.8301L30.3671 10.8093L30.3729 10.8004H30.37L30.358 10.7975L30.3433 10.7945L30.3225 10.7915H30.3016L30.2777 10.7885L30.257 10.7856H30.2363L30.144 10.7915L30.0609 10.8004L29.9836 10.8152L29.9122 10.8331L29.8438 10.8568L29.7815 10.8864L29.7249 10.916L29.6713 10.9515L29.6208 10.9901L29.5732 11.0345L29.5288 11.079L29.4842 11.1294L29.4396 11.1798L29.3979 11.2361L29.3534 11.2953L29.3088 11.3547L29.4157 10.8182H28.5627L28.0067 13.9922Z" fill="white"/>
<path fill-rule="evenodd" clip-rule="evenodd" d="M28.0067 13.9922H28.845H28.86L29.1452 12.3059L29.157 12.2408L29.172 12.1785L29.1869 12.1163L29.2077 12.057L29.2315 11.9977L29.2611 11.9415L29.2968 11.888L29.3384 11.8377L29.3861 11.7931L29.4396 11.7489L29.5049 11.7133L29.5763 11.6806L29.6595 11.6539L29.7517 11.6302L29.8528 11.6154L29.9686 11.6065H29.9775L29.9896 11.6095L30.0043 11.6125H30.0192L30.0341 11.6154L30.0459 11.6184L30.0549 11.6214H30.0578L30.0609 11.6095L30.0698 11.5739L30.0817 11.5206L30.0965 11.4554L30.1173 11.3783L30.1382 11.2953L30.165 11.2123L30.1917 11.1294L30.2153 11.0731L30.2452 11.0167L30.2749 10.9605L30.3046 10.9101L30.3314 10.8656L30.3522 10.8301L30.3671 10.8093L30.3729 10.8004H30.37L30.358 10.7975L30.3433 10.7945L30.3225 10.7915H30.3016L30.2777 10.7885L30.257 10.7856H30.2363L30.144 10.7915L30.0609 10.8004L29.9836 10.8152L29.9122 10.8331L29.8438 10.8568L29.7815 10.8864L29.7249 10.916L29.6713 10.9515L29.6208 10.9901L29.5732 11.0345L29.5288 11.079L29.4842 11.1294L29.4396 11.1798L29.3979 11.2361L29.3534 11.2953L29.3088 11.3547L29.4157 10.8182H28.5627L28.0067 13.9922Z" stroke="white" stroke-width="0.227168"/>
</svg>
