<svg width="56" height="24" viewBox="0 0 56 24" fill="none" xmlns="http://www.w3.org/2000/svg">
<path d="M14.9433 6.02388C14.498 6.55412 13.7854 6.97234 13.0728 6.9126C12.9837 6.19565 13.3326 5.43389 13.7408 4.9634C14.1862 4.41822 14.9656 4.02987 15.5965 4C15.6707 4.74682 15.3813 5.4787 14.9433 6.02388ZM15.5891 7.05449C14.5573 6.99475 13.674 7.64448 13.1841 7.64448C12.6868 7.64448 11.9371 7.08437 11.1206 7.0993C10.0592 7.11424 9.07194 7.71916 8.53008 8.68256C7.41667 10.6094 8.2406 13.4622 9.31689 15.0305C9.8439 15.8072 10.4748 16.6586 11.3062 16.6287C12.093 16.5989 12.4047 16.1134 13.3549 16.1134C14.3124 16.1134 14.587 16.6287 15.4184 16.6138C16.2794 16.5989 16.8213 15.8371 17.3483 15.0604C17.9495 14.1792 18.1945 13.3203 18.2093 13.2755C18.1945 13.2606 16.5466 12.6258 16.5318 10.7139C16.5169 9.11572 17.8308 8.35396 17.8901 8.30915C17.1479 7.20386 15.9899 7.08437 15.5891 7.05449ZM21.5495 4.88872V16.5316H23.3458V12.5511H25.8325C28.1038 12.5511 29.6997 10.9828 29.6997 8.71243C29.6997 6.4421 28.1335 4.88872 25.8918 4.88872H21.5495ZM23.3458 6.41223H25.4168C26.9756 6.41223 27.8663 7.24867 27.8663 8.7199C27.8663 10.1911 26.9756 11.035 25.4094 11.035H23.3458V6.41223ZM32.9805 16.6213C34.1088 16.6213 35.1554 16.0462 35.6305 15.1351H35.6676V16.5316H37.3303V10.7363C37.3303 9.05597 35.9942 7.97308 33.9381 7.97308C32.0304 7.97308 30.6201 9.07091 30.5682 10.5795H32.1863C32.3199 9.86254 32.9805 9.39204 33.8861 9.39204C34.9847 9.39204 35.6008 9.90735 35.6008 10.8558V11.4981L33.3591 11.6325C31.2733 11.7595 30.1451 12.6183 30.1451 14.1119C30.1451 15.6205 31.3104 16.6213 32.9805 16.6213ZM33.463 15.2396C32.5055 15.2396 31.8968 14.7766 31.8968 14.0671C31.8968 13.3353 32.4832 12.9096 33.604 12.8423L35.6008 12.7154V13.3726C35.6008 14.4629 34.6803 15.2396 33.463 15.2396ZM39.5497 19.6982C41.3014 19.6982 42.1253 19.026 42.8453 16.9872L46 8.08511H44.174L42.0585 14.9633H42.0214L39.9059 8.08511H38.028L41.0713 16.5615L40.908 17.0768C40.6334 17.9506 40.188 18.2867 39.3938 18.2867C39.2527 18.2867 38.9781 18.2717 38.8668 18.2568V19.6533C38.9707 19.6832 39.416 19.6982 39.5497 19.6982Z" fill="black"/>
</svg>
