<svg width="56" height="56" viewBox="0 0 56 56" fill="none" xmlns="http://www.w3.org/2000/svg">
<path d="M12.2928 13.7601C13.9344 14.1209 15.2432 14.4704 16.2193 14.8087C17.2175 15.1243 18.1492 15.5528 19.0144 16.094C19.8795 16.6351 20.4896 17.2891 20.8445 18.0558C21.2216 18.8224 21.4102 19.7695 21.4102 20.897C21.4102 23.2872 20.545 25.0911 18.8147 26.3088C17.1066 27.5039 15.0768 28.1015 12.7254 28.1015C9.6863 28.1015 7.34596 27.3799 5.7044 25.9367C4.06284 24.471 3.06459 22.6107 2.70966 20.3558H6.503C6.85793 21.7538 7.52343 22.8024 8.4995 23.5014C9.49774 24.1779 10.8953 24.5161 12.6921 24.5161C14.2672 24.5161 15.4761 24.223 16.3191 23.6367C17.1843 23.0279 17.6168 22.171 17.6168 21.0661C17.6168 20.0739 17.2175 19.3749 16.4189 18.969C15.6203 18.5631 14.0564 18.1009 11.7272 17.5822C11.5719 17.5597 11.461 17.5371 11.3944 17.5146C10.1078 17.2214 9.04299 16.9283 8.20002 16.6351C7.35706 16.342 6.52518 15.9474 5.7044 15.4513C4.9058 14.9552 4.30685 14.3238 3.90755 13.5572C3.53044 12.7679 3.34188 11.8434 3.34188 10.7836C3.34188 8.55122 4.17375 6.80364 5.8375 5.54088C7.50125 4.25557 9.51993 3.61292 11.8935 3.61292C14.6443 3.61292 16.7739 4.2443 18.2823 5.50706C19.813 6.76982 20.7558 8.41592 21.1107 10.4454H17.3174C16.5853 8.28063 14.7885 7.19826 11.9268 7.19826C10.3962 7.19826 9.20936 7.51395 8.3664 8.14533C7.52343 8.77671 7.10195 9.62231 7.10195 10.6821C7.10195 11.4939 7.45688 12.1027 8.16675 12.5086C8.8988 12.892 10.2742 13.3091 12.2928 13.7601Z" fill="#2B3F6C"/>
<path d="M37.3309 23.6367L37.9964 26.7485C36.5102 27.6505 34.7688 28.1015 32.7723 28.1015C30.798 28.1015 29.1897 27.4588 27.9474 26.1735C26.7051 24.8882 26.084 23.0166 26.084 20.5587V12.6777H22.69V9.0924H26.084V4.8644L29.8441 4.0188V9.0924H37.3642V12.6777H29.8441V20.3558C29.8441 23.1519 31.042 24.55 33.4378 24.55C34.3251 24.55 35.6228 24.2455 37.3309 23.6367Z" fill="#2B3F6C"/>
<path d="M50.1673 9.0924H54.1935L42.0814 36.1516H38.0552L42.88 25.3279L35.6594 9.0924H39.6857L44.8765 21.2014L50.1673 9.0924Z" fill="#2B3F6C"/>
<path d="M5.7044 51.9812V25.9367L9.49775 25.9368V51.9812H5.7044Z" fill="#2B3F6C"/>
<path d="M26.2064 33.378H29.9665V51.9812H26.2064V48.9032C24.7867 51.2258 22.7569 52.3871 20.1171 52.3871C18.0985 52.3871 16.5123 51.7445 15.3588 50.4591C14.2053 49.1738 13.6285 47.3924 13.6285 45.115V33.378H17.3886V44.337C17.3886 47.2684 18.6974 48.7341 21.315 48.7341C22.8679 48.7341 24.0658 48.238 24.9087 47.2459C25.7739 46.2311 26.2064 44.8218 26.2064 43.0179V33.378Z" fill="#2B3F6C"/>
<path d="M41.3868 52.3871C38.9689 52.3871 36.9502 51.8234 35.3308 50.6959C33.7336 49.5684 32.7575 48.0013 32.4026 45.9944H36.2292C36.5176 47.0316 37.0722 47.7983 37.893 48.2944C38.7137 48.7679 39.9006 49.0047 41.4534 49.0047C42.6735 49.0047 43.6274 48.8243 44.315 48.4635C45.0249 48.0802 45.3798 47.5503 45.3798 46.8738C45.3798 46.4228 45.2024 46.0508 44.8474 45.7576C44.5147 45.4645 44.1154 45.2503 43.6495 45.115C43.2059 44.9797 42.4738 44.788 41.4534 44.5399C41.0763 44.4497 40.7879 44.3821 40.5882 44.337C37.8597 43.6605 35.963 42.9615 34.8982 42.2399C33.8334 41.4958 33.301 40.3796 33.301 38.8913C33.301 37.0423 33.9998 35.5991 35.3973 34.5619C36.8171 33.5021 38.6916 32.9721 41.0208 32.9721C43.3057 32.9721 45.1136 33.4795 46.4446 34.4942C47.7978 35.4864 48.6519 36.8619 49.0068 38.6207H45.2135C44.6811 37.1099 43.2613 36.3545 40.9543 36.3545C39.7564 36.3545 38.8136 36.5462 38.1259 36.9295C37.4382 37.3129 37.0944 37.8315 37.0944 38.4855C37.0944 39.0492 37.3717 39.4663 37.9262 39.7369C38.4808 39.985 39.6454 40.3232 41.4201 40.7517C42.5736 41.0223 43.4832 41.259 44.1487 41.462C44.8363 41.6424 45.5462 41.8904 46.2783 42.2061C47.0103 42.5218 47.5649 42.86 47.942 43.2208C48.3191 43.5816 48.6297 44.0326 48.8737 44.5738C49.1177 45.0924 49.2397 45.7125 49.2397 46.4341C49.2397 48.3508 48.4966 49.8278 47.0103 50.865C45.5462 51.8797 43.6717 52.3871 41.3868 52.3871Z" fill="#2B3F6C"/>
</svg>
