<svg width="115" height="40" viewBox="0 0 115 40" fill="none" xmlns="http://www.w3.org/2000/svg">
<path d="M51.8072 28.617V27.4949H52.6563C53.364 27.4949 53.5459 27.4646 53.7784 27.2725C54.3344 26.8378 54.3344 26.8378 54.3344 21.0758V15.7687H56.7706L56.7403 21.3588C56.71 26.8783 56.6999 26.949 56.4775 27.6364C56.2955 28.1621 56.1237 28.4452 55.7598 28.8091C55.1128 29.4459 54.5871 29.6279 53.0506 29.6885L51.8072 29.7492V28.617ZM27.4145 24.9273C26.2824 24.4522 25.4939 23.512 25.4029 22.5416L25.3726 22.1878L26.4441 22.1574L27.5257 22.1271L27.7178 22.5113C28.3446 23.7445 30.71 23.5323 30.5584 22.2585C30.518 21.8744 30.0327 21.5914 28.941 21.3285C26.4138 20.722 25.6758 20.075 25.6758 18.498C25.6758 17.5781 25.8982 17.103 26.5957 16.4965C27.6875 15.526 29.4565 15.3239 31.0032 15.9911C31.8725 16.3651 32.6004 17.3557 32.6004 18.1746C32.6004 18.3868 32.5701 18.397 31.5187 18.397H30.427L30.2551 18.0937C29.8002 17.2951 28.2435 17.3052 27.9604 18.1038C27.7279 18.771 28.1121 19.0641 29.7194 19.4685C31.4176 19.883 32.1354 20.2974 32.5397 21.1061C33.1058 22.2181 32.9441 23.32 32.1051 24.159C31.3873 24.8767 30.7201 25.0991 29.2139 25.1396C28.1222 25.1699 27.9402 25.1497 27.4145 24.9273ZM46.7022 24.9879C44.3772 24.1691 43.1035 21.8036 43.6291 19.2865C44.1346 16.8503 46.5607 15.243 49.0879 15.6575C51.514 16.0517 53.1112 18.0128 53 20.4693L52.9697 21.1365L49.4316 21.1567L45.8935 21.1769L45.934 21.4296C46.0755 22.4708 47.1571 23.2492 48.4612 23.2492C49.2395 23.2492 49.8865 23.0167 50.4425 22.5214L50.9075 22.117L51.6353 22.491C52.6867 23.0369 52.6867 23.0268 52.2722 23.5727C51.8577 24.1085 51.2007 24.5735 50.4021 24.8868C49.6035 25.2002 47.4503 25.2609 46.7022 24.9879ZM50.6548 19.2966C50.493 18.4879 49.8562 17.8814 48.906 17.6388C48.4207 17.5175 48.1882 17.5074 47.8041 17.5882C46.8033 17.8106 46.0755 18.4576 45.8935 19.2865L45.8228 19.61H50.7255L50.6548 19.2966ZM61.0366 24.9677C59.8842 24.5532 58.9036 23.6738 58.3881 22.6022C58.0039 21.8239 57.8321 20.6816 57.9433 19.8122C58.2566 17.5377 59.6517 16.0719 61.916 15.6474C63.0179 15.4452 64.3523 15.799 65.1205 16.5066L65.5552 16.911V15.7687H67.9814L67.9611 20.3985L67.9308 25.0183L66.7481 25.0486L65.5552 25.0789V23.8456L65.2115 24.1994C65.0296 24.4016 64.605 24.6847 64.2815 24.8363C63.4829 25.2103 61.8554 25.271 61.0366 24.9677ZM64.2006 22.6629C65.6462 21.9249 66.0101 19.984 64.9386 18.7609C63.7457 17.4063 61.5218 17.6287 60.6727 19.1956C60.3593 19.7718 60.2986 20.7624 60.5513 21.3588C60.8243 22.026 61.4814 22.6225 62.1991 22.855C62.654 22.9965 63.7457 22.8954 64.2006 22.6629ZM73.0661 24.9576C72.7527 24.8363 72.3484 24.5634 72.0754 24.3005L71.6205 23.8355V25.0688H69.2955V10.7142H71.6205V13.7974C71.6205 15.4957 71.6408 16.8806 71.6711 16.8806C71.7014 16.8806 71.8935 16.7088 72.1159 16.4864C73.0762 15.526 75.007 15.3239 76.5537 16.0214C77.1703 16.3044 78.1104 17.1536 78.4642 17.7702C79.0708 18.8013 79.2932 20.5602 78.9596 21.7834C78.5552 23.3099 77.5544 24.4319 76.1392 24.9576C75.3406 25.2508 73.8344 25.2508 73.0661 24.9576ZM75.3406 22.6831C77.14 21.7935 77.1299 19.0439 75.3305 18.124C74.0366 17.4568 72.4191 18.0229 71.8834 19.327C71.6812 19.8122 71.6711 20.9242 71.8733 21.3993C72.2877 22.3798 73.1268 22.9459 74.1983 22.9459C74.6633 22.9459 74.9464 22.8752 75.3406 22.6831ZM84.0645 24.998C83.8219 24.9172 83.3973 24.6139 83.1143 24.3511C82.8313 24.0781 82.5987 23.8557 82.5886 23.8557V25.0183L81.4059 25.0486L80.2131 25.0789V10.7142H82.6493L82.6392 13.7772C82.6392 15.4553 82.6291 16.8604 82.6392 16.8907C82.6392 16.9211 82.8616 16.729 83.1345 16.4662C84.2364 15.4047 86.2986 15.2935 87.8554 16.2337C88.6034 16.6785 88.8258 16.8907 89.2605 17.5377C90.2208 18.9934 90.3421 21.0151 89.5739 22.7033C89.2099 23.4817 88.3507 24.3612 87.5116 24.7655C86.8748 25.089 86.7636 25.1092 85.6718 25.1396C84.8025 25.1598 84.3981 25.1193 84.0645 24.998ZM85.9852 22.8448C86.521 22.6932 87.1275 22.117 87.3903 21.5105C87.7138 20.7624 87.6532 19.61 87.2488 19.0035C86.1672 17.3659 83.8017 17.4669 82.9121 19.2057C82.6594 19.701 82.6291 19.8425 82.6695 20.4693C82.7302 21.5509 83.2861 22.4102 84.1555 22.7842C84.5599 22.9662 85.4596 22.9864 85.9852 22.8448ZM94.1329 24.9273C92.1617 24.0983 91.1306 22.5517 91.1306 20.4187C91.1306 17.9319 92.6773 16.0719 95.0933 15.6676C96.7309 15.3845 98.5606 16.0012 99.5108 17.1435C100.229 18.0128 100.683 19.4281 100.613 20.6007L100.582 21.1466L97.0039 21.1263L93.4253 21.1162L93.4961 21.4397C93.8499 23.2492 96.65 23.8962 98.0552 22.5011L98.4696 22.0867L99.2885 22.5416C99.7434 22.7943 100.148 23.0268 100.188 23.0672C100.229 23.1077 99.9455 23.4514 99.5614 23.8355C98.5303 24.8565 97.8934 25.0991 96.084 25.1396C94.8203 25.1699 94.6788 25.1598 94.1329 24.9273ZM98.2675 19.3371C97.9238 17.9117 96.2356 17.1536 94.8203 17.7803C94.1835 18.0634 93.8802 18.3363 93.6477 18.8519C93.2737 19.6505 93.1524 19.61 95.8919 19.61H98.3281L98.2675 19.3371ZM34.0156 20.4187V15.7687H36.3407V25.0688H34.0156V20.4187ZM39.07 21.3791V17.6893H37.3515V15.7687H39.07V12.2306H41.3951V15.7687H43.4169V17.6893H41.3951V25.0688H39.07V21.3791ZM101.846 20.4187V15.7687H104.292L104.272 16.7088C104.252 17.9218 104.242 17.9218 104.515 17.3355C105.131 15.9809 106.253 15.3744 107.618 15.6575C107.921 15.7181 108.215 15.8091 108.285 15.8495C108.366 15.9001 108.346 16.1932 108.184 16.9615C107.992 17.9319 107.962 18.0027 107.77 17.9421C107.376 17.8309 106.415 17.7601 106.061 17.8309C105.526 17.9319 104.828 18.5991 104.565 19.2865C104.353 19.8122 104.333 20.0851 104.282 22.4405L104.222 25.0183L103.039 25.0486L101.846 25.0789V20.4187ZM34.3492 13.3425C33.3788 12.7562 33.4293 11.4219 34.4402 10.9265C35.0063 10.6637 35.4309 10.6536 35.9464 10.9265C36.7046 11.3107 36.9068 12.271 36.4013 12.9988C36.0273 13.5245 34.9456 13.7065 34.3492 13.3425ZM54.9409 13.4638C54.0918 13.0898 53.7784 12.1295 54.2636 11.4117C55.0218 10.2694 56.8919 10.6334 57.0335 11.9475C57.1143 12.8169 56.437 13.5548 55.5576 13.5346C55.3049 13.5346 55.0218 13.5043 54.9409 13.4638Z" fill="#323231"/>
<path d="M11.6751 24.9374C8.91537 24.1186 6.96436 21.9047 6.51957 19.0742C6.27696 17.6085 6.51957 16.1326 7.24741 14.6567C7.79328 13.5447 9.12765 12.1699 10.2093 11.6038C11.4527 10.9568 12.2614 10.7648 13.6969 10.7648C15.1323 10.7648 15.941 10.9568 17.1844 11.6038C18.2661 12.1699 19.6004 13.5447 20.1463 14.6567C20.3788 15.1318 20.6517 15.8091 20.7427 16.173C20.9752 17.0626 20.9752 18.8316 20.7427 19.7111C20.5709 20.3581 20.0553 21.5105 19.6914 22.0665L19.5094 22.3394L20.9247 23.7546L22.3399 25.1699L17.3866 25.1598C12.5647 25.1598 12.413 25.1497 11.6751 24.9374Z" fill="#F06A22"/>
<path d="M10.9876 21.5812C10.9371 21.4902 10.9978 20.8938 11.1393 20.0851L11.3718 18.7507L10.462 17.9016C9.95654 17.4366 9.50164 16.9817 9.4511 16.8806C9.26914 16.547 9.5724 16.4156 10.9371 16.2235L12.2512 16.0517L12.8679 14.7982C13.6867 13.1504 13.7069 13.1504 14.5257 14.7982L15.1424 16.0517L16.4565 16.2235C17.8212 16.4156 18.1245 16.547 17.9425 16.8806C17.892 16.9817 17.4371 17.4366 16.9316 17.9016L16.0218 18.7507L16.224 19.9133C16.4666 21.2982 16.4767 21.6217 16.2847 21.6924C16.2038 21.7227 15.5872 21.4599 14.9099 21.1061L13.6968 20.4692L12.4838 21.1061C11.8267 21.4498 11.2303 21.7329 11.1797 21.7329C11.1191 21.7329 11.0382 21.6621 10.9876 21.5812Z" fill="#FFFDFB"/>
</svg>
