<svg width="115" height="40" viewBox="0 0 115 40" fill="none" xmlns="http://www.w3.org/2000/svg">
<path d="M35.4249 13.2112L44.9732 13.2112L44.9732 14.9887L41.2137 14.9887L41.2137 25.0089L39.153 25.0089L39.153 14.9887L35.4092 14.9887L35.4249 13.2112ZM44.5642 16.4674L46.326 16.4674L46.326 18.119L46.3575 18.119C46.4204 17.8831 46.5305 17.6629 46.6878 17.4426C46.8451 17.2224 47.0339 17.0179 47.2698 16.8449C47.49 16.6561 47.7417 16.5145 48.0249 16.4044C48.2923 16.2943 48.5754 16.2314 48.8586 16.2314C49.0788 16.2314 49.2361 16.2471 49.3148 16.2471C49.3934 16.2629 49.4878 16.2786 49.5664 16.2786L49.5664 18.0876C49.4406 18.0561 49.299 18.0404 49.1575 18.0246C49.0159 18.0089 48.89 17.9932 48.7485 17.9932C48.4339 17.9932 48.135 18.0561 47.8518 18.182C47.5687 18.3078 47.3327 18.4966 47.1125 18.7325C46.908 18.9842 46.735 19.2831 46.6092 19.6449C46.4833 20.0067 46.4204 20.4314 46.4204 20.9033L46.4204 24.9617L44.5328 24.9617L44.5642 16.4674ZM58.2181 25.0089L56.3619 25.0089L56.3619 23.8134L56.3305 23.8134C56.0945 24.2539 55.7485 24.5842 55.2923 24.8516C54.8361 25.119 54.3642 25.2449 53.8923 25.2449C52.7754 25.2449 51.9575 24.9774 51.4541 24.4112C50.9507 23.8606 50.699 23.0112 50.699 21.8943L50.699 16.4674L52.5867 16.4674L52.5867 21.7055C52.5867 22.4606 52.7282 22.9954 53.0271 23.2943C53.3103 23.6089 53.7192 23.7662 54.2383 23.7662C54.6316 23.7662 54.9619 23.7033 55.2294 23.5774C55.4968 23.4516 55.717 23.2943 55.8743 23.0898C56.0473 22.8853 56.1574 22.6336 56.2361 22.3505C56.3147 22.0673 56.3462 21.7527 56.3462 21.4224L56.3462 16.4674L58.2338 16.4674L58.2338 25.0089L58.2181 25.0089ZM61.4271 22.2718C61.49 22.8224 61.6945 23.1999 62.0563 23.4359C62.4181 23.6561 62.8585 23.7662 63.3619 23.7662C63.5349 23.7662 63.7394 23.7505 63.9597 23.719C64.1799 23.6876 64.4001 23.6404 64.5889 23.5617C64.7934 23.4831 64.9507 23.373 65.0765 23.2156C65.2024 23.0583 65.2653 22.8696 65.2496 22.6336C65.2338 22.3977 65.1552 22.1932 64.9821 22.0359C64.8091 21.8786 64.6046 21.7685 64.3529 21.6584C64.1012 21.564 63.8024 21.4853 63.472 21.4224C63.1417 21.3595 62.8114 21.2808 62.4653 21.2022C62.1192 21.1235 61.7732 21.0291 61.4428 20.919C61.1125 20.8089 60.8293 20.6673 60.5619 20.4628C60.3102 20.2741 60.09 20.0381 59.9484 19.7393C59.7911 19.4404 59.7125 19.0943 59.7125 18.6539C59.7125 18.182 59.8226 17.8044 60.0586 17.4898C60.2788 17.1752 60.5777 16.9235 60.9237 16.7348C61.2698 16.546 61.663 16.4044 62.0878 16.3258C62.5125 16.2471 62.9215 16.2157 63.299 16.2157C63.7394 16.2157 64.1642 16.2629 64.5574 16.3572C64.9507 16.4516 65.3282 16.5932 65.6428 16.8134C65.9731 17.0179 66.2406 17.3011 66.4451 17.6314C66.6653 17.9617 66.7911 18.3707 66.854 18.8426L64.8878 18.8426C64.7934 18.3864 64.5889 18.0876 64.2743 17.9303C63.9439 17.773 63.5821 17.6943 63.1574 17.6943C63.0316 17.6943 62.8585 17.71 62.6855 17.7258C62.4968 17.7572 62.3395 17.7887 62.1664 17.8516C62.0091 17.9145 61.8675 18.0089 61.7574 18.119C61.6473 18.2291 61.5844 18.3864 61.5844 18.5752C61.5844 18.8112 61.663 18.9842 61.8203 19.1258C61.9777 19.2673 62.1821 19.3775 62.4496 19.4876C62.7012 19.582 63.0001 19.6606 63.3305 19.7235C63.6608 19.7864 64.0069 19.8651 64.3529 19.9437C64.699 20.0224 65.0293 20.1168 65.3597 20.2269C65.69 20.337 65.9889 20.4786 66.2406 20.6831C66.4922 20.8718 66.7125 21.1078 66.8698 21.3909C67.0271 21.6741 67.1057 22.0359 67.1057 22.4449C67.1057 22.9482 66.9956 23.373 66.7597 23.7348C66.5237 24.0808 66.2248 24.3797 65.863 24.5999C65.5012 24.8201 65.0765 24.9774 64.6361 25.0876C64.1799 25.1819 63.7394 25.2449 63.299 25.2449C62.7642 25.2449 62.2608 25.1819 61.8046 25.0561C61.3484 24.9303 60.9394 24.7415 60.6091 24.5055C60.2788 24.2539 60.0114 23.955 59.8226 23.5774C59.6338 23.2157 59.5237 22.7752 59.508 22.2561L61.4114 22.2561L61.4114 22.2718L61.4271 22.2718ZM67.6406 16.4674L69.072 16.4674L69.072 13.8876L70.9597 13.8876L70.9597 16.4516L72.6585 16.4516L72.6585 17.8516L70.9597 17.8516L70.9597 22.4134C70.9597 22.6179 70.9754 22.7752 70.9911 22.9325C71.0068 23.0741 71.054 23.1999 71.1012 23.2943C71.1641 23.3887 71.2585 23.4673 71.3686 23.5145C71.4945 23.5617 71.6518 23.5932 71.872 23.5932C71.9978 23.5932 72.1394 23.5932 72.2653 23.5775C72.3911 23.5617 72.5327 23.546 72.6585 23.5145L72.6585 24.9774C72.454 25.0089 72.2495 25.0246 72.045 25.0404C71.8405 25.0718 71.6518 25.0718 71.4316 25.0718C70.9282 25.0718 70.5349 25.0246 70.2361 24.9303C69.9372 24.8359 69.7012 24.6943 69.5282 24.5213C69.3552 24.3325 69.245 24.1123 69.1821 23.8449C69.1192 23.5774 69.0877 23.2471 69.072 22.901L69.072 17.8673L67.6406 17.8673L67.6406 16.4359L67.6406 16.4674ZM73.9799 16.4674L75.7574 16.4674L75.7574 17.6314L75.7888 17.6314C76.0563 17.128 76.4181 16.782 76.89 16.5617C77.3619 16.3415 77.8653 16.2314 78.4315 16.2314C79.1079 16.2314 79.69 16.3415 80.1933 16.5932C80.6967 16.8292 81.1057 17.1438 81.436 17.5685C81.7664 17.9775 82.0181 18.4651 82.1754 19.0157C82.3327 19.5662 82.427 20.164 82.427 20.7775C82.427 21.3595 82.3484 21.91 82.2068 22.4449C82.0495 22.9797 81.8293 23.4673 81.5304 23.8763C81.2315 24.2853 80.854 24.6156 80.3821 24.8673C79.9102 25.119 79.3754 25.2449 78.7461 25.2449C78.4787 25.2449 78.1956 25.2134 77.9282 25.1662C77.6608 25.119 77.3933 25.0404 77.1417 24.9303C76.89 24.8201 76.654 24.6786 76.4495 24.5055C76.2293 24.3325 76.0563 24.128 75.9147 23.9078L75.8832 23.9078L75.8832 28.1707L73.9956 28.1707L73.9956 16.4674L73.9799 16.4674ZM80.5709 20.746C80.5709 20.3685 80.5237 19.9909 80.4136 19.6291C80.3192 19.2673 80.1619 18.9527 79.9574 18.6696C79.7529 18.3865 79.5012 18.1662 79.2181 17.9932C78.9192 17.8202 78.5731 17.7415 78.1956 17.7415C77.4091 17.7415 76.8113 18.0089 76.4023 18.5595C76.0091 19.11 75.8046 19.8494 75.8046 20.7617C75.8046 21.2022 75.8518 21.5954 75.9619 21.9572C76.072 22.319 76.2136 22.6336 76.4338 22.901C76.6383 23.1685 76.89 23.373 77.1888 23.5303C77.4877 23.6876 77.8181 23.7662 78.2113 23.7662C78.6518 23.7662 78.9978 23.6718 79.2967 23.4988C79.5956 23.3258 79.8315 23.0898 80.036 22.8224C80.2248 22.5392 80.3664 22.2246 80.445 21.8628C80.5237 21.4853 80.5709 21.1235 80.5709 20.746ZM83.89 13.2112L85.7776 13.2112L85.7776 14.9887L83.89 14.9887L83.89 13.2112ZM83.89 16.4674L85.7776 16.4674L85.7776 25.0089L83.89 25.0089L83.89 16.4674ZM87.4607 13.2112L89.3484 13.2112L89.3484 25.0089L87.4607 25.0089L87.4607 13.2112ZM95.1057 25.2449C94.4293 25.2449 93.8158 25.1348 93.2809 24.8988C92.7461 24.6628 92.3057 24.364 91.9281 23.9707C91.5663 23.5775 91.2832 23.0898 91.0944 22.5393C90.9057 21.9887 90.7956 21.3752 90.7956 20.7303C90.7956 20.0853 90.8899 19.4876 91.0944 18.937C91.2832 18.3865 91.5663 17.9145 91.9281 17.5056C92.2899 17.1123 92.7461 16.7977 93.2809 16.5775C93.8158 16.3572 94.4293 16.2314 95.1057 16.2314C95.7821 16.2314 96.3955 16.3415 96.9304 16.5775C97.4652 16.7977 97.9056 17.1123 98.2832 17.5056C98.645 17.8988 98.9281 18.3865 99.1169 18.937C99.3056 19.4876 99.4158 20.0853 99.4158 20.7303C99.4158 21.3909 99.3214 21.9887 99.1169 22.5393C98.9124 23.0898 98.645 23.5617 98.2832 23.9707C97.9214 24.364 97.4652 24.6786 96.9304 24.8988C96.3955 25.119 95.7978 25.2449 95.1057 25.2449ZM95.1057 23.7505C95.5146 23.7505 95.8922 23.6561 96.191 23.4831C96.5057 23.31 96.7416 23.0741 96.9461 22.7909C97.1506 22.5078 97.2922 22.1775 97.3865 21.8314C97.4809 21.4696 97.5281 21.1078 97.5281 20.7303C97.5281 20.3685 97.4809 20.0067 97.3865 19.6449C97.2922 19.2831 97.1506 18.9685 96.9461 18.6853C96.7416 18.4022 96.4899 18.182 96.191 18.0089C95.8764 17.8359 95.5146 17.7415 95.1057 17.7415C94.6967 17.7415 94.3191 17.8359 94.0203 18.0089C93.7057 18.182 93.4697 18.4179 93.2652 18.6853C93.0607 18.9685 92.9191 19.2831 92.8248 19.6449C92.7304 20.0067 92.6832 20.3685 92.6832 20.7303C92.6832 21.1078 92.7304 21.4696 92.8248 21.8314C92.9191 22.1932 93.0607 22.5078 93.2652 22.7909C93.4697 23.0741 93.7214 23.31 94.0203 23.4831C94.3349 23.6718 94.6967 23.7505 95.1057 23.7505ZM99.982 16.4674L101.414 16.4674L101.414 13.8876L103.301 13.8876L103.301 16.4516L105 16.4516L105 17.8516L103.301 17.8516L103.301 22.4134C103.301 22.6179 103.317 22.7752 103.333 22.9325C103.348 23.0741 103.396 23.1999 103.443 23.2943C103.506 23.3887 103.6 23.4673 103.71 23.5145C103.836 23.5617 103.993 23.5932 104.214 23.5932C104.339 23.5932 104.481 23.5932 104.607 23.5775C104.733 23.5617 104.874 23.546 105 23.5145L105 24.9774C104.796 25.0089 104.591 25.0246 104.387 25.0404C104.182 25.0718 103.993 25.0718 103.773 25.0718C103.27 25.0718 102.876 25.0246 102.578 24.9303C102.279 24.8359 102.043 24.6943 101.87 24.5213C101.697 24.3325 101.587 24.1123 101.524 23.8449C101.461 23.5774 101.429 23.2471 101.414 22.901L101.414 17.8674L99.982 17.8674L99.982 16.4359L99.982 16.4674Z" fill="black"/>
<path d="M33.2227 13.2112L24.5867 13.2112L21.9283 5L19.2542 13.2112L10.6182 13.1955L17.6025 18.2764L14.9283 26.4876L21.9126 21.4067L28.8968 26.4876L26.2384 18.2764L33.2227 13.2112Z" fill="#00B67A"/>
<path d="M26.8362 20.1325L26.2384 18.2764L21.9283 21.4067L26.8362 20.1325Z" fill="#005128"/>
</svg>
