<svg width="200" height="40" viewBox="0 0 200 40" fill="none" xmlns="http://www.w3.org/2000/svg">
<path fill-rule="evenodd" clip-rule="evenodd" d="M37.0955 5H31V33.9535H37.0955V5ZM47.0007 5H40.9053V24.8103H47.0007V5ZM85.8588 5H70.6201V11.0955H85.8588V5ZM50.8105 5H56.906V33.9535H50.8105V5ZM70.6201 14.9052H76.7156V33.9535H70.6201V14.9052ZM66.8113 5H60.7158V11.0955H66.8113V5ZM60.7158 14.9052H66.8113V33.9535H60.7158V14.9052ZM98.8125 5H101.327L102.546 10.0288L103.765 5H106.203V11.7812H104.603V6.52387L103.232 11.7812H101.708L100.336 6.52387V11.7812H98.8125V5ZM111.765 10.7146V10.7146H111.841V7.9716C111.765 6.8287 110.927 6.52393 109.555 6.52393C108.87 6.52393 107.574 6.67631 107.498 8.12399H108.946C109.022 7.59063 109.251 7.43825 109.708 7.43825C110.089 7.43825 110.393 7.59063 110.393 7.9716V8.42876L109.86 8.50495C108.26 8.73353 107.27 9.19069 107.27 10.4098C107.27 11.4003 107.955 11.9336 108.946 11.9336C109.479 11.9336 110.241 11.6289 110.47 11.2479C110.47 11.4003 110.47 11.6289 110.546 11.7813H111.917C111.765 11.4765 111.765 11.0956 111.765 10.7146ZM109.327 9.57166L110.317 9.26689V9.72404C110.317 10.486 109.936 10.8669 109.327 10.8669C108.946 10.8669 108.641 10.6384 108.641 10.2574C108.641 9.80024 108.946 9.64785 109.327 9.57166ZM116.413 8.20018C116.108 7.81921 115.499 7.66683 115.042 7.66683C114.661 7.66683 114.432 7.81921 114.432 8.04779C114.432 8.38203 114.905 8.47392 115.473 8.58441C116.33 8.75098 117.404 8.95982 117.404 10.105C117.404 11.4765 116.185 11.9336 115.118 11.9336C114.051 11.9336 113.365 11.6289 112.68 10.9431L113.594 10.105C114.051 10.5622 114.508 10.7907 115.194 10.7907C115.423 10.7907 116.032 10.7146 116.032 10.2574C116.032 9.95851 115.575 9.87066 115.019 9.7639C114.158 9.59849 113.061 9.38767 113.061 8.27637C113.061 6.98109 114.204 6.52393 115.194 6.52393C115.956 6.52393 116.718 6.8287 117.404 7.28586L116.413 8.20018ZM120.375 7.66683C120.832 7.66683 121.441 7.81921 121.746 8.20018L122.737 7.28586C122.051 6.8287 121.289 6.52393 120.527 6.52393C119.537 6.52393 118.394 6.98109 118.394 8.27637C118.394 9.38767 119.491 9.59849 120.352 9.7639C120.908 9.87066 121.365 9.95851 121.365 10.2574C121.365 10.7146 120.756 10.7907 120.527 10.7907C119.841 10.7907 119.384 10.5622 118.927 10.105L118.013 10.9431C118.698 11.6289 119.308 11.9336 120.451 11.9336C121.594 11.9336 122.737 11.4765 122.737 10.105C122.737 8.95982 121.663 8.75098 120.806 8.58441C120.238 8.47392 119.765 8.38203 119.765 8.04779C119.765 7.81921 119.994 7.66683 120.375 7.66683ZM127.994 10.7146C127.994 11.0955 127.994 11.4765 128.147 11.7813H126.775C126.699 11.6289 126.699 11.4003 126.699 11.2479C126.471 11.6289 125.709 11.9336 125.175 11.9336C124.185 11.9336 123.499 11.4003 123.499 10.4098C123.499 9.19069 124.49 8.73353 126.09 8.50495L126.623 8.42876V7.9716C126.623 7.59063 126.318 7.43825 125.937 7.43825C125.48 7.43825 125.251 7.59063 125.175 8.12399H123.651C123.728 6.67631 125.023 6.52393 125.709 6.52393C127.08 6.52393 127.994 6.8287 127.994 7.9716V10.7146ZM126.623 9.26689L125.632 9.57166C125.251 9.64785 124.947 9.80024 124.947 10.2574C124.947 10.6384 125.251 10.8669 125.632 10.8669C126.242 10.8669 126.623 10.486 126.623 9.72404V9.26689ZM131.727 7.743C131.956 7.743 132.337 7.81919 132.642 8.42873L133.785 7.81919C133.251 6.98106 132.489 6.6001 131.499 6.6001C130.127 6.6001 128.984 7.59061 128.984 9.26686C128.984 10.9431 130.051 11.9336 131.575 11.9336C132.565 11.9336 133.404 11.4003 133.861 10.5621L132.794 10.0288C132.565 10.6383 132.185 10.7907 131.727 10.7907C130.965 10.7907 130.584 10.105 130.584 9.26686C130.584 8.42874 130.889 7.743 131.727 7.743ZM134.699 5H136.147V7.20961C136.452 6.82864 137.061 6.60006 137.518 6.60006C138.585 6.60006 139.118 7.20961 139.118 8.20012V11.7812H137.671V8.73347C137.671 7.97154 137.214 7.74296 136.909 7.74296C136.604 7.74296 136.147 7.97154 136.147 8.88586V11.7812H134.699V5ZM143.537 11.7812H144.985L144.908 6.75244H143.461V9.95256C143.461 10.4859 143.156 10.7145 142.699 10.7145C142.165 10.7145 142.013 10.4859 142.013 10.0288V6.75244H140.565V10.4859C140.565 11.2478 140.87 11.9336 142.089 11.9336C142.546 11.9336 143.156 11.7812 143.537 11.324V11.7812ZM149.633 8.20018C149.328 7.81921 148.719 7.66683 148.261 7.66683C147.88 7.66683 147.652 7.81921 147.652 8.04779C147.652 8.38203 148.124 8.47392 148.693 8.58441C149.549 8.75098 150.623 8.95982 150.623 10.105C150.623 11.4765 149.404 11.9336 148.338 11.9336C147.271 11.9336 146.585 11.6289 145.899 10.9431L146.814 10.105C147.271 10.5622 147.728 10.7907 148.414 10.7907C148.642 10.7907 149.252 10.7146 149.252 10.2574C149.252 9.95851 148.795 9.87066 148.239 9.7639C147.378 9.59849 146.28 9.38767 146.28 8.27637C146.28 6.98109 147.423 6.52393 148.414 6.52393C149.176 6.52393 149.938 6.8287 150.623 7.28586L149.633 8.20018ZM153.823 10.8669C153.366 10.8669 152.756 10.5621 152.756 9.57163H156.261C156.185 7.97158 155.575 6.6001 153.747 6.6001C152.147 6.6001 151.232 7.6668 151.232 9.41925C151.232 10.8669 152.147 11.9336 153.747 11.9336C154.89 11.9336 155.652 11.5527 156.185 10.5621L155.042 9.9526C154.661 10.5621 154.356 10.8669 153.823 10.8669ZM153.747 7.6668C154.128 7.6668 154.661 7.89538 154.737 8.65732H152.756C152.832 7.97158 153.366 7.6668 153.747 7.6668ZM159.766 7.74307H158.852V10.2575C158.852 10.6384 159.081 10.7908 159.309 10.7908H159.766V11.9337C159.703 11.9337 159.588 11.9468 159.453 11.9621C159.262 11.9838 159.031 12.0099 158.852 12.0099C157.557 12.0099 157.404 11.248 157.404 10.486V7.81927H156.719V6.90495H157.404V5.45728H158.852V6.90495H159.766V7.74307ZM162.205 7.74307H163.119V6.90495H162.205V5.45728H160.757V6.90495H160.071V7.81927H160.757V10.486C160.757 11.248 160.909 12.0099 162.205 12.0099C162.383 12.0099 162.614 11.9838 162.805 11.9621C162.94 11.9468 163.056 11.9337 163.119 11.9337V10.7908H162.662C162.433 10.7908 162.205 10.6384 162.205 10.2575V7.74307ZM167.233 8.20018C166.929 7.81921 166.319 7.66683 165.862 7.66683C165.481 7.66683 165.252 7.81921 165.252 8.04779C165.252 8.38203 165.725 8.47392 166.293 8.58441C167.15 8.75098 168.224 8.95982 168.224 10.105C168.224 11.4765 167.005 11.9336 165.938 11.9336C164.871 11.9336 164.186 11.6289 163.5 10.9431L164.414 10.105C164.871 10.5622 165.329 10.7907 166.014 10.7907C166.243 10.7907 166.852 10.7146 166.852 10.2574C166.852 9.95851 166.395 9.87066 165.839 9.7639C164.978 9.59849 163.881 9.38767 163.881 8.27637C163.881 6.98109 165.024 6.52393 166.014 6.52393C166.776 6.52393 167.538 6.8287 168.224 7.28586L167.233 8.20018ZM100.565 16.048H98.8887V22.8292H100.565V16.048ZM101.936 17.8006H103.383V18.2577C103.764 17.8006 104.374 17.6482 104.831 17.6482C106.05 17.6482 106.355 18.3339 106.355 19.0959V22.8293H104.907V19.6292C104.907 19.1721 104.755 18.7911 104.221 18.7911C103.612 18.7911 103.459 19.1721 103.459 19.6292V22.7531H101.936V17.8006ZM109.632 18.7148C110.089 18.7148 110.698 18.8672 111.003 19.2482L111.994 18.3338C111.308 17.8767 110.546 17.5719 109.784 17.5719C108.793 17.5719 107.65 18.0291 107.65 19.3243C107.65 20.4356 108.748 20.6465 109.609 20.8119C110.165 20.9186 110.622 21.0065 110.622 21.3054C110.622 21.7625 110.012 21.8387 109.784 21.8387C109.098 21.8387 108.641 21.6101 108.184 21.153L107.27 21.9911C107.955 22.6769 108.641 22.9816 109.708 22.9816C110.851 22.9816 111.994 22.4483 111.994 21.153C111.994 20.0078 110.919 19.799 110.063 19.6324C109.495 19.5219 109.022 19.43 109.022 19.0958C109.022 18.8672 109.251 18.7148 109.632 18.7148ZM115.498 18.7909H114.584V21.3053C114.584 21.6863 114.812 21.8387 115.041 21.8387H115.498V22.9816C115.435 22.9816 115.319 22.9946 115.184 23.01C114.993 23.0316 114.762 23.0578 114.584 23.0578C113.288 23.0578 113.136 22.2958 113.136 21.5339V18.8671H112.45V17.8766H113.136V16.429H114.584V17.8766H115.498V18.7909ZM116.337 16.048V17.1909H117.785V16.048H116.337ZM117.861 22.8292V17.8004H116.413V22.8292H117.861ZM121.67 18.7909H120.755V21.3053C120.755 21.6863 120.984 21.8387 121.213 21.8387H121.67V22.9816C121.607 22.9816 121.491 22.9946 121.356 23.01C121.165 23.0316 120.934 23.0578 120.755 23.0578C119.46 23.0578 119.308 22.2958 119.308 21.5339V18.8671H118.622V17.8766H119.308V16.429H120.755V17.8766H121.67V18.7909ZM125.556 22.8293H127.004L126.928 17.8005H125.48V21.0007C125.48 21.534 125.176 21.7626 124.718 21.7626C124.185 21.7626 124.033 21.534 124.033 21.0768V17.8005H122.585V21.534C122.585 22.2959 122.89 22.9817 124.109 22.9817C124.566 22.9817 125.176 22.8293 125.556 22.3721V22.8293ZM130.813 18.7909H129.899V21.3053C129.899 21.6863 130.128 21.8387 130.356 21.8387H130.813V22.9816C130.75 22.9816 130.635 22.9946 130.5 23.01C130.308 23.0316 130.078 23.0578 129.899 23.0578C128.604 23.0578 128.451 22.2958 128.451 21.5339V18.8671H127.766V17.8766H128.451V16.429H129.899V17.8766H130.813V18.7909ZM133.861 21.915C133.404 21.915 132.794 21.6102 132.794 20.6197H136.299C136.223 19.0197 135.614 17.6482 133.785 17.6482C132.185 17.6482 131.271 18.7149 131.271 20.4673C131.271 21.915 132.185 22.9817 133.785 22.9817C134.928 22.9817 135.69 22.5246 136.223 21.6102L135.08 21.0007C134.699 21.6102 134.394 21.915 133.861 21.915ZM133.785 18.7149C134.166 18.7149 134.699 18.9435 134.775 19.7054H132.794C132.871 19.0197 133.328 18.7149 133.785 18.7149ZM144.985 20.315C144.985 21.9912 143.842 22.9817 142.318 22.9817C140.718 22.9817 139.651 21.9912 139.651 20.315C139.651 18.6387 140.794 17.6482 142.318 17.6482C143.918 17.6482 144.985 18.6387 144.985 20.315ZM141.099 20.315C141.099 21.1531 141.48 21.8388 142.318 21.8388C143.156 21.8388 143.537 21.1531 143.537 20.2388C143.537 19.4006 143.156 18.7911 142.318 18.7911C141.48 18.7911 141.099 19.4768 141.099 20.315ZM145.442 18.791H146.204V22.8292H147.652V18.791H148.566V17.8766H147.652V17.5719C147.652 17.2671 147.957 17.1909 148.185 17.1909H148.643V16.1242C148.414 16.048 147.957 15.9718 147.652 15.9718C146.357 15.9718 146.204 16.7337 146.204 17.3433V17.8766H145.442V18.791ZM97.2119 27.1724H102.393V28.4677H100.641V33.9536H98.9644V28.4677H97.2119V27.1724ZM104.603 33.039C104.146 33.039 103.537 32.7343 103.537 31.7437H107.041C106.965 30.2199 106.356 28.7722 104.527 28.7722C102.927 28.7722 102.013 29.8389 102.013 31.5914C102.013 33.039 102.927 34.1057 104.527 34.1057C105.67 34.1057 106.432 33.6486 106.965 32.7343L105.822 32.1247C105.441 32.7343 105.137 33.039 104.603 33.039ZM104.527 29.8389C104.908 29.8389 105.441 30.0675 105.518 30.8294H103.537C103.613 30.1437 104.07 29.8389 104.527 29.8389ZM111.308 30.6009C111.003 29.9913 110.546 29.9151 110.393 29.9151C109.555 29.9151 109.25 30.6009 109.25 31.439C109.25 32.2771 109.631 32.9628 110.393 32.9628C110.851 32.9628 111.231 32.8105 111.46 32.2009L112.527 32.7343C112.07 33.5724 111.231 34.1057 110.241 34.1057C108.717 34.1057 107.65 33.1152 107.65 31.439C107.65 29.7627 108.793 28.7722 110.165 28.7722C111.155 28.7722 111.917 29.1532 112.451 29.9913L111.308 30.6009ZM114.813 27.1724H113.365V33.8774H114.813V31.0582C114.813 30.1439 115.27 29.9153 115.575 29.9153C115.88 29.9153 116.337 30.1439 116.337 30.9058V33.9536H117.784V30.3725C117.784 29.382 117.251 28.7724 116.184 28.7724C115.727 28.7724 115.118 29.001 114.813 29.382V27.1724ZM119.156 28.8486H120.604V29.3057C120.985 28.8486 121.594 28.6962 122.052 28.6962C123.271 28.6962 123.575 29.3819 123.575 30.1438V33.8773H122.128V30.6772C122.128 30.1438 121.975 29.8391 121.442 29.8391C120.833 29.8391 120.68 30.22 120.68 30.6772V33.8011H119.232L119.156 28.8486ZM127.385 34.1057C128.908 34.1057 130.051 33.1152 130.051 31.439C130.051 29.6865 128.908 28.7722 127.385 28.7722C125.861 28.7722 124.718 29.7627 124.718 31.439C124.718 33.1152 125.784 34.1057 127.385 34.1057ZM127.308 32.9628C126.47 32.9628 126.089 32.2771 126.089 31.439C126.089 30.5247 126.47 29.9151 127.308 29.9151C128.146 29.9151 128.527 30.5247 128.527 31.3628C128.527 32.2771 128.146 32.9628 127.308 32.9628ZM130.966 33.9536V27.1724H132.413V33.9536H130.966ZM136.147 34.1057C137.671 34.1057 138.814 33.1152 138.814 31.439C138.814 29.6865 137.747 28.7722 136.147 28.7722C134.623 28.7722 133.48 29.7627 133.48 31.439C133.48 33.1152 134.547 34.1057 136.147 34.1057ZM136.147 32.9628C135.309 32.9628 134.928 32.2771 134.928 31.439C134.928 30.5247 135.309 29.9151 136.147 29.9151C136.985 29.9151 137.366 30.5247 137.366 31.3628C137.366 32.2771 136.985 32.9628 136.147 32.9628ZM144.223 28.8486V33.9535C144.223 35.5536 142.547 35.6298 141.785 35.6298C140.261 35.6298 139.499 35.0964 139.423 33.8773H140.947C140.947 34.4107 141.252 34.6392 141.785 34.6392C142.318 34.6392 142.699 34.4869 142.699 33.8011V33.1916C142.394 33.4963 141.785 33.5725 141.328 33.5725C139.88 33.5725 139.347 32.4296 139.347 31.1344C139.347 29.9153 140.032 28.6962 141.328 28.6962C141.861 28.6962 142.394 28.8486 142.775 29.2295V28.8486H144.223ZM141.861 29.8391C141.404 29.8391 140.947 30.1438 140.947 31.2105C140.947 31.8201 141.099 32.582 141.861 32.582C142.775 32.582 142.852 31.7439 142.852 31.2105C142.852 30.1438 142.318 29.8391 141.861 29.8391ZM145.9 34.4867H145.366L145.443 35.7058H146.585C147.424 35.7058 147.805 35.0962 148.033 34.3343L149.786 28.9246H148.185L147.347 32.8104L146.509 28.9246H144.985L146.433 33.5723C146.585 33.9533 146.585 34.0295 146.585 34.1057C146.585 34.4105 146.357 34.4867 145.9 34.4867Z" fill="#2B3F6C"/>
</svg>
