<svg width="200" height="40" viewBox="0 0 200 40" fill="none" xmlns="http://www.w3.org/2000/svg">
<path fill-rule="evenodd" clip-rule="evenodd" d="M61 9.1892L65.2884 5H76.5422L80.843 9.2016V15.4854H75.216C75.2532 15.6465 75.2036 15.7705 75.1788 15.8324C75.0921 16.0184 74.9186 16.1299 74.7203 16.1299C74.6831 16.1299 74.6583 16.1299 74.6211 16.1175L74.4848 16.0679C74.46 16.0555 74.4352 16.0431 74.398 16.0307C74.3732 16.0184 74.3237 16.006 74.2617 16.006H74.2369H74.1873H74.1625C73.9023 15.9936 73.3693 15.9564 72.8735 15.82C72.9231 15.8944 72.9975 15.9812 73.0842 16.0679L73.0966 16.0803C73.1462 16.1299 73.1958 16.1795 73.2702 16.2414C73.3445 16.3158 73.4189 16.3654 73.4933 16.415H73.5056L73.5552 16.4398C73.6379 16.4976 73.7315 16.5554 73.8251 16.6133C73.872 16.6422 73.9188 16.6711 73.9642 16.7H77.1247L80.843 20.4926V31.3003L76.5546 35.5019H65.2884L61 31.2879V25.5246H66.6641C66.6765 25.5122 66.6765 25.4874 66.6765 25.475C66.7385 25.252 66.9368 25.1156 67.1599 25.0413C67.4325 24.9421 67.3458 24.8677 67.3458 24.8677C67.1227 24.8925 66.9863 24.9049 66.8872 24.9049C66.8004 24.9049 66.5773 24.9049 66.4534 24.719C66.3321 24.5492 66.3889 24.3794 66.4262 24.2677L66.4286 24.2604H64.7182L61 20.4554V9.1892ZM76.3435 5.52063L80.322 9.42477L80.3344 14.9773H74.4596C74.5836 15.1137 74.6827 15.2376 74.7571 15.3491C75.0298 15.6714 74.7943 15.8449 74.6703 15.7953C74.6703 15.7953 74.5712 15.7458 74.5092 15.721C74.4472 15.6962 74.1994 15.6714 74.1622 15.6714C73.8523 15.659 73.0095 15.6094 72.5014 15.312C72.2907 15.2004 72.2783 15.4731 72.365 15.6962C72.4146 15.8201 72.6005 16.0804 72.836 16.3283C72.8511 16.3434 72.8663 16.3593 72.8817 16.3755C72.9297 16.4258 72.9811 16.4797 73.0467 16.5266C73.1335 16.6133 73.245 16.6877 73.3442 16.7497C73.47 16.8298 73.6012 16.9072 73.7278 16.982L73.7278 16.982L73.7279 16.9821L73.7279 16.9821L73.7279 16.9821C73.8757 17.0693 74.0173 17.153 74.1374 17.2331H76.9013L80.322 20.7158V31.0649L76.3435 34.969H65.4863L61.5078 31.0649V26.0453H66.8373H67.3578C67.2959 25.9709 67.2215 25.8965 67.0975 25.8098C67.0975 25.8098 66.6266 25.4132 67.7049 25.2768C68.1758 25.2149 68.6716 24.9298 68.8575 24.4588C68.8823 24.1614 68.4857 24.0498 68.275 24.1861C68.0643 24.3225 67.6181 24.4836 67.3702 24.5208C66.6597 24.6239 66.6803 24.5681 66.7561 24.3632C66.7622 24.3465 66.7688 24.3288 66.7753 24.3101L66.7778 24.3025C66.8159 24.1881 66.8924 23.9581 67.1347 23.74H64.9286L61.5078 20.2448V9.41238L65.4863 5.52063H76.3435ZM97.0916 17.6544C97.0916 18.1006 97.2527 19.6003 99.2234 19.6003C100.128 19.6003 100.723 19.1913 100.971 18.869C101.144 19.3276 101.553 19.6126 102.111 19.6126C102.83 19.6126 103.276 19.2036 103.648 18.6955L103.425 18.4104C103.394 18.4308 103.369 18.4496 103.345 18.4666C103.255 18.5324 103.201 18.5715 103.053 18.5715C102.644 18.5715 102.545 18.1625 102.545 17.6544C102.545 17.5707 102.552 17.4584 102.559 17.3285L102.559 17.3284V17.3283C102.57 17.1504 102.582 16.9397 102.582 16.7248C102.582 16.4548 102.591 16.1527 102.6 15.8412L102.6 15.841L102.6 15.8406V15.8406C102.609 15.509 102.619 15.1667 102.619 14.8409C102.619 14.1469 102.582 13.4652 102.272 12.957C101.863 12.3249 101.169 12.0399 100.178 12.0399C98.74 12.0399 97.8972 12.8455 97.6741 13.6635L98.0459 13.8866C98.3062 13.3412 98.8639 12.9694 99.5208 12.9694C100.215 12.9694 100.711 13.3164 100.872 13.8246C100.971 14.1221 100.971 14.1964 100.971 14.6426V14.8657C100.683 14.959 100.459 15.0279 100.247 15.093L100.247 15.093L100.247 15.093C99.7828 15.2357 99.3769 15.3604 98.4921 15.6837C97.2155 16.1547 97.0916 17.1338 97.0916 17.6544ZM99.3597 16.353C99.6324 16.2043 99.9918 16.0432 100.959 15.7581L100.983 15.7457V18.2245C100.574 18.5096 100.141 18.5715 99.8307 18.5715C98.8887 18.5715 98.7276 17.9147 98.7276 17.5057C98.7276 16.9851 98.9135 16.5761 99.3597 16.353ZM84.5859 17.109C84.6479 17.8527 84.6479 18.4724 84.6479 19.2036C85.3916 19.4515 86.1848 19.6003 87.1391 19.4515C88.1678 19.4515 90.6467 19.1665 90.6467 16.5389C90.6467 14.9804 89.784 14.394 88.8647 13.769L88.8371 13.7502L87.734 13.019C86.7797 12.3869 86.3335 12.0894 86.3335 11.2342C86.3335 10.6145 86.5194 9.79653 88.143 9.79653C88.8371 9.79653 89.4816 9.95765 89.7667 10.2427C89.9774 10.4534 90.1385 10.7633 90.1385 11.2714H90.5103C90.4731 10.7137 90.4731 10.5897 90.4731 10.1188C90.4731 9.84471 90.4898 9.54838 90.5008 9.35285C90.5063 9.25658 90.5103 9.18475 90.5103 9.15203C89.9154 9.06527 88.9115 8.96612 88.1306 8.96612C85.0941 8.96612 84.8462 11.0359 84.8462 11.668C84.8462 12.957 85.4783 13.5767 86.6929 14.3947L87.5729 14.9897L87.6969 15.0888L87.7262 15.1095C88.5169 15.669 89.0974 16.0797 89.0974 17.0347C89.0974 18.1749 88.4405 18.6955 87.0648 18.6955C86.4079 18.6955 85.689 18.4848 85.3792 18.1378C85.1561 17.9271 85.0321 17.58 85.0321 17.109H84.5859ZM104.392 12.5171C104.366 12.5153 104.341 12.5132 104.317 12.5108H104.33V12.4984H104.392V12.5171ZM104.392 12.5171C104.761 12.543 105.282 12.5044 105.792 12.4117C106.263 12.3125 106.424 12.2506 106.759 12.1018L106.92 12.201V12.7587C107.292 12.4737 108.023 12.0646 109.052 12.0646C110.378 12.0646 111.221 12.6967 111.456 13.7874C111.518 14.0725 111.555 14.717 111.555 15.1136V17.2454C111.555 18.4352 111.617 18.7822 111.841 19.0053C111.965 19.1045 112.212 19.2284 112.572 19.2284V19.5755C112.101 19.5383 111.246 19.5135 110.762 19.5135C110.105 19.5135 109.362 19.5507 108.953 19.5755V19.2284C109.325 19.1913 109.548 19.0673 109.684 18.9806C109.907 18.7575 109.932 18.3485 109.969 17.4437C109.969 17.3129 109.977 17.1221 109.985 16.9156L109.985 16.9153V16.9152C109.995 16.6717 110.006 16.4064 110.006 16.1919C110.006 15.6713 110.006 15.0888 109.944 14.5311C109.845 13.6015 109.349 13.1553 108.407 13.1553C107.751 13.1553 107.341 13.3164 107.032 13.4652V17.2826C107.032 18.4724 107.094 18.8194 107.317 19.0425C107.441 19.1417 107.726 19.2656 108.011 19.2656V19.6126C107.416 19.5755 106.685 19.5507 106.226 19.5507C105.509 19.5507 105.147 19.5711 104.78 19.5918C104.652 19.599 104.524 19.6062 104.379 19.6126V19.2532C104.689 19.2532 105.011 19.1293 105.16 18.9434C105.383 18.6955 105.408 18.0634 105.408 16.8488V14.6674C105.408 13.7502 105.371 13.3784 105.247 13.1925C105.148 13.0314 104.9 12.9074 104.392 12.9074V12.5171ZM114.158 18.8814C114.01 19.0921 113.687 19.1913 113.377 19.1913L113.402 19.5135L113.552 19.5055C113.997 19.4814 114.55 19.4515 115.373 19.4515C115.968 19.4515 116.823 19.4763 117.344 19.5135V19.1417C117.046 19.1417 116.377 19.1045 116.191 18.7946C116.067 18.6087 116.03 18.1378 116.03 17.171V13.1305H117.641V12.2134H116.017V10.8128C116.017 9.87089 116.079 9.39991 116.389 9.09006C116.6 8.90415 116.897 8.84218 117.12 8.84218C117.777 8.84218 118.162 9.17682 118.409 9.77174H118.595L119.327 8.78021L119.289 8.61909C118.843 8.27205 118.174 8.02417 117.443 8.02417C115.782 8.02417 114.815 8.78021 114.53 10.2799C114.443 10.7509 114.406 11.5689 114.406 12.2258C114.22 12.3869 113.886 12.5728 113.477 12.7339V13.1429H114.406V16.7868C114.406 18.0014 114.381 18.6335 114.158 18.8814ZM118.236 15.9564C118.236 18.2741 119.55 19.6498 121.768 19.6498C124.483 19.6498 125.462 17.5428 125.462 15.7333C125.462 13.4156 124.148 12.0399 121.929 12.0399C119.203 12.0399 118.236 14.1469 118.236 15.9564ZM120.839 13.2297C121.087 13.0066 121.421 12.8827 121.867 12.8827C123.652 12.8827 123.739 15.3243 123.751 15.8325C123.751 17.1214 123.466 17.989 122.871 18.4972C122.623 18.7203 122.289 18.8442 121.843 18.8442C120.058 18.8442 119.959 16.4026 119.959 15.8944C119.959 14.6054 120.244 13.7378 120.839 13.2297ZM127.804 12.3497C127.234 12.4365 126.713 12.5108 126.205 12.4737L126.23 12.5108V12.9818C126.713 12.9818 126.961 13.0686 127.085 13.2297C127.246 13.4156 127.246 13.7874 127.246 14.7046V16.7496C127.246 17.989 127.222 18.5963 126.999 18.8442C126.85 19.0301 126.627 19.1169 126.218 19.1541V19.5259C126.788 19.4639 127.494 19.4639 128.188 19.4639C128.783 19.4639 129.651 19.4887 130.159 19.5259V19.1169C129.824 19.1541 129.192 19.1169 129.006 18.807C128.882 18.6087 128.845 18.1749 128.845 17.2082V13.4776C129.068 13.3164 129.316 13.2545 129.626 13.2545C130.283 13.2545 130.655 13.5643 130.841 13.9114H131.151L131.783 12.7711V12.548C131.423 12.263 131.051 12.1018 130.494 12.1018C129.725 12.1018 129.155 12.4489 128.808 12.7959V12.1638L128.684 12.1018C128.535 12.1886 128.25 12.2877 127.804 12.3497ZM138.013 8.27538C137.363 8.38587 136.867 8.47036 136.455 8.47036L136.418 8.45796V8.75542C136.951 8.78021 137.1 8.84218 137.199 9.0033C137.36 9.22639 137.36 9.68494 137.36 10.602V10.6021V12.1638C137.063 12.1018 136.554 12.0399 135.959 12.0399C134.373 12.0399 133.121 12.7835 132.489 14.1097C132.241 14.7046 132.117 15.3491 132.117 16.0803C132.117 18.2369 133.394 19.6126 135.402 19.6126C136.368 19.6126 137.063 19.2036 137.434 18.9186V19.5507L137.62 19.6126C137.781 19.5507 138.066 19.4887 138.438 19.4267C139.008 19.3276 139.529 19.2656 140 19.2656V18.8938C139.517 18.8938 139.269 18.7699 139.145 18.6087C139.021 18.4228 139.021 17.8651 139.021 16.9851V11.0359C139.021 10.0692 139.021 8.71824 139.083 8.12332L138.959 8.06135C138.921 8.06902 138.87 8.08379 138.807 8.10237C138.666 8.1439 138.461 8.20445 138.178 8.24726L138.013 8.27538ZM137.397 18.2989C137.063 18.522 136.716 18.5839 136.207 18.5839C134.076 18.5839 133.828 16.7372 133.865 15.8944C133.865 13.8742 134.559 12.9074 135.959 12.9074C136.839 12.9074 137.273 13.2917 137.397 13.4156V18.2989ZM94.3897 19.6622C95.5795 19.6622 96.1372 19.0921 96.3603 18.807L96.1868 18.46C96.0133 18.5839 95.6663 18.7451 95.1581 18.7451C94.0922 18.7451 93.8691 18.113 93.8691 16.9603V13.1429H96.3479V12.2258H93.8691V10.6021H93.5593C93.1379 11.3954 92.766 11.9159 92.2083 12.3621C91.948 12.5604 91.663 12.7091 91.2911 12.8703V13.1553H92.2703V13.6635C92.2331 14.7666 92.2331 15.7085 92.2331 16.8612C92.2331 17.2702 92.2331 17.989 92.357 18.3361C92.6297 19.2532 93.2494 19.6622 94.3897 19.6622ZM124.817 25.537C124.904 25.4502 125.065 25.413 125.189 25.413H125.201V25.4006H125.251V25.1528C125.204 25.1528 125.129 25.161 125.051 25.1698C124.963 25.1796 124.87 25.1899 124.804 25.1899C124.557 25.2271 124.309 25.2271 124.148 25.2271C123.9 25.2271 123.404 25.2271 123.119 25.1899V25.475C123.317 25.475 123.466 25.537 123.565 25.7229C123.565 25.7229 123.652 25.9088 123.689 26.0079C123.697 26.0281 123.706 26.0483 123.715 26.0677C123.734 26.1077 123.751 26.144 123.751 26.1691L125.251 30.0732L125.152 30.3583C124.78 31.3498 124.519 31.858 123.962 31.858C123.602 31.858 123.354 31.734 123.23 31.449H123.106L122.66 31.9695V32.0935C122.945 32.3413 123.292 32.4653 123.801 32.4653C125.015 32.4653 125.362 31.6225 125.61 30.9284L127.395 26.1691C127.607 25.5421 127.847 25.5074 127.989 25.4868C128.013 25.4833 128.034 25.4803 128.052 25.475V25.1899C127.971 25.1899 127.842 25.197 127.698 25.205L127.697 25.205C127.511 25.2153 127.297 25.2271 127.122 25.2271C127.032 25.2271 126.934 25.2154 126.848 25.2052C126.78 25.1971 126.72 25.1899 126.676 25.1899C126.577 25.1528 126.366 25.1528 126.267 25.1528V25.4378C126.416 25.4378 126.54 25.4998 126.639 25.5618C126.701 25.6237 126.738 25.6857 126.738 25.7477C126.738 25.8631 126.716 25.9248 126.633 26.163L126.614 26.2186L125.759 28.6975C125.733 28.5932 125.682 28.4525 125.62 28.2795C125.594 28.2056 125.565 28.1259 125.536 28.0406L124.842 26.231L124.828 26.193C124.751 25.9726 124.718 25.8775 124.718 25.7601C124.718 25.6981 124.718 25.5989 124.817 25.537ZM108.667 25.357C108.647 25.3555 108.626 25.3535 108.605 25.3511H108.618H108.667V25.357ZM108.667 25.357C108.933 25.3764 109.224 25.3219 109.508 25.2685L109.508 25.2684L109.597 25.2519C109.882 25.1899 110.043 25.1528 110.155 25.0908L110.254 25.128V25.537C110.477 25.3139 110.812 25.0908 111.32 25.0908C111.692 25.0908 111.915 25.1899 112.138 25.3759V25.537L111.766 26.2682H111.58C111.456 26.0451 111.233 25.8592 110.799 25.8592C110.613 25.8592 110.452 25.9212 110.291 26.0203V28.3752C110.291 29.0073 110.328 29.2924 110.39 29.4039C110.514 29.5898 110.898 29.627 111.121 29.627V29.8749C110.812 29.8377 110.241 29.8377 109.87 29.8377C109.423 29.8377 108.952 29.8377 108.618 29.8997V29.6518C108.866 29.6518 109.027 29.5527 109.126 29.4659C109.287 29.3048 109.287 28.9454 109.287 28.1149V26.7888C109.287 26.231 109.287 25.9708 109.188 25.8592C109.126 25.7601 108.94 25.6981 108.667 25.6981V25.357ZM85.3665 28.5983C85.6515 29.4783 86.42 29.8873 87.7461 29.8873C89.0599 29.8873 89.8159 29.4907 90.0886 28.6727C90.2745 28.1397 90.2745 27.4828 90.2745 26.8879V25.004C90.2745 24.1984 90.2745 23.9133 90.4356 23.7522C90.572 23.6283 90.7207 23.5663 90.9438 23.5663V23.2812C90.5348 23.3432 90.1878 23.3432 89.8407 23.3432C89.6425 23.3432 89.4443 23.3326 89.2592 23.3228H89.2592H89.2592L89.259 23.3228C89.097 23.3141 88.9451 23.306 88.812 23.306V23.5539C89.0103 23.5911 89.1591 23.6531 89.2582 23.715C89.4069 23.8266 89.4441 23.9629 89.4441 24.7066V27.1482C89.4441 28.4868 89.345 29.3668 87.8453 29.3668C86.3704 29.3668 86.2464 28.524 86.2464 27.1978V24.9792C86.2464 24.1736 86.2464 23.8886 86.4076 23.7274C86.5439 23.6035 86.6926 23.5415 86.9157 23.5415V23.2565C86.5811 23.3184 86.2464 23.3184 85.7259 23.3184C85.4284 23.3184 84.8831 23.2936 84.5732 23.2565V23.5043C84.7963 23.5415 84.9575 23.6035 85.0194 23.6655C85.1682 23.777 85.2053 23.9133 85.2053 24.657V27.1606C85.2053 27.6068 85.2053 28.1521 85.3665 28.5983ZM97.2028 29.4163C97.0913 29.5403 96.9302 29.5651 96.6823 29.6022V29.8377C96.9302 29.8129 97.4259 29.7758 97.8969 29.7758C98.3059 29.7758 98.7893 29.7758 99.0372 29.8129V29.5898C98.7645 29.5898 98.5786 29.4907 98.4794 29.3668C98.4174 29.2552 98.3803 28.9701 98.3803 28.338V26.9871C98.3803 26.1071 98.3803 25.4502 98.4174 25.1404L98.3183 25.0412C98.182 25.1032 97.996 25.1652 97.8101 25.2023C97.4383 25.2643 96.9302 25.3387 96.7442 25.3015V25.5866C97.0789 25.6113 97.2028 25.6733 97.2648 25.7725C97.3639 25.884 97.3639 26.1815 97.3639 26.7392V28.0654C97.3639 28.8958 97.3639 29.2552 97.2028 29.4163ZM97.24 23.6903C97.24 24.0249 97.4631 24.248 97.8349 24.248C98.2067 24.248 98.4546 24.0249 98.467 23.6531C98.467 23.3184 98.2439 23.0953 97.8721 23.0953C97.4879 23.0953 97.24 23.3556 97.24 23.6903ZM116.996 29.4163C116.885 29.5403 116.724 29.5651 116.476 29.6022V29.5898H116.463V29.8377C116.711 29.8129 117.207 29.7758 117.678 29.7758C118.087 29.7758 118.545 29.7758 118.831 29.8129V29.5898C118.558 29.5898 118.372 29.4907 118.273 29.3668C118.211 29.2552 118.174 28.9701 118.174 28.338V26.9871C118.174 26.1071 118.174 25.4502 118.211 25.1404L118.112 25.0412C118.013 25.1032 117.789 25.1652 117.604 25.2023C117.232 25.2643 116.724 25.3387 116.538 25.3015V25.5866C116.872 25.6113 116.996 25.6733 117.058 25.7725C117.157 25.884 117.157 26.1815 117.157 26.7392V28.0654C117.157 28.8958 117.157 29.2552 116.996 29.4163ZM117.033 23.6903C117.033 24.0249 117.256 24.248 117.628 24.248C118 24.248 118.26 24.0249 118.26 23.6531C118.26 23.3184 118.037 23.0953 117.665 23.0953C117.281 23.0953 117.033 23.3556 117.033 23.6903ZM112.621 28.4496C112.646 28.6975 112.683 29.1932 112.683 29.6642C113.084 29.8091 113.445 29.8437 113.784 29.8763C113.822 29.8799 113.86 29.8835 113.898 29.8873C114.542 29.8873 115.682 29.7014 115.682 28.4868C115.682 27.7611 115.17 27.4504 114.762 27.2034L114.753 27.1978L114.121 26.826H114.084L114.049 26.801C113.836 26.6478 113.613 26.4877 113.613 26.1939C113.613 25.7849 113.873 25.5989 114.344 25.5989C114.678 25.5989 114.964 25.6857 115.088 25.8468C115.211 25.9956 115.273 26.1815 115.273 26.3674H115.583C115.546 26.2558 115.546 25.8344 115.546 25.7353C115.546 25.6237 115.546 25.3015 115.583 25.1775C115.286 25.1156 114.74 25.0536 114.369 25.0536C114.17 25.0536 113.724 25.0536 113.439 25.2147C113.005 25.4378 112.782 25.8468 112.782 26.3674C112.782 27.0367 113.179 27.3341 113.526 27.5572L114.183 27.9662C114.555 28.1893 114.778 28.3504 114.778 28.6975C114.778 29.1313 114.505 29.3544 113.997 29.3544H113.935C113.526 29.3544 113.303 29.2676 113.117 29.0445C112.993 28.9206 112.931 28.6975 112.931 28.4496H112.621ZM122.504 29.3746L122.512 29.3668L122.45 29.1437C122.313 29.2304 122.103 29.3296 121.793 29.3296C121.099 29.3296 120.975 28.9082 120.975 28.1769V25.7105H122.536V25.1528H120.975V24.124H120.752C120.467 24.6322 120.219 24.9792 119.872 25.2643C119.686 25.3882 119.525 25.475 119.277 25.5742V25.7601H119.909V26.0699V28.1026C119.909 28.338 119.909 28.809 119.971 29.0321C120.12 29.6394 120.529 29.8873 121.26 29.8873C121.992 29.8873 122.339 29.5392 122.504 29.3746ZM100.884 25.2023C101.01 25.168 101.199 25.1654 101.305 25.1652V25.4006C101.144 25.4006 100.995 25.4626 100.896 25.5618C100.834 25.5989 100.834 25.6609 100.834 25.7229C100.834 25.8468 100.859 25.946 100.958 26.1939L101.59 27.8547C101.677 28.1026 101.739 28.2885 101.776 28.4124L102.693 26.1939C102.714 26.1256 102.732 26.0688 102.747 26.0203C102.796 25.8666 102.817 25.7983 102.817 25.7229C102.817 25.6609 102.755 25.5742 102.718 25.537C102.656 25.475 102.507 25.413 102.346 25.413V25.1652C102.416 25.1652 102.499 25.1749 102.58 25.1844C102.657 25.1935 102.732 25.2023 102.793 25.2023C102.954 25.2395 103.102 25.2395 103.264 25.2395C103.447 25.2395 103.658 25.2275 103.84 25.2171L103.84 25.2171C103.979 25.2093 104.1 25.2023 104.181 25.2023V25.4874C104.02 25.4874 103.809 25.5866 103.71 25.7725C103.638 25.8806 103.607 25.9468 103.588 25.9906L103.588 25.9907L103.587 25.9907C103.573 26.0221 103.564 26.042 103.549 26.0575C103.537 26.0855 103.524 26.1059 103.512 26.1232C103.498 26.1444 103.487 26.1611 103.487 26.1815L101.826 29.8749L101.355 29.9741L99.8552 26.2186C99.8552 26.1815 99.8304 26.1195 99.7932 26.0575L99.7826 26.0309C99.7581 25.9688 99.723 25.88 99.6693 25.7725C99.5207 25.4754 99.2984 25.4838 99.216 25.4869C99.2091 25.4872 99.2031 25.4874 99.1983 25.4874V25.2023C99.2508 25.2023 99.3585 25.2079 99.491 25.2146H99.491C99.7023 25.2255 99.9765 25.2395 100.19 25.2395C100.276 25.2395 100.378 25.2315 100.488 25.2229L100.488 25.2229H100.488L100.488 25.2229C100.615 25.213 100.751 25.2023 100.884 25.2023ZM91.1209 25.3533C91.1155 25.3526 91.1102 25.3519 91.1049 25.3511L91.1545 25.3387V25.3574C91.1431 25.3562 91.1319 25.3548 91.1209 25.3533ZM91.1545 25.6857V25.3574C91.3979 25.3833 91.7216 25.347 92.0345 25.2891C92.3196 25.2271 92.4435 25.1899 92.6666 25.1032L92.7657 25.1652V25.537C92.9888 25.3511 93.497 25.0908 94.1167 25.0908C94.9719 25.0908 95.4924 25.4998 95.6536 26.1939C95.6907 26.3798 95.7155 26.7888 95.7155 27.0491V28.4C95.7155 29.1437 95.7527 29.3668 95.9014 29.5403C95.9634 29.6022 96.1493 29.6642 96.3476 29.6642V29.8873C96.1911 29.8873 95.9745 29.8778 95.7602 29.8684L95.76 29.8684C95.55 29.8592 95.3422 29.8501 95.195 29.8501C94.7488 29.8501 94.2778 29.8873 94.0423 29.9121V29.6642C94.2654 29.627 94.4142 29.5651 94.5133 29.5031C94.6372 29.3791 94.6744 29.0941 94.6992 28.5363V27.7183C94.6992 27.3713 94.6992 26.9871 94.662 26.6524C94.6001 26.0575 94.2902 25.7725 93.6953 25.7725C93.2863 25.7725 93.0012 25.8716 92.8153 25.9584V28.4124C92.8153 29.156 92.8525 29.3791 93.0012 29.5527C93.0632 29.6146 93.2491 29.6766 93.4474 29.6766V29.8997C93.0384 29.8005 92.5675 29.8005 92.2576 29.8005H92.2576C91.6255 29.8005 91.4396 29.8005 91.1049 29.8625V29.6394C91.2908 29.6394 91.5139 29.5774 91.6131 29.4535C91.737 29.2924 91.7742 28.8958 91.7742 28.1026V26.7764C91.7742 26.2186 91.7742 25.9584 91.6751 25.8468C91.6131 25.7477 91.452 25.6609 91.1545 25.6857ZM104.156 27.5944C104.156 29.0693 104.924 29.8873 106.325 29.8873C107.081 29.8873 107.701 29.5898 108.01 29.1684L107.887 28.9454C107.601 29.1313 107.292 29.2304 106.783 29.2304C105.903 29.2304 105.408 28.7966 105.247 27.8795L105.24 27.8423C105.216 27.6982 105.185 27.5123 105.185 27.2845H108.097V26.9995C108.097 26.6277 108.072 26.1939 107.787 25.7477C107.54 25.3015 106.982 25.0536 106.35 25.0536C104.218 25.0536 104.156 27.3465 104.156 27.5944ZM107.007 26.764H105.197C105.234 26.2806 105.383 25.6113 106.089 25.5742C106.907 25.5742 107.007 26.2063 107.007 26.764ZM62.0283 9.6353L65.697 6.04102H76.1328L79.8386 9.67249V14.4814H73.9143C73.53 14.1839 73.1086 13.9237 72.7616 13.8121C72.0304 13.589 72.1171 13.3659 72.1543 13.3163C72.2163 13.2792 72.3154 13.242 72.4641 13.2172C72.6996 13.1676 73.0343 13.2544 73.0343 13.2544C73.5548 13.3411 73.7779 13.0809 73.3565 12.771C73.1686 12.6353 73.0422 12.5787 72.6289 12.3937C72.5517 12.3592 72.4645 12.3201 72.365 12.2752C71.9436 12.0893 72.0056 11.6184 72.1667 11.606C72.226 11.6 72.3094 11.6083 72.3956 11.6168C72.6696 11.6439 72.9712 11.6738 72.6129 11.2589C72.6129 11.2589 72.2534 10.8871 71.9808 10.788C71.7205 10.6888 71.9808 10.5277 72.0799 10.4781C72.0882 10.474 72.0981 10.4695 72.1091 10.4645C72.2293 10.4102 72.4744 10.2994 72.0427 9.96994C72.0427 9.96994 71.2123 9.44939 71.5346 9.2139C71.8692 8.96602 71.9932 8.78011 71.6833 8.75532C71.4602 8.74293 71.2495 8.65617 71.2991 8.43308C71.3064 8.38928 71.3739 8.32828 71.4408 8.2678C71.4875 8.22561 71.5339 8.18367 71.5594 8.14801C71.6337 8.04886 71.5718 8.01168 71.5222 7.99928C71.4974 7.98689 71.4726 7.98689 71.4354 7.98689C71.2619 7.98689 71.1752 7.88774 71.0884 7.66464C70.9893 7.25564 70.9149 6.88381 70.9149 6.88381H70.9025C70.8379 6.88381 70.8294 6.92121 70.7958 7.06905C70.7907 7.09145 70.7851 7.11637 70.7786 7.14409C70.6174 7.87534 70.5307 8.14801 70.258 8.14801C70.2375 8.14801 70.2208 8.15177 70.2058 8.15514C70.1935 8.1579 70.1824 8.16041 70.1712 8.16041C70.1217 8.1728 70.0473 8.20998 70.1341 8.30914C70.1831 8.37455 70.2633 8.43756 70.3378 8.49607C70.4327 8.57059 70.5183 8.63781 70.5183 8.69335C70.5307 8.78011 70.4563 8.86687 70.3448 8.96602C70.2332 9.07757 69.9605 9.26348 69.9605 9.26348C69.9605 9.26348 69.6259 9.48657 69.5639 9.59812C69.4896 9.77164 69.8738 9.75924 69.8738 9.75924C70.5555 9.78403 70.2704 10.0443 70.1588 10.0815C69.9729 10.1435 69.8242 10.193 69.6507 10.2922C69.4276 10.4409 69.2045 10.664 69.2045 10.664C68.8445 11.0714 69.1507 11.0443 69.4256 11.0199C69.5104 11.0124 69.5923 11.0052 69.6507 11.011C69.8118 11.0234 69.8614 11.4944 69.4524 11.6803C69.2645 11.7698 69.1218 11.8335 69.0056 11.8853C68.9609 11.9052 68.9202 11.9234 68.8823 11.9406C68.8079 11.9778 68.5724 12.1141 68.4237 12.3248C68.3016 12.5033 68.5496 12.5038 68.8171 12.5044C68.9026 12.5045 68.9901 12.5047 69.0682 12.5107C69.1812 12.5174 69.3085 12.4705 69.4252 12.4276C69.526 12.3905 69.6189 12.3563 69.6879 12.362C69.8862 12.3868 69.9481 12.424 69.9729 12.5479C69.9977 12.6843 69.8986 12.8082 69.7622 12.9321C69.7251 12.9941 69.6507 13.0313 69.6011 13.0561H69.5887C69.3904 13.18 69.1673 13.2792 69.0806 13.3163C68.4361 13.6634 67.4693 14.2583 67.0727 14.7169C66.7753 15.0639 67.0231 15.2498 67.1471 15.1879C67.1568 15.183 67.1671 15.1777 67.178 15.1721C67.3067 15.1058 67.5213 14.9954 67.8412 15.0639C68.1096 15.1249 68.4741 15.0298 68.7573 14.9559L68.7707 14.9524C68.8808 14.9248 68.991 14.8263 69.0881 14.7395C69.2095 14.6309 69.3105 14.5406 69.3656 14.6301C69.6011 15.0143 69.1921 15.4853 69.031 15.6464C68.8208 15.9294 68.3785 16.1965 67.9967 16.4272C67.7931 16.5502 67.6067 16.6628 67.4817 16.7619C67.0727 17.0965 66.8992 17.5427 66.7877 18.4103C66.6761 19.2779 67.1223 18.6582 67.1223 18.6582L67.1251 18.6548C67.238 18.5167 67.4872 18.212 68.1386 18.212C68.674 18.212 68.8587 18.0837 69.0338 17.9621C69.0695 17.9374 69.1048 17.9129 69.1425 17.8898C69.5515 17.6419 69.3408 18.212 69.3408 18.212C69.1528 18.6478 68.8588 18.7832 68.5115 18.943C68.3551 19.015 68.1879 19.0919 68.0147 19.2035C67.9651 19.2407 67.9279 19.2779 67.8164 19.3895C67.5809 19.6249 67.6552 19.7241 67.7792 19.6993C67.8401 19.6871 67.922 19.7019 68.0146 19.7186C68.1103 19.7359 68.2174 19.7552 68.3245 19.7489C68.5476 19.7489 68.7335 19.6993 68.9814 19.5878C69.0677 19.5489 69.139 19.4996 69.202 19.456C69.3201 19.3742 69.4093 19.3124 69.5144 19.3771C69.6259 19.439 69.6011 19.6126 69.5763 19.7241C69.5763 19.848 69.4152 20.0835 69.3284 20.1827C69.1797 20.3438 68.3493 20.9015 68.0642 21.0379C68.0457 21.0503 68.0271 21.0596 68.0085 21.0689C67.9899 21.0782 67.9713 21.0874 67.9527 21.0998C67.9465 21.106 67.9403 21.1091 67.9341 21.1122C67.9279 21.1153 67.9217 21.1184 67.9155 21.1246C67.5313 21.3477 67.2834 21.6824 67.2834 21.6824C67.2214 21.7815 66.8744 22.3516 67.3454 22.1038C67.6132 21.9664 67.9268 22.0346 68.2058 22.0952C68.4304 22.144 68.6326 22.188 68.7707 22.1162C68.9566 22.0294 68.8946 22.4012 68.8823 22.4384C68.8699 22.5623 68.8575 22.6863 68.8327 22.7359C68.7283 22.9542 68.6384 22.9908 68.3792 23.0962C68.3001 23.1284 68.2051 23.167 68.089 23.2192H65.1516L62.0283 20.0216V9.6353ZM74.9925 18.9309C74.9182 18.3979 74.819 18.0261 74.6455 17.741L76.6781 17.7039L79.8015 20.8891V30.8044L76.1328 34.4111H75.1041C74.5711 34.3987 73.7655 34.0765 73.5176 33.779C73.2026 33.398 72.9742 33.2639 72.7607 33.1386C72.613 33.0519 72.4725 32.9694 72.3154 32.8123C71.8568 32.3413 71.7453 31.7836 71.7205 31.201V28.5983C71.7205 28.5983 71.6833 28.0777 72.0923 28.4C72.4902 28.7042 72.7113 28.6881 73.3191 28.6436C73.3549 28.6409 73.3922 28.6382 73.4309 28.6355C74.0021 28.5947 74.6152 29.0155 75.0355 29.304C75.1259 29.366 75.2074 29.422 75.2776 29.4659C75.3 29.4798 75.3236 29.495 75.3483 29.5107C75.7611 29.7747 76.4448 30.212 75.6494 28.1769C75.4883 27.7679 75.0049 27.4704 74.7571 27.3465C74.5959 27.2597 74.3728 26.9746 74.5835 26.7392C74.5835 26.7392 74.9925 26.3673 74.7695 26.1071C74.6951 26.0079 74.5092 25.9211 74.1002 25.8716C73.6292 25.8096 73.1334 25.5245 72.9475 25.0536C72.9103 24.7561 73.3193 24.6446 73.5176 24.7809C73.7283 24.9296 74.1745 25.0784 74.4224 25.1155C75.1329 25.2187 75.1123 25.1629 75.0366 24.9579C75.0304 24.9412 75.0239 24.9235 75.0173 24.9048C75.0127 24.8938 75.0079 24.8816 75.0026 24.8684C74.9366 24.7032 74.8061 24.3764 74.3357 24.124C73.9065 23.8944 73.63 23.7814 73.4407 23.7041C73.1599 23.5893 73.071 23.5529 72.9599 23.3308C72.8979 23.2316 72.8484 22.5747 73.1086 22.773H73.121L73.121 22.7731C73.1706 22.835 73.2202 22.897 73.2946 22.9466C73.5672 23.1449 73.7779 23.1821 74.1497 23.1697C74.4215 23.1606 74.5211 23.2376 74.6131 23.3088C74.647 23.335 74.6799 23.3603 74.7199 23.3804C74.7268 23.3838 74.7339 23.3874 74.741 23.391C74.8863 23.4648 75.0582 23.5521 74.881 23.0085C74.6827 22.4012 74.3604 21.9302 73.7283 21.6328C73.4433 21.5088 72.6129 20.9511 72.4641 20.7776C72.3154 20.6165 72.0056 20.1455 72.3898 20.2446C72.4992 20.2729 72.5935 20.3162 72.6876 20.3594C72.9241 20.4679 73.1593 20.5759 73.6292 20.443C73.6292 20.443 73.9143 20.3934 74.0754 20.4801C74.2489 20.5669 74.6827 20.443 73.8647 19.8604C73.6591 19.7148 73.4608 19.6239 73.2772 19.5397C72.9295 19.3803 72.634 19.2449 72.4394 18.8069C72.4394 18.8069 72.3278 18.6086 72.3774 18.5095C72.4022 18.4475 72.5509 18.2988 72.7616 18.3731C72.8357 18.3963 72.9875 18.4574 73.1648 18.5289C73.4623 18.6487 73.8316 18.7975 74.0258 18.8441C74.1993 18.8937 74.3233 18.9557 74.4224 19.0176C74.5588 19.1044 74.9925 19.2531 74.9925 18.9309ZM62.0283 30.8416V26.5656L67.3826 26.578C67.3082 26.6524 67.2214 26.6896 67.2214 26.6896C67.2214 26.6896 66.391 27.0242 66.1679 27.5944C66.0068 28.0034 65.9077 28.3132 65.8581 28.5487C65.7342 29.0692 66.0192 29.2799 66.2175 29.0197C66.5274 28.5983 67.6552 28.0157 68.0395 27.9786C68.1004 27.9727 68.1687 27.9686 68.2423 27.9643C68.6326 27.9413 69.1682 27.9098 69.502 27.5448C69.8986 27.111 70.0845 27.1234 70.0845 27.2845V27.9662V28.0281V28.276V28.6355V28.6479V30.2095C70.0845 30.9655 70.0225 31.6596 69.7251 31.9695C69.6442 32.0503 69.5494 32.1361 69.4495 32.2266C69.1969 32.4553 68.9111 32.714 68.7335 32.9982C68.7013 33.0495 68.6684 33.1039 68.6342 33.1604C68.3135 33.6907 67.8824 34.4035 66.8744 34.4483H65.697L62.0283 30.8416Z" fill="#2B3F6C"/>
</svg>
