<svg width="200" height="40" viewBox="0 0 200 40" fill="none" xmlns="http://www.w3.org/2000/svg">
<path fill-rule="evenodd" clip-rule="evenodd" d="M33.4167 5C38.1409 5 42.7564 5.51585 47.2362 6.46611C47.562 6.54756 47.8063 6.81906 47.8063 7.17201V9.66983C47.8063 11.326 47.7249 12.8735 47.5348 14.3397C42.9193 13.3622 38.168 12.8735 33.4167 12.8735C28.6655 12.8735 23.9142 13.3622 19.2715 14.3397C19.1086 12.8735 19 11.326 19 9.66983V7.17201C19 6.81906 19.2172 6.54756 19.543 6.46611H19.5702C24.0499 5.51585 28.6655 5 33.4167 5ZM33.3896 11.7875C36.6748 11.7875 40.6387 12.0047 44.1139 12.6563C44.2496 12.6835 44.3582 12.5749 44.2768 12.412L41.9962 7.38921C41.969 7.33491 40.5029 6.60186 40.5029 6.60186C38.6296 6.19461 35.5344 6.38466 33.3896 7.17201C31.2447 6.38466 28.1496 6.22176 26.2762 6.60186C26.2762 6.60186 24.8101 7.33491 24.783 7.38921L22.5024 12.412C22.4209 12.5749 22.5295 12.6835 22.6653 12.6563C26.1405 11.9776 30.1316 11.7875 33.3896 11.7875ZM34.042 17.1091L36.7027 18.8738V14.3397C36.1033 14.3034 35.5161 14.2914 34.9248 14.2793L34.9246 14.2793C34.6321 14.2733 34.3385 14.2673 34.042 14.2583V17.1091ZM36.7027 34.0508C35.7253 34.7839 34.8022 35.3812 34.042 35.7885V23.3265L36.7026 25.0912V18.874L39.3633 20.6388V26.856L42.0237 28.6477V22.4307L44.6844 24.1954V24.2226C43.8699 25.8787 42.974 27.3447 42.0238 28.6478L39.3631 31.3495V26.856L36.7027 25.0915V34.0508ZM39.3631 31.3495L42.0237 28.6481C41.1549 29.8154 40.259 30.8471 39.3631 31.743V31.3495V31.3495ZM151.385 32.6662C150.869 32.6119 150.842 32.4761 150.842 31.553V27.6434C150.842 27.6162 150.841 27.5916 150.841 27.5691C150.839 27.3447 150.839 27.3447 151.086 27.3447H151.683C152.172 27.3447 152.498 27.399 152.715 27.5619C152.851 27.6705 152.905 27.9963 152.932 28.2135C152.987 28.2678 153.149 28.2678 153.177 28.1864C153.149 27.9149 153.204 27.1818 153.312 26.8289C153.285 26.8017 153.204 26.7746 153.149 26.8017C153.041 27.0189 152.959 27.0461 152.471 27.0461H148.887C148.48 27.0461 148.181 27.0461 148.127 26.7746C148.1 26.7474 147.991 26.7474 147.964 26.7746C147.909 27.1275 147.774 27.6977 147.638 28.1049C147.665 28.1592 147.774 28.2135 147.855 28.1592L147.862 28.1433C147.967 27.9066 148.05 27.7207 148.262 27.5348C148.48 27.3447 148.968 27.3176 149.348 27.3176H149.837C149.973 27.3176 150.041 27.3176 150.075 27.3515C150.109 27.3855 150.109 27.4533 150.109 27.5891V31.553C150.109 32.4761 150.081 32.6119 149.566 32.6662L149.24 32.6933C149.158 32.7205 149.186 32.8834 149.24 32.9105C149.783 32.8834 150.108 32.8834 150.461 32.8834H150.462H150.462C150.815 32.8834 151.113 32.8834 151.629 32.9105C151.683 32.8834 151.71 32.7205 151.656 32.6933L151.385 32.6662ZM131.674 32.7204C131.837 32.8018 132.325 33.0462 133.058 33.0462C134.226 33.0462 134.959 32.3674 134.959 31.39C134.959 30.5484 134.416 30.0325 133.846 29.6795L133.14 29.2451C132.814 29.0551 132.38 28.675 132.38 28.1591C132.38 27.7519 132.57 27.1817 133.438 27.1817C134.28 27.1817 134.524 27.7519 134.633 28.1863C134.66 28.2406 134.823 28.2134 134.85 28.1591C134.85 27.779 134.769 27.2903 134.687 27.0731C134.633 27.0731 134.497 27.046 134.389 27.0188C134.172 26.9645 133.846 26.9102 133.574 26.9102C132.407 26.9102 131.755 27.589 131.755 28.4306C131.755 29.1637 132.271 29.6524 132.705 29.951L133.547 30.4941C134.199 30.9285 134.28 31.3629 134.28 31.743C134.28 32.286 133.9 32.7747 133.167 32.7747C132.135 32.7747 131.782 31.9059 131.647 31.4443C131.619 31.39 131.484 31.4172 131.429 31.4715C131.456 31.9059 131.565 32.5303 131.674 32.7204ZM76.6675 29.2724C76.6675 28.7294 76.6404 27.6977 76.5046 27.4262C76.4503 27.3176 76.2874 27.2633 76.0702 27.2362L75.853 27.209C75.7987 27.1547 75.8259 27.019 75.8802 26.9918C76.206 27.019 76.5589 27.019 76.8847 27.019C77.2648 27.019 77.5092 27.019 77.8078 26.9918C77.8893 27.0461 77.8621 27.1547 77.835 27.209L77.6178 27.2362C77.4006 27.2633 77.2377 27.3448 77.1834 27.4534C77.0476 27.752 77.0476 28.7566 77.0476 29.2724V30.277C77.0476 31.0372 76.9119 31.8517 76.4232 32.3947C76.0431 32.802 75.3915 33.0463 74.7399 33.0463C74.1154 33.0463 73.5181 32.9377 73.0837 32.5576C72.6222 32.1775 72.405 31.5259 72.405 30.467V28.3765C72.405 27.4534 72.3778 27.2905 71.862 27.2633L71.6448 27.2362C71.5905 27.209 71.6176 27.0461 71.6719 27.019C72.1063 27.0461 72.405 27.0461 72.7579 27.0461C73.1109 27.0461 73.4095 27.0461 73.8439 27.019C73.8982 27.0461 73.9254 27.209 73.8711 27.2362L73.6539 27.2633C73.138 27.3176 73.1109 27.4534 73.1109 28.3765V30.3041C73.1109 31.7431 73.5453 32.6662 74.9028 32.6662C76.1788 32.6662 76.6675 31.6616 76.6675 30.3041V29.2724ZM88.2604 31.3901C88.2604 31.6616 88.2604 32.7205 88.2875 32.9377C88.2604 32.992 88.2061 33.0463 88.1246 33.0463C88.016 32.8834 87.7717 32.5847 86.9843 31.7159L84.9209 29.381C84.8191 29.268 84.6562 29.0748 84.4869 28.8742L84.4859 28.873L84.4856 28.8727C84.2488 28.5921 83.9999 28.2971 83.8892 28.1864H83.8621C83.8349 28.295 83.8078 28.4851 83.8078 28.7566V30.6842C83.8078 31.0915 83.8078 32.2589 83.9707 32.5304C84.025 32.639 84.1879 32.6934 84.4322 32.6934L84.7037 32.7205C84.758 32.802 84.758 32.8834 84.6766 32.9377C84.2693 32.9106 83.9707 32.9105 83.6449 32.9105C83.2648 32.9105 83.0204 32.9106 82.7218 32.9377C82.6675 32.8834 82.6403 32.7748 82.6946 32.7205L82.939 32.6934C83.1562 32.6662 83.2919 32.6119 83.3191 32.5033C83.4379 32.2181 83.4319 31.3507 83.4286 30.8656C83.4281 30.7964 83.4277 30.7351 83.4277 30.6842V28.1321C83.4277 27.8878 83.4277 27.6977 83.2376 27.4805C83.1019 27.3448 82.9118 27.2905 82.6946 27.2633L82.5589 27.2362C82.5046 27.1819 82.5046 27.0461 82.586 27.019C82.9661 27.0461 83.4277 27.0461 83.5906 27.0461C83.7263 27.0461 83.8892 27.0461 83.9978 27.019C84.1879 27.4805 85.2196 28.648 85.5182 28.9738L86.387 29.9512C86.6584 30.2462 86.8939 30.5052 87.1069 30.7396L87.1113 30.7444L87.1113 30.7445L87.1124 30.7456L87.1126 30.7459C87.3872 31.0481 87.6245 31.3091 87.8531 31.553H87.8803C87.9074 31.4987 87.9074 31.363 87.9074 31.1729V29.2724C87.9074 28.8652 87.9074 27.6977 87.7174 27.4262C87.6631 27.3448 87.5273 27.2905 87.1744 27.2362L87.0115 27.209C86.9572 27.1547 86.9572 27.019 87.0386 26.9918C87.4459 27.019 87.7445 27.019 88.0975 27.019C88.4776 27.019 88.7219 27.019 89.0206 26.9918C89.102 27.0461 89.102 27.1547 89.0477 27.209L88.912 27.2362C88.6405 27.2905 88.4504 27.3448 88.4233 27.4262C88.2783 27.7161 88.2839 28.608 88.2868 29.0879V29.0884L88.2873 29.1745L88.2875 29.2453V31.3901H88.2604ZM94.3151 27.2362C94.8309 27.2905 94.8581 27.4262 94.8581 28.3765V31.5259C94.8581 32.449 94.8309 32.5847 94.3151 32.639L94.0979 32.6662C94.0436 32.7205 94.0707 32.8563 94.125 32.8834C94.5594 32.8563 94.8581 32.8563 95.2382 32.8563C95.5911 32.8563 95.8898 32.8563 96.3242 32.8834C96.3785 32.8563 96.4056 32.6933 96.3513 32.6662L96.1342 32.639C95.6183 32.5847 95.5911 32.4762 95.5911 31.5259V28.3765C95.5911 27.4262 95.6183 27.2905 96.1342 27.2362L96.3513 27.209C96.4056 27.1819 96.3785 27.019 96.3242 26.9918C95.8898 27.019 95.5911 27.019 95.2382 27.019C94.8581 27.019 94.5594 27.019 94.125 26.9918C94.0707 27.019 94.0436 27.1819 94.0979 27.209L94.3151 27.2362ZM102.053 27.9692C101.863 27.4805 101.727 27.2905 101.347 27.2362L101.184 27.209C101.13 27.1547 101.13 27.019 101.211 26.9918C101.483 27.019 101.754 27.019 102.135 27.019C102.515 27.019 102.84 27.019 103.221 26.9918C103.275 27.019 103.302 27.1547 103.248 27.209L103.112 27.2362C102.786 27.2905 102.705 27.3448 102.705 27.3991C102.707 27.4065 102.711 27.4174 102.715 27.4314L102.726 27.4695C102.779 27.6433 102.911 28.0788 103.139 28.648C103.546 29.6797 103.954 30.6842 104.388 31.7159C104.66 31.1186 105.04 30.2227 105.23 29.734C105.313 29.5299 105.419 29.2784 105.527 29.0204L105.528 29.0186L105.529 29.0168C105.737 28.5207 105.955 28.0017 106.044 27.752C106.126 27.562 106.126 27.4805 106.126 27.3991C106.126 27.3448 106.044 27.2633 105.718 27.2362L105.555 27.209C105.501 27.1547 105.501 27.019 105.583 26.9918C105.827 27.019 106.18 27.019 106.506 27.019C106.804 27.019 107.076 27.019 107.375 26.9918C107.429 27.019 107.429 27.1819 107.402 27.209L107.13 27.2362C106.913 27.2633 106.777 27.3719 106.669 27.5348C106.424 27.9421 106.071 28.6751 105.664 29.5711L105.175 30.6571C104.822 31.4716 104.415 32.5033 104.252 32.9649C104.225 32.992 104.198 32.992 104.171 32.992C104.117 32.992 104.089 32.992 104.035 32.9649C103.926 32.5848 103.791 32.1504 103.628 31.7974L102.053 27.9692ZM112.18 27.2632C112.696 27.3175 112.723 27.4532 112.723 28.3764H112.696V31.5258C112.696 32.4489 112.669 32.5846 112.153 32.6389L111.854 32.6661C111.8 32.7204 111.827 32.8561 111.881 32.8833C112.397 32.8561 112.696 32.8561 113.076 32.8561H113.863C114.678 32.8561 115.465 32.8561 116.252 32.8833C116.388 32.6661 116.605 31.9602 116.66 31.6615C116.632 31.5801 116.497 31.5529 116.442 31.6072C116.225 32.0688 115.981 32.3946 115.818 32.476C115.628 32.5846 115.356 32.6118 114.678 32.6118C113.89 32.6118 113.7 32.5303 113.592 32.4217C113.456 32.2588 113.429 31.9602 113.429 31.4986V30.2497C113.429 30.0054 113.456 30.0054 113.727 30.0054H114.243C114.596 30.0054 114.786 30.0325 114.922 30.0597C115.085 30.0868 115.166 30.2226 115.193 30.3855L115.275 30.7384C115.302 30.7927 115.465 30.7927 115.492 30.7384C115.492 30.6561 115.487 30.5484 115.481 30.4262L115.481 30.4258V30.4257V30.4255V30.4253C115.474 30.2655 115.465 30.0811 115.465 29.8968C115.465 29.7174 115.473 29.5298 115.481 29.3612C115.487 29.2235 115.492 29.0984 115.492 29.0008C115.465 28.9465 115.329 28.9465 115.275 29.0008L115.193 29.3538C115.139 29.571 115.085 29.6253 114.976 29.6524C114.868 29.6796 114.596 29.7067 114.216 29.7067H113.7C113.429 29.7067 113.402 29.7067 113.402 29.4624V27.6976C113.402 27.3718 113.402 27.3446 113.673 27.3446H114.325C114.732 27.3446 115.003 27.3446 115.193 27.3989C115.629 27.5013 115.726 27.7967 115.849 28.1714L115.872 28.2406C115.899 28.2949 116.062 28.2677 116.089 28.2134C116.062 27.8062 116.008 27.1817 115.954 27.0188C115.845 27.046 115.329 27.046 114.759 27.046H113.103C112.75 27.046 112.451 27.046 112.071 27.0188C112.017 27.046 111.99 27.2089 112.044 27.236L112.18 27.2632ZM122.334 28.3764C122.334 27.5347 122.307 27.3718 121.954 27.3446L121.683 27.3175C121.628 27.2632 121.628 27.1274 121.683 27.1003C122.171 27.046 122.796 27.0188 123.665 27.0188C124.208 27.0188 124.751 27.0731 125.158 27.2903C125.592 27.5075 125.891 27.9148 125.891 28.5393C125.891 29.3809 125.239 29.8425 124.778 30.0325C124.724 30.0868 124.778 30.1683 124.832 30.2497C125.538 31.39 126 32.0959 126.624 32.6118C126.787 32.7475 127.004 32.8561 127.249 32.8561C127.303 32.8833 127.303 32.9376 127.249 32.9919C127.167 33.019 127.031 33.0462 126.868 33.0462C126.108 33.0462 125.647 32.829 125.022 31.933C124.895 31.7628 124.737 31.5109 124.577 31.255L124.577 31.2548L124.577 31.2547C124.431 31.0211 124.283 30.784 124.153 30.6027C124.018 30.4126 123.882 30.3312 123.529 30.3312C123.122 30.3312 123.122 30.3312 123.122 30.5212V31.6344C123.122 32.5575 123.149 32.6661 123.665 32.7475L123.855 32.7747C123.909 32.829 123.882 32.9647 123.828 32.9919C123.42 32.9647 123.122 32.9647 122.769 32.9647C122.389 32.9647 122.063 32.9647 121.656 32.9919C121.601 32.9647 121.574 32.829 121.628 32.7747L121.846 32.7475C122.361 32.6932 122.389 32.5575 122.389 31.6344V28.3764H122.334ZM123.067 29.6524V29.6525C123.067 29.8153 123.067 29.8968 123.095 29.9511C123.122 29.9782 123.257 30.0054 123.692 30.0054C124.018 30.0054 124.343 29.9782 124.615 29.761C124.859 29.571 125.049 29.2723 125.049 28.675C125.049 27.9691 124.615 27.3175 123.638 27.3175C123.095 27.3175 123.067 27.3446 123.067 27.589V29.6524ZM140.987 28.3765C140.987 27.4262 140.959 27.2905 140.444 27.2362L140.226 27.209C140.172 27.1819 140.199 27.019 140.254 26.9918C140.688 27.019 140.987 27.019 141.367 27.019C141.72 27.019 142.018 27.019 142.48 26.9918C142.534 27.019 142.561 27.1819 142.507 27.209L142.29 27.2362C141.774 27.2905 141.747 27.4262 141.747 28.3765V31.5259C141.747 32.4762 141.774 32.5847 142.29 32.639L142.507 32.6662C142.561 32.6933 142.534 32.8563 142.48 32.8834C142.045 32.8563 141.747 32.8563 141.367 32.8563C140.987 32.8563 140.688 32.8563 140.254 32.8834C140.199 32.8563 140.172 32.7205 140.226 32.6662L140.444 32.639C140.959 32.5847 140.987 32.449 140.987 31.5259V28.3765ZM160.942 31.5529C160.942 32.5032 160.996 32.6389 161.485 32.6661L161.837 32.6932C161.892 32.7475 161.865 32.8833 161.81 32.9104C161.267 32.8833 160.969 32.8833 160.616 32.8833H160.616H160.616C160.236 32.8833 159.937 32.8833 159.448 32.9104C159.394 32.8833 159.367 32.7475 159.421 32.6932L159.693 32.6661C160.208 32.6118 160.236 32.476 160.236 31.5529V31.0914C160.236 30.6027 160.208 30.4941 159.964 30.0054L158.905 27.9691C158.607 27.3718 158.471 27.3446 158.199 27.2903L157.955 27.236C157.901 27.1817 157.901 27.046 157.982 27.0188C158.254 27.046 158.579 27.046 159.014 27.046C159.421 27.046 159.747 27.046 159.964 27.0188C160.046 27.046 160.046 27.1817 159.991 27.236L159.883 27.2632C159.584 27.3175 159.503 27.3446 159.503 27.4261C159.503 27.4807 159.612 27.7305 159.693 27.9138C159.733 28.0039 159.765 28.078 159.774 28.1048C159.867 28.2898 159.959 28.4791 160.052 28.6697C160.287 29.1506 160.526 29.6396 160.779 30.0868C161.05 29.6253 161.349 29.1094 161.62 28.5935L161.714 28.418L161.714 28.4174C161.94 27.9918 162.19 27.5213 162.19 27.4261C162.19 27.3718 162.028 27.3175 161.81 27.2903L161.647 27.2632C161.593 27.2089 161.593 27.0731 161.675 27.046C162 27.0731 162.245 27.0731 162.516 27.0731H162.516H162.516C162.788 27.0731 163.032 27.0731 163.331 27.046C163.412 27.1003 163.412 27.2089 163.358 27.2632L163.114 27.3175C162.701 27.3902 162.441 27.8526 162.08 28.4921C162.037 28.5687 161.993 28.6479 161.946 28.7293L161.376 29.7067C160.996 30.3855 160.969 30.4669 160.969 31.1457V31.5529H160.942ZM41.8785 14.7837L42.0238 14.8013V22.4034L39.3631 20.6386V14.5298C40.2105 14.5812 41.0335 14.6811 41.8783 14.7836L41.8784 14.7837L41.8785 14.7837L41.8785 14.7837L41.8785 14.7837ZM44.7118 24.1954V15.2087C45.4199 15.3229 46.128 15.4563 46.8522 15.5928L46.8524 15.5929L46.8527 15.5929L46.8528 15.5929L47.2639 15.6703L47.3453 15.6974C46.8023 18.9826 45.8792 21.7791 44.7118 24.1954ZM28.1773 25.4984C28.9647 25.2812 29.6706 24.8468 30.1864 24.2495C29.8878 24.1409 29.562 24.0323 29.1547 23.9509C28.8832 24.5753 28.5031 25.0912 28.1773 25.4984ZM25.9509 25.4984C25.1635 25.2812 24.4848 24.8468 23.9417 24.2495C24.2404 24.1409 24.5934 24.0323 24.9735 23.9509C25.245 24.6025 25.6251 25.1183 25.9509 25.4984ZM26.6841 17.7607C26.3855 18.0865 26.0597 18.5209 25.761 19.091C26.0325 19.1182 26.3583 19.1453 26.6841 19.1725V17.7607ZM30.6478 23.5981C30.322 23.4624 29.9147 23.3266 29.426 23.218C29.5618 22.7836 29.6432 22.3492 29.6704 21.8333H31.2179C31.1636 22.485 30.9736 23.0823 30.6478 23.5981ZM25.9509 17.4078C25.1635 17.625 24.4576 18.0594 23.9417 18.6567C24.2404 18.7653 24.5662 18.8739 24.9735 18.9554C25.2721 18.3309 25.6251 17.8151 25.9509 17.4078ZM28.1773 17.4078C28.9647 17.625 29.6706 18.0594 30.1864 18.6567C29.9149 18.7653 29.562 18.8739 29.1547 18.9554C28.8832 18.3038 28.5031 17.7879 28.1773 17.4078ZM29.6979 21.0732H31.2455C31.1912 20.4216 30.974 19.8514 30.6753 19.3084C30.3495 19.4442 29.9423 19.5799 29.4536 19.6885C29.5622 20.1229 29.6436 20.5845 29.6979 21.0732ZM28.3672 23.8151C28.0686 24.3853 27.7428 24.8197 27.4441 25.1455V23.7337C27.7699 23.7608 28.0686 23.788 28.3672 23.8151ZM26.6841 21.8333H25.218C25.2451 22.2677 25.3266 22.7022 25.4623 23.0551C25.8424 23.0008 26.2497 22.9465 26.6841 22.9465V21.8333ZM28.6659 23.0551C28.2858 23.0008 27.8785 22.9737 27.4441 22.9465V21.8333H28.9102C28.8831 22.2677 28.7745 22.675 28.6659 23.0551ZM28.3672 19.1183C28.0957 18.5482 27.7428 18.0866 27.4441 17.7879V19.1998L27.4449 19.1997L27.445 19.1997C27.7705 19.1726 28.096 19.1454 28.3672 19.1183ZM28.6659 19.8514C28.8016 20.2044 28.8831 20.6388 28.9102 21.0732H27.4441V19.96C27.8785 19.96 28.2858 19.9057 28.6659 19.8514ZM25.761 23.8151C26.0325 24.3853 26.3855 24.8197 26.6841 25.1455V23.7337C26.3583 23.7337 26.0597 23.7608 25.761 23.8151ZM23.4804 19.3084C23.8062 19.4442 24.2135 19.5799 24.7022 19.6885C24.5664 20.1229 24.485 20.5845 24.4578 21.0732H22.9103C22.9646 20.4216 23.1818 19.8243 23.4804 19.3084ZM26.6841 19.96C26.2497 19.9329 25.8424 19.9057 25.4623 19.8514C25.3266 20.2315 25.2451 20.6388 25.218 21.0732H26.6841V19.96ZM22.9103 21.8333H24.4578C24.485 22.3492 24.5936 22.7836 24.7022 23.218C24.2135 23.3266 23.8062 23.4624 23.4804 23.5981C23.1818 23.0551 22.9646 22.485 22.9103 21.8333ZM19.4614 15.7244C21.4163 27.8334 28.9911 33.725 32.765 35.8155V14.2855C28.3124 14.3398 23.8598 14.8013 19.5429 15.7244H19.4614ZM27.0635 16.4846C29.8057 16.4846 32.032 18.7109 32.032 21.4531C32.032 24.1953 29.8057 26.4216 27.0635 26.4216C24.3213 26.4216 22.095 24.1953 22.095 21.4531C22.1222 18.7109 24.3485 16.4846 27.0635 16.4846ZM39.933 7.47051L40.8832 10.0498C38.6569 9.75112 36.8107 9.88687 34.0685 10.7828V11.0272C36.6478 10.9186 39.9058 10.7828 42.5665 11.353L41.1276 8.04066L39.933 7.47051ZM26.8465 7.47058L25.8962 10.0498C28.1225 9.75119 29.9959 9.88694 32.7109 10.7557V11.0001C30.1316 10.8915 26.8465 10.7557 24.2129 11.3259L25.6518 8.01358L26.8465 7.47058ZM56.7385 11.1088C56.7385 8.85531 56.5485 8.61095 55.3267 8.50235L54.8109 8.47521C54.6751 8.39376 54.7294 8.01365 54.8652 7.95935C55.1949 7.96702 55.4878 7.97469 55.7574 7.98174C56.4422 7.99967 56.9762 8.01365 57.5802 8.01365C58.3079 8.01365 58.9489 7.99198 59.6581 7.968L59.6582 7.968L59.6582 7.96799L59.9151 7.95935C60.0508 8.01365 60.078 8.39376 59.9694 8.47521L59.6707 8.50235C58.4761 8.66525 58.4218 8.93676 58.4218 11.1088V18.6565C58.4218 20.2584 58.3404 21.6702 57.9603 22.5933C57.2815 24.2223 55.8426 25.5255 53.942 25.5255C53.6977 25.5255 53.0732 25.4984 53.0732 25.0911C53.0732 24.7382 53.3719 24.1408 53.8063 24.1408C54.0506 24.1408 54.295 24.168 54.5665 24.2766C54.838 24.358 55.1367 24.4123 55.4082 24.4123C55.8426 24.4123 56.0869 24.168 56.2227 23.8693C56.6842 22.9191 56.7385 19.8511 56.7385 18.7651V11.1088ZM66.0237 9.85981C62.4942 9.85981 59.9149 12.4934 59.9149 15.9143C59.9149 19.0094 62.2227 21.7244 66.0237 21.7516C69.3632 21.7516 71.9968 19.2266 71.9968 15.7514C71.9968 12.7377 69.9877 9.85981 66.0237 9.85981ZM65.7522 10.3757C69.0374 10.3757 70.2863 13.4436 70.2863 16.2673C70.2863 19.661 68.3315 21.2086 66.2681 21.2086C62.9015 21.2086 61.6526 17.9234 61.6526 15.3713C61.6526 11.5974 63.9603 10.3757 65.7522 10.3757ZM75.9064 15.9142C75.0919 15.9142 75.0376 15.9413 75.0376 16.4572V18.8735C75.0376 20.6655 75.119 20.9098 76.0964 21.0184L76.5851 21.0727C76.6937 21.127 76.6666 21.4528 76.558 21.5071C76.3109 21.4998 76.0871 21.4926 75.8794 21.4858L75.8789 21.4858C75.311 21.4674 74.863 21.4528 74.386 21.4528C73.7004 21.4528 73.1335 21.4766 72.5298 21.5018L72.404 21.5071C72.2954 21.4528 72.2683 21.1813 72.3769 21.0727L72.6755 21.0184C73.6258 20.8555 73.6801 20.6655 73.6801 18.8735V12.6833C73.6801 10.8914 73.5715 10.5927 72.6755 10.5113L72.2411 10.4841C72.1325 10.4027 72.1597 10.104 72.2683 10.0497C72.4436 10.0554 72.6084 10.0611 72.766 10.0665L72.7665 10.0665L72.7668 10.0665C73.3652 10.087 73.8602 10.104 74.4403 10.104C75.0059 10.104 75.4961 10.0852 76.0681 10.0632C76.1824 10.0588 76.3001 10.0543 76.4222 10.0497C76.5308 10.104 76.558 10.4027 76.4494 10.4841L76.1236 10.5113C75.119 10.6199 75.0919 10.8642 75.0919 12.6833V14.6653C75.0919 15.2083 75.119 15.2083 75.9607 15.2083H80.8749C81.6894 15.2083 81.7437 15.1811 81.7437 14.6653V12.6833C81.7437 10.8914 81.7165 10.6199 80.6848 10.5113L80.359 10.4841C80.2504 10.4027 80.2776 10.104 80.3862 10.0497C80.5284 10.0546 80.6645 10.0596 80.7961 10.0643C81.3929 10.0858 81.8984 10.104 82.4767 10.104C83.0176 10.104 83.4895 10.0868 84.0573 10.0661C84.202 10.0608 84.353 10.0553 84.513 10.0497C84.6216 10.104 84.6487 10.4027 84.5401 10.4841L84.1872 10.5113C83.1826 10.6199 83.1555 10.8642 83.1555 12.6833V18.8735C83.1555 20.6655 83.1826 20.9098 84.1872 21.0184L84.5944 21.0727C84.703 21.127 84.6759 21.4528 84.5673 21.5071C84.4019 21.5016 84.2454 21.4961 84.0954 21.4908L84.0953 21.4908L84.0948 21.4908L84.0945 21.4908L84.0941 21.4907C83.5061 21.47 83.0173 21.4528 82.4767 21.4528C81.8708 21.4528 81.3248 21.4728 80.7015 21.4957L80.3862 21.5071C80.2776 21.4528 80.2504 21.1813 80.359 21.0727L80.6848 21.0184C81.7437 20.8555 81.7437 20.6655 81.7437 18.8735V16.4572C81.7437 15.9413 81.7165 15.9142 80.8749 15.9142H75.9064ZM96.3233 21.5615C96.269 21.1 96.269 19.0637 96.269 18.5479H96.2419V14.421C96.2419 14.3292 96.2411 14.2193 96.2403 14.0958V14.0957V14.0956V14.0955V14.0954V14.0953V14.0952V14.0951C96.234 13.1593 96.2225 11.443 96.4862 10.8915C96.5405 10.7558 96.8935 10.62 97.4365 10.5386L97.6808 10.5114C97.7894 10.4028 97.7894 10.1585 97.6537 10.077L97.4594 10.0864C96.973 10.1101 96.5371 10.1313 95.8889 10.1313C95.3617 10.1313 94.87 10.1135 94.2845 10.0924L94.2839 10.0924C94.1459 10.0874 94.0027 10.0822 93.8527 10.077C93.7169 10.1313 93.7169 10.4028 93.8255 10.5114L94.1242 10.5386C94.8029 10.6472 95.0744 10.7286 95.183 10.8915C95.5088 11.4074 95.536 13.6337 95.536 14.4482V18.1135C95.536 18.4936 95.536 18.7651 95.4545 18.8465H95.4274C94.8168 18.1938 94.1735 17.4758 93.3583 16.5658L93.358 16.5655L93.3549 16.562L93.3539 16.5609C93.1192 16.2989 92.8703 16.021 92.6038 15.7243L90.9476 13.8509C90.3774 13.2264 88.3683 10.9458 88.0154 10.077C87.7982 10.1042 87.4995 10.1313 87.228 10.1313C86.9294 10.1313 86.0334 10.1313 85.3004 10.077C85.1646 10.1585 85.1646 10.4028 85.2732 10.5114L85.5719 10.5386C85.9791 10.5929 86.3864 10.7015 86.6307 10.9458C86.9837 11.3531 87.0108 11.706 87.0108 12.1947V17.1632L87.0109 17.2531L87.0112 17.3889C87.0135 18.3121 87.0178 20.1197 86.7936 20.6927C86.7122 20.8828 86.4407 20.9914 86.0334 21.0457L85.5719 21.1C85.4633 21.2086 85.4904 21.4529 85.599 21.5344L85.839 21.5232C86.3285 21.5003 86.7588 21.4801 87.3909 21.4801C87.9185 21.4801 88.4462 21.4995 89.0556 21.5219L89.4 21.5344C89.5086 21.4529 89.5358 21.2357 89.4272 21.1L88.8842 21.0457C88.4498 21.0185 88.124 20.9099 88.0154 20.7199C87.7439 20.204 87.7167 17.9777 87.7167 17.1632V13.4165C87.7167 12.9006 87.7167 12.5205 87.7982 12.3033H87.8253C88.0935 12.5715 88.8321 13.4512 89.3738 14.0964C89.5449 14.3002 89.6965 14.4807 89.8073 14.6111L93.7984 19.1452C95.2916 20.8556 95.7803 21.4529 95.9975 21.7516C96.1876 21.7516 96.2962 21.6701 96.3233 21.5615ZM100.803 21.7244C99.3643 21.7244 98.4412 21.29 98.1154 21.1C97.8982 20.7199 97.681 19.4981 97.6538 18.6836C97.7353 18.575 98.0068 18.5207 98.0611 18.6293C98.3054 19.4981 99.0113 21.1814 101.02 21.1814C102.459 21.1814 103.165 20.2312 103.165 19.1995C103.165 18.4393 103.002 17.5976 101.754 16.7831L100.124 15.7242C99.2557 15.1541 98.2783 14.1767 98.2783 12.7649C98.2783 11.1359 99.5543 9.80551 101.781 9.80551C102.324 9.80551 102.921 9.91411 103.383 10.0227C103.6 10.1042 103.844 10.1313 103.98 10.1313C104.143 10.5386 104.278 11.516 104.278 12.2219C104.224 12.3305 103.926 12.3848 103.844 12.2762C103.627 11.4617 103.165 10.3214 101.509 10.3214C99.8258 10.3214 99.4729 11.4345 99.4729 12.2219C99.4729 13.2264 100.287 13.9323 100.939 14.3396L102.324 15.2084C103.41 15.8871 104.469 16.8645 104.469 18.5207C104.469 20.4484 103.03 21.7244 100.803 21.7244ZM113.645 15.5341C113.645 14.9097 113.672 14.8825 114.65 14.8825H120.46C121.437 14.8825 121.464 14.9368 121.464 15.5341V18.412C121.464 20.5569 121.464 20.747 120.216 20.9642L119.835 21.0185C119.727 21.1542 119.754 21.48 119.89 21.5343L120.263 21.5228C120.997 21.5 121.639 21.48 122.36 21.48C122.994 21.48 123.546 21.4964 124.22 21.5165L124.22 21.5165C124.412 21.5223 124.614 21.5283 124.831 21.5343C124.967 21.4529 125.021 21.0999 124.885 21.0185L124.397 20.9642C123.229 20.8013 123.175 20.5569 123.175 18.412V11.0815C123.175 8.96379 123.229 8.66514 124.397 8.52938L124.831 8.47509C124.967 8.39363 124.913 8.01353 124.804 7.95923C124.654 7.96377 124.509 7.96831 124.369 7.97273L124.369 7.97273L124.369 7.97273L124.369 7.97274L124.369 7.97274C123.669 7.99471 123.07 8.01353 122.415 8.01353C121.573 8.01353 120.867 8.01353 119.944 7.95923C119.808 8.01353 119.754 8.39363 119.89 8.47509L120.27 8.52938C121.492 8.63799 121.519 8.93664 121.519 11.0815V13.4164C121.519 14.0409 121.492 14.068 120.514 14.068H114.677C113.727 14.068 113.672 14.0409 113.672 13.4164V11.0815C113.672 8.96379 113.727 8.66514 114.894 8.52938L115.274 8.47509C115.41 8.39363 115.383 8.01353 115.247 7.95923L114.867 7.97133C114.165 7.9939 113.555 8.01353 112.885 8.01353C112.212 8.01353 111.653 7.99723 110.968 7.97726C110.769 7.97146 110.559 7.96534 110.333 7.95923C110.197 8.01353 110.143 8.39363 110.279 8.47509L110.822 8.52938C111.88 8.58369 112.016 8.93664 112.016 11.0815V18.412C112.016 20.5569 111.962 20.747 110.822 20.9642L110.469 21.0185C110.333 21.1542 110.36 21.48 110.496 21.5343L110.682 21.5279C111.396 21.503 112.058 21.48 112.858 21.48C113.422 21.48 113.931 21.494 114.583 21.5119C114.841 21.5189 115.122 21.5266 115.437 21.5343C115.573 21.4529 115.6 21.0999 115.491 21.0185L114.894 20.9642C113.754 20.8284 113.645 20.5569 113.645 18.412V15.5341ZM124.749 15.9143C124.749 12.4934 127.329 9.85981 130.858 9.85981C134.822 9.85981 136.831 12.7377 136.831 15.7514C136.831 19.2266 134.198 21.7516 130.858 21.7516C127.057 21.7244 124.749 19.0094 124.749 15.9143ZM135.094 16.2673C135.094 13.4436 133.845 10.3757 130.56 10.3757C128.768 10.3757 126.46 11.5974 126.46 15.3713C126.46 17.9234 127.709 21.2086 131.075 21.2086C133.139 21.2086 135.094 19.661 135.094 16.2673ZM141.067 21.0184C139.953 20.9098 139.926 20.6655 139.926 18.8735H139.953V11.2172C139.953 10.647 139.953 10.5927 140.877 10.5927C142.668 10.5927 143.646 11.6788 143.646 13.3349C143.646 14.8282 142.967 15.8599 141.121 16.2128C141.039 16.2671 141.039 16.5115 141.148 16.5658C141.854 16.5658 142.75 16.4029 143.51 16.0499C144.243 15.6698 145.221 14.8825 145.221 13.3078C145.221 12.1132 144.623 11.2172 143.836 10.7285C143.021 10.2398 141.963 10.0497 140.524 10.0497C139.112 10.0497 138.053 10.0769 137.13 10.1855C136.994 10.2669 136.994 10.5113 137.103 10.6199L137.727 10.7013C138.514 10.7828 138.542 11.0814 138.542 12.5476V18.8735C138.542 20.6655 138.514 20.8827 137.51 21.0184L137.157 21.0727C137.048 21.1813 137.076 21.4528 137.184 21.5071L137.533 21.4944C138.136 21.4721 138.657 21.4528 139.275 21.4528C139.752 21.4528 140.176 21.4662 140.725 21.4837L140.725 21.4837L140.726 21.4837L140.727 21.4837L140.728 21.4838C140.959 21.4911 141.212 21.4991 141.501 21.5071C141.61 21.4528 141.637 21.1542 141.528 21.0727L141.067 21.0184ZM147.094 12.7106C147.094 10.9187 147.067 10.62 146.062 10.5386L145.628 10.5114C145.519 10.43 145.573 10.1313 145.655 10.077C145.846 10.0832 146.021 10.0893 146.188 10.0952C146.755 10.1151 147.218 10.1313 147.827 10.1313C148.392 10.1313 148.883 10.1125 149.455 10.0905C149.569 10.0861 149.687 10.0815 149.809 10.077C149.917 10.1313 149.945 10.43 149.836 10.5114L149.51 10.5386C148.506 10.6472 148.478 10.8915 148.478 12.7106V14.6925C148.478 15.0184 148.506 15.3442 148.696 15.3442C148.859 15.3442 149.049 15.2356 149.184 15.1541C149.303 15.049 149.465 14.893 149.623 14.7415L149.624 14.7411C149.792 14.5797 149.955 14.4236 150.053 14.3396L151.899 12.4934C152.225 12.1947 153.067 11.2988 153.23 11.0544C153.311 10.9458 153.338 10.8372 153.338 10.7829C153.338 10.7286 153.257 10.6743 153.04 10.62L152.578 10.5114C152.47 10.4028 152.47 10.1585 152.605 10.077C153.203 10.1042 153.881 10.1313 154.506 10.1313C155.103 10.1313 155.7 10.1042 156.216 10.077C156.325 10.1585 156.352 10.4028 156.243 10.5114C155.809 10.5386 155.13 10.7286 154.642 11.0001C154.153 11.2716 153.203 12.0861 152.225 12.9821L150.678 14.4482C150.433 14.6926 150.27 14.8555 150.27 14.9912C150.27 15.0998 150.379 15.2627 150.596 15.5342C150.787 15.7537 150.974 15.9687 151.157 16.1796C152.537 17.7684 153.711 19.1206 154.886 20.3669C155.293 20.7742 155.619 20.9914 156.189 21.0728L156.515 21.1271C156.624 21.2086 156.596 21.5072 156.488 21.5615C156.053 21.5344 155.565 21.5072 154.75 21.5072C154.172 21.5072 153.667 21.5255 153.07 21.547L153.07 21.547L153.07 21.547C152.938 21.5517 152.802 21.5566 152.66 21.5615C152.551 21.5344 152.497 21.2357 152.605 21.1271L153.013 21.0457C153.257 21.0185 153.42 20.9642 153.42 20.8828C153.42 20.7742 153.311 20.6384 153.175 20.4755C152.952 20.1961 152.677 19.8912 152.316 19.4906L152.313 19.4869C152.149 19.3045 151.967 19.1023 151.764 18.8737L150.379 17.3261L150.233 17.1638L150.11 17.0259C149.347 16.1739 149.09 15.8872 148.723 15.8872C148.451 15.8872 148.424 16.1044 148.424 16.7017V18.928C148.424 20.7199 148.451 20.9642 149.429 21.0728L149.89 21.1271C149.999 21.2086 149.972 21.5072 149.863 21.5615C149.674 21.5554 149.496 21.5493 149.328 21.5435C148.75 21.5235 148.277 21.5072 147.773 21.5072C147.167 21.5072 146.661 21.5272 146.083 21.5501L145.791 21.5615C145.682 21.5072 145.655 21.2629 145.763 21.1271L146.116 21.0728C147.04 20.9371 147.067 20.7199 147.067 18.928V12.7106H147.094ZM157.818 10.5386C158.85 10.62 158.877 10.9187 158.877 12.7377V18.8465C158.877 20.6656 158.823 20.9099 157.818 21.0185L157.465 21.0728C157.357 21.1814 157.384 21.4529 157.492 21.5072C157.703 21.5005 157.893 21.4937 158.071 21.4873C158.605 21.4682 159.033 21.4529 159.583 21.4529C160.093 21.4529 160.542 21.4683 161.102 21.4874L161.103 21.4875C161.288 21.4938 161.485 21.5005 161.701 21.5072C161.809 21.4529 161.836 21.1543 161.728 21.0728L161.293 21.0185C160.262 20.9099 160.234 20.6656 160.234 18.8465V12.7377C160.234 10.9187 160.289 10.62 161.293 10.5386L161.728 10.5114C161.836 10.43 161.809 10.1313 161.701 10.077C161.516 10.083 161.343 10.0889 161.178 10.0946C160.593 10.1148 160.113 10.1313 159.583 10.1313C159.024 10.1313 158.559 10.1155 157.985 10.096C157.806 10.0899 157.617 10.0835 157.411 10.077C157.302 10.1313 157.275 10.43 157.384 10.5114L157.818 10.5386ZM173.728 18.5479C173.728 19.0637 173.728 21.1 173.782 21.5615C173.755 21.6701 173.647 21.7516 173.457 21.7516C173.239 21.4529 172.751 20.8556 171.258 19.1452L167.266 14.6111C167.156 14.4808 167.004 14.3004 166.833 14.0966C166.291 13.4514 165.553 12.5716 165.284 12.3033H165.257C165.176 12.5205 165.176 12.9006 165.176 13.4165V17.1632C165.176 17.9777 165.203 20.204 165.475 20.7199C165.583 20.9099 165.909 21.0185 166.343 21.0457L166.886 21.1C166.995 21.2357 166.968 21.4529 166.859 21.5344L166.515 21.5219C165.905 21.4995 165.378 21.4801 164.85 21.4801C164.218 21.4801 163.788 21.5003 163.298 21.5232L163.058 21.5344C162.95 21.4529 162.922 21.2086 163.031 21.1L163.493 21.0457C163.9 20.9914 164.171 20.8828 164.253 20.6927C164.477 20.1197 164.473 18.3122 164.47 17.389V17.3862C164.47 17.3044 164.47 17.2296 164.47 17.1632V12.1947C164.47 11.706 164.443 11.3531 164.09 10.9458C163.846 10.7015 163.438 10.5929 163.031 10.5386L162.732 10.5114C162.624 10.4028 162.624 10.1585 162.76 10.077C163.493 10.1313 164.389 10.1313 164.687 10.1313C164.959 10.1313 165.257 10.1042 165.475 10.077C165.827 10.9458 167.837 13.2264 168.407 13.8509L170.063 15.7243C170.329 16.0203 170.577 16.2975 170.811 16.5589L170.817 16.5658C171.633 17.4758 172.276 18.1938 172.887 18.8465H172.914C172.995 18.7651 172.995 18.4936 172.995 18.1135V14.4482C172.995 13.6337 172.968 11.4074 172.642 10.8915C172.534 10.7286 172.262 10.6472 171.583 10.5386L171.285 10.5114C171.176 10.4028 171.176 10.1313 171.312 10.077C171.462 10.0822 171.606 10.0874 171.744 10.0924C172.329 10.1135 172.821 10.1313 173.348 10.1313C173.996 10.1313 174.432 10.1101 174.919 10.0864L175.113 10.077C175.249 10.1585 175.249 10.4028 175.14 10.5114L174.896 10.5386C174.353 10.62 174 10.7558 173.945 10.8915C173.682 11.443 173.693 13.1594 173.699 14.0952V14.0958C173.7 14.2193 173.701 14.3292 173.701 14.421V18.5479H173.728ZM175.548 21.1C175.873 21.29 176.796 21.7244 178.235 21.7244C180.489 21.7244 181.901 20.4484 181.901 18.5207C181.901 16.8645 180.842 15.8871 179.756 15.2084L178.371 14.3396C177.72 13.9323 176.905 13.2264 176.905 12.2219C176.905 11.4345 177.258 10.3214 178.941 10.3214C180.597 10.3214 181.059 11.4617 181.276 12.2762C181.358 12.3848 181.629 12.3305 181.711 12.2219C181.711 11.516 181.575 10.5386 181.412 10.1313C181.276 10.1313 181.032 10.1042 180.815 10.0227C180.353 9.91411 179.756 9.80551 179.213 9.80551C176.986 9.80551 175.71 11.1359 175.71 12.7649C175.71 14.1767 176.688 15.1541 177.557 15.7242L179.186 16.7831C180.435 17.5976 180.597 18.4393 180.597 19.1995C180.597 20.2312 179.892 21.1814 178.453 21.1814C176.443 21.1814 175.765 19.4981 175.493 18.6293C175.439 18.5207 175.167 18.575 175.086 18.6836C175.113 19.4981 175.33 20.7199 175.548 21.1Z" fill="#2B3F6C"/>
</svg>
