<svg width="200" height="40" viewBox="0 0 200 40" fill="none" xmlns="http://www.w3.org/2000/svg">
<path d="M93.5198 24.44C93.6498 24.44 94.1398 24.42 94.2598 24.42V24.57C93.9298 24.65 93.7898 24.8 93.7898 25.03V27.89C93.7898 29.17 93.0598 29.91 91.4898 29.91C90.0298 29.91 89.2698 29.23 89.2698 28.02V25.04C89.2698 24.81 89.1198 24.64 88.8198 24.57V24.42C88.9898 24.42 89.5398 24.44 89.6998 24.44C89.8398 24.44 90.3698 24.42 90.5398 24.42V24.57C90.2598 24.63 90.1098 24.79 90.1098 25.04V27.98C90.1098 28.91 90.6098 29.44 91.6498 29.44C92.5498 29.44 93.2498 29.03 93.2498 28.05V25.03C93.2498 24.81 93.1198 24.64 92.7798 24.57V24.42C92.8998 24.42 93.3598 24.44 93.5198 24.44ZM99.5998 24.42V24.57C99.9398 24.64 100.07 24.81 100.07 25.03V28.56L96.6298 24.42C96.4898 24.44 96.2798 24.44 96.1498 24.44C95.9998 24.44 95.7098 24.44 95.5398 24.42V24.57C95.8498 24.66 96.0198 24.81 96.0198 25.15V29.21C96.0198 29.43 95.8898 29.6 95.5398 29.67V29.82C95.6698 29.82 96.1298 29.8 96.2698 29.8C96.4298 29.8 96.8698 29.82 96.9898 29.82V29.67C96.6498 29.6 96.5298 29.43 96.5298 29.21V25.63L99.6098 29.3C99.9898 29.72 100.23 29.87 100.36 29.9H100.57V25.02C100.57 24.79 100.73 24.64 101.06 24.56V24.41C100.93 24.41 100.46 24.43 100.32 24.43C100.16 24.43 99.7198 24.41 99.5998 24.41V24.42ZM124.68 26.75C124.03 26.45 123.45 26.15 123.45 25.55C123.45 25.13 123.71 24.72 124.42 24.72C125.05 24.72 125.63 24.95 125.82 25.6H125.97V24.5C125.5 24.52 125.16 24.34 124.45 24.34C123.37 24.34 122.69 24.9 122.69 25.81C122.69 26.78 123.67 27.21 124.18 27.46C124.85 27.8 125.42 28.1 125.42 28.68C125.42 29.26 124.98 29.59 124.29 29.59C123.98 29.59 123.59 29.5 123.34 29.33C123.1 29.17 122.93 28.89 122.86 28.59H122.71L122.73 29.72C123.12 29.77 123.56 29.98 124.3 29.98C125.54 29.98 126.22 29.34 126.22 28.45C126.22 27.51 125.43 27.09 124.69 26.76L124.68 26.75ZM139.01 24.42V24.57C139.18 24.59 139.25 24.68 139.25 24.78C139.25 24.89 139.18 25.07 139.08 25.25L138.08 27C138.08 27 137.13 25.38 137.05 25.25C136.97 25.11 136.89 24.96 136.89 24.83C136.89 24.69 136.97 24.6 137.15 24.57V24.42C136.95 24.42 136.39 24.44 136.25 24.44C136.1 24.44 135.58 24.42 135.39 24.42V24.57C135.66 24.67 135.84 24.88 136.08 25.29L137.43 27.5V29.21C137.43 29.39 137.28 29.62 136.97 29.68V29.83C137.16 29.83 137.7 29.81 137.83 29.81C137.99 29.81 138.55 29.83 138.72 29.83V29.68C138.41 29.62 138.28 29.39 138.28 29.21V27.5L139.47 25.47C139.7 25.07 139.94 24.73 140.32 24.57V24.43C140.15 24.43 139.75 24.45 139.63 24.45C139.51 24.45 139.16 24.43 138.99 24.43L139.01 24.42ZM114.33 29.39H112.78V27.16H113.88C114.04 27.16 114.23 27.18 114.32 27.2C114.56 27.26 114.66 27.42 114.73 27.64H114.88C114.88 27.46 114.87 27.07 114.87 26.95C114.87 26.83 114.87 26.46 114.88 26.3H114.73C114.68 26.52 114.57 26.66 114.32 26.71C114.24 26.73 114.04 26.74 113.88 26.74H112.78V24.83H114.21C114.85 24.83 114.98 25.11 115.1 25.45H115.25L115.27 24.36H115.12C115.02 24.41 114.84 24.42 114.74 24.42H111.45V24.57C111.78 24.63 111.92 24.79 111.92 25.04V29.17C111.92 29.46 111.75 29.61 111.45 29.67V29.82C111.62 29.82 112.2 29.8 112.36 29.8H114C114.57 29.8 114.87 29.8 115.38 29.85L115.53 28.73L115.38 28.7C115.21 29.11 115.01 29.4 114.34 29.4L114.33 29.39ZM102.58 24.43V24.58C102.9 24.65 103.06 24.8 103.06 25.08V29.18C103.06 29.47 102.91 29.61 102.58 29.68V29.83C102.76 29.83 103.35 29.81 103.49 29.81C103.65 29.81 104.22 29.83 104.39 29.83V29.68C104.07 29.61 103.91 29.46 103.91 29.18V25.08C103.91 24.79 104.08 24.65 104.39 24.58V24.43C104.21 24.43 103.63 24.45 103.49 24.45C103.32 24.45 102.75 24.43 102.58 24.43ZM127.51 24.43V24.58C127.83 24.65 127.99 24.8 127.99 25.08V29.18C127.99 29.47 127.83 29.61 127.51 29.68V29.83C127.69 29.83 128.28 29.81 128.42 29.81C128.59 29.81 129.15 29.83 129.32 29.83V29.68C129 29.61 128.84 29.46 128.84 29.18V25.08C128.84 24.79 129 24.65 129.32 24.58V24.43C129.14 24.43 128.56 24.45 128.42 24.45C128.26 24.45 127.68 24.43 127.51 24.43ZM130.1 24.39V25.5H130.25C130.38 25.01 130.65 24.89 131 24.89H132.13V29.18C132.13 29.47 131.98 29.61 131.65 29.68V29.83C131.83 29.83 132.43 29.81 132.57 29.81C132.74 29.81 133.3 29.83 133.47 29.83V29.68C133.15 29.61 132.99 29.46 132.99 29.18V24.89H134.11C134.47 24.89 134.73 25.02 134.86 25.5H135.01V24.39C134.65 24.41 134.36 24.45 132.56 24.45C130.76 24.45 130.47 24.42 130.1 24.39ZM122.03 29.71V29.83C121.87 29.87 121.6 29.9 121.4 29.9C120.97 29.9 120.63 29.74 120.3 29.33C120.01 28.97 119.52 28.23 119.24 27.85C119.06 27.61 118.83 27.42 118.43 27.35C118.35 27.34 118.28 27.32 118.19 27.31V29.17C118.19 29.45 118.36 29.6 118.68 29.67V29.82C118.5 29.82 117.93 29.8 117.76 29.8C117.62 29.8 117.06 29.82 116.88 29.82V29.67C117.17 29.61 117.35 29.46 117.35 29.17V25.02C117.35 24.76 117.21 24.6 116.88 24.55V24.4C117.06 24.4 117.61 24.42 117.77 24.42C118.03 24.42 118.76 24.38 119.05 24.38C120.31 24.38 121.02 24.91 121.02 25.83C121.02 26.55 120.5 27.04 119.69 27.24C119.69 27.24 119.87 27.35 120.06 27.57C120.28 27.84 120.88 28.72 121.13 29.03C121.38 29.34 121.7 29.69 122.04 29.7L122.03 29.71ZM120.14 25.92C120.14 25.19 119.66 24.74 118.8 24.74C118.62 24.74 118.36 24.76 118.18 24.8V26.99C118.35 27.01 118.6 27.02 118.84 27.02C119.83 27.02 120.14 26.44 120.14 25.92ZM109.25 24.43V24.58C109.46 24.63 109.61 24.74 109.61 24.91C109.61 25.06 109.54 25.26 109.43 25.52L108.14 28.69L106.78 25.52C106.63 25.19 106.56 25.02 106.56 24.89C106.56 24.71 106.75 24.61 106.93 24.58V24.43C106.74 24.43 106.17 24.45 106.04 24.45C105.9 24.45 105.25 24.43 105.06 24.43V24.58C105.36 24.65 105.54 24.84 105.65 25.1L107.74 29.85H108.17L110.06 25.28C110.24 24.85 110.44 24.67 110.76 24.58V24.43C110.57 24.43 110.08 24.45 109.96 24.45C109.83 24.45 109.41 24.43 109.24 24.43H109.25ZM110.52 10.68L114.48 19.69H115.29L118.88 11.02C119.22 10.21 119.59 9.85 120.2 9.68V9.41C119.85 9.41 118.91 9.45 118.69 9.45C118.44 9.45 117.66 9.41 117.33 9.41V9.69C117.73 9.78 118.02 9.99 118.02 10.31C118.02 10.6 117.88 10.97 117.69 11.46L115.25 17.48L112.67 11.47C112.4 10.85 112.25 10.52 112.25 10.28C112.25 9.94 112.62 9.76 112.94 9.69V9.41C112.58 9.41 111.44 9.45 111.19 9.45C110.92 9.45 109.74 9.41 109.39 9.41V9.7C109.96 9.83 110.3 10.19 110.51 10.69L110.52 10.68ZM83.1698 9.39V9.67C83.6598 9.78 83.9698 10 83.9698 10.54V13.86H78.1898V10.54C78.1898 10 78.5398 9.78 79.0098 9.67V9.39C78.7698 9.39 77.6498 9.43 77.3598 9.43C77.0998 9.43 76.0398 9.39 75.7998 9.39V9.67C76.2898 9.8 76.5998 10.02 76.5998 10.54V18.49C76.5998 19.03 76.2698 19.25 75.7998 19.36V19.62C76.0498 19.62 77.1098 19.6 77.3598 19.6C77.6598 19.6 78.7698 19.62 79.0098 19.62V19.36C78.5198 19.23 78.1898 19.03 78.1898 18.49V14.73H83.9698V18.49C83.9698 19.03 83.6398 19.25 83.1698 19.36V19.62C83.4098 19.62 84.5098 19.6 84.7998 19.6C85.0598 19.6 86.1398 19.62 86.3798 19.62V19.36C85.8898 19.23 85.5598 19.01 85.5598 18.49V10.52C85.5598 9.98 85.9098 9.76 86.3798 9.65V9.37C86.1398 9.37 85.0498 9.41 84.7998 9.41C84.4998 9.41 83.4098 9.37 83.1698 9.37V9.39ZM153.05 14.45C153.05 17.46 150.8 19.69 147.13 19.69C146.07 19.69 144.82 19.6 144.33 19.6C144.03 19.6 143.02 19.64 142.68 19.64V19.36C143.28 19.25 143.61 19.01 143.61 18.45V10.52C143.61 9.98 143.28 9.76 142.7 9.65V9.37C143.03 9.37 144.12 9.41 144.42 9.41C144.91 9.41 146.26 9.3 147.32 9.3C150.88 9.3 153.04 11.33 153.04 14.43L153.05 14.45ZM151.32 14.54C151.32 11.88 149.68 10 146.88 10C146.31 10 145.6 10.04 145.21 10.11V18.82C145.57 18.89 146.24 18.93 146.77 18.93C149.76 18.93 151.32 17.09 151.32 14.52V14.54ZM106.44 18.74C105.9 18.06 104.95 16.62 104.4 15.91C104.05 15.46 103.63 15.1 102.86 14.97C102.71 14.94 102.57 14.92 102.4 14.9V18.42C102.4 18.95 102.73 19.23 103.33 19.36V19.64C103 19.64 101.91 19.6 101.59 19.6C101.33 19.6 100.26 19.64 99.9198 19.64V19.36C100.48 19.25 100.81 18.97 100.81 18.42V10.55C100.81 10.07 100.56 9.76 99.9298 9.65V9.37C100.26 9.37 101.32 9.41 101.62 9.41C102.11 9.41 103.5 9.33 104.04 9.33C106.43 9.33 107.76 10.34 107.76 12.08C107.76 13.45 106.77 14.37 105.24 14.75C105.24 14.75 105.59 14.96 105.93 15.37C106.35 15.88 107.52 17.59 107.99 18.17C108.46 18.76 109.07 19.41 109.71 19.44V19.67C109.4 19.74 108.9 19.8 108.53 19.8C107.71 19.8 107.07 19.51 106.44 18.73V18.74ZM106.11 12.24C106.11 10.86 105.21 10 103.57 10C103.23 10 102.74 10.04 102.4 10.11V14.25C102.72 14.29 103.18 14.31 103.65 14.31C105.52 14.31 106.11 13.21 106.11 12.23V12.24ZM141.25 19.46V19.69C140.94 19.76 140.45 19.82 140.07 19.82C139.25 19.82 138.6 19.53 137.97 18.75C137.43 18.07 136.48 16.63 135.93 15.92C135.58 15.47 135.16 15.11 134.4 14.98C134.25 14.95 134.11 14.93 133.94 14.91V18.43C133.94 18.96 134.27 19.24 134.87 19.37V19.65C134.54 19.65 133.45 19.61 133.14 19.61C132.87 19.61 131.81 19.65 131.47 19.65V19.37C132.03 19.26 132.35 18.98 132.35 18.43V10.55C132.35 10.07 132.09 9.76 131.47 9.65V9.37C131.81 9.37 132.86 9.41 133.16 9.41C133.65 9.41 135.04 9.33 135.58 9.33C137.98 9.33 139.3 10.34 139.3 12.08C139.3 13.45 138.31 14.37 136.78 14.75C136.78 14.75 137.13 14.96 137.47 15.37C137.9 15.88 139.06 17.59 139.53 18.17C140 18.76 140.61 19.41 141.25 19.44V19.46ZM137.64 12.24C137.64 10.86 136.74 10 135.1 10C134.76 10 134.27 10.04 133.93 10.11V14.25C134.25 14.29 134.72 14.31 135.18 14.31C137.05 14.31 137.64 13.21 137.64 12.23V12.24ZM95.5198 18.73C95.5198 18.52 95.4298 18.28 95.3298 18.03L94.5998 16.33H90.8698L90.1998 18.04C90.1298 18.23 90.0398 18.51 90.0398 18.69C90.0398 18.98 90.1898 19.2 90.7398 19.35V19.61C90.4098 19.61 89.5298 19.59 89.3298 19.59L87.8798 19.61V19.35C88.5098 19.2 88.8598 18.78 89.0898 18.22L92.2898 10.33C92.4298 10 92.5798 9.33 92.5798 9.33H93.4798C93.4798 9.33 93.6398 10 93.7698 10.33L97.1598 18.24C97.3998 18.78 97.6598 19.18 98.3398 19.35V19.61C97.9698 19.61 96.8298 19.59 96.5698 19.59C96.3098 19.59 95.2198 19.61 94.8598 19.61V19.35C95.3498 19.23 95.5098 18.97 95.5098 18.72L95.5198 18.73ZM94.2698 15.53L92.6798 11.73L91.1998 15.53H94.2798H94.2698ZM127.26 18.73C127.26 18.52 127.18 18.28 127.07 18.03L126.34 16.33H122.61L121.94 18.04C121.87 18.23 121.78 18.51 121.78 18.69C121.78 18.98 121.93 19.2 122.48 19.35V19.61C122.15 19.61 121.27 19.59 121.07 19.59L119.62 19.61V19.35C120.25 19.2 120.6 18.78 120.83 18.22L124.03 10.33C124.17 10 124.33 9.33 124.33 9.33H125.23C125.23 9.33 125.39 10 125.52 10.33L128.91 18.24C129.15 18.78 129.41 19.18 130.08 19.35V19.61C129.71 19.61 128.57 19.59 128.31 19.59C128.05 19.59 126.97 19.61 126.6 19.61V19.35C127.1 19.23 127.25 18.97 127.25 18.72L127.26 18.73ZM126.01 15.53L124.42 11.73L122.94 15.53H126.02H126.01ZM46.0098 6H68.6698V14.8C68.6698 18.26 67.5798 27.01 57.4998 33.54L57.4298 33.58L57.3598 33.55C57.2498 33.5 46.7998 28.88 45.9998 14.81V6H46.0098ZM46.3198 14.8C46.7298 22.05 49.7498 26.69 52.2098 29.3C54.6198 31.86 56.9698 33.03 57.4198 33.23C67.3098 26.79 68.3798 18.2 68.3798 14.79V6.31H46.3198V14.8ZM58.5898 14.44C58.5898 14.44 58.5498 12.03 58.5698 11.85C58.5698 11.85 58.6398 11.63 58.2298 11.59C58.2298 11.59 57.6298 11.72 57.5598 11.31C57.5598 11.31 57.5198 10.7 57.9198 10.66C57.9198 10.66 58.4098 10.7 58.4998 10.57C58.4998 10.57 58.6098 10.64 58.5898 10.2L58.6098 9.44C58.6098 9.44 58.6598 9.24 58.9698 9.26C58.9698 9.26 59.5298 9.3 59.5998 9.24C59.5998 9.24 59.7298 9.07 59.7598 9C59.7598 9 60.0498 8.98 60.0998 9.06C60.0998 9.06 60.5298 9.36 62.1798 9.24C62.1798 9.24 62.4298 9.24 62.4898 9.31C62.4898 9.31 62.7998 9.55 62.9798 9.29C62.9798 9.29 63.2498 9.23 64.0698 9.25C64.0698 9.25 64.9598 9.49 65.5698 8.97L65.7698 9.01C65.7698 9.01 66.0198 9.44 66.1998 9.31C66.1998 9.31 66.7398 9.26 66.8298 9.37C66.8298 9.37 67.0098 9.65 66.9198 10.37C66.9198 10.37 66.8098 10.68 67.3398 10.68C67.3398 10.68 67.9398 10.57 67.8598 11.14C67.8598 11.14 68.0198 11.79 67.0298 11.7C67.0298 11.7 66.8998 11.89 66.9198 12.02C66.9198 12.02 66.8998 14.13 66.8798 14.37C66.8798 14.37 66.8598 14.7 67.2998 14.68C67.2998 14.68 67.8798 14.64 67.8998 15.18C67.8998 15.18 67.9698 15.88 67.1398 15.75C67.1398 15.75 66.8898 15.79 66.8498 15.95L66.8198 16.88C66.8198 16.88 66.8398 17.34 66.3298 17.23C66.2598 17.23 63.5098 17.29 63.2698 17.21C63.2698 17.21 63.1398 17.19 63.1098 17.26C63.1098 17.26 62.9098 17.91 62.0298 17.24L58.9898 17.16C58.9898 17.16 58.5898 17.29 58.5398 16.86C58.5398 16.86 58.6098 16.01 58.5798 15.93C58.5798 15.93 58.5998 15.69 58.1998 15.69C58.1998 15.69 57.5898 15.76 57.5698 15.21C57.5698 15.21 57.4598 14.62 58.3098 14.64C58.3098 14.64 58.5798 14.77 58.5998 14.42L58.5898 14.44ZM66.3498 12.07C66.3498 14.29 66.2498 16.31 66.2498 16.31C66.2498 16.75 66.0098 16.62 66.0098 16.62L63.4798 16.64C63.2298 16.64 63.2298 16.79 63.2298 16.79C63.2698 17 63.5198 16.92 63.5198 16.92C63.7498 16.97 66.2698 16.94 66.2698 16.94C66.6498 17 66.6098 16.48 66.6098 16.48C66.6598 15.61 66.7398 15.52 66.7398 15.52C66.8298 15.44 67.2498 15.46 67.2498 15.46C67.9198 15.5 67.6098 15.03 67.6098 15.03C67.5198 14.88 67.0698 14.9 67.0698 14.9C66.6398 14.92 66.6698 14.46 66.6698 14.46L66.7198 11.77C66.6698 11.55 66.8498 11.44 66.8498 11.44H67.2698C67.8498 11.48 67.6998 11.11 67.6998 11.11C67.6798 10.93 67.1898 10.85 67.1898 10.85C66.6998 10.93 66.7598 10.65 66.7598 10.65L66.7398 10C66.8098 9.57 66.5398 9.55 66.5398 9.55C66.2298 9.44 66.2298 9.73 66.2298 9.73C66.2998 9.79 66.3598 10.06 66.3598 10.06C66.3798 10.7 66.3598 11.4 66.3598 12.06L66.3498 12.07ZM65.6898 15.55C65.6898 15.55 65.8298 16.07 66.0698 16.02C66.0698 16.02 66.1098 15.91 66.1198 15.72L66.1898 10.14C66.1898 10.14 66.0098 9.25 65.6998 9.7L65.6798 15.55H65.6898ZM65.3798 15.95C65.0698 16.17 63.2598 16.01 63.2598 16.01C63.1498 16.01 62.9898 16.19 62.9898 16.19C62.9298 16.52 63.4998 16.39 63.4998 16.39C63.6098 16.39 65.6498 16.37 65.6498 16.37C65.9798 16.46 65.9898 16.3 65.9898 16.3C65.9898 16.17 65.7198 15.95 65.7198 15.95C65.6498 15.89 65.3698 15.95 65.3698 15.95H65.3798ZM62.6798 15.83C62.6798 15.83 62.7898 16 62.8798 15.89C62.8798 15.89 63.4598 15.74 63.8198 15.8C63.8198 15.8 64.9798 15.91 65.2098 15.72C65.2098 15.72 65.3898 15.81 65.4398 15.52C65.4398 15.52 65.5098 10.33 65.4798 10.24C65.4798 10.24 65.5498 9.5 65.5098 9.42C65.5098 9.42 65.4898 9.25 65.1898 9.4C65.1898 9.4 65.2298 9.55 63.5098 9.49C63.5098 9.49 62.8598 9.47 62.8198 9.77C62.8198 9.77 62.7698 12.57 62.7798 12.66L62.7398 15.01L62.6698 15.83H62.6798ZM62.4098 16.84C62.4098 16.84 62.4498 17.19 62.8098 17.19C62.8098 17.19 63.1298 17.14 63.0998 16.76C63.0998 16.76 62.8998 16.3 62.7398 16.37C62.7398 16.37 62.3998 16.37 62.4098 16.83V16.84ZM59.9098 15.42C59.9098 15.42 59.8898 15.7 60.3398 15.75C60.3398 15.75 60.8598 15.81 60.9898 15.75C60.9898 15.75 61.3398 15.73 62.2198 15.77C62.2198 15.77 62.4398 15.99 62.4598 15.71C62.4598 15.71 62.5998 10.89 62.5298 9.89C62.5298 9.89 62.5098 9.46 62.1998 9.45C62.1998 9.45 60.8198 9.56 60.6998 9.45L60.1598 9.3C60.1598 9.3 59.9398 9.32 59.9598 9.47L59.9098 15.42ZM59.6398 16.12C59.6398 16.12 59.5698 16.38 59.8398 16.33H61.6998L62.2098 16.44C62.2098 16.44 62.7298 16.31 62.2098 16.01C62.2098 16.01 60.5498 16.03 60.3998 15.99C60.3998 15.99 60.0598 15.9 59.9798 15.88C59.9798 15.88 59.7998 15.81 59.6398 16.12ZM59.3098 10.29L59.2698 15.85C59.2898 16.11 59.3798 16.07 59.3798 16.07C59.7198 15.87 59.6698 15.46 59.6698 15.46C59.6698 15.46 59.7198 10.2 59.7198 10.11C59.7198 10.02 59.6798 9.65 59.6798 9.65C59.3398 9.61 59.2998 10.3 59.2998 10.3L59.3098 10.29ZM58.3898 14.9C58.3898 14.9 57.7698 14.86 57.7898 15.25C57.7898 15.25 57.9198 15.58 58.4398 15.47C58.4398 15.47 58.8198 15.54 58.7998 15.92V16.62C58.7998 16.62 58.7598 16.9 59.1298 16.92H61.9498C61.9498 16.92 62.0898 16.94 62.0898 16.75C62.0898 16.75 62.0698 16.6 61.8598 16.6L59.5098 16.56C59.5098 16.56 59.1298 16.69 59.0898 16.11C59.0898 16.11 59.1298 10.88 59.1098 10.79C59.0898 10.7 59.1298 10.87 59.1298 10.87C59.1298 10.87 59.0798 9.96 59.3098 9.59C59.3098 9.59 59.2398 9.28 58.8198 9.67L58.7998 10.43C58.7998 10.43 58.7998 10.86 58.4198 10.84C58.4198 10.84 57.9898 10.82 57.7898 11.02C57.7898 11.02 57.6798 11.43 58.0998 11.35C58.0998 11.35 58.7498 11.35 58.7898 11.63L58.7498 14.43C58.7498 14.43 58.8998 14.9 58.3898 14.9ZM63.5198 14.28L64.0398 14.26C64.0398 14.26 64.2398 14.3 64.2398 14.13C64.2398 14.13 64.0998 13.96 64.0598 13.87C64.0598 13.87 64.0398 12.11 64.0598 11.91L64.1298 11.67C64.1298 11.67 64.3498 11.56 64.2198 11.36C64.2198 11.36 64.0898 11.3 63.9698 11.32L63.7898 11.28C63.7898 11.28 63.4298 11.3 63.4798 11.45L63.6398 11.82V13.65C63.6398 13.65 63.5898 13.98 63.3998 14.08C63.3998 14.08 63.3498 14.27 63.5098 14.28H63.5198ZM60.4398 11.35C60.4798 11.26 60.7798 11.31 60.7798 11.31H61.5398C62.2598 11.55 62.1598 12.09 62.1598 12.09C62.2098 12.63 61.6498 12.85 61.6498 12.85L61.6098 13.15L62.1398 14C62.2298 14.07 62.2098 14.15 62.2098 14.15C62.1398 14.35 61.8498 14.15 61.8498 14.15L61.1998 13.11C61.1498 13.04 61.0398 13.17 61.0398 13.17L60.9998 13.74L61.1598 14.02C61.2698 14.17 61.0898 14.28 61.0898 14.28L60.5098 14.22C60.3998 14.16 60.5098 13.98 60.5098 13.98C60.6598 13.89 60.6698 13.65 60.6698 13.65L60.6498 12.58L60.6698 11.8C60.6698 11.71 60.5298 11.54 60.5298 11.54C60.3998 11.52 60.4398 11.35 60.4398 11.35ZM61.0498 11.7C61.0698 12.11 61.0698 12.66 61.0698 12.66C61.4098 12.94 61.6098 12.55 61.6098 12.55C62.0598 12.11 61.6098 11.7 61.5398 11.59C61.4698 11.48 61.0998 11.57 61.0998 11.57L61.0498 11.7ZM52.1798 27.03C52.1798 27.03 52.1798 26.75 52.0198 26.74C52.0198 26.74 51.3098 26.7 51.2998 26.63C51.2998 26.63 50.9198 26.35 51.0298 26.08C51.0298 26.08 51.1598 25.71 51.5398 25.67C51.5398 25.67 52.1198 25.76 52.1198 25.6C52.1198 25.6 52.1598 25.49 52.1598 25.3C52.1598 25.3 52.1998 23.09 52.1798 22.95C52.1798 22.95 52.2298 22.67 51.9998 22.67C51.9998 22.67 51.7498 22.74 51.5798 22.63C51.5798 22.63 51.1498 22.65 51.0498 22.3C51.0498 22.3 50.9798 22.08 51.0898 21.89C51.0898 21.89 51.2898 21.48 51.8698 21.61C51.8698 21.61 52.1998 21.7 52.2298 21.46L52.2098 20.57C52.2098 20.57 52.1398 20.33 52.5898 20.2C52.5898 20.2 53.1698 20.37 53.3498 20.07C53.3498 20.07 53.5498 19.66 53.7098 19.94C53.7098 19.94 54.0598 20.27 54.9998 20.24C54.9998 20.24 56.6298 20.11 56.6598 20.18C56.6598 20.18 57.0598 20.24 57.1698 20.37L57.2798 20.39C57.2798 20.39 57.4098 20.34 57.4398 20.24C57.4398 20.24 57.8198 20.2 57.8698 20.15L59.0698 20.24C59.0698 20.24 60.2498 20.33 60.7498 19.96C60.7498 19.96 60.9298 19.96 61.0598 20.02C61.0598 20.02 61.3098 20.08 61.3798 20.19L62.0698 20.17C62.0698 20.17 62.4698 20.3 62.4298 20.56V20.89C62.4298 20.89 62.3598 21.56 62.5398 21.6H63.0698C63.0698 21.6 63.4998 21.8 63.4498 22.06C63.4498 22.06 63.4698 22.43 63.0898 22.5C63.0898 22.5 62.7098 22.61 62.5798 22.59C62.5798 22.59 62.4498 22.76 62.4298 22.96L62.3798 25.39C62.3798 25.39 62.3398 25.65 62.7198 25.61C62.7198 25.61 63.2798 25.55 63.4398 25.87C63.4398 25.87 63.5898 26.41 63.2998 26.5L63.0798 26.61L62.6098 26.69C62.6098 26.69 62.4098 26.71 62.3898 27.06V27.71C62.3898 27.71 62.4098 28.16 62.0598 28.16L61.5498 28.2C61.5498 28.2 61.4198 28.31 61.1698 28.24C61.1698 28.24 58.0898 28.3 57.9798 28.26L57.6198 28.34C57.6198 28.34 57.2198 28.71 56.8998 28.43L56.6498 28.23C56.6498 28.23 56.4698 28.27 56.3998 28.25C56.3298 28.23 52.9998 28.29 52.9998 28.29C52.9998 28.29 52.2898 28.37 52.2398 28.12C52.2398 28.12 52.1498 27.18 52.1898 27.06L52.1798 27.03ZM57.4798 27.66C57.4798 27.36 57.1698 27.31 57.1698 27.31C56.9198 27.36 56.8298 27.66 56.8798 27.9C56.9298 28.14 57.1298 28.2 57.3098 28.16C57.4898 28.12 57.4698 27.96 57.4698 27.66H57.4798ZM56.9598 22.99C56.9398 23.08 56.8098 23.6 56.8098 23.6L56.9198 23.79C56.9198 23.79 57.2098 23.81 57.3198 23.81C57.4298 23.81 57.4498 23.72 57.4498 23.62C57.4498 23.52 57.2498 22.97 57.2498 22.97L57.1598 22.86L56.9598 22.99ZM61.8098 26.35L61.7498 26.53C61.7498 26.53 61.7298 27.03 61.7298 27.18C61.7298 27.33 61.6398 27.44 61.6398 27.44L61.4198 27.51C61.2698 27.64 60.3498 27.57 60.3498 27.57C60.3498 27.57 58.2298 27.62 58.0898 27.59C57.9398 27.55 57.7298 27.66 57.7298 27.66C57.6598 27.92 57.9498 27.96 57.9498 27.96C58.4398 27.92 61.5498 27.94 61.5498 27.94C62.0398 27.98 62.0898 27.74 62.0898 27.74C62.1798 27.67 62.1098 27.24 62.1098 27.24C62.1498 27.15 62.1998 26.63 62.1998 26.63C62.1398 26.41 62.9098 26.43 62.9098 26.43C63.3098 26.41 63.1598 26.04 63.1598 26.04C63.1598 25.87 62.5998 25.89 62.5998 25.89C62.1498 25.91 62.1498 25.61 62.1498 25.61C62.1498 25.61 62.2098 23.09 62.1698 22.74C62.1298 22.39 62.4198 22.33 62.4198 22.33L62.8598 22.29C63.1898 22.35 63.1898 22.01 63.1898 22.01C63.1898 21.86 62.7198 21.81 62.7198 21.81C62.4998 21.87 62.3998 21.75 62.3998 21.75C62.1298 21.75 62.1598 21.21 62.1598 21.21C62.2898 20.95 62.1398 20.51 62.1398 20.51C62.0898 20.38 61.7598 20.47 61.7598 20.47C61.7598 20.47 61.7998 20.47 61.7198 20.45C61.6498 20.43 61.6498 20.58 61.6498 20.58C61.8898 20.82 61.8098 21.21 61.8098 21.21C61.7898 26.16 61.8098 26.34 61.8098 26.34V26.35ZM61.0998 26.51C61.0998 26.51 61.3198 26.94 61.4298 27C61.4298 27 61.6298 27.24 61.5798 26.81L61.6198 21.47C61.6198 21.47 61.5698 21.28 61.6198 20.99L61.3998 20.58C61.3998 20.58 61.1598 20.39 61.1598 20.69L61.1198 26.38L61.0998 26.51ZM60.8998 26.81C60.7698 26.98 60.3398 26.98 60.3398 26.98C60.3398 26.98 60.6498 26.91 60.1398 27C59.6298 27.09 57.9898 26.98 57.9898 26.98C57.8598 26.94 57.5398 27.17 57.5398 27.17C57.4898 27.48 58.0498 27.39 58.0498 27.39C58.1398 27.37 61.0898 27.37 61.0898 27.37C61.3998 27.39 61.3798 27.21 61.3798 27.21L61.1098 26.91C61.0398 26.78 60.9098 26.82 60.9098 26.82L60.8998 26.81ZM57.3498 20.69L57.3298 21.88C57.3698 21.96 57.3898 22.05 57.3898 22.05C57.7498 23.03 58.0598 24.46 58.0598 24.46C58.1498 24.64 58.3098 24.79 58.3098 24.79C58.6198 24.9 58.3098 24.99 58.3098 24.99C58.1798 25.05 57.7698 24.97 57.7698 24.97C57.5498 24.93 57.6398 24.86 57.6398 24.86C57.7298 24.77 57.6598 24.4 57.6598 24.4C57.6398 24.25 57.4798 24.01 57.4798 24.01C57.4098 23.97 57.2798 24.14 57.2798 24.14H57.2498L57.2798 24.9C57.3498 25.75 57.2798 26.62 57.2798 26.62C57.2798 26.86 57.3698 26.88 57.3698 26.88C57.7998 26.68 58.1998 26.7 58.1998 26.7C60.6998 26.77 60.2998 26.72 60.2998 26.72C60.9298 26.68 60.8998 26.27 60.8998 26.27L60.8598 25.34C60.9198 25.14 60.9198 22.25 60.9198 22.25C60.8498 21.96 60.9198 20.38 60.9198 20.38C60.9198 20.23 60.6998 20.21 60.6998 20.21C59.8798 20.64 59.8298 20.39 59.5598 20.45C59.2898 20.51 58.3098 20.45 58.2398 20.41C58.1698 20.37 57.7098 20.43 57.7098 20.43C57.4198 20.47 57.3498 20.69 57.3498 20.69ZM53.5498 26.4C53.5998 26.73 54.2398 26.71 54.2398 26.71C54.3098 26.78 56.6298 26.73 56.6298 26.73C57.0098 26.9 57.0298 26.71 57.0298 26.71C57.1198 26.16 57.0198 25.07 57.0498 24.84C57.0798 24.58 57.0898 24.32 57.0898 24.15C57.0898 24.15 57.0698 24.15 57.0698 24.13C57.0498 24.05 56.9298 23.98 56.9298 23.98C56.7098 23.98 56.6198 24.53 56.6198 24.53C56.7498 24.99 56.6198 24.92 56.6198 24.92C56.5098 25.07 56.1698 24.96 56.1698 24.96C56.0098 24.92 56.1198 24.79 56.1198 24.79C56.3198 24.75 56.3698 24.53 56.3698 24.53C56.4598 24.4 57.0398 21.99 57.0398 21.99C57.0398 21.97 57.0598 21.95 57.0698 21.93V20.75C56.9698 20.34 56.6098 20.42 56.6098 20.42C56.3698 20.35 55.4498 20.42 55.4498 20.42C55.0298 20.48 54.5998 20.4 54.5998 20.4C53.9998 20.49 53.8998 20.29 53.8998 20.29C53.5898 20.18 53.5898 20.36 53.5898 20.36C53.6398 20.51 53.6298 20.81 53.6298 20.81C53.6698 20.96 53.6098 22.24 53.6098 22.24C53.5698 22.37 53.6098 23.76 53.6098 23.76C53.6598 23.85 53.5698 26.39 53.5698 26.39L53.5498 26.4ZM53.3498 26.88C52.9998 27.31 53.2198 27.34 53.2198 27.34L53.5498 27.32L56.5198 27.36C56.8398 27.43 56.8798 27.21 56.8798 27.21C56.8998 27.06 56.6198 27.04 56.6198 27.04L54.1598 27C53.7398 27.02 53.4898 26.74 53.4898 26.74L53.3498 26.87V26.88ZM52.9698 21.19L52.8998 26.9C52.8998 27.21 53.0598 27.01 53.0598 27.01C53.3698 26.77 53.3098 26.4 53.3098 26.4L53.3498 20.8C53.3698 20.58 53.2398 20.58 53.2398 20.58C52.9898 20.77 52.9698 21.19 52.9698 21.19ZM52.3698 26.77C52.4098 26.86 52.4098 27.36 52.4098 27.36C52.4098 27.9 52.5498 27.92 52.5498 27.92C52.6098 28.03 53.5098 27.97 53.5098 27.97C54.8698 28.02 56.3698 27.88 56.3698 27.88C56.5698 27.92 56.5698 27.79 56.5698 27.79C56.6798 27.64 56.3898 27.59 56.3898 27.59C56.1898 27.53 52.9998 27.61 52.9998 27.61C52.6698 27.72 52.7098 27.28 52.7098 27.28V26.28C52.6898 26.13 52.7098 25.69 52.7098 25.69C52.7098 25.69 52.7498 23.35 52.7298 23.26C52.7098 23.17 52.7298 22.37 52.7298 22.37L52.7498 21.13C52.7298 21.04 52.9498 20.63 52.9498 20.63C53.0798 20.5 52.6198 20.48 52.6198 20.48C52.3998 20.52 52.4198 21.46 52.4198 21.46C52.3998 21.92 51.9998 21.85 51.9998 21.85C51.4698 21.78 51.2898 22.11 51.2898 22.11C51.2498 22.42 51.7798 22.42 51.7798 22.42C51.8698 22.39 52.1598 22.4 52.1598 22.4C52.4698 22.42 52.4098 22.9 52.4098 22.9L52.3598 25.64C52.4498 26.01 51.9998 25.94 51.9998 25.94C51.3798 25.9 51.2898 26.18 51.2898 26.18C51.3098 26.57 51.9398 26.46 51.9398 26.46C52.3898 26.51 52.3598 26.78 52.3598 26.78L52.3698 26.77ZM54.4498 22.58L54.7198 22.32L54.9398 22.3C55.0698 22.36 55.0298 22.56 55.0298 22.56C54.9898 22.65 54.9898 24.21 54.9898 24.21C55.0098 24.54 54.9198 24.67 54.9198 24.67C54.6698 25 54.9198 25 54.9198 25C55.0298 24.98 55.4798 25.02 55.4798 25.02C55.6998 25.04 55.6098 24.78 55.6098 24.78C55.4998 24.7 55.4298 24.5 55.4298 24.5L55.4498 24.2C55.4998 24.01 55.4498 22.64 55.4498 22.64C55.4698 22.21 55.6998 22.34 55.6998 22.34C55.7698 22.55 55.9198 22.6 55.9198 22.6C56.1498 22.55 56.0998 22.12 56.0998 22.12C56.1298 21.95 56.0098 21.93 56.0098 21.93L55.6998 22.08H54.8498C54.7098 22.04 54.5398 21.93 54.5398 21.93L54.4298 21.95L54.2698 22.39V22.54C54.3998 22.84 54.4498 22.56 54.4498 22.56V22.58ZM59.2798 24.66C59.2798 24.66 58.9898 24.51 59.0098 24.34C59.0098 24.34 58.9198 24.14 58.8098 24.17C58.8098 24.17 58.6798 24.21 58.7398 24.82C58.7398 24.82 58.7398 25.06 59.0098 24.82L59.1498 24.86C59.1498 24.86 59.6398 25.27 60.0498 24.77C60.0498 24.77 60.4998 24.34 60.1798 23.83C60.1798 23.83 59.9498 23.46 59.5298 23.27C59.5298 23.27 59.1298 23.08 59.0398 22.77C59.0398 22.77 59.1698 22.21 59.6498 22.51C59.6498 22.51 59.8298 22.73 59.9398 22.77C59.9398 22.77 60.0898 22.77 60.0498 22.43L60.0198 22.15C60.0198 22.15 59.9798 21.94 59.7298 22.15C59.7298 22.15 59.4898 22.24 59.4398 22.15C59.4398 22.15 58.7498 22.09 58.7398 22.85C58.7398 22.85 58.6698 23.37 59.4298 23.7C59.4298 23.7 59.9898 23.98 59.9498 24.33C59.9498 24.33 59.8798 24.96 59.2798 24.65V24.66ZM51.2598 17.26L48.2198 17.19C48.2198 17.19 47.8198 17.32 47.7698 16.89C47.7698 16.89 47.8398 16.04 47.8098 15.96C47.8098 15.96 47.8298 15.72 47.4298 15.72C47.4298 15.72 46.8198 15.8 46.7998 15.24C46.7998 15.24 46.6898 14.65 47.5398 14.67C47.5398 14.67 47.8098 14.8 47.8298 14.45C47.8298 14.45 47.7898 12.04 47.8098 11.86C47.8098 11.86 47.8798 11.64 47.4698 11.6C47.4698 11.6 46.8698 11.73 46.7998 11.32C46.7998 11.32 46.7598 10.71 47.1598 10.67C47.1598 10.67 47.6498 10.71 47.7398 10.58C47.7398 10.58 47.8498 10.65 47.8298 10.21L47.8498 9.45C47.8498 9.45 47.8998 9.25 48.2098 9.26C48.2098 9.26 48.7698 9.3 48.8498 9.24C48.8498 9.24 48.9798 9.07 49.0098 9C49.0098 9 49.2998 8.98 49.3598 9.05C49.3598 9.05 49.7898 9.35 51.4398 9.24C51.4398 9.24 51.6898 9.24 51.7498 9.31C51.7498 9.31 52.0598 9.55 52.2398 9.29C52.2398 9.29 52.5098 9.23 53.3298 9.25C53.3298 9.25 54.2198 9.49 54.8298 8.97L55.0298 9.01C55.0298 9.01 55.2798 9.43 55.4698 9.31C55.4698 9.31 56.0098 9.25 56.0998 9.37C56.0998 9.37 56.2798 9.65 56.1898 10.37C56.1898 10.37 56.0798 10.68 56.6098 10.68C56.6098 10.68 57.2098 10.57 57.1398 11.14C57.1398 11.14 57.2998 11.79 56.3098 11.7C56.3098 11.7 56.1798 11.89 56.1998 12.02C56.1998 12.02 56.1798 14.13 56.1598 14.37C56.1598 14.37 56.1398 14.7 56.5798 14.68C56.5798 14.68 57.1598 14.64 57.1798 15.18C57.1798 15.18 57.2498 15.88 56.4198 15.75C56.4198 15.75 56.1698 15.79 56.1298 15.95L56.0898 16.88C56.0898 16.88 56.1098 17.34 55.5998 17.23C55.5298 17.23 52.7798 17.28 52.5398 17.21C52.5398 17.21 52.4098 17.19 52.3798 17.26C52.3798 17.26 52.1798 17.91 51.2898 17.24L51.2598 17.26ZM52.2698 16.82C52.2698 16.82 52.0698 16.36 51.9098 16.43C51.9098 16.43 51.5698 16.43 51.5798 16.89C51.5798 16.89 51.6198 17.24 51.9798 17.24C51.9798 17.24 52.3098 17.18 52.2698 16.81V16.82ZM55.5698 12.07C55.5698 14.29 55.4698 16.31 55.4698 16.31C55.4698 16.75 55.2398 16.63 55.2398 16.63L52.6998 16.65C52.4498 16.65 52.4498 16.8 52.4498 16.8C52.4898 17 52.7398 16.93 52.7398 16.93C52.9698 16.98 55.4898 16.95 55.4898 16.95C55.8698 17.01 55.8298 16.49 55.8298 16.49C55.8798 15.62 55.9598 15.53 55.9598 15.53C56.0498 15.46 56.4698 15.48 56.4698 15.48C57.1398 15.52 56.8298 15.05 56.8298 15.05C56.7398 14.9 56.2898 14.92 56.2898 14.92C55.8498 14.94 55.8898 14.47 55.8898 14.47L55.9398 11.78C55.8898 11.56 56.0698 11.45 56.0698 11.45H56.4898C57.0698 11.49 56.9198 11.12 56.9198 11.12C56.8998 10.93 56.4098 10.86 56.4098 10.86C55.9198 10.93 55.9798 10.66 55.9798 10.66L55.9598 10.01C56.0298 9.58 55.7598 9.57 55.7598 9.57C55.4498 9.46 55.4498 9.75 55.4498 9.75C55.5198 9.81 55.5798 10.08 55.5798 10.08C55.5998 10.72 55.5798 11.42 55.5798 12.08L55.5698 12.07ZM54.9098 15.55C54.9098 15.55 55.0598 16.07 55.2898 16.01C55.2898 16.01 55.3298 15.9 55.3398 15.71L55.4098 10.13C55.4098 10.13 55.2298 9.24 54.9198 9.69L54.8998 15.55H54.9098ZM54.5498 16C54.2398 16.22 52.4298 16.05 52.4298 16.05C52.3198 16.05 52.1598 16.24 52.1598 16.24C52.1098 16.57 52.6698 16.44 52.6698 16.44C52.7798 16.44 54.8198 16.42 54.8198 16.42C55.1398 16.51 55.1598 16.34 55.1598 16.34C55.1598 16.21 54.8898 15.99 54.8898 15.99C54.8198 15.93 54.5498 15.99 54.5498 15.99V16ZM51.9098 15.81C51.9098 15.81 52.0198 15.98 52.1098 15.87C52.1098 15.87 52.6898 15.72 53.0498 15.78C53.0498 15.78 54.2098 15.89 54.4398 15.71C54.4398 15.71 54.6198 15.8 54.6798 15.51C54.6798 15.51 54.7498 10.32 54.7198 10.23C54.7198 10.23 54.7898 9.49 54.7598 9.42C54.7598 9.42 54.7398 9.25 54.4398 9.4C54.4398 9.4 54.4798 9.55 52.7598 9.49C52.7598 9.49 52.1098 9.47 52.0698 9.77C52.0698 9.77 52.0198 12.57 52.0298 12.66L51.9998 15.01L51.9298 15.82L51.9098 15.81ZM49.1398 15.43C49.1398 15.43 49.1198 15.71 49.5698 15.76C49.5698 15.76 50.0998 15.82 50.2198 15.76C50.2198 15.76 50.5598 15.74 51.4498 15.78C51.4498 15.78 51.6698 16 51.6798 15.72C51.6798 15.72 51.8298 10.9 51.7498 9.9C51.7498 9.9 51.7298 9.47 51.4198 9.46C51.4198 9.46 50.0498 9.57 49.9198 9.46L49.3798 9.31C49.3798 9.31 49.1598 9.33 49.1798 9.48L49.1298 15.43H49.1398ZM48.8098 16.17C48.8098 16.17 48.7398 16.43 49.0098 16.37H50.8698L51.3798 16.48C51.3798 16.48 51.9098 16.35 51.3798 16.05C51.3798 16.05 49.7098 16.07 49.5698 16.03C49.5698 16.03 49.2298 15.94 49.1498 15.92C49.1498 15.92 48.9698 15.85 48.8098 16.16V16.17ZM48.5398 10.3L48.4998 15.86C48.5198 16.12 48.6098 16.08 48.6098 16.08C48.9498 15.88 48.8998 15.47 48.8998 15.47C48.8998 15.47 48.9598 10.21 48.9598 10.11C48.9598 10.01 48.9198 9.65 48.9198 9.65C48.5798 9.61 48.5398 10.3 48.5398 10.3ZM51.1798 16.93C51.1798 16.93 51.3198 16.95 51.3198 16.76C51.3198 16.76 51.2998 16.61 51.0898 16.61L48.7398 16.57C48.7398 16.57 48.3598 16.7 48.3198 16.12C48.3198 16.12 48.3598 10.89 48.3398 10.8C48.3198 10.71 48.3598 10.88 48.3598 10.88C48.3598 10.88 48.3098 9.97 48.5398 9.6C48.5398 9.6 48.4698 9.28 48.0498 9.67L48.0298 10.43C48.0298 10.43 48.0298 10.86 47.6498 10.84C47.6498 10.84 47.2198 10.82 47.0198 11.03C47.0198 11.03 46.9098 11.44 47.3298 11.36C47.3298 11.36 47.9798 11.36 48.0198 11.64L47.9798 14.44C47.9798 14.44 48.1298 14.9 47.6198 14.9C47.6198 14.9 47.0098 14.86 47.0198 15.25C47.0198 15.25 47.1498 15.58 47.6698 15.47C47.6698 15.47 48.0498 15.54 48.0298 15.91V16.62C48.0298 16.62 47.9898 16.9 48.3498 16.92H51.1698L51.1798 16.93ZM49.6298 11.71C49.6698 11.78 50.3698 14.06 50.3698 14.06C50.6798 14.36 50.7098 13.99 50.7098 13.99C50.9298 13.62 51.3198 11.82 51.3198 11.82L51.4798 11.47C51.4298 11.32 51.0498 11.36 51.0498 11.36C50.8898 11.38 50.9998 11.56 50.9998 11.56L51.1098 11.95L50.7498 13.27C50.6198 13.59 50.5198 13.16 50.5198 13.16C50.1398 12.03 50.0998 11.74 50.0998 11.74C50.3898 11.53 50.1698 11.35 50.1698 11.35L49.4998 11.33C49.2498 11.35 49.3898 11.55 49.3898 11.55L49.6298 11.72V11.71ZM52.4898 11.65C52.4898 11.65 52.5398 11.69 52.5398 11.76L52.5198 13.72L52.4698 13.87C52.4698 13.87 52.2898 14.11 52.4098 14.13C52.4098 14.13 52.2498 14.24 53.5698 14.26C53.5698 14.26 54.0798 14.35 53.9498 13.69C53.9498 13.69 53.8998 13.45 53.7098 13.8C53.7098 13.8 53.6598 14.1 53.0098 14C53.0098 14 52.8598 13.87 52.8598 13.72V12.9C52.8598 12.9 52.8398 12.7 53.1498 12.72C53.1498 12.72 53.4898 12.94 53.5498 12.85C53.5498 12.85 53.6798 12.55 53.5498 12.37C53.5498 12.37 53.3898 12.35 53.3698 12.43C53.3698 12.43 53.2598 12.65 52.9498 12.52C52.9498 12.52 52.8098 12.22 52.8998 11.98C52.8998 11.98 52.8598 11.52 53.1698 11.55C53.1698 11.55 53.5298 11.62 53.5698 11.74C53.5698 11.74 53.6598 11.96 53.7498 11.7L53.6598 11.38C53.6598 11.38 53.6098 11.25 53.5198 11.29C53.5198 11.29 52.8998 11.38 52.8298 11.31L52.3398 11.37C52.3398 11.37 52.2698 11.56 52.4898 11.65Z" fill="#2B3F6C"/>
</svg>
