<svg width="200" height="40" viewBox="0 0 200 40" fill="none" xmlns="http://www.w3.org/2000/svg">
<path fill-rule="evenodd" clip-rule="evenodd" d="M52.105 16.8431L52.105 16.8431C52.051 16.7778 51.9975 16.713 51.94 16.66C52.01 17.12 52.11 18.58 51.88 18.91C51.7947 19.0312 51.7115 19.0033 51.6366 18.9783C51.5446 18.9475 51.4651 18.9209 51.41 19.18C51.73 19.26 52.12 19.27 52.53 19.27L52.56 19.36C52.44 19.71 52.28 19.79 51.85 19.74C51.25 19.68 51.24 19.94 51.76 20.01C52.15 20.06 52.51 20.03 52.67 19.77C52.8503 19.4914 52.9231 18.0914 52.9655 17.2758C52.9749 17.0961 52.9828 16.9447 52.99 16.84C52.9645 16.8598 52.9374 16.8825 52.909 16.9062L52.909 16.9062C52.7367 17.0501 52.516 17.2345 52.31 17.08L52.32 17.07C52.2419 17.0086 52.1731 16.9255 52.105 16.8431ZM52.59 18.99C52.5074 18.9969 52.3869 18.9943 52.2807 18.992C52.2326 18.991 52.1874 18.99 52.15 18.99C52.1577 18.7618 52.1655 18.5232 52.1732 18.2845V18.2844V18.2844L52.1733 18.2804C52.1856 17.9032 52.1978 17.5261 52.21 17.19C52.2404 17.2288 52.2666 17.2631 52.2896 17.2933C52.3752 17.4055 52.4162 17.4593 52.4619 17.4636C52.5039 17.4675 52.5499 17.4295 52.6383 17.3563C52.6743 17.3265 52.7174 17.2909 52.77 17.25C52.7485 17.451 52.7295 17.6598 52.7103 17.8707L52.7103 17.8708C52.6761 18.2475 52.6413 18.6311 52.59 18.99ZM51.48 13.25L51.4801 13.26L51.48 13.26V13.25ZM51.4801 13.26C51.4814 13.3053 51.4909 13.361 51.4988 13.4076C51.5049 13.4431 51.51 13.4734 51.51 13.49C51.564 13.4974 51.6231 13.5073 51.6853 13.5177L51.6853 13.5177C51.9569 13.563 52.2847 13.6177 52.48 13.52C52.9263 13.2969 52.9793 12.2051 53.0257 11.2524C53.0478 10.7961 53.0685 10.3717 53.13 10.09C53.0801 10.1217 53.0347 10.1517 52.9929 10.1793C52.6655 10.3953 52.5535 10.4692 52.19 10.15C52.1722 10.1358 52.1545 10.1102 52.1353 10.0827C52.1007 10.0327 52.0616 9.97645 52.01 9.97C51.9713 9.97 51.9745 9.99992 51.978 10.032L51.978 10.032C51.979 10.0414 51.98 10.051 51.98 10.06C52.05 10.58 52.11 11.24 52.07 11.86L52.0672 11.8935C52.0292 12.353 52.0073 12.6181 51.48 12.54C51.48 12.5633 51.4811 12.5866 51.4822 12.6099L51.4822 12.61C51.4844 12.6567 51.4867 12.7033 51.48 12.75C51.8 12.83 52.18 12.87 52.63 12.87C52.6268 12.8985 52.6257 12.923 52.6246 12.9454C52.6223 12.9937 52.6205 13.0322 52.6 13.08C52.4664 13.3739 51.9918 13.3188 51.6141 13.275C51.5677 13.2696 51.5228 13.2644 51.4801 13.26ZM52.22 12.57C52.29 11.94 52.28 11.17 52.25 10.5C52.4882 10.7999 52.4929 10.7964 52.7103 10.6335L52.7104 10.6335C52.7394 10.6117 52.7723 10.5871 52.81 10.56C52.7932 10.7753 52.7877 11.0109 52.7821 11.2509C52.771 11.7245 52.7595 12.2151 52.66 12.6C52.4756 12.6291 52.3571 12.6017 52.2315 12.5726L52.22 12.57ZM49.68 9.17L49.6776 9.17111L49.67 9.16L49.68 9.17ZM49.6776 9.17111L49.6763 9.17171C49.2075 9.39119 48.7184 9.62013 48.09 9.67C47.4948 9.72435 46.9122 9.69008 46.3721 9.6583C44.9247 9.57315 43.7822 9.50594 43.52 11.21C43.3869 9.49511 42.0792 9.57782 40.5741 9.673C40.043 9.70659 39.4873 9.74173 38.95 9.7C38.34 9.65 37.83 9.44 37.42 9.2C37.2901 9.42883 37.1296 9.63854 36.9693 9.84804C36.8704 9.97729 36.7716 10.1065 36.68 10.24C36.5557 10.2267 36.4255 10.2212 36.2955 10.2158H36.2955C36.1326 10.209 35.9701 10.2022 35.82 10.18C35.931 10.9157 35.9024 11.7573 35.8745 12.5778V12.5779V12.5779V12.5779V12.5779V12.5779V12.5779V12.5779V12.5779V12.5779V12.5779V12.5779V12.5779V12.5779V12.5779V12.578C35.8622 12.9397 35.85 13.2973 35.85 13.64V21.83H40.04C40.2018 21.83 40.3758 21.8345 40.5543 21.8392H40.5543C41.1699 21.8553 41.8391 21.8728 42.25 21.71C41.91 22.62 42.23 23.01 43.34 23.01C44.53 23.01 45.27 22.83 44.81 21.71C45.3279 21.8437 46.0552 21.8377 46.7411 21.8322L46.7417 21.8322C46.8767 21.8311 47.0101 21.83 47.14 21.83H51.24V10.14C50.96 10.14 50.65 10.14 50.41 10.17C50.3016 10.0165 50.1892 9.86707 50.0764 9.71712L50.0763 9.71707L50.0763 9.71705L50.0763 9.717L50.0763 9.71699L50.0763 9.71697L50.0762 9.71691L50.0762 9.71688L50.0762 9.71686L50.0762 9.7168L50.0761 9.71677L50.0761 9.71675L50.0761 9.71674L50.0761 9.71669L50.0761 9.71668L50.076 9.71666L50.076 9.71665C49.9417 9.53814 49.8068 9.35888 49.6776 9.17111ZM43.6976 11.6018V11.6018C43.6972 11.488 43.6967 11.3807 43.72 11.27C43.82 10.84 44.07 10.41 44.4 10.21C44.989 9.84188 46.0598 9.92212 46.9774 9.99088C47.1815 10.0062 47.378 10.0209 47.56 10.03C48.31 10.07 48.94 9.88 49.39 9.62H49.48V17.25C49.48 17.3397 49.4853 17.4772 49.4915 17.6381L49.4915 17.6383C49.5123 18.1767 49.5432 18.9783 49.42 19.14C49.3125 19.2923 49.0283 19.3804 48.8122 19.4474L48.812 19.4475C48.787 19.4552 48.7628 19.4627 48.74 19.47C48.0625 19.681 47.3068 19.6741 46.5811 19.6675C45.3467 19.6562 44.199 19.6457 43.67 20.71C43.67 19.7912 43.6522 18.8585 43.6343 17.9225L43.6343 17.9225V17.9224V17.9224V17.9224V17.9223V17.9223V17.9223V17.9223V17.9223V17.9223V17.9223V17.9223V17.9223V17.9222V17.9222V17.9222V17.9222C43.5953 15.8838 43.5561 13.83 43.7 11.87L43.69 11.86C43.6983 11.7682 43.698 11.6834 43.6976 11.6018ZM37.61 17.24V9.67C37.6544 9.68885 37.699 9.70824 37.744 9.72778L37.7441 9.72782C38.0331 9.85344 38.3366 9.98539 38.7 10.02C39.2117 10.0741 39.7715 10.0307 40.3199 9.98825H40.3199C41.2933 9.91287 42.2307 9.84028 42.8 10.32C43.04 10.52 43.25 10.88 43.33 11.24C43.4595 11.8157 43.4337 12.552 43.409 13.255L43.409 13.2551C43.3994 13.5289 43.39 13.7977 43.39 14.05V20.64C42.95 19.77 42 19.56 40.59 19.66C39.72 19.72 37.93 19.65 37.64 19.16C37.5354 18.9806 37.5704 18.2092 37.5947 17.6723C37.603 17.4907 37.61 17.336 37.61 17.24ZM36.43 20.94C36.3481 20.9764 36.3821 20.756 36.3965 20.6633L36.4 20.64C36.4845 19.9573 36.4649 19.1854 36.4459 18.436C36.4379 18.1206 36.43 17.8091 36.43 17.51V10.85C36.74 10.7 36.99 10.48 37.17 10.2C37.1893 10.1691 37.2042 10.1203 37.2197 10.0691C37.2444 9.98786 37.2709 9.90068 37.32 9.87C37.34 9.86 37.36 9.86 37.37 9.87C37.4 9.89 37.38 9.98 37.35 9.96C37.2788 10.4512 37.2938 11.0337 37.3083 11.5991V11.5992V11.5992V11.5992V11.5992V11.5992V11.5992C37.3142 11.828 37.32 12.054 37.32 12.27V17.41C37.32 17.6257 37.3328 17.8553 37.3459 18.0893V18.0893V18.0893V18.0893V18.0893V18.0893V18.0894V18.0894V18.0894V18.0894V18.0894C37.3728 18.5715 37.4008 19.0725 37.32 19.51C37.28 19.7 36.55 20.88 36.44 20.93L36.43 20.94ZM42.09 21.27C41.2619 21.3844 40.3115 21.3448 39.3974 21.3067C38.9537 21.2882 38.5185 21.27 38.11 21.27C38.0373 21.27 37.9644 21.2695 37.8916 21.2691C37.3831 21.2658 36.8824 21.2625 36.55 21.42C36.6677 21.2292 36.7925 21.0484 36.9169 20.8681C37.1837 20.4817 37.4491 20.0973 37.64 19.62C37.707 19.6475 37.774 19.6762 37.8416 19.7051C38.167 19.8443 38.5042 19.9886 38.91 20.03C39.3646 20.0826 39.8828 20.059 40.3977 20.0355C41.2531 19.9965 42.0994 19.9579 42.63 20.27C43.11 20.55 43.36 21.02 43.4 21.66C43.14 21.6 42.87 21.52 42.66 21.39C42.6363 21.3742 42.5986 21.335 42.5579 21.2927L42.5578 21.2927L42.5578 21.2927L42.5578 21.2927L42.5578 21.2926L42.5578 21.2926C42.4955 21.2279 42.4263 21.156 42.39 21.15C42.3698 21.15 42.3087 21.1781 42.2454 21.2072C42.1836 21.2357 42.1197 21.2651 42.09 21.27ZM42.62 22.3C42.5548 22.2022 42.5321 22.0576 42.5103 21.9189C42.4987 21.8449 42.4874 21.7726 42.47 21.71C42.99 22.05 43.94 22.16 44.48 21.74C44.43 21.72 44.59 21.71 44.6 21.71C44.5839 21.763 44.5693 21.8235 44.5542 21.8865C44.5036 22.0968 44.4462 22.3354 44.3 22.42C43.95 22.63 42.81 22.61 42.62 22.3ZM47.1075 21.2549H47.1075H47.1074H47.1074H47.1074H47.1074H47.1074H47.1074H47.1073H47.1073H47.1073H47.1073H47.1073H47.1073H47.1072H47.1072H47.1072C46.6773 21.2475 46.2538 21.2401 45.86 21.27C45.6556 21.2846 45.4346 21.2495 45.2271 21.2165C45.0081 21.1816 44.804 21.1492 44.65 21.18C44.5986 21.1914 44.5374 21.2518 44.4776 21.3108C44.4327 21.355 44.3886 21.3986 44.35 21.42C44.1642 21.5262 43.9628 21.5775 43.7319 21.6364L43.64 21.66C43.67 21.12 43.9 20.6 44.29 20.33C44.8291 19.9533 45.7142 19.9858 46.6245 20.0192C47.1158 20.0373 47.6144 20.0556 48.07 20.01C48.5453 19.9643 48.9204 19.7849 49.2716 19.6169L49.37 19.57C49.5684 19.9481 49.8052 20.2994 50.0399 20.6475L50.0399 20.6476L50.0399 20.6476L50.04 20.6476L50.04 20.6477L50.04 20.6477C50.1839 20.8611 50.327 21.0734 50.46 21.29C49.9804 21.1452 49.157 21.2051 48.575 21.2475H48.575C48.5137 21.2519 48.4552 21.2562 48.4 21.26V21.24C47.9788 21.2701 47.54 21.2625 47.1075 21.2549ZM50.7 20.88C50.6544 20.8214 50.6089 20.766 50.5636 20.711C50.4699 20.597 50.3777 20.4849 50.29 20.35C50.2488 20.2868 50.1971 20.2184 50.1424 20.1461C49.9981 19.9552 49.8335 19.7376 49.79 19.52C49.7092 19.1025 49.7372 18.6214 49.7641 18.1594V18.1594V18.1593V18.1593C49.7772 17.9353 49.79 17.7157 49.79 17.51V12.54C49.79 12.3232 49.7937 12.098 49.7974 11.8697V11.8696V11.8696V11.8695V11.8694V11.8693V11.8693V11.8692V11.8691V11.8691V11.869V11.8689V11.8689V11.8688V11.8687V11.8687C49.8087 11.1707 49.8204 10.4451 49.73 9.85C49.96 10.22 50.24 10.64 50.64 10.83V17.39C50.64 17.694 50.6344 18.0072 50.6288 18.3229L50.6288 18.3231C50.6131 19.2016 50.597 20.1003 50.7 20.88ZM34.72 13.63C34.9406 13.6815 35.1612 13.6302 35.3619 13.5836L35.362 13.5836L35.3621 13.5835C35.4343 13.5668 35.5039 13.5506 35.57 13.54C35.57 13.52 35.5789 13.4555 35.5878 13.3911C35.5922 13.3589 35.5967 13.3267 35.6 13.3L35.5031 13.3103C34.9994 13.3646 34.7513 13.3913 34.45 13.09C34.4576 13.09 34.4537 13.0157 34.4514 12.9708L34.4513 12.9708C34.4506 12.9563 34.45 12.9449 34.45 12.94H34.45C34.86 12.91 35.27 12.88 35.6 12.79C35.6 12.7743 35.599 12.7557 35.598 12.7359C35.5957 12.6928 35.5931 12.6443 35.6 12.61C35.46 12.61 35.31 12.61 35.22 12.58C34.9465 12.4835 34.9965 11.3063 35.0266 10.5997V10.5997C35.0339 10.4279 35.04 10.2839 35.04 10.19L35.01 10.22L34.9412 10.2736C34.7471 10.4249 34.647 10.5029 34.5392 10.5156C34.4242 10.529 34.3004 10.468 34.0448 10.3419L33.98 10.31C34.0094 10.5278 34.0232 10.8271 34.0384 11.1574C34.0854 12.1767 34.146 13.4916 34.72 13.62V13.63ZM34.3437 10.7444C34.4569 10.8349 34.5065 10.8746 34.5504 10.869C34.5847 10.8647 34.6155 10.8329 34.6703 10.7763L34.6703 10.7763C34.705 10.7406 34.7492 10.6949 34.81 10.64C34.8187 10.84 34.8123 11.0759 34.8055 11.3238V11.3238V11.3239V11.3239V11.3239V11.3239V11.3239V11.3239V11.3239V11.3239V11.3239V11.3239V11.3239V11.3239V11.3239V11.3239V11.3239V11.3239V11.3239V11.3239V11.3239V11.324V11.324V11.324V11.324V11.324V11.324C34.7967 11.6464 34.7874 11.9892 34.81 12.3C34.81 12.336 34.8161 12.3921 34.8227 12.4539L34.8227 12.454C34.8309 12.5297 34.84 12.6139 34.84 12.68C34.7893 12.68 34.7236 12.6864 34.6529 12.6933C34.5703 12.7013 34.4808 12.71 34.4 12.71C34.355 12.385 34.34 12.0375 34.325 11.69V11.69C34.31 11.3425 34.295 10.995 34.25 10.67C34.2855 10.6978 34.3164 10.7226 34.3437 10.7444ZM34.46 19.1L34.49 19.01C34.9 19.01 35.29 19 35.61 18.92C35.555 18.6672 35.4759 18.6923 35.3842 18.7213C35.3091 18.7451 35.2256 18.7716 35.14 18.65C34.91 18.33 35.01 16.86 35.08 16.4C35.0192 16.4561 34.9606 16.5253 34.9022 16.5943C34.8356 16.673 34.7692 16.7514 34.7 16.81C34.4962 16.9713 34.278 16.7866 34.1066 16.6414L34.1066 16.6414L34.1065 16.6413C34.0761 16.6156 34.0471 16.5911 34.02 16.57C34.0314 16.7019 34.0433 16.9079 34.0573 17.1514C34.1051 17.9781 34.1778 19.2373 34.34 19.5C34.5 19.75 34.86 19.79 35.25 19.74C35.77 19.67 35.76 19.41 35.16 19.47C34.74 19.51 34.57 19.43 34.45 19.09L34.46 19.1ZM34.3817 17.1063C34.4701 17.1795 34.5161 17.2175 34.5581 17.2136C34.6038 17.2093 34.6448 17.1555 34.7304 17.0433L34.7305 17.0432C34.7534 17.0131 34.7796 16.9787 34.81 16.94C34.8214 17.2543 34.8329 17.6078 34.8443 17.9612C34.8529 18.2263 34.8614 18.4914 34.87 18.74C34.8326 18.74 34.7874 18.741 34.7393 18.742C34.6331 18.7443 34.5126 18.7469 34.43 18.74C34.386 18.4322 34.3572 18.1062 34.3285 17.7821C34.3049 17.5165 34.2815 17.2522 34.25 17C34.3026 17.0409 34.3457 17.0765 34.3817 17.1063ZM32.39 17.32C32.41 17.57 32.43 17.82 32.44 18.06C32.56 19.8 32.66 21.25 33.24 22.55C34.62 25.63 38.07 27.56 41.38 28.73C41.91 28.92 42.44 29.07 43.03 29.23C43.07 29.2367 43.11 29.2567 43.153 29.2781C43.1744 29.2889 43.1967 29.3 43.22 29.31C43.2422 29.3199 43.2644 29.3303 43.2863 29.3407L43.2863 29.3407C43.3532 29.3722 43.4173 29.4025 43.47 29.41C43.72 29.43 44.58 29.11 45.11 28.91C45.1566 28.8933 45.2011 28.8767 45.2425 28.8611L45.2426 28.8611C45.3256 28.83 45.3967 28.8033 45.45 28.79C48.81 27.63 52.56 25.53 53.88 22.37C54.42 21.07 54.53 19.68 54.66 17.92L54.68 17.7C54.75 16.74 54.74 15.71 54.72 14.69C54.72 14.4775 54.7174 14.2651 54.7149 14.0552L54.7149 14.0549C54.7124 13.85 54.71 13.6476 54.71 13.45V5H32.39C32.32 6.73 32.33 8.54 32.35 10.34C32.35 10.7124 32.3525 11.0849 32.3551 11.4547V11.4548V11.4548V11.4548V11.4548V11.4549V11.4549V11.4549V11.4549V11.4549V11.455V11.455V11.455V11.455V11.455V11.4551L32.3551 11.4551C32.3575 11.8201 32.36 12.1825 32.36 12.54C32.36 13.01 32.36 13.49 32.34 13.97C32.32 15.11 32.3 16.26 32.38 17.33L32.39 17.32ZM34.32 5.6H34.84H38.88C40.89 5.6 42.94 5.58 44.97 5.56C48.03 5.53 51.1 5.5 54.06 5.54C54.1754 5.54 54.1521 5.58625 54.1323 5.62538L54.13 5.63C54.11 5.66 54.1 5.68 54.13 5.69C54.05 6.41 54.06 7.29 54.07 8.13V8.89V15.34V16.27C54.07 16.4342 54.0708 16.5987 54.0716 16.7631V16.7632C54.0748 17.42 54.078 18.0742 54.03 18.69C54.02 18.83 54.01 18.96 53.99 19.08C53.99 19.1213 53.9847 19.1627 53.9795 19.2026C53.9747 19.24 53.97 19.2762 53.97 19.31C53.95 19.57 53.92 19.81 53.88 20.02L53.85 20.2C53.83 20.32 53.81 20.42 53.79 20.52C53.76 20.68 53.73 20.81 53.7 20.93C53.66 21.09 53.62 21.22 53.58 21.34C53.567 21.3724 53.5625 21.4006 53.5582 21.4273C53.5558 21.4418 53.5535 21.4559 53.55 21.47C53.55 21.51 53.54 21.55 53.52 21.61C53.4903 21.6916 53.4496 21.7787 53.4102 21.8632L53.4102 21.8632L53.3873 21.9123L53.37 21.95C53.355 21.98 53.34 22.0125 53.325 22.0449L53.325 22.045L53.325 22.0451C53.31 22.0775 53.295 22.11 53.28 22.14L53.26 22.19C53.15 22.45 53.04 22.69 52.9 22.94C51.65 25.1 49.36 26.46 47 27.52C46.08 27.93 45.17 28.28 44.11 28.58C44.05 28.6 43.96 28.64 43.88 28.68C43.74 28.75 43.59 28.82 43.49 28.82C43.33 28.82 43.05 28.7 42.81 28.59C42.7776 28.5765 42.7458 28.563 42.715 28.5498L42.7149 28.5498L42.7148 28.5497C42.6318 28.5144 42.5556 28.4819 42.49 28.46C41.01 27.96 39.69 27.46 38.45 26.77C36.88 25.9 35.5 24.89 34.47 23.49C33.04 21.54 33 18.6 33 15.15V9.14C33 8.82 33 8.49 33.01 8.15C33.03 7.26 33.05 6.33 32.94 5.56C33.35 5.62 33.84 5.61 34.31 5.6H34.32ZM58.08 30.31L58.0575 30.3181C57.8213 30.141 56.6098 28.8992 56.56 28.69C56.51 28.51 56.8 27.41 56.91 27L56.94 26.89C56.9639 26.7942 56.9943 26.7048 57.0258 26.6116L57.05 26.54C57.11 26.37 57.16 26.2 57.18 26.05C57.19 26.01 57.19 25.97 57.15 25.97C56.98 26 56.61 26.27 56.29 26.51C56.2506 26.5384 56.2118 26.5668 56.1739 26.5945C56.0385 26.6935 55.916 26.7831 55.83 26.83C55.78 26.855 55.73 26.8825 55.68 26.91C55.63 26.9375 55.58 26.965 55.53 26.99C54.56 27.53 53.58 28.07 52.49 28.48C52.49 28.5808 52.4868 28.6636 52.4843 28.7305V28.7305C52.479 28.8694 52.4763 28.9398 52.51 28.96C52.546 28.978 52.6143 28.9474 52.7586 28.8829L52.7587 28.8829L52.81 28.86C53.7 28.48 54.49 28.04 55.28 27.6C55.68 27.38 56.09 27.16 56.5 26.94C56.43 27.13 56.04 28.59 56.09 28.8C56.14 29 57.15 30.04 57.36 30.19C57.02 30.28 56.74 30.41 56.46 30.54L56.46 30.54C56.23 30.65 55.99 30.75 55.73 30.84V30.88C55.72 30.92 55.71 30.98 55.71 31.04C55.72 31.15 55.75 31.31 55.89 31.31C56.1575 31.3196 56.6715 31.037 57.1615 30.7676L57.23 30.73L57.3562 30.663C57.6338 30.5154 57.8832 30.3828 58.0575 30.3181L58.06 30.32L58.08 30.31ZM31.27 31.43C30.8929 31.31 30.5598 31.1459 30.2267 30.9818C30.1712 30.9545 30.1157 30.9271 30.06 30.9C29.81 30.77 29.57 30.65 29.32 30.55C29.2757 30.531 29.2353 30.52 29.1965 30.5094C29.174 30.5033 29.152 30.4973 29.13 30.49C29.1058 30.49 29.0816 30.4827 29.0551 30.4747L29.0551 30.4747L29.0551 30.4746L29.055 30.4746C29.0378 30.4694 29.0197 30.4639 29 30.46C29.23 30.3 30.48 29.01 30.53 28.8C30.56 28.68 30.38 27.87 30.27 27.41C30.2609 27.3708 30.2528 27.3334 30.2453 27.2989L30.2453 27.2988C30.2279 27.2191 30.214 27.1549 30.2 27.12C30.1875 27.0636 30.1632 26.9799 30.1345 26.8809L30.1345 26.8809L30.1345 26.8808C30.1174 26.8218 30.0987 26.7573 30.08 26.69L30.0602 26.6243C29.9762 26.3451 29.8936 26.0707 29.94 26.08C29.99 26.09 30.05 26.15 30.1 26.2C30.12 26.215 30.1375 26.2325 30.1537 26.2487L30.1537 26.2487L30.1537 26.2487L30.1537 26.2487C30.17 26.265 30.185 26.28 30.2 26.29C30.2799 26.3399 30.3623 26.3899 30.4447 26.4398L30.445 26.44L30.4453 26.4402C30.5277 26.4901 30.6101 26.5401 30.69 26.59C30.98 26.77 31.27 26.95 31.56 27.11C32.2937 27.5186 33.0446 27.8669 33.8207 28.2268L33.8208 28.2268L34 28.31C34.09 28.35 34.18 28.3925 34.27 28.435C34.36 28.4775 34.45 28.52 34.54 28.56C34.54 28.68 34.53 28.82 34.52 28.93V29.03C34.3521 28.953 34.1841 28.881 34.0196 28.8104L34.0196 28.8103C33.949 28.78 33.8791 28.75 33.81 28.72C33.66 28.66 33.52 28.6 33.37 28.53C32.48 28.14 31.67 27.7 30.89 27.2C30.65 27.04 30.6 27.08 30.6 27.08C30.6063 27.08 30.6323 27.143 30.6557 27.1999C30.6696 27.2336 30.6826 27.2651 30.69 27.28C30.7518 27.4886 30.7957 27.7092 30.8402 27.9324C30.8532 27.9981 30.8664 28.0641 30.88 28.13C30.93 28.4 30.98 28.67 31.05 28.91C30.85 29.1 30.67 29.32 30.5 29.53C30.28 29.8 30.06 30.07 29.78 30.3C30.07 30.36 30.34 30.5 30.61 30.64L30.61 30.64L30.6898 30.6802C30.8206 30.7463 30.9469 30.8101 31.08 30.86C31.39 30.99 31.38 31.06 31.3 31.37V31.42L31.27 31.43ZM55.5 31.55C55.4836 31.4733 55.4701 31.3966 55.4564 31.3182L55.4564 31.318L55.4563 31.3175C55.445 31.2531 55.4335 31.1875 55.42 31.12L55.4139 31.088L55.4139 31.088C55.2557 30.2577 55.09 29.3878 55.09 28.44C54.331 28.9752 53.3732 29.3305 52.4285 29.6809L52.4285 29.6809L52.35 29.71L52.17 29.77C50.52 30.37 48.69 30.98 46.69 31.19C41.01 31.77 35.53 30.71 32 28.56C32 29.79 31.65 32.1 31.23 32.99C31.5259 33.0528 31.7736 33.1638 32.0164 33.2726L32.1 33.31C32.1406 33.3274 32.1812 33.3456 32.222 33.364C32.322 33.4089 32.4235 33.4545 32.53 33.49L32.75 33.57L32.937 33.6409L32.937 33.6409L32.9371 33.6409C33.6164 33.8984 34.3048 34.1594 35.01 34.37C38.53 35.45 43.65 35.92 47.96 35.23C49.77 34.94 51.52 34.53 53.09 33.96C53.3944 33.8525 53.6828 33.721 53.9768 33.587L53.9769 33.587L53.9769 33.587L53.9769 33.587L53.9769 33.5869L53.977 33.5869L54.08 33.54C54.64 33.28 55.21 33.02 55.83 32.9C55.68 32.6 55.62 32.24 55.56 31.87L55.5 31.54V31.55ZM54.26 32.97L54.2595 32.9702L54.2593 32.9703C53.6895 33.1902 53.1198 33.4101 52.55 33.62C51.01 34.18 49.28 34.57 47.48 34.83C43.53 35.41 38.87 35.03 35.59 34.09C34.8774 33.8901 34.1724 33.6298 33.4814 33.3748L33.4811 33.3747C33.3771 33.3362 33.2734 33.2979 33.17 33.26C32.9921 33.1943 32.8247 33.1121 32.6567 33.0296C32.3904 32.8988 32.1228 32.7675 31.81 32.7C32.08 32.12 32.46 30.04 32.34 29.24C37.93 32.65 49.09 32.63 54.64 29.18C54.67 30.04 54.9 31.96 55.2 32.61C54.9118 32.6451 54.7175 32.7445 54.5198 32.8456C54.4363 32.8883 54.3521 32.9314 54.26 32.97ZM35.98 31.43C35.9585 31.5105 35.9369 31.6002 35.9141 31.6951C35.7356 32.4377 35.4787 33.5067 34.53 33.09C34.39 33.03 34.21 32.89 34.18 32.74C34.1088 32.3984 34.2706 31.8643 34.4023 31.4298C34.4557 31.2537 34.5041 31.094 34.53 30.97L34.5301 30.97C34.68 31.02 34.77 31.05 34.91 31.09C34.8975 31.1299 34.8789 31.1846 34.8565 31.2503C34.6993 31.7116 34.3586 32.7112 34.7 32.86C35.4226 33.1802 35.5512 32.0946 35.6214 31.5015C35.628 31.4462 35.634 31.3952 35.64 31.35C35.6997 31.3684 35.7468 31.3804 35.7919 31.392L35.792 31.392C35.845 31.4055 35.8952 31.4184 35.96 31.44L35.98 31.43ZM38.46 13.93C38.4305 14.0701 38.3249 14.2102 38.2313 14.3343C38.198 14.3785 38.1663 14.4206 38.14 14.46C38.06 14.43 38.07 14.36 38.08 14.37C38.1781 14.1555 38.1559 13.9785 38.131 13.7793C38.1152 13.6535 38.0984 13.5187 38.11 13.36C38.1255 13.1659 38.2555 13.002 38.3691 12.8589L38.3691 12.8588C38.4018 12.8176 38.4331 12.778 38.46 12.74C38.02 12.53 37.93 12 38.34 11.68L38.37 11.65C38.34 11.81 38.32 12.02 38.46 12.15C38.7025 12.3787 38.8442 12.156 38.9915 11.9245C39.0568 11.8219 39.1232 11.7176 39.2 11.65C39.1715 12.1342 39.4319 12.255 39.6778 12.3691C39.8637 12.4552 40.0413 12.5376 40.08 12.77C40.1302 13.0712 39.9984 13.4145 39.8954 13.6826C39.8753 13.7349 39.8563 13.7843 39.84 13.83C39.6574 14.3862 39.5988 14.3842 39.1093 14.3675H39.1093H39.1093C39.0091 14.364 38.891 14.36 38.75 14.36C38.75 14.36 38.59 14.39 38.54 14.39C38.6 14.19 38.65 14.05 38.72 13.86C38.799 13.8534 38.8963 13.8555 38.9989 13.8577C39.2082 13.8622 39.4391 13.8671 39.58 13.8C39.6439 13.7681 39.6759 13.6787 39.7066 13.5931L39.7066 13.5931C39.7143 13.5715 39.7219 13.5501 39.73 13.53C39.9191 12.9798 39.4136 12.7696 39.0075 12.6007C38.9412 12.5731 38.8775 12.5467 38.82 12.52C38.7925 12.56 38.7606 12.6025 38.7273 12.6469C38.6275 12.78 38.515 12.93 38.47 13.08C38.4288 13.2087 38.4459 13.3426 38.464 13.4846C38.4811 13.6185 38.4991 13.7595 38.47 13.91L38.46 13.93ZM37.93 31.94L37.9149 31.9489C37.8484 31.9338 37.7935 31.9151 37.7457 31.8989C37.6027 31.8503 37.5241 31.8235 37.39 31.98C36.9828 32.4551 36.9786 32.4336 36.889 31.9704L36.889 31.9703C36.873 31.8876 36.8543 31.7907 36.83 31.68C36.66 31.64 36.48 31.59 36.33 31.54L36.3293 31.5373C36.3345 31.5584 36.36 31.662 36.36 31.67C36.3671 31.7413 36.4098 31.8329 36.4519 31.9231L36.4519 31.9232C36.4688 31.9595 36.4857 31.9956 36.5 32.03C36.57 32.2 36.63 32.36 36.68 32.59L36.6051 32.65L36.6051 32.6501C36.3312 32.8698 36.0608 33.0867 35.74 33.27C35.8126 33.2925 35.874 33.3207 35.9281 33.3456C36.0901 33.4201 36.1876 33.4648 36.33 33.24C36.7681 32.5529 36.8446 32.9133 36.9525 33.4216C36.9703 33.5051 36.9888 33.5925 37.01 33.68C37.21 33.71 37.32 33.73 37.51 33.77C37.4689 33.6548 37.4247 33.5449 37.3809 33.4357L37.3809 33.4357C37.2648 33.1467 37.1508 32.8629 37.1 32.5C37.1498 32.465 37.1996 32.4296 37.2495 32.3941L37.2496 32.3941L37.2496 32.3941L37.2496 32.394L37.2496 32.394L37.2497 32.394L37.2498 32.3939C37.4658 32.2405 37.6841 32.0853 37.9149 31.9489L37.92 31.95L37.93 31.94ZM40.08 33.74C40.0667 33.7867 40.0533 33.8156 40.04 33.8444C40.0333 33.8589 40.0267 33.8733 40.02 33.89C40.003 33.9253 39.9889 33.9566 39.9765 33.9843C39.8938 34.1684 39.8843 34.1896 39.58 34.12C39.31 34.06 38.85 34.01 38.5 34.01C38.63 33.43 38.77 32.68 38.87 32.06C39.112 32.1224 39.3783 32.1605 39.6738 32.2028C39.7569 32.2146 39.8422 32.2268 39.93 32.24L39.9414 32.2852C39.9695 32.3964 40.0024 32.5271 40.02 32.65C40.02 32.65 40.04 32.77 40.05 32.8C39.97 32.7 39.86 32.61 39.75 32.53C39.66 32.47 39.36 32.36 39.24 32.33C39.19 32.31 39.13 32.67 39.1 32.95C39.27 32.98 39.39 32.98 39.57 32.95V33.04C39.57 33.04 39.59 33.17 39.6 33.22L39.63 33.34L39.5368 33.3014C39.2978 33.2023 39.19 33.1575 39.1332 33.1934C39.0865 33.223 39.0744 33.3071 39.0522 33.4604C39.0373 33.5639 39.0178 33.6989 38.98 33.87C39.39 33.92 39.78 33.87 40.07 33.75L40.08 33.74ZM41.99 32.8C41.99 32.8 42.01 32.88 42.02 33C42.0164 33 42.0062 32.9908 41.9938 32.9796C41.9718 32.9598 41.9428 32.9336 41.93 32.94C41.84 32.83 41.54 32.61 41.37 32.59C41.36 32.59 41.24 34.01 41.26 34.2C41.2631 34.2293 41.2676 34.2516 41.271 34.2686C41.2755 34.2911 41.2781 34.3039 41.2728 34.3105C41.2658 34.3193 41.2448 34.3169 41.1956 34.3112C41.1294 34.3035 41.0124 34.29 40.81 34.29C40.8196 34.2133 40.8294 34.1373 40.8391 34.0617C40.9004 33.5853 40.96 33.1223 40.96 32.57C40.65 32.56 40.48 32.62 40.28 32.78C40.28 32.78 40.24 32.68 40.29 32.55C40.3116 32.4961 40.3477 32.4392 40.3826 32.3842C40.4125 32.3372 40.4416 32.2915 40.46 32.25C40.9 32.38 41.4 32.44 41.93 32.4C41.9352 32.4362 41.9397 32.4697 41.944 32.5021L41.944 32.5021L41.944 32.5021C41.9565 32.5951 41.9678 32.6788 41.99 32.79V32.8ZM41.17 16.59C41.0854 16.0244 40.632 16.0065 40.2086 15.9897C39.831 15.9747 39.4771 15.9607 39.43 15.56C39.22 15.94 39.15 16.35 39.61 16.54C39.3591 16.8637 39.3375 17.3118 39.3118 17.8419C39.3058 17.9669 39.2995 18.0965 39.29 18.23C39.84 18.19 40.51 18.19 41.06 18.23C41.0675 18.0284 41.0986 17.8366 41.1301 17.6431L41.1301 17.6431V17.643V17.643V17.643V17.643V17.643V17.643V17.643V17.643V17.643V17.643V17.643V17.6429V17.6429V17.6429C41.1829 17.3181 41.2364 16.9885 41.18 16.6L41.17 16.59ZM39.58 17.74C39.54 17.25 39.6 16.86 39.76 16.53C39.9003 16.5489 40.0229 16.5636 40.1302 16.5765C40.5116 16.6222 40.6991 16.6447 40.7938 16.7504C40.8854 16.8527 40.8899 17.033 40.8989 17.3876V17.3877C40.9015 17.4899 40.9045 17.6065 40.91 17.74C40.53 17.64 39.99 17.64 39.58 17.74ZM33.7433 32.5321L33.743 32.5325L33.68 32.62C33.72 32.63 33.63 32.64 33.62 32.64C33.5094 32.6137 33.3821 32.5513 33.2529 32.4879C33.1367 32.4309 33.0189 32.3731 32.91 32.34C32.8388 32.3163 32.7801 32.3113 32.7091 32.3053C32.6904 32.3037 32.6709 32.3021 32.65 32.3L32.7028 32.1049C32.8581 31.5325 33.0213 30.9313 33.12 30.33C33.18 30.36 33.2375 30.39 33.295 30.42C33.3525 30.45 33.41 30.48 33.47 30.51C33.4249 30.6867 33.3783 30.8832 33.3304 31.0857L33.3304 31.0858L33.3304 31.0858L33.3304 31.0858L33.3304 31.0858L33.3304 31.0859L33.3304 31.0859L33.3303 31.0859L33.3303 31.0859L33.3303 31.086L33.3303 31.086C33.2508 31.4219 33.1673 31.7743 33.08 32.08C33.037 32.2213 33.3905 32.2267 33.6555 32.2308C33.8217 32.2333 33.9531 32.2353 33.93 32.27C33.9013 32.3131 33.8106 32.4388 33.7433 32.5321ZM47.08 14.34C47.08 14.34 47.08 14.21 47.11 14.19C47.1491 14.1666 47.2308 14.1492 47.2838 14.138L47.2838 14.138C47.2987 14.1349 47.3113 14.1322 47.32 14.13L47.3159 14.1016C47.2675 13.7638 47.226 13.4743 47.44 13.27C47.4867 13.2233 47.5422 13.1856 47.5978 13.1478C47.6256 13.1289 47.6533 13.11 47.68 13.09C47.39 12.89 47.05 12.57 47.21 12.03C47.2461 11.8944 47.3231 11.8324 47.4188 11.7553L47.45 11.73C47.41 12.44 47.98 12.7 48.51 12.91C48.6947 12.6384 48.5961 12.5497 48.4836 12.4485C48.3889 12.3633 48.2843 12.2693 48.33 12.05C48.3513 11.9505 48.4485 11.8509 48.5316 11.7657L48.5316 11.7657C48.5654 11.7311 48.5969 11.6989 48.62 11.67C48.7001 11.733 48.6951 11.7501 48.6836 11.7888C48.675 11.8177 48.6629 11.8588 48.68 11.94C48.6925 11.9836 48.7515 12.0311 48.8063 12.0752C48.8395 12.1019 48.8711 12.1274 48.89 12.15C49.15 12.48 48.85 12.85 48.59 13.01C48.57 13 48.68 13.09 48.74 13.13C49.17 13.42 49.13 13.86 48.83 14.25L48.8076 14.2793C48.779 14.3171 48.7686 14.3308 48.7551 14.3352C48.7474 14.3378 48.7387 14.3373 48.725 14.3365C48.705 14.3354 48.6741 14.3336 48.62 14.34C48.9072 13.7101 48.3362 13.4492 47.877 13.2393L47.8768 13.2392C47.8403 13.2225 47.8046 13.2062 47.77 13.19C47.7595 13.2092 47.7478 13.2285 47.7358 13.2481C47.6793 13.3409 47.617 13.4432 47.65 13.6C47.6604 13.6573 47.7088 13.72 47.7571 13.7825C47.8014 13.84 47.8456 13.8973 47.86 13.95C47.95 14.44 47.44 14.38 47.09 14.33L47.08 14.34ZM47.97 15.64C47.999 15.796 48.0951 15.8625 48.1867 15.9259C48.3477 16.0373 48.4949 16.1392 48.24 16.7C48.1266 16.9458 48.1204 16.8738 48.1088 16.7395C48.1019 16.6606 48.0933 16.5603 48.06 16.49C48.0391 16.4482 47.9598 16.3772 47.8934 16.3177L47.8934 16.3177L47.8934 16.3176L47.8933 16.3176C47.8645 16.2918 47.8382 16.2681 47.82 16.25C47.5309 15.9609 47.7152 15.6637 47.8862 15.3878L47.8862 15.3877L47.8869 15.3867L47.8869 15.3866C47.9049 15.3575 47.9228 15.3286 47.94 15.3C48.0107 15.3412 47.9981 15.3929 47.9819 15.4591C47.9707 15.5052 47.9577 15.5584 47.97 15.62V15.64ZM44.2 12.42C44.14 12.14 44.12 12 44.23 11.83C44.4236 12.2684 44.6657 12.2238 44.9252 12.1761C45.1214 12.14 45.3276 12.102 45.53 12.27C45.6246 12.3497 45.6424 12.6749 45.661 13.0171C45.6798 13.3621 45.6996 13.7244 45.8 13.87C45.8 13.86 45.88 13.96 45.8 13.96C45.7832 13.9921 45.7684 14.0217 45.7548 14.049L45.7548 14.049C45.6707 14.217 45.6306 14.297 45.45 14.34C45.45 14.2303 45.4568 14.1002 45.464 13.9623C45.4845 13.572 45.5082 13.1191 45.39 12.89C45.3045 12.7276 45.1057 12.746 44.8936 12.7657C44.6095 12.7921 44.3016 12.8208 44.21 12.42H44.2ZM46.03 11.74C46.1301 12.1229 46.3205 12.1276 46.507 12.1321C46.6372 12.1353 46.7655 12.1385 46.86 12.27C47.04 12.53 46.86 12.67 46.65 12.74C46.66 12.8635 46.6567 12.9937 46.6533 13.1231V13.1232C46.6467 13.3815 46.6401 13.6368 46.74 13.83C46.74 13.84 46.77 13.95 46.77 13.95C46.755 13.98 46.7475 14.0025 46.74 14.025L46.74 14.025L46.74 14.025L46.74 14.025C46.7325 14.0475 46.725 14.07 46.71 14.1C46.23 14.99 46.4 13.09 46.47 12.74C45.78 12.84 45.86 12.2 46.03 11.73V11.74ZM40.6354 13.5412L40.6354 13.5412C40.6052 13.2511 40.5814 13.0216 40.69 12.75C40.23 12.6 40.3 12.13 40.39 11.69C40.5044 12.2201 40.7314 12.1841 41.0271 12.1373C41.2223 12.1064 41.4474 12.0707 41.69 12.19C41.8222 12.2536 41.8369 12.6024 41.8527 12.9759C41.8692 13.3654 41.8868 13.7819 42.04 13.93C42.0264 13.9527 42.0135 13.9747 42.001 13.9959L42.001 13.996C41.9041 14.1614 41.8338 14.2814 41.63 14.37C41.63 14.2969 41.6347 14.1926 41.6401 14.0715C41.6622 13.5799 41.6967 12.8122 41.48 12.74C40.91 12.56 40.66 12.76 40.8 13.3C40.8285 13.4102 40.8576 13.5102 40.8839 13.6007C41.0603 14.2082 41.1131 14.39 40.06 14.39C40.0751 14.3327 40.0877 14.2826 40.0987 14.2385C40.1388 14.0786 40.1588 13.9987 40.2088 13.9487C40.2587 13.8988 40.3386 13.8788 40.4985 13.8387C40.5426 13.8277 40.5927 13.8151 40.65 13.8L40.66 13.81C40.6533 13.7137 40.6441 13.625 40.6354 13.5413L40.6354 13.5412ZM53.96 32.5L53.9316 32.5099C53.7022 32.59 53.376 32.704 53.28 32.56C53.2455 32.4978 53.2062 32.4166 53.172 32.346L53.1428 32.2858L53.13 32.26C53.1123 32.2187 53.105 32.1878 53.0959 32.1488C53.0895 32.1218 53.0823 32.0909 53.07 32.05C53.27 32.18 54.32 32.62 54.07 31.86C54.05 31.8 54 31.76 53.95 31.74C53.821 31.6638 53.6482 31.6219 53.4769 31.5805C53.0639 31.4804 52.6597 31.3826 52.9 30.81C53.0155 30.5406 53.3147 30.4845 53.6197 30.4273C53.7108 30.4102 53.8025 30.393 53.89 30.37C53.8951 30.3904 53.9446 30.497 53.9944 30.6044C54.0422 30.7071 54.0902 30.8107 54.1 30.84C54.1623 30.9958 54.0745 30.9423 53.9311 30.8549C53.7061 30.7179 53.3443 30.4975 53.21 30.87C53.21 30.87 53.21 31.05 53.39 31.14C53.5131 31.2016 53.6514 31.235 53.7862 31.2677C54.0454 31.3304 54.2913 31.39 54.39 31.64C54.56 32.07 54.27 32.38 53.95 32.5H53.96ZM48.91 31.94C48.98 32.59 49.1 33.29 49.25 33.86C49.2 33.87 49.1375 33.8925 49.075 33.915L49.075 33.915C49.0125 33.9375 48.95 33.96 48.9 33.97C48.9 33.97 48.77 34 48.76 34C48.7274 33.772 48.7012 33.5472 48.6755 33.3267L48.6755 33.3266L48.6755 33.3266V33.3266C48.6223 32.8699 48.5711 32.4313 48.47 32.02C48.4889 32.02 48.5301 32.0022 48.5735 31.9833L48.5736 31.9833C48.6222 31.9623 48.6736 31.94 48.7 31.94H48.91ZM47.44 16.68C47.3495 15.9692 47.0503 15.9808 46.6313 15.997C46.4019 16.0059 46.1366 16.0161 45.85 15.91C45.7501 15.8747 45.7365 15.7669 45.7241 15.6678C45.7153 15.5983 45.7071 15.533 45.67 15.5C45.49 15.88 45.36 16.32 45.85 16.51C45.6342 16.9016 45.6037 17.2933 45.5644 17.7972C45.5545 17.9238 45.5441 18.0575 45.53 18.2C45.669 18.2 45.8167 18.1973 45.9694 18.1946L45.9696 18.1946H45.9696C46.4099 18.1867 46.892 18.178 47.33 18.23C47.3377 18.0251 47.3679 17.8337 47.3979 17.643L47.3979 17.6429C47.4456 17.3404 47.4929 17.0396 47.45 16.69L47.44 16.68ZM45.85 17.71V17.48C45.83 17.12 45.88 16.83 45.97 16.53C47.12 16.53 47.18 16.55 47.18 17.71C46.81 17.6 46.23 17.59 45.85 17.71ZM47.46 32.14C48.0768 32.1599 47.8128 32.7736 47.5934 33.0556C47.8337 33.4531 48.2219 33.7812 48.62 34.03C48.61 34.05 48.59 34.12 48.59 34.12C48 34.18 47.56 33.73 47.29 33.29C47.2552 33.2927 47.2246 33.2946 47.1963 33.2965C47.1189 33.3014 47.0578 33.3054 46.97 33.32C46.98 33.57 47.02 33.89 47.06 34.18C47.0054 34.1878 46.9463 34.1986 46.8867 34.2096L46.8866 34.2096L46.8866 34.2096C46.7934 34.2266 46.6993 34.2439 46.62 34.25C46.6133 34.0938 46.61 33.9377 46.6067 33.7819V33.7819V33.7819V33.7818V33.7818V33.7818V33.7817V33.7817V33.7817V33.7817V33.7816V33.7816V33.7816V33.7815V33.7815V33.7815C46.6 33.4685 46.5934 33.157 46.56 32.85C46.5472 32.7477 46.5262 32.6331 46.5049 32.5167L46.5049 32.5167L46.5049 32.5166L46.5049 32.5165L46.5049 32.5165L46.5049 32.5165L46.5049 32.5164L46.5049 32.5164L46.5049 32.5164L46.5049 32.5163L46.5049 32.5163L46.5049 32.5162C46.4929 32.4507 46.4808 32.3847 46.47 32.32C46.61 32.3055 46.7478 32.2677 46.8843 32.2302L46.8843 32.2302L46.8843 32.2302C47.0305 32.1901 47.1752 32.1503 47.32 32.14H47.46ZM46.89 32.44L46.9698 33.1385C47.3854 33.07 47.7257 32.4398 47.18 32.41C47.1 32.41 47.01 32.41 46.89 32.44ZM51.5183 31.2204L51.5183 31.2204C51.4849 31.2363 51.4542 31.2509 51.43 31.26C51.43 31.9325 51.3169 32.4991 51.2036 33.0666L51.2036 33.0666L51.2036 33.067L51.2035 33.0673C51.1821 33.1746 51.1607 33.2819 51.14 33.39C51.2598 33.3501 51.3896 33.3101 51.5194 33.2702L51.5194 33.2702L51.5194 33.2702L51.52 33.27C51.52 33.04 51.55 32.78 51.59 32.57C51.77 32.49 52.21 32.38 52.21 32.38C52.316 32.4571 52.4592 32.7201 52.5232 32.8374L52.53 32.85C52.5961 32.9657 52.6281 32.9516 52.75 32.8982L52.75 32.8981C52.7756 32.8869 52.8053 32.8739 52.84 32.86C52.8822 32.8419 52.9281 32.8311 52.971 32.821C52.9992 32.8143 53.0262 32.8079 53.05 32.8C52.9506 32.67 52.8453 32.5458 52.7397 32.4213C52.5693 32.2203 52.3982 32.0185 52.25 31.79C52.15 31.64 51.75 31.14 51.75 31.14C51.6873 31.14 51.5954 31.1837 51.5184 31.2204L51.5184 31.2204L51.5183 31.2204ZM51.62 32.27C51.67 32 51.68 31.8 51.68 31.57L52.09 32.14L51.62 32.27ZM50.89 31.87C50.89 31.87 50.94 31.94 50.98 32.05C50.9765 32.05 50.9645 32.0451 50.9499 32.0392L50.9498 32.0392C50.9226 32.0282 50.8865 32.0135 50.88 32.02C50.76 31.95 50.4 31.83 50.24 31.87C50.23 31.87 50.56 33.26 50.65 33.44C50.6629 33.4674 50.675 33.4873 50.6841 33.5021L50.6841 33.5022C50.6952 33.5204 50.7016 33.5309 50.6991 33.5384C50.6956 33.5486 50.6751 33.5531 50.6266 33.5638C50.5612 33.5782 50.4448 33.6039 50.25 33.67C50.15 33.12 50.05 32.6 49.85 32C49.55 32.09 49.41 32.19 49.27 32.41C49.27 32.41 49.2 32.33 49.21 32.19C49.21 32.133 49.2262 32.063 49.2421 31.9948C49.254 31.9434 49.2657 31.893 49.27 31.85C49.72 31.83 50.22 31.73 50.72 31.52C50.7589 31.6044 50.7937 31.6719 50.8324 31.7472C50.8533 31.7879 50.8754 31.8309 50.9 31.88L50.89 31.87ZM41.71 15.41C41.6927 15.6699 41.8198 15.8248 41.9395 15.9704C42.096 16.161 42.2397 16.3359 42.03 16.71C41.9857 16.7912 41.9359 16.8234 41.8686 16.8669L41.8686 16.8669L41.8686 16.8669C41.8447 16.8823 41.8187 16.8991 41.79 16.92C41.8358 16.6034 41.7047 16.4413 41.5873 16.2962C41.423 16.093 41.2858 15.9234 41.7 15.41H41.71ZM46.19 34.33C45.7 34.33 45.29 34.36 44.89 34.42L44.8902 34.1933C44.8912 33.5931 44.8922 33.0087 44.83 32.44C45.0163 32.44 45.1942 32.4145 45.3605 32.3906L45.3605 32.3906C45.5066 32.3697 45.6437 32.35 45.77 32.35C45.96 32.35 45.99 32.4 46.04 32.53C46.0655 32.5962 46.0754 32.6495 46.0856 32.7043C46.0954 32.7571 46.1055 32.8113 46.13 32.88C45.89 32.69 45.69 32.61 45.25 32.61C45.25 32.61 45.27 33.14 45.28 33.2C45.54 33.17 45.66 33.15 45.83 33.07C45.8459 33.1733 45.8653 33.2521 45.88 33.3117C45.8998 33.3918 45.9109 33.4369 45.8932 33.4598C45.8703 33.4894 45.7991 33.4816 45.6358 33.4637L45.6357 33.4637C45.5468 33.454 45.4306 33.4413 45.28 33.43C45.28 34.2491 45.3092 34.2404 46.0501 34.0189L46.08 34.01L46.1204 33.9978L46.1204 33.9978C46.2771 33.9502 46.3461 33.9293 46.3616 33.9495C46.3738 33.9654 46.3528 34.0068 46.3153 34.0808C46.2848 34.141 46.2434 34.2228 46.2 34.33H46.19ZM44.18 32.5C44.2307 32.5 44.2964 32.4936 44.3671 32.4867C44.4497 32.4787 44.5392 32.47 44.62 32.47C44.45 32.84 44.28 33.22 44.14 33.61C44.1077 33.6962 44.0805 33.785 44.0534 33.8737C44.005 34.0317 43.9569 34.189 43.88 34.33C43.6921 34.6887 43.6209 34.5222 43.5169 34.2792C43.4992 34.2376 43.4804 34.1938 43.46 34.15C43.3545 33.9205 43.2636 33.6827 43.174 33.448C43.0684 33.1712 42.9645 32.8989 42.84 32.65C42.81 32.59 42.75 32.44 42.75 32.44C42.94 32.47 43.01 32.47 43.19 32.44C43.35 32.93 43.54 33.41 43.78 33.8C43.94 33.4 44.06 32.99 44.16 32.5H44.18ZM42.575 13.5594V13.5594C42.58 13.2813 42.5851 12.9995 42.62 12.75C41.93 12.79 41.99 12.22 42.18 11.72C42.18 11.72 42.25 11.95 42.27 11.99C42.3263 12.1385 42.5006 12.1585 42.6667 12.1776C42.825 12.1958 42.9758 12.2131 43.01 12.34C43.0566 12.5196 42.9793 12.5886 42.9105 12.6499C42.8759 12.6808 42.8434 12.7098 42.83 12.75C42.75 12.99 42.81 13.64 42.89 13.78C42.9134 13.8268 42.9368 13.8371 42.9746 13.8536C42.9851 13.8583 42.9968 13.8634 43.01 13.87C42.9794 13.921 42.9538 13.9695 42.9299 14.0147C42.8369 14.1909 42.7708 14.3161 42.54 14.34L42.53 14.35C42.5651 14.1145 42.57 13.8388 42.575 13.5594ZM74.6723 13.3593V12.9267H70.5836V13.3677C71.3424 13.3677 72.0563 13.6472 72.0563 13.9268L69.2723 18.4548L66.5481 13.8586C66.6513 13.604 67.3186 13.3593 68.0259 13.3593V12.9183H63.0702V13.3593C64.1492 13.3339 64.5552 13.8588 64.8458 14.2346C64.8972 14.3011 64.945 14.3628 64.9922 14.416L64.9473 14.3095L68.1091 19.6197V23.0727C68.1091 23.4821 67.1389 23.8249 66.0273 23.8249V24.2659H71.7501V23.8282H71.7951C70.6818 23.8282 69.7133 23.5104 69.7133 22.5468V19.405L72.7752 14.4244C72.8243 14.369 72.8735 14.3045 72.9265 14.2351L72.9265 14.235C73.2126 13.8598 73.6072 13.3424 74.6773 13.3677L74.6723 13.3593ZM83.4287 12.4922V23.2207C83.4287 23.5369 84.0078 23.8364 84.7284 23.8364V24.2741H80.7878V23.8364C81.322 23.8414 81.9627 23.6401 81.9627 23.3239V13.3226C81.9627 12.9915 81.4534 12.8134 80.8194 12.8134V12.454L83.4104 11.6535H83.7832V11.9431L83.4287 12.4922ZM91.881 22.372C91.3717 22.8945 90.7627 23.3704 89.7809 23.3704C88.2283 23.3704 87.0284 22.0392 87.0284 20.2086C87.0284 19.9257 87.0883 19.3017 87.0883 19.3017H91.9142C91.9142 18.7825 91.9009 17.8157 91.3901 17.2182C90.8792 16.6208 90.3167 16.3463 89.3349 16.3463C87.536 16.3463 85.5208 17.7424 85.5208 20.8493C85.5208 22.9877 87.0418 24.3855 88.7441 24.3855C89.8508 24.3855 90.7411 24.1925 92.1505 22.7947L91.881 22.372ZM88.9263 16.9204C90.1009 16.9223 90.4731 18.267 90.4731 18.7892H87.1449C87.1449 18.2071 87.7514 16.9222 88.9263 16.9204ZM78.8994 22.7381C78.8994 23.1824 79.2971 23.3904 79.6449 23.3904L79.6466 23.3937C79.9944 23.3937 80.3139 23.1974 80.6101 22.9294V23.4486L80.6048 23.4534C80.3495 23.6832 79.5656 24.3889 78.6964 24.3889C78.3786 24.3988 78.0697 24.2828 77.837 24.0663C77.6042 23.8497 77.4663 23.55 77.4533 23.2323C77.4433 23.2623 77.435 23.2806 77.435 23.2806C77.435 23.2806 76.4199 24.3839 75.1801 24.3839C73.9404 24.3839 73.3812 23.4486 73.3812 22.7497C73.38 22.2392 73.5046 21.7362 73.744 21.2853L77.435 19.944V18.7659C77.435 17.4146 76.3916 17.0452 76.0122 17.0452C75.5113 17.0452 75.0404 17.7291 75.0404 18.5262L73.5759 18.8374C73.5759 17.6675 75.3183 16.3695 76.8759 16.3695C78.4335 16.3695 78.8994 17.4129 78.8994 18.0336V22.7381ZM75.1252 21.4301C74.824 22.5234 75.0304 23.5219 75.8624 23.5219C76.1545 23.5294 76.445 23.4767 76.7159 23.367C76.9867 23.2574 77.2321 23.0931 77.4367 22.8845V20.4616L75.1252 21.4301ZM104.783 12.9265V13.3592C105.595 13.3592 106.828 13.8584 106.828 14.2478V20.3434C106.82 20.3812 106.815 20.4196 106.814 20.4582C106.814 20.9575 106.275 23.4536 103.639 23.4536C101.003 23.4536 100.171 21.5515 100.171 20.4582V13.9948C100.326 13.662 101.15 13.3592 101.882 13.3592V12.9265H96.8897V13.3592C97.5953 13.3592 98.3341 13.6354 98.5105 13.9616V20.4516C98.5105 22.8096 100.394 24.5785 103.078 24.5785C106.621 24.5785 107.851 22.0358 107.851 20.4516V14.1446C107.981 13.7785 108.751 13.3592 109.492 13.3592V12.9265H104.783ZM136.515 23.3704C137.497 23.3704 138.106 22.8945 138.617 22.372L138.885 22.7947C137.476 24.1925 136.585 24.3855 135.479 24.3855C133.776 24.3855 132.255 22.9877 132.255 20.8493C132.255 17.7424 134.271 16.3463 136.069 16.3463C137.051 16.3463 137.615 16.6208 138.125 17.2182C138.634 17.8157 138.649 18.7825 138.649 19.3017H133.823C133.823 19.3017 133.763 19.9257 133.763 20.2086C133.763 22.0392 134.963 23.3704 136.515 23.3704ZM137.208 18.7892C137.208 18.267 136.835 16.9223 135.661 16.9204C134.486 16.9222 133.879 18.2071 133.879 18.7892H137.208ZM121.392 13.7386C121.569 13.7292 121.739 13.6682 121.881 13.5632C122.024 13.4581 122.132 13.3137 122.193 13.1477C122.254 12.9816 122.266 12.8013 122.225 12.629C122.185 12.4567 122.095 12.3 121.967 12.1781C121.839 12.0563 121.678 11.9748 121.503 11.9436C121.329 11.9124 121.15 11.9329 120.987 12.0026C120.825 12.0723 120.686 12.1882 120.588 12.3358C120.491 12.4835 120.439 12.6564 120.439 12.8334C120.442 12.9555 120.469 13.0758 120.518 13.1874C120.568 13.299 120.639 13.3997 120.727 13.4838C120.816 13.5679 120.92 13.6337 121.034 13.6774C121.148 13.7212 121.27 13.742 121.392 13.7386ZM122.159 16.3197V23.1708H122.163C122.163 23.6085 122.758 23.8365 123.356 23.8365V24.2741H119.603V23.8365C120.229 23.8365 120.768 23.507 120.768 23.2374V18.2551C120.768 17.8457 119.856 17.4979 119.66 17.4979V17.1518L121.925 16.3197H122.159ZM154.728 13.7386C154.904 13.7292 155.074 13.6682 155.217 13.5632C155.359 13.4581 155.468 13.3137 155.529 13.1477C155.59 12.9816 155.601 12.8013 155.561 12.629C155.521 12.4567 155.431 12.3 155.303 12.1781C155.174 12.0563 155.013 11.9748 154.839 11.9436C154.665 11.9124 154.485 11.9329 154.323 12.0026C154.16 12.0723 154.021 12.1882 153.924 12.3358C153.826 12.4835 153.774 12.6564 153.774 12.8334C153.781 13.0798 153.885 13.3136 154.064 13.4833C154.242 13.6531 154.481 13.7449 154.728 13.7386ZM155.496 16.3197V23.1708H155.5C155.5 23.6085 156.094 23.8365 156.693 23.8365V24.2741H152.939V23.8365C153.564 23.8365 154.104 23.507 154.104 23.2374V18.2551C154.104 17.8457 153.192 17.4979 152.995 17.4979V17.1518L155.262 16.3197H155.496ZM128.769 16.6026V17.0402C129.102 17.0402 130.052 17.2516 130.052 17.6892L128.203 22.5318L126.228 17.4213C126.228 17.22 127.032 17.0402 127.331 17.0402V16.6109H123.477V17.0386C123.447 17.0386 123.444 17.0486 123.477 17.0486C124.018 17.0486 124.497 17.215 124.782 17.6892L127.338 24.4189L128.055 24.2308L130.764 17.8473C130.876 17.6116 131.051 17.4118 131.27 17.2706C131.489 17.1295 131.743 17.0525 132.004 17.0486V16.6109L128.769 16.6026ZM167.997 17.0402V16.6026L171.224 16.6059V17.0436C170.963 17.0475 170.709 17.1245 170.49 17.2657C170.27 17.4068 170.095 17.6066 169.984 17.8423L165.775 28.1431C165.739 28.3658 165.623 28.5676 165.448 28.7102C165.273 28.8528 165.052 28.9264 164.827 28.9169C164.706 28.93 164.584 28.9174 164.468 28.88C164.352 28.8427 164.245 28.7813 164.155 28.7C164.064 28.6187 163.992 28.5192 163.942 28.4081C163.893 28.297 163.867 28.1766 163.867 28.0549C163.867 27.9332 163.893 27.8129 163.942 27.7018C163.992 27.5906 164.064 27.4912 164.155 27.4099C164.245 27.3286 164.352 27.2672 164.468 27.2298C164.584 27.1925 164.706 27.1799 164.827 27.1929C165.029 27.191 165.227 27.2489 165.396 27.3593L166.561 24.4106L164.01 17.6892C163.725 17.215 163.244 17.0486 162.705 17.0486C162.67 17.0486 162.675 17.0386 162.705 17.0386V16.6109H166.558V17.0402C166.26 17.0402 165.456 17.22 165.456 17.4213L167.43 22.5318L169.28 17.6892C169.28 17.2516 168.33 17.0402 167.997 17.0402ZM161.442 23.4603C161.094 23.4603 159.931 22.4968 159.931 22.0524V17.4928H162.567V16.6025H159.938V14.9867H159.705L157.616 17.0834V17.4928H158.47V22.6998C158.47 23.4703 158.954 24.3855 160.432 24.3855C161.309 24.3855 162.47 23.7448 162.725 23.5218V23.1241C162.427 23.3338 161.792 23.4569 161.444 23.4569L161.442 23.4603ZM142.457 17.8561C142.857 17.4357 143.827 16.4179 144.39 16.4179H144.398C144.866 16.4228 145.324 16.5471 145.73 16.779L145.052 18.1835C145.034 18.2054 145.01 18.2229 144.984 18.2347C144.958 18.2465 144.93 18.2523 144.901 18.2517C144.802 18.2517 144.68 18.1804 144.525 18.0908C144.265 17.9395 143.914 17.7359 143.44 17.7359C143.145 17.7359 142.872 17.839 142.373 18.3699V23.1708C142.373 23.6085 143.391 23.8365 143.989 23.8365V24.2741H139.814V23.8365C140.439 23.8365 140.978 23.507 140.978 23.2374V18.2551C140.978 17.8457 140.067 17.4979 139.87 17.4979V17.1518L142.135 16.3197H142.37V17.9472C142.394 17.9215 142.424 17.8909 142.457 17.8561ZM117.44 23.171V18.3701C117.44 16.5812 116.074 16.3731 115.465 16.3731C114.516 16.3731 113.073 17.1902 112.539 17.6312V16.3266H112.311L110.046 17.1586V17.5047C110.243 17.5047 111.155 17.8525 111.155 18.2619V23.2442C111.155 23.5138 110.615 23.8433 109.99 23.8433V24.281H113.742V23.8433C113.145 23.8433 112.549 23.6153 112.549 23.1777V18.0189C113.243 17.5696 113.85 17.3699 114.365 17.3699C114.587 17.3699 114.806 17.4138 115.011 17.4991C115.216 17.5844 115.402 17.7094 115.558 17.8668C115.715 18.0243 115.838 18.2111 115.922 18.4166C116.006 18.6221 116.049 18.8421 116.047 19.064V23.2376C116.047 23.5072 115.508 23.8367 114.882 23.8367V24.2743H119.059V23.8367C118.46 23.8367 117.443 23.6087 117.443 23.171H117.44ZM149.615 19.8393C149.83 19.9275 150.046 20.0173 150.253 20.1205L150.263 20.1172C151.013 20.4849 151.649 20.9892 151.649 22.0708C151.649 23.7366 150.056 24.4438 148.971 24.4438C148.078 24.4438 146.973 24.1942 146.487 23.9446L146.292 21.936L146.74 21.9477C147.062 22.5301 147.969 23.8864 148.635 23.8864C149.442 23.8864 150.319 23.5885 150.319 22.62C150.319 21.8229 149.728 21.4351 149.011 21.1023C148.899 21.0543 148.783 21.007 148.665 20.9589C148.198 20.7684 147.702 20.5666 147.304 20.2703C147.08 20.1168 146.89 19.9199 146.745 19.6911H146.76C146.581 19.3891 146.491 19.0432 146.5 18.6927C146.5 17.0269 148.127 16.3746 149.212 16.3746C150.106 16.3746 150.97 16.571 151.454 16.8206L151.566 18.7776L151.118 18.7642L151.113 18.7556C150.788 18.169 150.073 16.8788 149.41 16.8788C148.602 16.8788 147.833 17.1767 147.833 18.1469C147.833 19.0072 148.492 19.3666 149.254 19.6862H149.256L149.615 19.8393Z" fill="#2B3F6C"/>
</svg>
