<svg width="200" height="40" viewBox="0 0 200 40" fill="none" xmlns="http://www.w3.org/2000/svg">
<path fill-rule="evenodd" clip-rule="evenodd" d="M21.9711 12.5931C21.78 11.464 20.8827 10.6783 19.7845 10.588C18.561 10.4878 17.4419 10.8651 16.3111 11.2462C15.6287 11.4762 14.942 11.7077 14.2256 11.8365C14.1166 11.8558 13.9809 11.6929 13.845 11.5296L13.845 11.5296C13.7908 11.4645 13.7365 11.3994 13.6839 11.3457C14.5666 10.6695 14.4465 9.34338 13.4241 8.77058C13.3537 8.6886 13.3792 7.92487 13.4198 7.89021C13.4598 7.85635 13.6313 7.86827 13.8089 7.8806C14.0008 7.89393 14.1998 7.90776 14.2478 7.86489C14.3404 7.78401 14.322 6.98892 14.2625 6.91244C14.23 6.87037 13.9931 6.87624 13.7795 6.88153C13.6047 6.88586 13.4456 6.8898 13.4268 6.86677C13.4089 6.84423 13.4105 6.69567 13.4123 6.53056V6.53055C13.4146 6.31678 13.4172 6.07528 13.3781 6.04361C13.3288 6.00344 13.1248 5.99904 13.0117 6.00014C12.898 5.99904 12.694 6.00344 12.6447 6.04361C12.6056 6.07559 12.6083 6.31706 12.6106 6.53074V6.53076C12.6123 6.69579 12.614 6.84423 12.596 6.86677C12.5773 6.8898 12.4182 6.88586 12.2435 6.88153C12.03 6.87624 11.7931 6.87037 11.7604 6.91244C11.7014 6.98892 11.683 7.78401 11.7755 7.86545C11.8235 7.90796 12.0218 7.89425 12.2133 7.88101C12.3911 7.86873 12.5629 7.85685 12.6031 7.89076C12.6431 7.92542 12.6691 8.6886 12.5987 8.77113C11.5764 9.34393 11.4568 10.6695 12.3395 11.3462C12.2865 11.4001 12.232 11.4655 12.1775 11.5307C12.0416 11.6936 11.9061 11.8559 11.7972 11.8371C11.0807 11.7084 10.3938 11.4768 9.71118 11.2467C8.58086 10.8656 7.46202 10.4884 6.23882 10.5886C5.14068 10.6783 4.24334 11.4645 4.05228 12.5936C3.80799 14.0388 4.4634 15.2463 5.11326 16.4436L5.11326 16.4436C5.37763 16.9306 5.64107 17.416 5.84265 17.915C6.06347 18.4597 6.25723 19.1921 6.22205 19.8221C6.22205 19.8221 11.9195 19.8221 12.9343 19.8226H13.0117H13.0891C14.1039 19.8221 19.8008 19.8221 19.8008 19.8221C19.7661 19.1921 19.9599 18.4597 20.1807 17.915C20.3823 17.4161 20.6457 16.9308 20.91 16.4437L20.91 16.4437C21.5599 15.2464 22.2154 14.0387 21.9711 12.5931ZM12.1999 17.0951C12.0234 18.1158 11.4654 18.764 11.0016 18.7678C10.6974 18.7695 10.4528 18.6517 10.2314 18.4542C9.92563 18.1824 9.67613 17.735 9.75623 17.4709C9.79067 17.4255 10.0209 17.4364 10.2464 17.4469C10.4639 17.4571 10.6768 17.4671 10.7055 17.4264C10.7645 17.3438 10.6054 16.6912 10.5123 16.6065C10.4661 16.565 10.2573 16.5722 10.0475 16.5795H10.0475C9.83743 16.5868 9.62637 16.5942 9.57654 16.5526C9.52848 16.5123 9.48195 16.3013 9.43516 16.0892C9.38552 15.8641 9.33558 15.6377 9.2832 15.6122C9.2832 15.6122 8.49681 15.4928 8.43998 15.6062C8.41111 15.664 8.47842 15.8635 8.5454 16.0621C8.61156 16.2582 8.6774 16.4533 8.64997 16.5102C8.6224 16.5677 8.34892 16.5426 8.07979 16.5179C7.81012 16.4932 7.5448 16.4689 7.53559 16.5284C7.51719 16.6478 7.59513 17.2415 7.69525 17.3295C7.79484 17.4176 8.76688 17.4236 8.76688 17.4236C8.96875 17.5799 9.02179 17.8985 9.02287 18.2242C9.0245 18.638 8.70788 18.8515 8.20346 18.7079C7.26282 18.4399 6.09648 16.3655 5.40426 14.9294C4.89551 13.8735 4.58864 12.1457 5.92437 11.628C6.73783 11.3121 7.59188 11.491 8.46812 11.7551C9.38549 12.0324 10.5957 12.4071 11.309 12.8577C11.3657 12.8934 11.3637 12.9083 11.3567 12.9607C11.3421 13.0698 11.3058 13.342 11.7333 14.3054C12.0277 14.969 12.3227 16.3826 12.1999 17.0951ZM17.8199 18.7079C17.3155 18.8515 16.9989 18.638 17.0005 18.2242C17.0016 17.8985 17.0541 17.5799 17.2565 17.4236C17.2565 17.4236 18.2285 17.4176 18.3281 17.3295C18.4277 17.2415 18.5056 16.6478 18.4878 16.5284C18.4786 16.4689 18.2131 16.4932 17.9433 16.5179C17.6741 16.5426 17.4007 16.5676 17.3734 16.5102C17.346 16.4533 17.4118 16.2582 17.478 16.0621C17.545 15.8635 17.6123 15.664 17.5834 15.6062C17.5255 15.4928 16.7402 15.6122 16.7402 15.6122C16.6879 15.6377 16.638 15.8634 16.5884 16.0881L16.5884 16.0881C16.5414 16.3006 16.4947 16.5122 16.4463 16.5526C16.3966 16.5937 16.1869 16.5865 15.9776 16.5792H15.9776C15.7673 16.5719 15.5574 16.5646 15.5111 16.6065C15.4174 16.6912 15.2594 17.3438 15.3173 17.4264C15.346 17.4671 15.5589 17.4571 15.7764 17.4469C16.002 17.4364 16.2324 17.4255 16.2671 17.4709C16.3467 17.735 16.0977 18.1824 15.7919 18.4542C15.57 18.6517 15.326 18.7695 15.0218 18.7678C14.5574 18.764 14 18.1158 13.8235 17.0951C13.7001 16.3826 13.9956 14.969 14.2895 14.3054C14.7176 13.3417 14.6809 13.0697 14.6662 12.9606C14.6592 12.9083 14.6572 12.8934 14.7138 12.8577C15.4277 12.4071 16.6379 12.0324 17.5552 11.7551C18.4309 11.491 19.285 11.3116 20.0995 11.628C21.4347 12.1457 21.1273 13.8735 20.6186 14.9294C19.9269 16.3655 18.7606 18.4393 17.8199 18.7079ZM27.417 16.4475C27.417 17.8231 27.7796 19.4111 29.1467 20.6315C30.417 21.7512 32.0212 22.1771 33.9317 22.1782C34.8247 22.1782 35.885 22.0786 36.443 21.8519C36.68 21.7518 36.7358 21.6813 36.8056 21.4403C36.9452 20.9578 37.1125 19.7241 37.1125 19.5536C37.1125 19.4408 37.0843 19.3406 36.9869 19.3406C36.8754 19.3406 36.8473 19.3979 36.8056 19.6251C36.7498 19.881 36.5685 20.292 36.3315 20.56C35.7729 21.2131 35.0195 21.3545 33.7785 21.3545C31.9091 21.3545 29.3838 19.6812 29.3838 16.3061C29.3838 14.9299 29.649 13.583 30.6676 12.6327C31.2813 12.0643 32.0764 11.7523 33.2903 11.7523C34.5736 11.7523 35.6614 12.1358 36.122 12.6327C36.4711 13.0008 36.6524 13.4966 36.6659 13.9373C36.6659 14.1354 36.6941 14.2487 36.8056 14.2487C36.9311 14.2487 36.9587 14.1354 36.9728 13.9225C36.9873 13.7769 36.9906 13.4996 36.9942 13.2009V13.2009V13.2009V13.2008V13.2008C36.9975 12.9191 37.0011 12.6184 37.0145 12.3911C37.0315 12.0907 37.0535 11.9098 37.0682 11.7886V11.7886C37.0778 11.7094 37.0843 11.6557 37.0843 11.6109C37.0843 11.5251 37.0286 11.4541 36.8754 11.4403C36.6576 11.4183 36.432 11.3731 36.1911 11.3249C35.9691 11.2804 35.7342 11.2334 35.4801 11.1993C34.8388 11.114 34.3225 11.0574 33.4576 11.0574C31.3787 11.0574 30.0533 11.6247 29.0493 12.5612C27.7098 13.8097 27.417 15.4829 27.417 16.4475ZM43.6908 12.8346C40.1891 12.8346 38.8701 15.4559 38.8701 17.4852C38.8701 19.586 40.2243 22.1374 43.5739 22.1374C46.5387 22.1374 48.4065 19.9893 48.4065 17.2723C48.4065 14.5552 46.5972 12.8346 43.6908 12.8346ZM43.3525 13.4035C45.2668 13.4035 46.7725 15.0531 46.7725 17.7113C46.7725 21.141 44.8815 21.5443 44.0642 21.5443C41.8236 21.5443 40.4808 19.586 40.4808 17.1176C40.4808 14.1634 42.0098 13.4035 43.3525 13.4035ZM52.5881 18.5296V18.5296C52.5881 20.0494 52.5881 20.8675 52.8332 21.0816C53.0319 21.2598 53.335 21.3424 54.2458 21.3424C54.8644 21.3424 55.3196 21.3308 55.6113 21.0106C55.7515 20.856 55.8917 20.5236 55.915 20.298C55.9263 20.1918 55.9496 20.1203 56.0432 20.1203C56.125 20.1203 56.1363 20.1786 56.1363 20.3222C56.1363 20.4515 56.0546 21.3424 55.9615 21.6863C55.8917 21.9471 55.8332 22.0065 55.226 22.0065C54.2654 22.0065 53.6024 21.9832 53.0342 21.9631L53.0341 21.9631C52.6079 21.9481 52.235 21.935 51.8298 21.935C51.7138 21.935 51.511 21.9416 51.2804 21.9492C50.9765 21.9592 50.6243 21.9708 50.3588 21.9708C50.2072 21.9708 50.125 21.935 50.125 21.8514C50.125 21.7925 50.1721 21.7567 50.3122 21.7567C50.487 21.7567 50.6272 21.7331 50.7322 21.7088C50.9655 21.6615 51.0239 21.4007 51.071 21.0568C51.1289 20.5583 51.1289 19.6208 51.1289 18.5281V18.5279V16.4392C51.1289 14.6361 51.1289 14.3032 51.1057 13.9246C51.0824 13.5208 50.9893 13.3309 50.6039 13.2479C50.5103 13.2242 50.3707 13.2126 50.2186 13.2126C50.0903 13.2126 50.0205 13.189 50.0205 13.1059C50.0205 13.0228 50.1017 12.9991 50.277 12.9991C50.5892 12.9991 50.9615 13.0107 51.2827 13.0207C51.5262 13.0283 51.7403 13.0349 51.8764 13.0349C51.9993 13.0349 52.2329 13.028 52.4947 13.0203C52.8287 13.0104 53.2086 12.9991 53.4638 12.9991C53.6272 12.9991 53.7089 13.0228 53.7089 13.1059C53.7089 13.189 53.6386 13.2126 53.4984 13.2126C53.3701 13.2126 53.1834 13.2242 53.0438 13.2479C52.7282 13.3073 52.6346 13.5098 52.6113 13.9246C52.5881 14.3032 52.5881 14.6361 52.5881 16.4392V18.5296ZM58.3645 13.9263C58.3878 14.3054 58.3878 14.6383 58.3878 16.442V18.1747C58.3878 19.8958 58.8316 20.7745 59.4269 21.3204C60.2783 22.1034 61.3991 22.1386 62.0177 22.1386C62.7765 22.1386 63.6171 22.0082 64.4457 21.2841C65.4264 20.4295 65.5546 19.0303 65.5546 17.7125V16.4425C65.5546 14.6388 65.5546 14.306 65.5779 13.9268C65.6012 13.512 65.6948 13.3095 66.0098 13.2506C66.15 13.2269 66.2198 13.2154 66.3481 13.2154C66.4888 13.2154 66.5586 13.1917 66.5586 13.1086C66.5586 13.0261 66.4769 13.0024 66.3134 13.0024C66.0207 13.0024 65.6121 13.0168 65.3204 13.027L65.3203 13.027L65.3203 13.027C65.1584 13.0327 65.0326 13.0371 64.9826 13.0371L64.948 13.0357C64.7947 13.0292 64.1634 13.0024 63.6403 13.0024C63.4769 13.0024 63.3952 13.0261 63.3952 13.1086C63.3952 13.1917 63.4655 13.2154 63.5938 13.2154C63.7221 13.2154 63.9201 13.2269 64.0138 13.2506C64.3991 13.3331 64.4928 13.5241 64.516 13.9268C64.5393 14.306 64.5393 14.6388 64.5393 16.4425V17.926C64.5393 19.148 64.5041 20.216 63.8617 20.8686C63.3952 21.3435 62.7652 21.5091 62.251 21.5091C61.8548 21.5091 61.3174 21.4618 60.7924 21.0227C60.2203 20.5484 59.8821 19.8237 59.8821 18.1031V16.442C59.8821 14.6383 59.8821 14.3054 59.9054 13.9263C59.9286 13.5114 60.0217 13.3089 60.3373 13.25L60.3381 13.2499C60.4777 13.2269 60.5475 13.2154 60.6755 13.2154C60.7924 13.2154 60.8622 13.1917 60.8622 13.1086C60.8622 13.0261 60.7805 13.0024 60.6057 13.0024C60.3743 13.0024 60.0477 13.0129 59.7539 13.0224C59.5138 13.0301 59.2956 13.0371 59.1693 13.0371C59.0192 13.0371 58.7981 13.0307 58.5457 13.0234L58.5456 13.0234C58.2098 13.0137 57.8186 13.0024 57.4655 13.0024C57.2902 13.0024 57.209 13.0261 57.209 13.1086C57.209 13.1917 57.2788 13.2154 57.4071 13.2154C57.5705 13.2154 57.7691 13.2264 57.8628 13.25C58.2476 13.3326 58.3407 13.5235 58.3645 13.9263ZM69.3589 13.0481C69.3941 12.8462 69.4639 12.7389 69.5575 12.7389C69.6506 12.7389 69.721 12.7983 69.8725 13.107L73.0587 19.8001L76.234 13.0245C76.3147 12.8341 76.385 12.7389 76.4906 12.7389C76.5961 12.7389 76.6654 12.8577 76.7006 13.107L77.763 20.4406C77.868 21.1883 77.9849 21.5322 78.3351 21.6401C78.6739 21.7457 78.9077 21.7584 79.0592 21.7584C79.1637 21.7584 79.2459 21.7699 79.2459 21.8409C79.2459 21.9355 79.1058 21.9719 78.9423 21.9719C78.6506 21.9719 77.0394 21.9355 76.5728 21.8998C76.3044 21.8767 76.2346 21.8409 76.2346 21.7694C76.2346 21.711 76.2811 21.6747 76.3623 21.6401C76.4321 21.6153 76.4673 21.4618 76.4208 21.1289L75.7204 15.9072H75.6739L73.129 21.2951C72.8606 21.8536 72.8021 21.9598 72.6971 21.9598C72.5994 21.9598 72.4913 21.7537 72.3261 21.4388L72.2885 21.3672C72.0087 20.8208 71.0865 19.005 70.9463 18.6726C70.8829 18.5225 70.6027 17.9185 70.3006 17.2674L70.3006 17.2672L70.298 17.2617L70.2976 17.2608C70.1001 16.8351 69.8935 16.3898 69.7323 16.0387H69.6858L69.0785 20.7613C69.0553 20.9754 69.0434 21.1294 69.0434 21.3198C69.0434 21.5449 69.1954 21.6522 69.3941 21.6995C69.6041 21.7463 69.7675 21.7584 69.8839 21.7584C69.9775 21.7584 70.0592 21.782 70.0592 21.8409C70.0592 21.9476 69.9542 21.9719 69.7794 21.9719C69.4827 21.9719 69.1735 21.9586 68.929 21.9481L68.9289 21.9481L68.9288 21.9481C68.7689 21.9412 68.6366 21.9355 68.5535 21.9355C68.4569 21.9355 68.2963 21.9424 68.1148 21.9502C67.8793 21.9603 67.6089 21.9719 67.398 21.9719C67.2811 21.9719 67.1875 21.9476 67.1875 21.8409C67.1875 21.782 67.2573 21.7584 67.3748 21.7584C67.4684 21.7584 67.5496 21.7584 67.7244 21.7226C68.0513 21.6516 68.1444 21.1889 68.2028 20.785L69.3665 13.0481H69.3589ZM81.8121 16.4402V16.4419V18.5295C81.8121 19.6223 81.8121 20.5599 81.7537 21.0578C81.7071 21.4017 81.6487 21.6631 81.4154 21.7104C81.3104 21.7346 81.1702 21.7583 80.9954 21.7583C80.8553 21.7583 80.8087 21.7935 80.8087 21.8535C80.8087 21.9366 80.891 21.9723 81.042 21.9723C81.308 21.9723 81.6606 21.9608 81.9645 21.9508L81.9646 21.9508L81.9647 21.9508C82.195 21.9432 82.3973 21.9366 82.513 21.9366C82.6978 21.9366 83.0809 21.9565 83.4427 21.9753C83.7664 21.9922 84.073 22.0081 84.2054 22.0081C86.3535 22.0081 87.3218 20.6908 87.3218 19.4203C87.3218 18.0326 86.1549 17.1902 85.1975 16.8579C85.8394 16.3352 86.3876 15.7547 86.3876 14.7818C86.3876 14.1524 86.0142 13.0018 83.9018 13.0018C83.7212 13.0018 83.5288 13.009 83.3189 13.0168C83.067 13.0262 82.7899 13.0365 82.4778 13.0365C82.389 13.0365 82.2278 13.0315 82.0281 13.0253L82.0279 13.0253L82.0278 13.0253L82.0276 13.0253L82.0275 13.0253L82.0273 13.0253L82.0272 13.0253L82.027 13.0253L82.0269 13.0252C81.7013 13.0151 81.2735 13.0018 80.8904 13.0018C80.7145 13.0018 80.6328 13.0249 80.6328 13.1086C80.6328 13.1906 80.7026 13.2142 80.8314 13.2142C80.9949 13.2142 81.193 13.2263 81.2861 13.25C81.6714 13.3325 81.7651 13.5229 81.7883 13.9262C81.8121 14.3052 81.8121 14.638 81.8121 16.4402ZM83.2935 16.7737C83.2469 16.7621 83.2123 16.7385 83.2123 16.6438L83.2128 13.7122C83.2128 13.5812 83.2361 13.5339 83.3178 13.5102C83.4342 13.4866 83.5392 13.4866 83.7026 13.4866C84.7066 13.4866 85.1618 14.5315 85.1618 15.326C85.1618 15.9076 84.987 16.3341 84.6833 16.5839C84.4847 16.7616 84.2282 16.8095 83.8428 16.8095C83.5744 16.8095 83.3985 16.7968 83.2935 16.7737ZM83.7843 17.3074C84.2395 17.3311 84.508 17.4142 84.7531 17.5925C85.6402 18.2219 85.8854 19.2184 85.8848 19.9541C85.8848 21.1877 84.9983 21.4722 84.4723 21.4722C84.2043 21.4722 83.9359 21.4606 83.6209 21.3302C83.2469 21.1767 83.2123 20.9748 83.2123 20.1918V17.379C83.2123 17.3201 83.2355 17.2959 83.2826 17.2959C83.4575 17.2959 83.5744 17.2959 83.7843 17.3074ZM89.9138 16.4419C89.9138 14.6382 89.9138 14.3053 89.8906 13.9262C89.8673 13.5235 89.7504 13.321 89.4939 13.2615C89.3656 13.2263 89.2141 13.2142 89.0744 13.2142C88.9575 13.2142 88.8877 13.1906 88.8877 13.0954C88.8877 13.0244 88.9808 13.0007 89.1675 13.0007C89.4041 13.0007 89.7239 13.0106 90.0222 13.0198C90.2828 13.0279 90.5268 13.0354 90.6845 13.0354C90.8155 13.0354 91.026 13.0284 91.2585 13.0208C91.5449 13.0113 91.8646 13.0007 92.1096 13.0007C92.2606 13.0007 92.3542 13.0244 92.3542 13.0954C92.3542 13.1906 92.2839 13.2142 92.1675 13.2142C92.0506 13.2142 91.9575 13.2258 91.8168 13.2494C91.5018 13.3083 91.4087 13.5108 91.3854 13.9257C91.3616 14.3041 91.3616 14.6375 91.3616 16.4396V16.4414V18.5301C91.3616 19.6806 91.3616 20.6188 91.4087 21.1288C91.4434 21.4491 91.5256 21.6631 91.8758 21.711C92.0392 21.7346 92.2958 21.7583 92.4711 21.7583C92.5989 21.7583 92.6584 21.793 92.6584 21.8535C92.6584 21.936 92.5648 21.9723 92.4365 21.9723C91.9667 21.9723 91.5097 21.959 91.1531 21.9487L91.153 21.9487C90.925 21.942 90.7381 21.9366 90.6153 21.9366C90.4995 21.9366 90.297 21.9432 90.0666 21.9508L90.0666 21.9508L90.0665 21.9508L90.0664 21.9508C89.7626 21.9608 89.4104 21.9723 89.1448 21.9723C88.9932 21.9723 88.9115 21.9366 88.9115 21.8535C88.9115 21.7935 88.9581 21.7583 89.0982 21.7583C89.273 21.7583 89.4132 21.7346 89.5177 21.711C89.7515 21.6631 89.8218 21.4612 89.8559 21.1173C89.9144 20.6193 89.9144 19.6812 89.9144 18.5306L89.9138 16.4419ZM96.909 18.9686C96.9321 18.8981 96.9553 18.8743 97.0135 18.874V18.8751H99.6151C99.6736 18.8751 99.7082 18.8987 99.7315 18.9582L100.667 21.4733C100.725 21.6163 100.643 21.7225 100.562 21.7462C100.445 21.7583 100.398 21.782 100.398 21.8529C100.398 21.9294 100.516 21.9355 100.699 21.945L100.748 21.9476C101.682 21.9718 102.535 21.9718 102.954 21.9718C103.386 21.9718 103.491 21.9476 103.491 21.8529C103.491 21.7699 103.433 21.7583 103.339 21.7583C103.2 21.7583 103.024 21.7457 102.85 21.7104C102.606 21.651 102.265 21.4854 101.823 20.4168C101.405 19.4082 100.638 17.4504 99.9926 15.8058L99.992 15.8043C99.4836 14.5078 99.0516 13.4064 98.9278 13.1185C98.8109 12.8456 98.7411 12.7394 98.6366 12.7394C98.5197 12.7394 98.4504 12.8692 98.3092 13.2131L95.3801 20.6661C95.1468 21.2592 94.9249 21.6626 94.3875 21.7341C94.2944 21.7457 94.1315 21.7578 94.0259 21.7578C93.9323 21.7578 93.8857 21.7814 93.8857 21.8524C93.8857 21.947 93.9561 21.9712 94.1076 21.9712C94.5237 21.9712 94.956 21.9547 95.2282 21.9443C95.3534 21.9395 95.4447 21.936 95.4851 21.936C95.6646 21.936 95.8784 21.9447 96.0939 21.9534C96.313 21.9623 96.5338 21.9712 96.7223 21.9712C96.85 21.9712 96.9198 21.947 96.9198 21.8524C96.9198 21.7814 96.8857 21.7578 96.7456 21.7578H96.5707C96.2087 21.7578 96.1031 21.6031 96.1031 21.3896C96.1031 21.2477 96.1621 20.9621 96.2785 20.6661L96.909 18.9686ZM99.4538 18.2093C99.4657 18.2456 99.4538 18.2808 99.3954 18.2808H97.2484C97.2018 18.2808 97.1899 18.2456 97.2018 18.1983L98.2751 15.2782C98.287 15.2309 98.3097 15.172 98.3454 15.172C98.378 15.172 98.3908 15.2257 98.4018 15.2717L98.4033 15.2782L99.4538 18.2093ZM109.523 15.3695C109.523 13.2131 109.523 12.8164 109.494 12.3624C109.465 11.8799 109.355 11.6532 108.895 11.5536C108.783 11.525 108.546 11.5112 108.35 11.5112C108.198 11.5112 108.113 11.4826 108.113 11.3841C108.113 11.2845 108.212 11.2565 108.42 11.2565C108.842 11.2565 109.309 11.2703 109.711 11.2821C110.013 11.291 110.277 11.2988 110.457 11.2988C110.607 11.2988 110.868 11.2903 111.155 11.2808C111.506 11.2693 111.896 11.2565 112.172 11.2565C112.382 11.2565 112.48 11.2851 112.48 11.3841C112.48 11.4832 112.395 11.5112 112.256 11.5112C112.103 11.5112 112.019 11.525 111.852 11.5536C111.475 11.6251 111.364 11.8656 111.335 12.3624C111.308 12.8164 111.308 13.2131 111.308 15.3695V17.3547C111.308 19.4104 111.712 20.2765 112.395 20.8438C113.024 21.3687 113.667 21.4248 114.141 21.4248C114.755 21.4248 115.507 21.2268 116.066 20.66C116.833 19.8798 116.875 18.6032 116.875 17.1412V15.3695C116.875 13.2131 116.875 12.8164 116.847 12.3624C116.818 11.8799 116.707 11.6532 116.247 11.5536C116.136 11.525 115.898 11.5112 115.745 11.5112C115.591 11.5112 115.507 11.4826 115.507 11.3841C115.507 11.2845 115.605 11.2565 115.799 11.2565C116.424 11.2565 117.176 11.289 117.361 11.2971L117.404 11.2988C117.464 11.2988 117.615 11.2934 117.809 11.2865C118.158 11.274 118.645 11.2565 118.994 11.2565C119.189 11.2565 119.287 11.2851 119.287 11.3841C119.287 11.4832 119.204 11.5112 119.036 11.5112C118.883 11.5112 118.799 11.525 118.631 11.5536C118.255 11.6251 118.144 11.8656 118.115 12.3624C118.087 12.8164 118.087 13.2131 118.087 15.3695V16.887C118.087 18.4613 117.934 20.1345 116.762 21.1558C115.773 22.0207 114.767 22.177 113.861 22.177C113.121 22.177 111.782 22.1341 110.764 21.1976C110.052 20.5456 109.522 19.4968 109.522 17.4395L109.523 15.3695ZM122.541 21.6747C122.308 21.5916 122.156 21.2835 122.133 20.358L122.005 15.3728H122.039C122.084 15.4209 122.178 15.5255 122.31 15.6729C122.799 16.2196 123.815 17.3541 124.818 18.3639C125.314 18.8636 125.857 19.4188 126.376 19.9493C127.127 20.7163 127.827 21.4317 128.261 21.853C128.388 21.9834 128.529 22.1138 128.657 22.1138C128.761 22.1138 128.809 22.0076 128.809 21.7457L128.937 14.2581C128.949 13.5939 129.041 13.3447 129.368 13.2495C129.508 13.2137 129.601 13.2137 129.718 13.2137C129.859 13.2137 129.929 13.179 129.929 13.1075C129.929 13.0129 129.811 13.0013 129.661 13.0013C129.273 13.0013 128.943 13.0176 128.732 13.028C128.632 13.0329 128.558 13.0365 128.517 13.0365C128.422 13.0365 128.279 13.0312 128.105 13.0247L128.105 13.0247L128.105 13.0247L128.105 13.0247C127.83 13.0145 127.476 13.0013 127.105 13.0013C126.929 13.0013 126.801 13.0123 126.801 13.1075C126.801 13.179 126.847 13.2137 126.988 13.2137C127.152 13.2137 127.433 13.2137 127.608 13.2852C127.886 13.4041 127.992 13.6297 128.004 14.3532L128.12 19.6812H128.062C127.976 19.5993 127.633 19.2332 127.207 18.7787C126.647 18.1825 125.945 17.434 125.495 16.9757C123.79 15.2551 122.016 13.321 121.876 13.1669C121.836 13.1245 121.801 13.0843 121.768 13.0473C121.635 12.8978 121.547 12.7988 121.444 12.7988C121.327 12.7988 121.293 12.9644 121.293 13.2022L121.187 20.227C121.176 21.2598 121.13 21.6037 120.827 21.6989C120.663 21.7462 120.451 21.7583 120.3 21.7583C120.183 21.7583 120.113 21.782 120.113 21.8535C120.113 21.9603 120.219 21.9718 120.371 21.9718C120.799 21.9718 121.199 21.9542 121.434 21.9439C121.531 21.9396 121.6 21.9366 121.631 21.9366C121.708 21.9366 121.816 21.9409 121.956 21.9466L121.957 21.9466L121.957 21.9466C122.216 21.957 122.586 21.9718 123.078 21.9718C123.243 21.9718 123.347 21.9476 123.347 21.8535C123.347 21.782 123.277 21.7583 123.149 21.7583C122.961 21.7583 122.74 21.7462 122.541 21.6747ZM132.914 16.4419C132.914 14.6382 132.914 14.3053 132.891 13.9262C132.867 13.5235 132.75 13.321 132.494 13.2615C132.366 13.2263 132.213 13.2142 132.075 13.2142C131.958 13.2142 131.887 13.1906 131.887 13.0954C131.887 13.0244 131.981 13.0007 132.168 13.0007C132.404 13.0007 132.723 13.0106 133.021 13.0198C133.283 13.0278 133.528 13.0354 133.686 13.0354C133.816 13.0354 134.026 13.0285 134.258 13.0208C134.545 13.0113 134.865 13.0007 135.11 13.0007C135.261 13.0007 135.355 13.0244 135.355 13.0954C135.355 13.1906 135.285 13.2142 135.168 13.2142C135.051 13.2142 134.958 13.2258 134.818 13.2494C134.502 13.3083 134.41 13.5108 134.387 13.9257C134.363 14.3042 134.363 14.6377 134.363 16.4414V18.5301C134.363 19.6806 134.363 20.6188 134.41 21.1288C134.444 21.4491 134.526 21.6631 134.876 21.711C135.04 21.7346 135.296 21.7583 135.472 21.7583C135.6 21.7583 135.658 21.793 135.658 21.8535C135.658 21.936 135.565 21.9723 135.437 21.9723C134.967 21.9723 134.51 21.959 134.154 21.9487C133.926 21.942 133.74 21.9366 133.617 21.9366C133.501 21.9366 133.298 21.9432 133.067 21.9508C132.763 21.9608 132.411 21.9723 132.145 21.9723C131.994 21.9723 131.912 21.9366 131.912 21.8535C131.912 21.7935 131.959 21.7583 132.099 21.7583C132.273 21.7583 132.414 21.7346 132.519 21.711C132.752 21.6631 132.823 21.4612 132.857 21.1173C132.916 20.6193 132.916 19.6812 132.916 18.5306V16.4419H132.914ZM137.158 13.2615C137.579 13.3798 137.777 13.5103 138.044 14.1634L140.985 21.4133C141.206 21.9712 141.277 22.1374 141.428 22.1374C141.578 22.1374 141.649 21.9767 141.895 21.417L141.895 21.4169L141.965 21.2592C142.062 21.0343 142.201 20.7088 142.377 20.2971L142.384 20.2802C142.672 19.6071 143.057 18.7064 143.516 17.6392C143.773 17.0451 143.977 16.5867 144.16 16.1768C144.427 15.5794 144.647 15.085 144.917 14.4231C145.233 13.6643 145.409 13.4618 145.56 13.3556C145.77 13.2131 146.016 13.2131 146.133 13.2131C146.249 13.2131 146.319 13.1895 146.319 13.1064C146.319 13.0233 146.226 12.9996 146.075 12.9996C145.876 12.9996 145.612 13.0112 145.385 13.0212C145.214 13.0288 145.063 13.0354 144.977 13.0354C144.925 13.0354 144.835 13.0313 144.716 13.0259C144.482 13.0153 144.138 12.9996 143.752 12.9996C143.53 12.9996 143.425 13.0233 143.425 13.1185C143.425 13.2021 143.518 13.2137 143.624 13.2137C143.775 13.2137 143.95 13.2252 144.091 13.2731C144.195 13.3083 144.241 13.4035 144.241 13.4981C144.241 13.6049 144.195 13.7832 144.138 13.9372C143.967 14.4126 143.341 16.0074 142.763 17.4795L142.762 17.4824C142.388 18.4341 142.035 19.3342 141.838 19.8468H141.791L139.783 14.4594C139.62 14.0319 139.516 13.7001 139.516 13.5455C139.516 13.4387 139.551 13.3556 139.631 13.2962C139.724 13.2252 139.9 13.2137 140.087 13.2137C140.192 13.2137 140.262 13.19 140.262 13.1069C140.262 13.0238 140.134 13.0002 139.993 13.0002C139.652 13.0002 139.318 13.0124 139.042 13.0226C138.847 13.0298 138.68 13.0359 138.559 13.0359C138.375 13.0359 138.14 13.0288 137.882 13.0208C137.563 13.0111 137.208 13.0002 136.866 13.0002C136.689 13.0002 136.562 13.0117 136.562 13.1069C136.562 13.1785 136.597 13.2137 136.702 13.2137C136.795 13.2137 136.983 13.2137 137.158 13.2615ZM148.172 16.4419C148.172 14.6382 148.172 14.3053 148.148 13.9262C148.125 13.5234 148.031 13.3325 147.647 13.25C147.553 13.2263 147.354 13.2153 147.19 13.2153C147.063 13.2153 146.992 13.1916 146.992 13.1086C146.992 13.026 147.074 13.0024 147.249 13.0024C147.608 13.0024 148.006 13.014 148.34 13.0238C148.583 13.0309 148.793 13.037 148.93 13.037C149.303 13.037 151.626 13.037 151.848 13.0255C152.07 13.0018 152.257 12.9776 152.351 12.9539C152.373 12.9495 152.398 12.9413 152.422 12.9331C152.461 12.92 152.501 12.9066 152.537 12.9066C152.595 12.9066 152.608 12.9539 152.608 13.0128C152.608 13.0398 152.602 13.0731 152.592 13.1244C152.572 13.231 152.538 13.4157 152.515 13.7842C152.511 13.8271 152.505 13.9231 152.498 14.0349C152.486 14.2314 152.471 14.4767 152.456 14.5672C152.445 14.6267 152.422 14.6982 152.34 14.6982C152.258 14.6982 152.235 14.6388 152.235 14.532C152.235 14.4489 152.224 14.2464 152.164 14.1045C152.083 13.8915 151.966 13.7485 151.383 13.6775C151.185 13.6538 149.959 13.6302 149.725 13.6302C149.667 13.6302 149.644 13.6659 149.644 13.7485V16.7511C149.644 16.8342 149.656 16.8815 149.725 16.8815C149.982 16.8815 151.325 16.8815 151.593 16.8579C151.873 16.8342 152.048 16.7979 152.153 16.6801L152.17 16.6606C152.241 16.5773 152.286 16.5255 152.341 16.5255C152.387 16.5255 152.421 16.5503 152.421 16.6207C152.421 16.6422 152.416 16.6744 152.408 16.7253L152.408 16.7254L152.408 16.7259C152.388 16.8445 152.353 17.0643 152.328 17.4862C152.305 17.7245 152.282 18.1988 152.282 18.2819C152.282 18.3765 152.282 18.5069 152.177 18.5069C152.095 18.5069 152.072 18.4602 152.072 18.4002C152.068 18.3674 152.066 18.332 152.064 18.2945C152.057 18.1966 152.05 18.0852 152.024 17.9737C151.967 17.736 151.804 17.5589 151.371 17.5104C151.15 17.4862 149.994 17.4758 149.713 17.4758C149.657 17.4758 149.644 17.5231 149.644 17.5941V18.5317C149.644 18.6485 149.643 18.8231 149.642 19.0205V19.021V19.0216V19.0225V19.0238V19.0256V19.0258V19.0259V19.0262V19.0266V19.0271V19.0278V19.0288V19.0302V19.0323V19.0327V19.0333V19.0341V19.0352V19.0368C149.639 19.5184 149.636 20.1287 149.644 20.3706C149.667 21.1893 149.854 21.3682 151.044 21.3682C151.349 21.3682 151.839 21.3682 152.141 21.2251C152.446 21.0831 152.585 20.8339 152.668 20.3469C152.69 20.2171 152.713 20.1692 152.795 20.1692C152.889 20.1692 152.889 20.2644 152.889 20.3827C152.889 20.6561 152.795 21.4628 152.738 21.701C152.657 22.0097 152.55 22.0097 152.108 22.0097C151.023 22.0097 150.31 21.9827 149.761 21.9618C149.418 21.9488 149.139 21.9382 148.873 21.9382C148.758 21.9382 148.555 21.9448 148.325 21.9524L148.325 21.9524C148.021 21.9624 147.668 21.974 147.402 21.974C147.251 21.974 147.169 21.9382 147.169 21.8551C147.169 21.7951 147.216 21.7599 147.356 21.7599C147.531 21.7599 147.671 21.7363 147.775 21.7126C148.01 21.6647 148.067 21.4034 148.115 21.0595C148.172 20.5622 148.172 19.6244 148.172 18.5326V18.5317L148.172 16.4419ZM156.163 13.9262C156.186 14.3053 156.186 14.6382 156.186 16.4419H156.186V18.5323C156.186 19.6239 156.186 20.5621 156.128 21.06C156.081 21.4039 156.023 21.6648 155.789 21.7126C155.684 21.7363 155.544 21.7605 155.369 21.7605C155.229 21.7605 155.182 21.7963 155.182 21.8557C155.182 21.9388 155.264 21.9745 155.415 21.9745C155.692 21.9745 156.062 21.962 156.365 21.9518L156.365 21.9518L156.365 21.9518C156.574 21.9447 156.75 21.9388 156.84 21.9388C156.899 21.9388 157.036 21.9428 157.218 21.9482C157.576 21.9588 158.108 21.9745 158.557 21.9745C158.709 21.9745 158.79 21.9382 158.79 21.8557C158.79 21.7957 158.743 21.7605 158.65 21.7605C158.509 21.7605 158.252 21.7363 158.077 21.7126C157.727 21.6648 157.657 21.4039 157.622 21.06C157.564 20.5621 157.564 19.6239 157.564 18.5207V18.3545C157.564 18.283 157.6 18.2593 157.658 18.2593L158.674 18.283C158.755 18.283 158.825 18.2946 158.884 18.3655C158.974 18.471 159.199 18.7962 159.464 19.1796L159.465 19.1814L159.466 19.1829L159.467 19.184L159.469 19.1875C159.651 19.4503 159.851 19.7397 160.04 20.0041C160.694 20.9175 161.136 21.4749 161.638 21.7484C161.943 21.9146 162.234 21.974 162.888 21.974H163.997C164.137 21.974 164.218 21.9498 164.218 21.8551C164.218 21.7952 164.171 21.7599 164.078 21.7599C163.984 21.7599 163.88 21.7484 163.751 21.7247L163.736 21.7216C163.55 21.6834 163.079 21.5869 162.443 20.9175C161.851 20.2854 161.175 19.4176 160.337 18.3438L160.337 18.3432C160.199 18.1665 160.057 17.9843 159.91 17.7966C161.089 16.8232 161.451 16.0166 161.451 15.1384C161.451 14.3433 160.986 13.7375 160.659 13.5125C160.027 13.0728 159.245 13.0018 158.509 13.0018C158.332 13.0018 158.03 13.0104 157.721 13.0191C157.397 13.0282 157.066 13.0376 156.864 13.0376C156.769 13.0376 156.601 13.0323 156.395 13.0257C156.068 13.0153 155.644 13.0018 155.264 13.0018C155.089 13.0018 155.007 13.0255 155.007 13.1086C155.007 13.1917 155.077 13.2153 155.205 13.2153C155.369 13.2153 155.568 13.2258 155.661 13.25C156.047 13.3331 156.14 13.5229 156.163 13.9262ZM157.669 17.5936C157.588 17.5572 157.564 17.5099 157.564 17.379H157.563V13.7727C157.563 13.6775 157.586 13.6302 157.667 13.6065C157.784 13.5702 157.995 13.5587 158.287 13.5587C158.976 13.5587 160.073 14.0451 160.073 15.7299C160.073 16.7033 159.734 17.2486 159.385 17.5105C159.175 17.664 159.023 17.7119 158.557 17.7119C158.264 17.7119 157.914 17.6761 157.669 17.5936ZM165.068 21.8298C164.88 21.7462 164.846 21.6867 164.846 21.4259C164.846 20.8193 164.886 20.1623 164.901 19.9197L164.904 19.8715C164.915 19.6927 164.95 19.5628 165.044 19.5628C165.149 19.5628 165.162 19.669 165.162 19.7648C165.162 19.9188 165.208 20.1675 165.266 20.3695C165.523 21.2482 166.212 21.5684 166.934 21.5684C167.985 21.5684 168.499 20.8449 168.499 20.216C168.499 19.6338 168.325 19.0764 167.356 18.3171L166.818 17.8907C165.536 16.87 165.092 16.0391 165.092 15.0778C165.092 13.7727 166.166 12.8351 167.788 12.8351C168.546 12.8351 169.037 12.9539 169.341 13.037C169.445 13.0607 169.504 13.0959 169.504 13.179C169.504 13.2233 169.5 13.2831 169.495 13.3676L169.494 13.3706L169.494 13.3709C169.48 13.5821 169.456 13.946 169.456 14.603C169.456 14.8649 169.422 14.9595 169.329 14.9595C169.247 14.9595 169.213 14.888 169.213 14.7455C169.213 14.6388 169.154 14.2706 168.908 13.962C168.733 13.7369 168.395 13.3804 167.635 13.3804C166.771 13.3804 166.246 13.891 166.246 14.6024C166.246 15.1483 166.516 15.5632 167.484 16.3115L167.811 16.5607C169.212 17.664 169.725 18.4596 169.725 19.5865C169.725 20.2754 169.468 21.0936 168.627 21.6515C168.045 22.0301 167.392 22.1385 166.771 22.1385C166.094 22.1379 165.568 22.0543 165.068 21.8298ZM173 13.9262C173.024 14.3053 173.024 14.6382 173.024 16.4419V18.5306C173.024 19.6812 173.024 20.6193 172.966 21.1173C172.932 21.4612 172.862 21.6631 172.628 21.711C172.523 21.7346 172.383 21.7583 172.209 21.7583C172.068 21.7583 172.021 21.7935 172.021 21.8535C172.021 21.9366 172.103 21.9723 172.255 21.9723C172.521 21.9723 172.873 21.9608 173.178 21.9508C173.408 21.9432 173.61 21.9366 173.725 21.9366C173.848 21.9366 174.035 21.942 174.263 21.9487L174.263 21.9487C174.62 21.959 175.076 21.9723 175.546 21.9723C175.675 21.9723 175.768 21.936 175.768 21.8535C175.768 21.793 175.709 21.7583 175.581 21.7583C175.406 21.7583 175.149 21.7346 174.985 21.711C174.636 21.6631 174.553 21.4491 174.519 21.1288C174.472 20.6189 174.472 19.6812 174.472 18.5312V18.5301V16.4414C174.472 14.6377 174.472 14.3042 174.495 13.9257C174.519 13.5108 174.613 13.3083 174.928 13.2494C175.068 13.2258 175.161 13.2142 175.278 13.2142C175.395 13.2142 175.465 13.1906 175.465 13.0954C175.465 13.0244 175.371 13.0007 175.22 13.0007C174.975 13.0007 174.655 13.0113 174.369 13.0208C174.136 13.0284 173.926 13.0354 173.795 13.0354C173.638 13.0354 173.394 13.0279 173.134 13.0198C172.835 13.0106 172.515 13.0007 172.278 13.0007C172.091 13.0007 171.998 13.0244 171.998 13.0954C171.998 13.1906 172.068 13.2142 172.185 13.2142C172.324 13.2142 172.476 13.2263 172.604 13.2615C172.861 13.321 172.977 13.5235 173 13.9262ZM180.995 13.6649L179.257 13.7122C178.58 13.7359 178.299 13.7953 178.125 14.0567C178.007 14.2344 177.949 14.3769 177.927 14.4715C177.903 14.5667 177.868 14.6146 177.798 14.6146C177.717 14.6146 177.693 14.5552 177.693 14.4242C177.693 14.2344 177.915 13.1543 177.938 13.0602C177.973 12.9061 178.008 12.8346 178.079 12.8346C178.114 12.8346 178.153 12.8521 178.205 12.875C178.287 12.9117 178.401 12.9625 178.581 12.9771C178.919 13.0129 179.363 13.0365 179.748 13.0365H184.37C184.921 13.0365 185.218 12.9717 185.374 12.9378C185.429 12.9258 185.466 12.9177 185.49 12.9177C185.572 12.9177 185.583 12.9892 185.583 13.1669C185.583 13.2845 185.576 13.5295 185.568 13.7879V13.7885L185.568 13.7897C185.559 14.0772 185.549 14.3809 185.549 14.5436C185.537 14.6619 185.513 14.7335 185.444 14.7335C185.351 14.7335 185.327 14.674 185.315 14.4958L185.304 14.3654C185.28 14.0567 184.966 13.7249 183.926 13.7012L182.456 13.6655V18.5306C182.456 19.6223 182.456 20.5605 182.512 21.0705C182.548 21.4029 182.618 21.6631 182.968 21.711C183.133 21.7347 183.388 21.7589 183.565 21.7589C183.692 21.7589 183.752 21.7941 183.752 21.8535C183.752 21.9366 183.658 21.9729 183.53 21.9729C183.063 21.9729 182.61 21.9598 182.252 21.9495C182.019 21.9427 181.826 21.9372 181.697 21.9372C181.581 21.9372 181.379 21.9438 181.148 21.9514C180.844 21.9614 180.492 21.9729 180.226 21.9729C180.075 21.9729 179.992 21.9372 179.992 21.8535C179.992 21.7946 180.04 21.7589 180.18 21.7589C180.354 21.7589 180.495 21.7347 180.599 21.711C180.833 21.6631 180.903 21.4029 180.937 21.059C180.995 20.5605 180.995 19.6223 180.995 18.5301V13.6649ZM190.408 17.6606C190.558 18.0008 190.673 18.2621 190.673 18.8977L190.674 19.8716C190.674 20.0609 190.674 20.5599 190.639 21.0579C190.616 21.4018 190.511 21.6632 190.277 21.7105C190.173 21.7347 190.032 21.7584 189.869 21.7584C189.739 21.7584 189.682 21.7936 189.682 21.853C189.682 21.9476 189.775 21.9724 189.938 21.9724C190.175 21.9724 190.504 21.9616 190.801 21.9519C191.044 21.9439 191.266 21.9366 191.398 21.9366C191.523 21.9366 191.713 21.9422 191.943 21.949C192.295 21.9593 192.74 21.9724 193.184 21.9724C193.336 21.9724 193.429 21.9361 193.429 21.853C193.429 21.793 193.37 21.7584 193.241 21.7584C193.078 21.7584 192.822 21.7347 192.659 21.7105C192.307 21.6632 192.202 21.4018 192.18 21.0579C192.145 20.5599 192.145 20.0614 192.145 19.8716V18.8977C192.145 18.5059 192.145 18.1384 192.32 17.7114C192.53 17.2013 194.164 14.4122 194.549 13.9384C194.806 13.6176 194.934 13.4751 195.179 13.3557C195.354 13.2611 195.575 13.2137 195.693 13.2137C195.821 13.2137 195.914 13.178 195.914 13.0949C195.914 13.0239 195.832 13.0002 195.704 13.0002C195.597 13.0002 195.363 13.0083 195.12 13.0166C194.859 13.0256 194.587 13.0349 194.453 13.0349C194.29 13.0349 194.119 13.0268 193.942 13.0184C193.752 13.0095 193.557 13.0002 193.358 13.0002C193.217 13.0002 193.159 13.0239 193.159 13.107C193.159 13.1776 193.264 13.2014 193.368 13.2249L193.37 13.2253C193.568 13.2732 193.614 13.403 193.614 13.5219C193.614 13.6759 193.568 13.8779 193.451 14.1392C193.37 14.3211 192.969 15.0522 192.571 15.7789C192.164 16.5209 191.76 17.2584 191.701 17.4027C191.67 17.3489 191.602 17.2288 191.508 17.0638L191.496 17.0416L191.491 17.0328L191.49 17.0317L191.489 17.0308C190.993 16.158 189.851 14.1492 189.715 13.8542C189.633 13.6886 189.576 13.5466 189.576 13.4514C189.576 13.3557 189.634 13.2611 189.739 13.2374L189.775 13.228L189.8 13.2213C189.934 13.1863 189.998 13.1697 189.998 13.1075C189.998 13.0355 189.938 13.0008 189.823 13.0008C189.509 13.0008 189.213 13.013 188.973 13.023C188.81 13.0298 188.672 13.0355 188.572 13.0355C188.351 13.0355 187.967 13.024 187.641 13.0143C187.4 13.0071 187.191 13.0008 187.101 13.0008C186.961 13.0008 186.88 13.0355 186.88 13.1075C186.88 13.1901 186.961 13.2137 187.055 13.2137C187.195 13.2137 187.394 13.2847 187.545 13.3678C187.766 13.4982 188.059 13.7948 188.35 14.2344C188.758 14.8512 190.323 17.461 190.404 17.6519L190.408 17.6606ZM28.9878 31.1597C28.9878 29.9745 28.9878 29.756 28.9721 29.5068C28.9564 29.241 28.8801 29.1089 28.7118 29.0704C28.6274 29.0468 28.5278 29.0385 28.4358 29.0385C28.3595 29.0385 28.3135 29.0236 28.3135 28.9604C28.3135 28.9141 28.3746 28.8982 28.497 28.8982C28.6527 28.8982 28.8629 28.9049 29.0588 28.9112L29.0589 28.9112C29.23 28.9167 29.3902 28.9219 29.4939 28.9219C29.5797 28.9219 29.7178 28.9171 29.8704 28.9119L29.8705 28.9119H29.8706L29.8707 28.9119C30.0587 28.9054 30.2684 28.8982 30.4291 28.8982C30.5287 28.8982 30.5899 28.9141 30.5899 28.9604C30.5899 29.0225 30.5439 29.0385 30.4675 29.0385C30.3907 29.0385 30.3295 29.0468 30.2375 29.0622C30.0302 29.1001 29.9691 29.2344 29.9534 29.5068C29.9382 29.756 29.9382 29.9745 29.9382 31.1597V32.5309C29.9382 33.2863 29.9382 33.902 29.9691 34.2377C29.9918 34.4484 30.0454 34.5887 30.2754 34.619C30.3831 34.6344 30.5514 34.6504 30.6662 34.6504C30.7506 34.6504 30.789 34.674 30.789 34.7136C30.789 34.7676 30.7279 34.7912 30.6434 34.7912C30.3352 34.7912 30.0352 34.7824 29.8011 34.7756H29.801H29.801L29.8006 34.7755L29.7999 34.7755L29.7995 34.7755L29.7987 34.7755L29.7983 34.7755C29.6498 34.7711 29.528 34.7676 29.4479 34.7676C29.3718 34.7676 29.2387 34.772 29.0874 34.777C28.8878 34.7836 28.6563 34.7912 28.4818 34.7912C28.3822 34.7912 28.3286 34.7676 28.3286 34.7136C28.3286 34.674 28.3595 34.6504 28.4515 34.6504C28.5662 34.6504 28.6582 34.6355 28.727 34.619C28.8801 34.5876 28.9261 34.4556 28.9494 34.23C28.9878 33.902 28.9878 33.2863 28.9878 32.5309V31.1597ZM33.5407 34.5948C33.3876 34.5403 33.2874 34.3373 33.2723 33.7298L33.1879 30.4581H33.2106C33.2409 30.4903 33.3051 30.562 33.3958 30.6633L33.3963 30.6637C33.7208 31.0259 34.3827 31.7646 35.035 32.4213C35.3568 32.7453 35.7084 33.1047 36.0453 33.449L36.0457 33.4495C36.5434 33.9582 37.0086 34.4336 37.2968 34.7125C37.3812 34.7995 37.4727 34.8847 37.5571 34.8847C37.6264 34.8847 37.6567 34.8154 37.6567 34.6432L37.7412 29.7263C37.7487 29.2894 37.8104 29.126 38.0248 29.0632C38.1168 29.0396 38.1779 29.0396 38.2548 29.0396C38.3468 29.0396 38.3928 29.017 38.3928 28.9703C38.3928 28.9075 38.3159 28.8998 38.2164 28.8998C37.9616 28.8998 37.7456 28.9107 37.6067 28.9177C37.5408 28.921 37.4923 28.9235 37.4651 28.9235C37.4027 28.9235 37.309 28.9199 37.1943 28.9155H37.1943H37.1942H37.1942C37.0137 28.9087 36.7815 28.8998 36.538 28.8998C36.4227 28.8998 36.3383 28.9075 36.3383 28.9703C36.3383 29.017 36.3692 29.0396 36.4612 29.0396C36.5683 29.0396 36.7523 29.0396 36.8671 29.0869C37.0511 29.1639 37.1204 29.3125 37.128 29.7874L37.2043 33.2863H37.1664C37.1112 33.2335 36.8941 33.002 36.6225 32.7125L36.6225 32.7125L36.6224 32.7123L36.622 32.7119L36.6218 32.7117C36.2516 32.3171 35.7804 31.8148 35.4799 31.5096C34.3607 30.3789 33.1954 29.1089 33.1034 29.0077C33.0778 28.98 33.0545 28.9538 33.033 28.9296C32.9456 28.8313 32.8876 28.7661 32.8198 28.7661C32.7435 28.7661 32.7202 28.8751 32.7202 29.0313L32.6515 33.644C32.6439 34.3224 32.6131 34.5485 32.4139 34.6107C32.3067 34.641 32.1682 34.6498 32.0686 34.6498C31.9918 34.6498 31.9463 34.6646 31.9463 34.712C31.9463 34.7818 32.0145 34.7907 32.1146 34.7907C32.3961 34.7907 32.6582 34.7786 32.8124 34.7715H32.8125C32.8768 34.7685 32.9223 34.7664 32.9427 34.7664C32.9937 34.7664 33.0644 34.7694 33.1562 34.7733L33.1566 34.7733L33.1569 34.7733H33.1569H33.1569H33.1569H33.1569H33.157H33.157H33.157H33.1571L33.1571 34.7733H33.1572C33.3275 34.7805 33.5701 34.7907 33.8931 34.7907C34.0002 34.7907 34.0695 34.7736 34.0695 34.712C34.0695 34.6646 34.023 34.6498 33.9391 34.6498C33.8168 34.6498 33.6706 34.641 33.5407 34.5948ZM44.203 29.335L43.061 29.3669C42.6166 29.3818 42.4326 29.422 42.3173 29.5931C42.241 29.7097 42.2021 29.8033 42.1869 29.8649C42.1718 29.9265 42.1485 29.959 42.103 29.959C42.0489 29.959 42.0332 29.9205 42.0332 29.8341C42.0332 29.7086 42.1793 28.9988 42.1945 28.9366C42.2178 28.8354 42.241 28.7892 42.2865 28.7892C42.3102 28.7892 42.3362 28.8007 42.37 28.8157C42.4241 28.8397 42.4985 28.8727 42.6166 28.8822C42.8385 28.9053 43.1297 28.9207 43.383 28.9207H46.4187C46.6507 28.9207 46.8138 28.8995 46.9283 28.8847L46.9475 28.8822L47.0071 28.8698L47.0072 28.8698C47.0844 28.8536 47.1293 28.8442 47.1543 28.8442C47.2078 28.8442 47.2154 28.8904 47.2154 29.0065C47.2154 29.0844 47.2103 29.2459 47.205 29.416C47.199 29.6052 47.1927 29.805 47.1927 29.9122C47.1846 29.9903 47.17 30.0377 47.1234 30.0377C47.0622 30.0377 47.0471 29.9986 47.0395 29.8809L47.0314 29.7961C47.0162 29.5942 46.8095 29.3746 46.127 29.3592L45.1609 29.3361V32.5319V32.5321C45.1609 33.2484 45.1609 33.864 45.1994 34.1986C45.2226 34.417 45.2686 34.5887 45.4987 34.6206C45.6058 34.636 45.7747 34.652 45.8894 34.652C45.9738 34.652 46.0123 34.6751 46.0123 34.7141C46.0123 34.7686 45.9506 34.7923 45.8667 34.7923C45.5603 34.7923 45.2624 34.7836 45.0274 34.7767H45.0273C44.8742 34.7723 44.7478 34.7686 44.663 34.7686C44.5869 34.7686 44.4539 34.773 44.3026 34.778H44.3025C44.1029 34.7846 43.8715 34.7923 43.6969 34.7923C43.5973 34.7923 43.5438 34.7686 43.5438 34.7141C43.5438 34.6751 43.5746 34.652 43.6666 34.652C43.7814 34.652 43.8734 34.6371 43.9426 34.6206C44.0958 34.5887 44.1418 34.4176 44.1645 34.192C44.203 33.864 44.203 33.2484 44.203 32.5321V32.5319V29.335ZM52.9947 31.3213C52.9947 31.3615 52.9719 31.3763 52.9487 31.3763H50.0206C49.9979 31.3763 49.9746 31.3604 49.9746 31.3213V31.1579C49.9746 29.9727 49.9746 29.7548 49.9903 29.5061C50.005 29.2332 50.0667 29.0995 50.2734 29.0609C50.3659 29.0455 50.4347 29.0373 50.4958 29.0373C50.5878 29.0373 50.6339 29.0224 50.6339 28.9674C50.6339 28.9124 50.5803 28.897 50.4731 28.897C50.3054 28.897 50.08 28.9044 49.8818 28.9109C49.7265 28.9161 49.5879 28.9206 49.507 28.9206C49.4214 28.9206 49.2883 28.9166 49.1324 28.9118L49.1322 28.9118H49.1322H49.1321C48.9116 28.9051 48.6456 28.897 48.4035 28.897C48.2963 28.897 48.2422 28.9124 48.2422 28.9674C48.2422 29.0224 48.2882 29.0373 48.3726 29.0373C48.4798 29.0373 48.6102 29.0455 48.6714 29.0609C48.9241 29.1171 48.9858 29.2409 49.001 29.5061C49.0167 29.7548 49.0167 29.9727 49.0167 31.1579V32.5296C49.0167 33.246 49.0167 33.8618 48.9783 34.1897C48.9474 34.4153 48.909 34.5864 48.7558 34.6183C48.6865 34.6348 48.5951 34.6497 48.4798 34.6497C48.3878 34.6497 48.3575 34.6723 48.3575 34.7119C48.3575 34.7663 48.411 34.79 48.5106 34.79C48.6849 34.79 48.9165 34.7823 49.1161 34.7757C49.2674 34.7707 49.4003 34.7663 49.4762 34.7663C49.5613 34.7663 49.6886 34.7701 49.8422 34.7745C50.0762 34.7814 50.3714 34.79 50.6723 34.79C50.7643 34.79 50.8254 34.7663 50.8254 34.7119C50.8254 34.6723 50.787 34.6497 50.7026 34.6497C50.5878 34.6497 50.4195 34.6337 50.3118 34.6183C50.0818 34.5864 50.0363 34.4147 50.0131 34.1963C49.9746 33.8618 49.9746 33.246 49.9746 32.5296V31.8435C49.9746 31.805 49.9979 31.7967 50.0206 31.7967H52.9487C52.9719 31.7967 52.9947 31.8116 52.9947 31.8435V32.5296C52.9947 33.246 52.9947 33.8618 52.9562 34.1897C52.9259 34.4153 52.8875 34.5864 52.7343 34.6183C52.6651 34.6348 52.5731 34.6497 52.4583 34.6497C52.3663 34.6497 52.3355 34.6723 52.3355 34.7119C52.3355 34.7663 52.389 34.79 52.4967 34.79C52.6657 34.79 52.8934 34.7824 53.0914 34.7759L53.0916 34.7759C53.2436 34.7708 53.3781 34.7663 53.4547 34.7663C53.5399 34.7663 53.6671 34.7701 53.8207 34.7745C54.0547 34.7814 54.3499 34.79 54.6508 34.79C54.7423 34.79 54.804 34.7663 54.804 34.7119C54.804 34.6723 54.7655 34.6497 54.6811 34.6497C54.5658 34.6497 54.3975 34.6337 54.2904 34.6183C54.0603 34.5864 54.0143 34.4147 53.9911 34.1963C53.9526 33.8618 53.9526 33.246 53.9526 32.5296V31.1579C53.9526 29.9727 53.9526 29.7548 53.9683 29.5061C53.9835 29.2332 54.0452 29.0995 54.2519 29.0609C54.3439 29.0455 54.4132 29.0373 54.4744 29.0373C54.5658 29.0373 54.6118 29.0224 54.6118 28.9674C54.6118 28.9124 54.5583 28.897 54.4511 28.897C54.2837 28.897 54.0587 28.9044 53.8607 28.9109L53.8606 28.9109L53.8605 28.9109L53.8595 28.911L53.8591 28.911C53.7043 28.9161 53.5662 28.9206 53.4856 28.9206C53.3997 28.9206 53.2665 28.9166 53.1105 28.9118L53.1102 28.9118C52.8898 28.9051 52.6238 28.897 52.3815 28.897C52.2743 28.897 52.2207 28.9124 52.2207 28.9674C52.2207 29.0224 52.2667 29.0373 52.3512 29.0373C52.4583 29.0373 52.5882 29.0455 52.6499 29.0609C52.9027 29.1171 52.9644 29.2409 52.9795 29.5061C52.9947 29.7548 52.9947 29.9727 52.9947 31.1579V31.3213ZM56.856 31.1596C56.856 29.9744 56.856 29.7559 56.8403 29.5067C56.8251 29.242 56.764 29.1177 56.5107 29.0621C56.4495 29.0467 56.3196 29.0384 56.2119 29.0384C56.128 29.0384 56.082 29.0241 56.082 28.9685C56.082 28.9141 56.1356 28.8981 56.2504 28.8981C56.4853 28.8981 56.7461 28.906 56.9659 28.9127H56.966C57.1259 28.9176 57.264 28.9218 57.3545 28.9218C57.5996 28.9218 59.1253 28.9218 59.2704 28.9141C59.416 28.8981 59.5388 28.8822 59.6 28.8667C59.6148 28.8638 59.6307 28.8585 59.6468 28.8532L59.6469 28.8532C59.6727 28.8447 59.6992 28.8359 59.7228 28.8359C59.7607 28.8359 59.7688 28.8667 59.7688 28.9053C59.7688 28.9233 59.7647 28.9454 59.7584 28.9795C59.7453 29.0498 59.7228 29.171 59.7071 29.412C59.7045 29.4398 59.7008 29.501 59.6965 29.5726L59.6965 29.5729C59.6888 29.7029 59.679 29.8669 59.6693 29.9265C59.6617 29.9661 59.646 30.0134 59.5924 30.0134C59.5388 30.0134 59.5237 29.9727 59.5237 29.9028C59.5237 29.8489 59.5161 29.7169 59.4777 29.6233C59.4241 29.4825 59.3472 29.3889 58.964 29.3422C58.8336 29.3267 58.0288 29.3102 57.8756 29.3102C57.8372 29.3102 57.8221 29.3339 57.8221 29.3889V31.361C57.8221 31.416 57.8291 31.4457 57.8756 31.4457C58.0445 31.4457 58.9256 31.4457 59.1021 31.4309C59.2861 31.416 59.4008 31.3923 59.4695 31.3137L59.4882 31.2924C59.5311 31.2433 59.5586 31.2119 59.5924 31.2119C59.6233 31.2119 59.646 31.2273 59.646 31.2746C59.646 31.2884 59.6426 31.3093 59.6372 31.3423C59.6246 31.4199 59.6011 31.5645 59.5848 31.843C59.5691 31.9987 59.554 32.3107 59.554 32.3641C59.554 32.4262 59.554 32.5126 59.4852 32.5126C59.4317 32.5126 59.416 32.4818 59.416 32.4427C59.4138 32.4207 59.4123 32.397 59.4107 32.3721C59.4066 32.3077 59.4019 32.2349 59.3851 32.1616C59.3472 32.0064 59.2401 31.8892 58.9565 31.8578C58.8098 31.843 58.0515 31.8342 57.8675 31.8342C57.8291 31.8342 57.8221 31.8666 57.8221 31.9129V32.5286C57.8221 32.605 57.8214 32.7195 57.8207 32.849C57.8189 33.1669 57.8167 33.5755 57.8221 33.7358C57.8372 34.2745 57.9601 34.3895 58.7416 34.3895C58.9413 34.3895 59.2628 34.3895 59.462 34.2959C59.6617 34.2035 59.7531 34.039 59.8073 33.7193C59.8219 33.634 59.8376 33.6026 59.8917 33.6026C59.9529 33.6026 59.9529 33.6643 59.9529 33.7429C59.9529 33.9218 59.8917 34.4522 59.8533 34.6074C59.7991 34.8099 59.7304 34.8099 59.4392 34.8099C58.7267 34.8099 58.2582 34.7921 57.8979 34.7785H57.8978C57.6727 34.77 57.4898 34.7631 57.316 34.7631C57.2399 34.7631 57.1066 34.7675 56.9551 34.7725C56.7555 34.7791 56.5241 34.7867 56.3499 34.7867C56.2504 34.7867 56.1968 34.7631 56.1968 34.7092C56.1968 34.6695 56.2271 34.6459 56.3196 34.6459C56.4344 34.6459 56.5264 34.631 56.5957 34.6145C56.7488 34.5832 56.7867 34.4126 56.8176 34.1859C56.856 33.859 56.856 33.2433 56.856 32.5264V31.1596ZM63.9482 31.7506C63.9482 32.5066 64.148 33.3787 64.8992 34.0494C65.5963 34.6663 66.4779 34.899 67.5284 34.8974C68.0188 34.8974 68.6017 34.8429 68.9085 34.718C69.0384 34.6646 69.0693 34.6244 69.1072 34.4929C69.184 34.2266 69.276 33.5487 69.276 33.4552C69.276 33.3936 69.2609 33.338 69.2073 33.338C69.1456 33.338 69.1304 33.3694 69.1072 33.4937C69.0769 33.6346 68.9773 33.8602 68.8468 34.0093C68.54 34.3664 68.1265 34.4456 67.444 34.4456C66.4168 34.4456 65.0296 33.5262 65.0296 31.6719C65.0296 30.9153 65.1752 30.1741 65.7343 29.6525C66.072 29.3416 66.5088 29.1694 67.1756 29.1694C67.8808 29.1694 68.4788 29.3807 68.7316 29.6525C68.9237 29.855 69.0233 30.1285 69.0309 30.37C69.0309 30.4806 69.046 30.5422 69.1072 30.5422C69.1765 30.5422 69.1916 30.4806 69.1992 30.3634C69.2073 30.2828 69.2092 30.1292 69.2112 29.9641V29.9639V29.9638V29.9637V29.9636V29.9635V29.9634V29.9633V29.9633C69.2131 29.8094 69.2151 29.6456 69.2225 29.5215C69.2317 29.3558 69.2439 29.2562 69.2521 29.1898C69.2573 29.1471 69.2609 29.1181 69.2609 29.094C69.2609 29.0461 69.23 29.0071 69.1456 28.9994C69.0274 28.9872 68.9048 28.9627 68.774 28.9366C68.6509 28.912 68.5204 28.886 68.3792 28.8673C68.0269 28.82 67.7428 28.7892 67.2676 28.7892C66.1256 28.7892 65.3971 29.1001 64.845 29.6151C64.1095 30.3012 63.9482 31.2212 63.9482 31.7506ZM71.3067 31.1595C71.3067 29.9743 71.3067 29.7559 71.291 29.5066C71.2764 29.242 71.199 29.1088 71.0307 29.0703C70.9463 29.0466 70.8467 29.0384 70.7542 29.0384C70.6778 29.0384 70.6318 29.0241 70.6318 28.9602C70.6318 28.914 70.6935 28.8981 70.8158 28.8981C70.9711 28.8981 71.1809 28.9048 71.3767 28.9111C71.5481 28.9166 71.7087 28.9217 71.8128 28.9217C71.8983 28.9217 72.0361 28.917 72.1885 28.9118L72.1886 28.9118C72.3766 28.9053 72.5866 28.8981 72.7475 28.8981C72.8476 28.8981 72.9088 28.914 72.9088 28.9602C72.9088 29.0224 72.8633 29.0384 72.7859 29.0384C72.7096 29.0384 72.6479 29.0466 72.5559 29.062C72.3491 29.1 72.288 29.2343 72.2723 29.5066C72.2571 29.7559 72.2571 29.9743 72.2571 31.1595V32.5307V32.5313C72.2571 33.2865 72.2571 33.902 72.288 34.2376C72.3107 34.4483 72.3643 34.5886 72.5943 34.6189C72.7009 34.6343 72.8703 34.6502 72.9851 34.6502C73.0695 34.6502 73.1079 34.6739 73.1079 34.7135C73.1079 34.7674 73.0473 34.7911 72.9623 34.7911C72.6538 34.7911 72.3539 34.7823 72.1198 34.7754C71.97 34.771 71.8471 34.7674 71.7662 34.7674C71.6901 34.7674 71.5569 34.7718 71.4055 34.7769L71.4054 34.7769C71.206 34.7835 70.9748 34.7911 70.8007 34.7911C70.7011 34.7911 70.647 34.7674 70.647 34.7135C70.647 34.6739 70.6778 34.6502 70.7698 34.6502C70.8846 34.6502 70.9771 34.6354 71.0459 34.6189C71.199 34.5875 71.245 34.4555 71.2678 34.2299C71.3067 33.9019 71.3067 33.2862 71.3067 32.5307V31.1595ZM75.0408 29.3669L76.1833 29.335L76.1839 32.5319C76.1839 33.2483 76.1839 33.864 76.1454 34.192C76.1222 34.4176 76.0767 34.5887 75.923 34.6206C75.8543 34.6371 75.7623 34.652 75.6475 34.652C75.555 34.652 75.5247 34.6751 75.5247 34.7141C75.5247 34.7686 75.5777 34.7923 75.6778 34.7923C75.852 34.7923 76.0834 34.7846 76.2829 34.778H76.283L76.2831 34.778L76.2833 34.778C76.4346 34.773 76.5675 34.7686 76.6434 34.7686C76.7281 34.7686 76.8546 34.7723 77.0078 34.7767C77.2428 34.7836 77.5406 34.7923 77.847 34.7923C77.9315 34.7923 77.9926 34.7686 77.9926 34.7141C77.9926 34.6751 77.9547 34.652 77.8703 34.652C77.755 34.652 77.5862 34.636 77.479 34.6206C77.249 34.5887 77.203 34.417 77.1797 34.1986C77.1413 33.864 77.1413 33.2483 77.1413 32.5319V29.3361L78.1074 29.3592C78.7899 29.3746 78.9971 29.5942 79.0118 29.7961L79.0199 29.8809C79.0269 29.9986 79.0432 30.0377 79.1043 30.0377C79.1498 30.0377 79.1649 29.9903 79.173 29.9122C79.173 29.805 79.1795 29.6052 79.1856 29.416L79.1856 29.4154C79.1911 29.2455 79.1963 29.0843 79.1963 29.0065C79.1963 28.8904 79.1887 28.8442 79.1352 28.8442C79.1103 28.8442 79.0658 28.8535 78.9893 28.8694L78.9279 28.8822L78.911 28.8844C78.7967 28.8992 78.632 28.9207 78.3986 28.9207H75.3639C75.1101 28.9207 74.8189 28.9053 74.597 28.8822C74.4793 28.8727 74.405 28.8398 74.351 28.8158C74.3171 28.8007 74.2912 28.7892 74.2674 28.7892C74.2214 28.7892 74.1987 28.8354 74.1754 28.9366C74.1597 28.9988 74.0146 29.7086 74.0146 29.8341C74.0146 29.9205 74.0293 29.959 74.0834 29.959C74.1294 29.959 74.1527 29.9265 74.1678 29.8649C74.1824 29.8033 74.2208 29.7097 74.2977 29.5931C74.413 29.422 74.597 29.3818 75.0408 29.3669ZM81.8932 32.7707C81.893 32.3565 81.8178 32.1844 81.7209 31.9625L81.7167 31.953C81.6631 31.8287 80.6359 30.1142 80.368 29.7097C80.1764 29.4209 79.9848 29.2266 79.8387 29.1413C79.7385 29.0852 79.6087 29.0384 79.5172 29.0384C79.4555 29.0384 79.4014 29.0241 79.4014 28.9691C79.4014 28.9223 79.4555 28.8987 79.5475 28.8987C79.606 28.8987 79.743 28.9029 79.9008 28.9078L79.9011 28.9079L79.9013 28.9079L79.9016 28.9079C80.1156 28.9145 80.3676 28.9223 80.5136 28.9223C80.5788 28.9223 80.6693 28.9184 80.7769 28.9138C80.9345 28.907 81.1287 28.8987 81.3335 28.8987C81.4104 28.8987 81.4483 28.9223 81.4483 28.9691C81.4483 29.0111 81.4051 29.022 81.3133 29.0453L81.2799 29.0539C81.2107 29.0698 81.1722 29.132 81.1722 29.1947C81.1722 29.2569 81.2107 29.3493 81.2648 29.4599C81.3509 29.6473 82.0604 30.8958 82.3996 31.4925C82.4826 31.6386 82.5435 31.7457 82.5675 31.7885C82.6061 31.6946 82.8686 31.2159 83.134 30.7317L83.1343 30.7312C83.3976 30.251 83.6637 29.7656 83.7171 29.6454C83.7939 29.4731 83.8248 29.3411 83.8248 29.2398C83.8248 29.1628 83.7934 29.0759 83.6635 29.045C83.5942 29.0296 83.5255 29.0137 83.5255 28.9669C83.5255 28.9119 83.5639 28.8965 83.6554 28.8965C83.7861 28.8965 83.9147 28.9028 84.0391 28.9089L84.0393 28.9089C84.1559 28.9146 84.2687 28.9201 84.3763 28.9201C84.4634 28.9201 84.6408 28.9138 84.812 28.9077L84.8122 28.9077L84.8124 28.9077L84.8128 28.9077L84.813 28.9077L84.8131 28.9077C84.9724 28.902 85.1261 28.8965 85.1962 28.8965C85.2807 28.8965 85.3342 28.9119 85.3342 28.9581C85.3342 29.0137 85.2736 29.0362 85.1887 29.0362C85.1123 29.0362 84.9668 29.0682 84.8509 29.1298C84.6902 29.209 84.6063 29.302 84.4374 29.5116C84.1847 29.8231 83.1114 31.6554 82.9734 31.9899C82.8582 32.2705 82.8582 32.5121 82.8582 32.7696V33.4073C82.8582 33.5333 82.8582 33.8596 82.8814 34.1876C82.896 34.4132 82.9653 34.5854 83.1959 34.6156C83.3025 34.631 83.4714 34.6465 83.5791 34.6465C83.6629 34.6465 83.7014 34.6701 83.7014 34.7097C83.7014 34.7642 83.6402 34.7879 83.5406 34.7879C83.2488 34.7879 82.9568 34.7792 82.7258 34.7724L82.7257 34.7724C82.5746 34.7679 82.4496 34.7642 82.3678 34.7642C82.2816 34.7642 82.1363 34.769 81.9767 34.7743L81.9758 34.7743L81.9755 34.7743C81.7808 34.7807 81.565 34.7879 81.4093 34.7879C81.3027 34.7879 81.2404 34.7725 81.2404 34.7097C81.2404 34.6701 81.2789 34.6465 81.3628 34.6465C81.4705 34.6465 81.5625 34.6321 81.6312 34.6156C81.7844 34.5843 81.8536 34.4132 81.8693 34.1876C81.8921 33.8597 81.8921 33.5335 81.8921 33.4074V33.4073V32.7707H81.8932ZM91.5807 28.7897C89.281 28.7897 88.415 30.5125 88.415 31.8451C88.415 33.224 89.3037 34.8989 91.5049 34.8995C93.4517 34.8995 94.6781 33.4892 94.6781 31.7043C94.6781 29.9204 93.4895 28.7897 91.5807 28.7897ZM91.3582 29.1633C92.616 29.1633 93.6048 30.2467 93.6048 31.9921C93.6048 34.2453 92.3627 34.5088 91.8269 34.5088C90.3548 34.5088 89.4726 33.2235 89.4726 31.6025C89.4726 29.6612 90.4771 29.1633 91.3582 29.1633ZM97.6375 32.5308C97.6375 33.2786 97.6375 33.8635 97.6759 34.1904C97.6981 34.417 97.7441 34.5893 97.9752 34.619C98.0818 34.6349 98.2507 34.6503 98.3573 34.6503C98.4574 34.6503 98.4883 34.674 98.4883 34.7136C98.4883 34.7675 98.4347 34.7918 98.3194 34.7918C98.0253 34.7918 97.7315 34.7828 97.5016 34.7758L97.5015 34.7758L97.5013 34.7758C97.3536 34.7713 97.2323 34.7675 97.1542 34.7675C97.064 34.7675 96.9157 34.7725 96.7533 34.7779H96.7532C96.5568 34.7845 96.3399 34.7918 96.1805 34.7918C96.0734 34.7918 96.0198 34.7758 96.0198 34.7136C96.0198 34.674 96.0506 34.6503 96.1351 34.6503C96.2498 34.6503 96.3413 34.636 96.4105 34.619C96.5642 34.5882 96.6021 34.417 96.6335 34.1904C96.6714 33.8636 96.6714 33.2799 96.6714 32.5313V32.5308V31.1596C96.6714 29.9744 96.6714 29.756 96.6562 29.5067C96.6411 29.2421 96.5789 29.1177 96.3267 29.0621C96.2655 29.0467 96.1351 29.039 96.0279 29.039C95.951 29.039 95.8975 29.0242 95.8975 28.9769C95.8975 28.9147 95.9586 28.8987 96.0734 28.8987C96.3013 28.8987 96.5571 28.9065 96.7759 28.9131H96.7759C96.9395 28.9181 97.0823 28.9224 97.1774 28.9224H97.1777C97.4688 28.9224 99.0247 28.9224 99.2005 28.9141L99.2348 28.9122L99.2816 28.9097C99.3823 28.9044 99.453 28.9007 99.515 28.8822C99.5327 28.8763 99.5492 28.868 99.5651 28.8601C99.5906 28.8473 99.6144 28.8354 99.6384 28.8354C99.6692 28.8354 99.692 28.8668 99.692 28.9053C99.692 28.9287 99.685 28.9591 99.6752 29.0019C99.662 29.0596 99.6436 29.1398 99.6303 29.2558C99.6278 29.2838 99.6243 29.3586 99.6202 29.4478C99.6125 29.6127 99.6026 29.8272 99.5924 29.8875C99.5848 29.9486 99.5691 29.9964 99.5155 29.9964C99.4614 29.9964 99.4463 29.9574 99.4381 29.871C99.4381 29.8088 99.4381 29.6839 99.3927 29.5755C99.3391 29.466 99.1783 29.3488 98.8861 29.3406L97.7062 29.3169C97.6602 29.3169 97.6369 29.3406 97.6369 29.427V31.3748C97.6369 31.4216 97.644 31.4447 97.6911 31.4447L98.6718 31.4364C98.8022 31.4364 98.9094 31.4364 99.0176 31.4282C99.1632 31.4205 99.2704 31.3902 99.3467 31.2879C99.3528 31.2804 99.3583 31.2734 99.3635 31.2668L99.3636 31.2666L99.364 31.2662C99.391 31.2316 99.4082 31.2097 99.4463 31.2097C99.4771 31.2097 99.4928 31.2334 99.4928 31.2801C99.4928 31.2996 99.4861 31.3444 99.4767 31.4076C99.4634 31.4966 99.4446 31.6219 99.4316 31.7633C99.4159 31.9184 99.4008 32.2777 99.4008 32.3311C99.4008 32.4026 99.4008 32.4802 99.3234 32.4802C99.2774 32.4802 99.2622 32.4246 99.2622 32.3724C99.2622 32.3168 99.2476 32.2233 99.2168 32.1308C99.1784 32.0219 99.0636 31.8816 98.8255 31.8491C98.6339 31.8265 97.8215 31.8265 97.6911 31.8265C97.6526 31.8265 97.6369 31.8414 97.6369 31.8964L97.6375 32.5308ZM105.218 34.5948C105.066 34.5403 104.965 34.3373 104.95 33.7298L104.866 30.4581H104.889C104.906 30.4768 104.935 30.5088 104.974 30.5522L105.066 30.6543C105.387 31.0129 106.054 31.7588 106.713 32.4213C107.041 32.7512 107.399 33.1178 107.742 33.4678L107.742 33.468C108.233 33.9697 108.69 34.437 108.975 34.7125C109.059 34.7995 109.151 34.8847 109.235 34.8847C109.304 34.8847 109.335 34.8154 109.335 34.6432L109.419 29.7263C109.426 29.2894 109.487 29.126 109.702 29.0632C109.793 29.0396 109.855 29.0396 109.932 29.0396C110.025 29.0396 110.07 29.017 110.07 28.9703C110.07 28.9075 109.994 28.8998 109.894 28.8998C109.638 28.8998 109.422 28.9107 109.283 28.9177L109.283 28.9177L109.283 28.9177C109.217 28.921 109.169 28.9235 109.142 28.9235C109.079 28.9235 108.986 28.9199 108.871 28.9155C108.691 28.9087 108.458 28.8998 108.215 28.8998C108.1 28.8998 108.016 28.9075 108.016 28.9703C108.016 29.017 108.046 29.0396 108.139 29.0396C108.246 29.0396 108.43 29.0396 108.545 29.0869C108.728 29.1639 108.797 29.3125 108.805 29.7874L108.882 33.2863H108.844C108.789 33.2336 108.573 33.0032 108.302 32.7148C107.932 32.3197 107.46 31.8155 107.158 31.5096C106.039 30.3789 104.873 29.1089 104.782 29.0077L104.768 28.993C104.748 28.9709 104.729 28.9498 104.712 28.9301C104.624 28.8315 104.566 28.7661 104.499 28.7661C104.421 28.7661 104.398 28.8751 104.398 29.0313L104.329 33.644C104.322 34.3224 104.29 34.5485 104.092 34.6107C103.985 34.641 103.847 34.6498 103.746 34.6498C103.67 34.6498 103.623 34.6646 103.623 34.712C103.623 34.7818 103.692 34.7907 103.792 34.7907C104.073 34.7907 104.336 34.7786 104.49 34.7715L104.561 34.7683C104.588 34.7671 104.608 34.7664 104.619 34.7664C104.671 34.7664 104.742 34.7694 104.834 34.7733C105.005 34.7805 105.248 34.7907 105.571 34.7907C105.678 34.7907 105.746 34.7736 105.746 34.712C105.746 34.6646 105.701 34.6498 105.616 34.6498C105.494 34.6498 105.348 34.641 105.218 34.5948ZM112.169 31.1596V31.1579C112.169 29.9742 112.169 29.7558 112.153 29.5067C112.139 29.242 112.077 29.1177 111.825 29.0621C111.764 29.0467 111.633 29.0384 111.525 29.0384C111.442 29.0384 111.396 29.0241 111.396 28.9685C111.396 28.9141 111.45 28.8981 111.564 28.8981C111.8 28.8981 112.062 28.9061 112.281 28.9128C112.441 28.9176 112.578 28.9218 112.667 28.9218C112.914 28.9218 114.439 28.9218 114.585 28.9141C114.731 28.8981 114.852 28.8822 114.913 28.8667C114.929 28.8638 114.945 28.8584 114.961 28.8531C114.987 28.8446 115.013 28.8359 115.037 28.8359C115.074 28.8359 115.083 28.8667 115.083 28.9053C115.083 28.9233 115.079 28.9456 115.073 28.98C115.06 29.0503 115.038 29.1715 115.022 29.412C115.019 29.4421 115.015 29.5118 115.01 29.5912C115.002 29.7179 114.993 29.8697 114.984 29.9265C114.976 29.9661 114.961 30.0134 114.907 30.0134C114.852 30.0134 114.837 29.9727 114.837 29.9028C114.837 29.8489 114.829 29.7169 114.792 29.6233C114.737 29.4825 114.662 29.3889 114.278 29.3422C114.149 29.3267 113.343 29.3102 113.19 29.3102C113.152 29.3102 113.134 29.3339 113.134 29.3889V31.361C113.134 31.416 113.144 31.4457 113.19 31.4457C113.358 31.4457 114.239 31.4457 114.417 31.4309C114.6 31.416 114.715 31.3923 114.785 31.3137L114.801 31.295C114.845 31.2444 114.873 31.2119 114.908 31.2119C114.939 31.2119 114.962 31.2273 114.962 31.2746C114.962 31.2882 114.959 31.3087 114.953 31.3411C114.941 31.4183 114.917 31.563 114.901 31.843C114.886 31.9987 114.87 32.3107 114.87 32.3641C114.87 32.4262 114.87 32.5126 114.801 32.5126C114.746 32.5126 114.732 32.4818 114.732 32.4427C114.731 32.4322 114.73 32.4213 114.729 32.41L114.726 32.3672C114.721 32.3041 114.717 32.2331 114.701 32.1616C114.663 32.0064 114.555 31.8892 114.272 31.8578C114.125 31.843 113.367 31.8342 113.183 31.8342C113.145 31.8342 113.136 31.8666 113.136 31.9129V32.5286C113.136 32.605 113.135 32.7195 113.135 32.849V32.8502V32.8508V32.8516C113.133 33.1691 113.131 33.5759 113.136 33.7358C113.152 34.2745 113.275 34.3895 114.057 34.3895C114.255 34.3895 114.578 34.3895 114.777 34.2959C114.976 34.2035 115.068 34.039 115.121 33.7193C115.136 33.634 115.152 33.6026 115.207 33.6026C115.267 33.6026 115.267 33.6643 115.267 33.7429C115.267 33.9218 115.207 34.4522 115.166 34.6074C115.113 34.8099 115.044 34.8099 114.753 34.8099C114.04 34.8099 113.571 34.7921 113.211 34.7785H113.211L113.211 34.7785L113.21 34.7785C112.985 34.77 112.803 34.7631 112.629 34.7631C112.553 34.7631 112.421 34.7675 112.269 34.7725C112.07 34.7791 111.838 34.7867 111.664 34.7867C111.563 34.7867 111.511 34.7631 111.511 34.7092C111.511 34.6695 111.542 34.6459 111.634 34.6459C111.748 34.6459 111.841 34.631 111.91 34.6145C112.062 34.5832 112.101 34.4126 112.131 34.1859C112.169 33.859 112.169 33.2433 112.169 32.5264V31.1596H112.169ZM116.443 29.1089C116.551 29.1876 116.634 29.3746 116.726 29.6624L118.355 34.6118C118.415 34.8148 118.453 34.8996 118.529 34.8996C118.618 34.8996 118.656 34.8154 118.785 34.5342L118.807 34.4869C119.137 33.7699 120.156 31.0116 120.301 30.6138H120.316L121.911 34.5188C122.026 34.806 122.072 34.8996 122.148 34.8996C122.247 34.8996 122.285 34.806 122.37 34.5331C122.745 33.365 123.551 30.8867 123.904 29.9045C123.927 29.8407 123.949 29.7796 123.969 29.7216C124.091 29.3761 124.175 29.1395 124.333 29.0792C124.417 29.0483 124.523 29.0395 124.601 29.0395C124.67 29.0395 124.708 29.017 124.708 28.9609C124.708 28.9146 124.654 28.8998 124.569 28.8998C124.397 28.8998 124.188 28.9108 124.056 28.9178L123.993 28.9211C123.964 28.9225 123.943 28.9234 123.933 28.9234C123.913 28.9234 123.871 28.9214 123.812 28.9186C123.669 28.9117 123.424 28.8998 123.136 28.8998C123.02 28.8998 122.96 28.9146 122.96 28.9702C122.96 29.017 123.013 29.0395 123.09 29.0395C123.389 29.0395 123.458 29.1496 123.458 29.2734C123.458 29.3829 123.435 29.5469 123.381 29.7262C123.309 29.9707 123.212 30.2977 123.107 30.6554C122.818 31.6309 122.462 32.8349 122.361 33.2169H122.337L120.744 29.2971L120.723 29.244C120.639 29.0316 120.6 28.9311 120.523 28.9311C120.461 28.9311 120.415 28.9939 120.33 29.2118L118.843 33.272H118.821C118.684 32.8356 117.971 30.4746 117.84 29.9595C117.823 29.8955 117.807 29.8343 117.791 29.7764L117.791 29.7748L117.79 29.7734C117.722 29.5161 117.671 29.325 117.671 29.2426C117.671 29.1556 117.686 29.1017 117.755 29.0704C117.809 29.0384 117.885 29.0384 117.946 29.0384C118.023 29.0384 118.084 29.0313 118.084 28.9691C118.084 28.9223 118.03 28.8987 117.923 28.8987C117.604 28.8987 117.34 28.9109 117.192 28.9177L117.191 28.9178L117.12 28.921C117.099 28.9218 117.083 28.9223 117.073 28.9223C117.052 28.9223 117.001 28.9203 116.929 28.9174L116.929 28.9174L116.929 28.9174C116.756 28.9104 116.464 28.8987 116.183 28.8987C116.075 28.8987 116.014 28.9141 116.014 28.9691C116.014 29.0313 116.06 29.0384 116.137 29.0384C116.206 29.0384 116.36 29.0538 116.443 29.1089ZM129.662 32.7707C129.662 32.3565 129.586 32.1844 129.489 31.9625L129.485 31.953C129.431 31.8287 128.404 30.1142 128.137 29.7097C127.945 29.4209 127.754 29.2266 127.608 29.1413C127.507 29.0852 127.377 29.0384 127.285 29.0384C127.224 29.0384 127.17 29.0241 127.17 28.9691C127.17 28.9223 127.224 28.8987 127.316 28.8987C127.374 28.8987 127.512 28.903 127.67 28.9079C127.884 28.9145 128.136 28.9223 128.282 28.9223C128.347 28.9223 128.438 28.9184 128.546 28.9138C128.704 28.907 128.898 28.8987 129.103 28.8987C129.179 28.8987 129.217 28.9223 129.217 28.9691C129.217 29.0113 129.174 29.0221 129.08 29.0457L129.048 29.0539C128.979 29.0698 128.941 29.132 128.941 29.1947C128.941 29.2569 128.979 29.3493 129.033 29.4599C129.114 29.6368 129.752 30.7593 130.108 31.3864C130.222 31.5863 130.307 31.7359 130.336 31.7885C130.374 31.6946 130.637 31.2156 130.903 30.7313L130.903 30.7302L130.903 30.7297C131.166 30.25 131.432 29.7655 131.485 29.6454C131.562 29.4731 131.593 29.3411 131.593 29.2398C131.593 29.1628 131.561 29.0759 131.432 29.045C131.363 29.0296 131.293 29.0137 131.293 28.9669C131.293 28.9119 131.331 28.8965 131.423 28.8965C131.555 28.8965 131.683 28.9028 131.808 28.9089C131.924 28.9146 132.036 28.9201 132.144 28.9201C132.232 28.9201 132.41 28.9138 132.581 28.9077C132.741 28.902 132.895 28.8965 132.965 28.8965C133.048 28.8965 133.103 28.9119 133.103 28.9581C133.103 29.0137 133.042 29.0362 132.957 29.0362C132.88 29.0362 132.734 29.0682 132.619 29.1298C132.458 29.209 132.375 29.302 132.205 29.5116C131.952 29.8231 130.88 31.6554 130.741 31.9899C130.626 32.2705 130.626 32.5121 130.626 32.7696V33.4073C130.626 33.5333 130.626 33.8596 130.649 34.1876C130.665 34.4132 130.734 34.5854 130.963 34.6156C131.071 34.631 131.239 34.6465 131.347 34.6465C131.431 34.6465 131.47 34.6701 131.47 34.7097C131.47 34.7642 131.409 34.7879 131.309 34.7879C131.016 34.7879 130.725 34.7792 130.494 34.7724C130.343 34.7679 130.218 34.7642 130.136 34.7642C130.049 34.7642 129.904 34.769 129.744 34.7743L129.744 34.7743C129.549 34.7807 129.333 34.7879 129.177 34.7879C129.07 34.7879 129.008 34.7725 129.008 34.7097C129.008 34.6701 129.046 34.6465 129.132 34.6465C129.238 34.6465 129.33 34.6321 129.4 34.6156C129.553 34.5843 129.621 34.4132 129.637 34.1876C129.661 33.8596 129.661 33.5333 129.661 33.4073V32.7707H129.662ZM136.507 28.7897C134.209 28.7897 133.342 30.5125 133.342 31.8451C133.342 33.224 134.231 34.8989 136.432 34.8995C138.378 34.8995 139.604 33.4892 139.604 31.7043C139.604 29.9204 138.417 28.7897 136.507 28.7897ZM136.286 29.1633C137.543 29.1633 138.532 30.2467 138.532 31.9921C138.532 34.2453 137.289 34.5088 136.754 34.5088C135.282 34.5088 134.399 33.2235 134.399 31.6025C134.399 29.6612 135.404 29.1633 136.286 29.1633ZM141.601 31.1596V31.156C141.601 29.9745 141.601 29.7557 141.585 29.5067C141.57 29.242 141.507 29.1188 141.255 29.0621C141.195 29.0478 141.064 29.0384 140.956 29.0384C140.873 29.0384 140.827 29.0241 140.827 28.9691C140.827 28.9141 140.88 28.8987 140.996 28.8987C141.245 28.8987 141.524 28.9076 141.738 28.9145L141.739 28.9145L141.739 28.9145C141.874 28.9188 141.983 28.9223 142.045 28.9223C142.178 28.9223 142.396 28.9161 142.609 28.9101C142.812 28.9043 143.01 28.8987 143.126 28.8987C143.61 28.8987 144.122 28.9454 144.536 29.2332C144.75 29.3818 145.057 29.7791 145.057 30.3001C145.057 30.8773 144.82 31.4083 144.045 32.0466C144.142 32.1706 144.236 32.2911 144.327 32.4078C144.877 33.1124 145.321 33.6822 145.709 34.0962C146.127 34.5365 146.437 34.5995 146.559 34.6243L146.568 34.6261C146.651 34.642 146.721 34.6487 146.782 34.6487C146.843 34.6487 146.873 34.6723 146.873 34.7119C146.873 34.7736 146.82 34.7901 146.728 34.7901H146C145.57 34.7901 145.379 34.7515 145.178 34.642C144.85 34.4627 144.558 34.0962 144.129 33.4965C143.995 33.3084 143.851 33.1009 143.724 32.9173L143.724 32.9167L143.723 32.9159L143.723 32.9158C143.561 32.6815 143.426 32.4864 143.371 32.4207C143.333 32.3745 143.286 32.3646 143.232 32.3646L142.567 32.3509C142.529 32.3509 142.505 32.3646 142.505 32.4125V32.5214V32.5223C142.505 33.2461 142.505 33.8619 142.542 34.1881C142.567 34.4148 142.612 34.5865 142.842 34.6167C142.957 34.6321 143.126 34.6481 143.217 34.6481C143.278 34.6481 143.31 34.6718 143.31 34.7114C143.31 34.7653 143.255 34.789 143.157 34.789C142.862 34.789 142.513 34.7786 142.278 34.7715C142.159 34.768 142.069 34.7653 142.03 34.7653C141.97 34.7653 141.854 34.7693 141.717 34.7739L141.717 34.7739C141.519 34.7807 141.276 34.789 141.095 34.789C140.995 34.789 140.941 34.7653 140.941 34.7114C140.941 34.6718 140.973 34.6481 141.065 34.6481C141.179 34.6481 141.271 34.6332 141.341 34.6167C141.494 34.5854 141.532 34.4148 141.563 34.1881C141.602 33.8613 141.602 33.2455 141.602 32.5286L141.601 31.1596ZM142.505 31.7748C142.505 31.8601 142.519 31.8914 142.574 31.9151C142.734 31.9701 142.965 31.9932 143.156 31.9932C143.462 31.9932 143.564 31.9624 143.701 31.8612C143.931 31.6889 144.152 31.3313 144.152 30.6919C144.152 29.5854 143.432 29.2657 142.98 29.2657C142.788 29.2657 142.651 29.2739 142.574 29.2976C142.519 29.3125 142.505 29.3444 142.505 29.4065V31.7748ZM148.751 31.5024H148.715V31.1596C148.715 29.9755 148.715 29.7559 148.731 29.5067C148.745 29.2349 148.807 29.1012 149.013 29.0627L149.036 29.0589C149.113 29.0463 149.157 29.039 149.227 29.039C149.289 29.039 149.335 29.0241 149.335 28.9697C149.335 28.9152 149.281 28.8992 149.174 28.8992C149.032 28.8992 148.824 28.9062 148.635 28.9126C148.476 28.918 148.33 28.9229 148.246 28.9229C148.173 28.9229 148.051 28.9191 147.906 28.9145L147.905 28.9145L147.905 28.9145C147.688 28.9077 147.417 28.8992 147.174 28.8992C147.058 28.8992 147.005 28.9152 147.005 28.9697C147.005 29.0241 147.05 29.039 147.134 29.039C147.241 29.039 147.373 29.0478 147.433 29.0627C147.685 29.1188 147.748 29.2426 147.763 29.5067C147.778 29.7559 147.778 29.9755 147.778 31.1596V32.5313C147.778 33.2489 147.778 33.8635 147.74 34.1914C147.708 34.417 147.671 34.5887 147.517 34.62C147.448 34.6365 147.357 34.6514 147.241 34.6514C147.149 34.6514 147.119 34.6751 147.119 34.7136C147.119 34.7681 147.172 34.7917 147.272 34.7917C147.446 34.7917 147.678 34.7841 147.877 34.7775C148.028 34.7724 148.161 34.7681 148.237 34.7681C148.313 34.7681 148.437 34.7718 148.584 34.7764C148.806 34.7832 149.083 34.7917 149.341 34.7917C149.426 34.7917 149.486 34.7681 149.486 34.7136C149.486 34.6751 149.449 34.6514 149.387 34.6514C149.288 34.6514 149.118 34.6354 149.011 34.62C148.819 34.5887 148.751 34.4165 148.735 34.1986C148.712 33.8635 148.712 33.2489 148.712 32.5313V31.8215H148.751L148.835 31.9398C148.996 32.1643 150.506 33.9647 150.843 34.2684C151.173 34.5645 151.379 34.7372 151.794 34.7752C151.955 34.7906 152.092 34.7906 152.322 34.7906H152.99C153.135 34.7906 153.173 34.767 153.173 34.713C153.173 34.6657 153.127 34.6498 153.073 34.6498C152.982 34.6498 152.828 34.6272 152.598 34.5337C152.207 34.3779 151.877 34.0559 151.557 33.7442L151.503 33.6918C151.203 33.4018 149.7 31.7588 149.425 31.3935C149.686 31.1117 150.844 29.9425 151.081 29.7086C151.41 29.3818 151.671 29.2184 151.909 29.1237C152.053 29.0704 152.246 29.0384 152.353 29.0384C152.43 29.0384 152.468 29.0236 152.468 28.9691C152.468 28.9141 152.415 28.8987 152.338 28.8987C152.219 28.8987 152.055 28.9046 151.89 28.9105C151.725 28.9164 151.56 28.9223 151.441 28.9223C151.331 28.9223 151.161 28.9157 151.001 28.9094L151.001 28.9094C150.86 28.9039 150.727 28.8987 150.652 28.8987C150.566 28.8987 150.529 28.9141 150.529 28.9691C150.529 29.0159 150.559 29.0318 150.628 29.0467C150.705 29.0621 150.736 29.1177 150.736 29.2024C150.736 29.3287 150.585 29.509 150.388 29.7451L150.353 29.7873C150.222 29.9418 149.786 30.4035 149.393 30.818C149.115 31.1122 148.859 31.3827 148.751 31.5024ZM19.9539 20.7668V21.9658H13.089H12.9342H6.06934V20.7668H12.9342H13.089H19.9539Z" fill="#2B3F6C"/>
</svg>
